<svg width="116" height="175" viewBox="0 0 116 175" fill="none" xmlns="http://www.w3.org/2000/svg">
<path d="M28.3736 75.6327C23.6503 76.0223 20.0932 79.4942 18.3095 83.742C15.9839 89.2757 17.1365 95.4025 18.2513 101.081C20.4705 112.383 21.3178 125.002 14.2037 134.828C10.9622 139.303 6.28693 142.675 0.829584 143.724C0.21559 143.841 -0.110254 144.572 0.0338116 145.134C1.39214 150.481 3.6423 155.791 6.45501 160.514C8.56112 164.052 11.0891 167.362 14.533 169.668C17.4863 171.647 20.9096 172.923 24.3603 173.695C26.5179 174.178 28.7715 174.544 30.9873 174.582C31.8037 174.595 32.2359 174.282 32.8774 173.816C36.6505 171.079 40.0875 167.845 43.202 164.373C49.4826 157.377 54.4152 149.254 57.6498 140.407C58.1574 139.017 55.9518 138.421 55.4476 139.797C50.9884 152.009 42.8762 163.311 32.6029 171.182C32.1879 171.503 31.766 171.813 31.3338 172.116C31.2275 172.192 31.0697 172.265 30.9839 172.358C30.6409 172.734 31.104 171.665 31.4127 172.296C31.3749 172.216 30.2567 172.247 30.1572 172.24C29.1625 172.175 28.1712 172.061 27.1867 171.906C24.0996 171.41 21.0194 170.558 18.2135 169.151C14.6908 167.386 12.0221 164.79 9.81652 161.538C6.35894 156.449 3.75205 150.495 2.2325 144.517C1.96838 144.986 1.70085 145.458 1.43672 145.927C11.2812 144.041 18.3473 135.338 20.8444 125.954C22.3331 120.354 22.4463 114.455 21.8049 108.721C21.112 102.543 19.023 96.4127 19.2528 90.1583C19.4449 84.9004 22.484 78.4082 28.377 77.922C29.8314 77.8014 29.8451 75.5086 28.377 75.6292L28.3736 75.6327Z" fill="#C7D4F2"/>
<path d="M51.2131 144.764C57.8419 141.503 63.5863 136.654 68.0318 130.748C72.5287 124.772 75.2741 117.871 76.7993 110.577C79.8258 96.1296 78.9792 79.8848 89.056 68.0138C93.8717 62.3417 100.607 56.8074 100.607 48.6936C100.607 47.2196 98.324 47.2161 98.3274 48.6936C98.3274 55.695 92.4013 60.7299 88.158 65.5686C83.4315 70.9583 80.4908 77.1573 78.8318 84.1277C75.4283 98.4301 76.2886 113.793 68.1244 126.615C63.7063 133.554 57.4169 139.164 50.0615 142.787C48.7419 143.435 49.897 145.412 51.2131 144.768V144.764Z" fill="#C7D4F2"/>
<path d="M28.9459 95.795C34.1364 93.1991 38.784 89.5235 42.5233 85.0482C41.9291 84.5845 41.3349 84.1172 40.7373 83.6534C38.3162 88.1632 38.5962 93.9675 41.5808 98.1486C41.9394 98.6504 42.5677 98.8961 43.1346 98.5604C43.6263 98.2697 43.9029 97.4909 43.5409 96.9856C41.0276 93.4657 40.6349 88.6547 42.6975 84.8163C43.2882 83.7157 41.7789 82.3832 40.9115 83.4215C37.2781 87.7652 32.832 91.2886 27.7916 93.8083C26.4803 94.4625 27.6311 96.4526 28.939 95.7984L28.9459 95.795Z" fill="#C7D4F2"/>
<path d="M43.5476 95.5915C39.1916 98.7962 36.4809 103.765 36.2852 109.118C36.2308 110.64 38.6408 110.64 38.6951 109.118C38.8582 104.672 41.1196 100.311 44.7616 97.6331C45.2835 97.249 45.5481 96.6088 45.1929 96.0148C44.8921 95.5097 44.0659 95.2038 43.544 95.5915H43.5476Z" fill="#C7D4F2"/>
<path d="M45.9377 105.627C44.5278 106.947 43.0588 108.206 41.5634 109.424C39.1972 111.355 36.5155 113.493 33.7877 114.638C34.2478 114.997 34.7112 115.356 35.1713 115.715C35.1713 115.665 35.191 115.598 35.1812 115.551C35.1319 115.329 35.122 115.84 35.1713 115.621C35.191 115.531 35.2042 115.44 35.2239 115.35C35.2765 115.104 35.3521 114.866 35.4342 114.628C35.4605 114.557 35.4901 114.487 35.5164 114.416C35.4507 114.591 35.4441 114.574 35.5164 114.433C35.5985 114.262 35.6774 114.091 35.7694 113.923C35.8582 113.758 35.9535 113.597 36.0554 113.443C36.1145 113.352 36.1737 113.265 36.2328 113.174C36.2657 113.127 36.5023 112.815 36.338 113.023C36.6568 112.617 37.0052 112.234 37.3798 111.878C38.3132 110.992 39.4141 110.284 40.6399 109.659C42.6447 108.635 44.8203 107.991 47.0025 107.497C48.3762 107.185 47.7945 105.033 46.4208 105.342C42.7696 106.168 39.0263 107.474 36.1539 110.005C34.7966 111.2 33.6234 112.778 33.16 114.574C33.0647 114.94 32.9858 115.336 32.9858 115.715C32.9858 116.37 33.6957 117.075 34.3694 116.793C37.4915 115.484 40.2423 113.329 42.8681 111.204C44.4489 109.925 46.0001 108.598 47.4856 107.209C48.5241 106.235 46.9762 104.657 45.9377 105.627Z" fill="#C7D4F2"/>
<path d="M47.4512 108.304C52.5851 103.657 54.8195 96.8578 55.5906 90.1238C56.0464 86.1367 56.163 82.0182 56.0156 78.0103C55.8957 74.7246 54.1067 72.6757 50.8304 72.3889C46.8378 72.0434 42.4374 73.1767 38.7121 74.5173C37.3412 75.0113 37.9307 77.2329 39.3187 76.7354C41.2961 76.0236 43.3216 75.4639 45.3915 75.1011C47.2422 74.7764 49.3361 74.4171 51.2108 74.7349C53.2499 75.0804 53.7091 76.497 53.7434 78.4077C53.7845 80.6293 53.7469 82.8578 53.668 85.0794C53.3904 92.8775 51.8654 101.222 45.8371 106.677C44.7438 107.669 46.3614 109.289 47.4512 108.304Z" fill="#C7D4F2"/>
<path d="M24.5795 78.6743C24.7905 76.6677 25.1986 74.6915 25.8039 72.7591C26.3607 70.9785 27.0109 68.945 28.1384 67.4173C29.3282 65.8053 32.1366 65.6906 33.987 65.3163C36.1418 64.8813 38.3103 64.4901 40.4789 64.1292C44.8852 63.4042 49.3123 62.8174 53.7462 62.2845C55.9321 62.0215 58.1214 61.7652 60.3107 61.5156C62.0677 61.3167 63.3405 61.4887 64.3159 63.0501C65.312 64.6452 65.5782 66.5877 65.7892 68.4088C66.0659 70.8234 66.1731 73.2515 66.1385 75.683C66.1178 77.1263 68.4178 77.1297 68.4385 75.683C68.4766 73.1739 68.359 70.6682 68.0616 68.1761C67.8402 66.3179 67.56 64.4833 66.7507 62.7668C66.0728 61.3268 64.9799 59.9981 63.4097 59.4416C61.4106 58.7334 58.9411 59.4281 56.904 59.6676C51.8578 60.2577 46.8151 60.8783 41.7932 61.6573C39.2165 62.0586 36.6433 62.5037 34.0873 63.0096C31.9361 63.4345 29.1622 63.6234 27.3741 64.9757C25.5203 66.3752 24.6591 69.0428 23.9258 71.1235C23.0612 73.5719 22.5424 76.1011 22.2726 78.6743C22.1204 80.1109 24.4239 80.1008 24.5726 78.6743H24.5795Z" fill="#C7D4F2"/>
<path d="M65.3867 79.7436C64.8995 81.9382 64.4158 84.1327 63.9286 86.3307C63.5032 88.2592 63.191 90.3328 62.22 92.0747C61.2525 93.8165 59.5646 94.7566 57.88 95.6793C55.8215 96.806 53.7562 97.9292 51.6943 99.0524C50.4008 99.7574 51.5536 101.745 52.847 101.04C55.005 99.8611 57.1664 98.693 59.3176 97.5076C61.1565 96.4949 62.9165 95.3475 64.0315 93.5089C65.1019 91.7498 65.5205 89.6831 65.9631 87.6959C66.5051 85.249 67.0472 82.8022 67.5893 80.3588C67.9083 78.9176 65.7092 78.3024 65.3867 79.747V79.7436Z" fill="#C7D4F2"/>
<path d="M33.2732 64.1306C37.6484 59.6325 39.8068 52.6922 46.6283 51.3918C50.4381 50.6674 54.5324 50.9882 58.3936 50.9365C62.6729 50.8813 66.9624 50.7226 71.2416 50.7675C72.2112 50.7778 72.4751 51.0262 72.7149 51.9472C72.9993 53.0337 73.2288 54.141 73.4549 55.2414C73.8626 57.2386 74.2087 59.2531 74.4759 61.2744C75.0275 65.4483 75.2742 69.6704 75.2262 73.8821C75.2022 75.9277 75.2091 78.0456 74.8185 80.0601C74.4725 81.8503 73.6879 83.4302 72.9204 85.0617C72.0536 86.9003 71.3856 88.8423 70.7175 90.7602C68.7166 96.4828 66.9384 102.278 65.0335 108.032C64.5675 109.435 66.7705 110.039 67.2331 108.642C69.0558 103.13 70.7688 97.5797 72.6669 92.0882C73.3624 90.0703 74.0374 88.0179 74.9556 86.0897C75.8224 84.258 76.7063 82.4609 77.0661 80.4464C77.4361 78.3664 77.4806 76.2312 77.508 74.1201C77.5697 69.7221 77.299 65.3275 76.72 60.9674C76.4288 58.7632 76.0622 56.5694 75.61 54.3928C75.2879 52.844 75.144 50.5812 73.9997 49.367C72.7354 48.0286 70.4022 48.4805 68.7748 48.5012C66.469 48.5322 64.1632 48.5633 61.8574 48.5909C57.5234 48.6461 53.1448 48.5219 48.821 48.8254C44.7782 49.1083 41.2835 50.4398 38.5392 53.5132C36.0175 56.3314 34.3113 59.7843 31.6663 62.5024C30.6385 63.558 32.2488 65.1827 33.2801 64.1271L33.2732 64.1306Z" fill="#C7D4F2"/>
<path d="M69.7849 92.1434C66.4185 91.7922 64.0505 95.0901 63.2259 97.9991C62.2071 101.607 62.6262 105.486 64.2379 108.85C64.875 110.175 66.8308 109.015 66.1971 107.693C64.9295 105.046 64.5922 101.955 65.2873 99.0972C65.8018 96.9767 67.2397 94.1676 69.7849 94.4326C70.3948 94.498 70.9195 93.8612 70.9195 93.2863C70.9195 92.615 70.3982 92.2054 69.7849 92.14V92.1434Z" fill="#C7D4F2"/>
<path d="M59.942 95.4548C58.6217 98.6857 59.6766 102.819 62.3655 104.982C62.8516 105.373 63.5135 105.468 63.9892 104.982C64.3857 104.576 64.4788 103.715 63.9892 103.32C62.8585 102.414 62.2104 101.352 61.8691 100.005C61.8243 99.832 61.7864 99.6627 61.7553 99.4863C61.7415 99.4087 61.7278 99.3311 61.7174 99.2535C61.7484 99.4511 61.7105 99.1936 61.7071 99.1583C61.6726 98.788 61.6622 98.4141 61.6829 98.0438C61.6864 97.9662 61.6933 97.8885 61.7002 97.811C61.7002 97.818 61.7381 97.497 61.7209 97.6169C61.7036 97.7474 61.7519 97.4512 61.7553 97.4265C61.7691 97.3489 61.7864 97.2748 61.8036 97.1972C61.8898 96.8128 62.0104 96.4424 62.1587 96.0791C62.3965 95.4936 61.9001 94.7882 61.3589 94.6365C60.697 94.4496 60.1868 94.8693 59.9489 95.4548H59.942Z" fill="#C7D4F2"/>
<path d="M46.7675 50.8852C47.9471 46.0556 49.3183 41.2745 50.898 36.5661C52.3751 32.1658 53.8112 27.4746 56.1295 23.4413C57.2305 21.5233 58.6529 19.9481 60.5301 18.7883C62.4927 17.5731 64.6674 16.7387 66.7805 15.842C71.5641 13.8098 76.3476 11.7741 81.1312 9.74183C86.5199 7.44993 91.9121 5.15803 97.3009 2.86613C96.8222 2.49569 96.3401 2.12524 95.8614 1.75479C95.7417 4.53831 92.8216 6.57749 90.5889 7.67151C88.7698 8.56126 85.354 9.75914 83.7743 7.84115C82.8374 6.70212 81.2338 8.33969 82.1638 9.47179C84.4171 12.2068 88.7835 11.0436 91.4847 9.78337C94.6202 8.32237 97.9711 5.51462 98.1318 1.75826C98.1626 1.07969 97.3693 0.359592 96.6923 0.646945C86.6704 4.90877 76.6485 9.16713 66.6266 13.429C62.4243 15.2154 58.0579 16.7768 55.2405 20.6162C52.505 24.338 51.0689 29.178 49.5474 33.4952C47.6086 38.9999 45.9537 44.6016 44.5689 50.2759C44.2167 51.7161 46.4119 52.3289 46.7641 50.8887L46.7675 50.8852Z" fill="#C7D4F2"/>
<path d="M94.0404 6.94286C94.9971 10.4952 90.6311 12.4874 88.0845 13.7492C84.4838 15.5323 80.8796 17.3119 77.2789 19.0949C75.9464 19.7533 77.1188 21.7215 78.4478 21.0665C82.5008 19.0606 86.585 17.1027 90.6137 15.0454C93.8943 13.3686 97.3733 10.4129 96.2774 6.33937C95.8947 4.9198 93.6612 5.52329 94.0439 6.94629L94.0404 6.94286Z" fill="#C7D4F2"/>
<path d="M76.842 17.0711C75.6366 21.7145 71.6576 25.3919 66.8358 26.3786C66.21 26.5062 65.8473 27.2203 66.0109 27.7895C66.1887 28.4174 66.8394 28.721 67.4652 28.5899C73.055 27.4445 77.7274 23.0461 79.1249 17.6782C79.4982 16.2466 77.2154 15.6325 76.842 17.0676V17.0711Z" fill="#C7D4F2"/>
<path d="M67.0864 24.5081C65.4175 32.7288 63.1408 40.7991 60.2765 48.6561C59.766 50.0582 61.9252 50.6631 62.4323 49.275C65.2966 41.418 67.5734 33.3477 69.2423 25.127C69.5378 23.6654 67.3853 23.043 67.0864 24.5081Z" fill="#C7D4F2"/>
<path d="M84.1384 16.9221C80.2974 17.5517 77.3253 20.4189 75.6359 23.7481C73.8145 27.3305 72.7542 31.6416 72.5839 35.638C72.4205 39.4702 73.5781 43.2236 76.4598 45.9027C79.3832 48.6228 83.3216 49.8956 87.2913 50.0427C91.6051 50.2036 96.3778 49.2866 100.191 47.2542C103.504 45.4887 106.038 42.553 107.692 39.258C110.699 33.2737 112.041 24.7267 107.87 18.9237C105.433 15.5364 101.522 14.0035 97.4102 13.8016C95.189 13.6922 92.9469 13.9488 90.7708 14.3696C88.6469 14.7802 86.596 15.4372 85.004 16.9461C83.9299 17.9657 85.5671 19.5738 86.6412 18.5576C88.9389 16.3747 93.1867 16.0804 96.2179 16.0565C99.4958 16.0291 102.868 16.8058 105.176 19.2453C109.344 23.6489 108.52 30.9231 106.573 36.0965C105.45 39.0869 103.65 41.9337 101.102 43.9455C98.2896 46.1627 94.5737 47.1515 91.0559 47.5929C84.3227 48.438 76.1504 45.9677 75.0137 38.4334C74.4262 34.5534 75.5073 30.2251 76.8838 26.6017C78.2291 23.0604 80.7597 19.7723 84.7537 19.1187C86.2172 18.8792 85.5984 16.6826 84.1384 16.9221Z" fill="#C7D4F2"/>
<path d="M72.038 35.0976C70.5468 36.7183 68.2344 37.6048 67.2689 39.6755C66.5783 41.1575 66.5439 43.1132 67.8461 44.2839C69.5813 45.8505 72.5293 44.7948 74.5222 44.3617C77.2881 43.7628 80.0197 43.0219 82.7237 42.1895C88.07 40.5417 93.2926 38.5387 98.498 36.5119C103.013 34.7559 107.655 33.0472 111.537 30.1069C113.197 28.8516 116.052 26.8113 115.338 24.4023C114.509 21.6244 111.235 21.8003 108.981 22.3586C107.555 22.7139 108.16 24.8861 109.589 24.5309C110.541 24.294 111.829 23.8778 112.699 24.5173C113.75 25.2887 112.475 26.2971 111.84 26.8993C110.493 28.1817 108.957 29.2441 107.339 30.1678C104.002 32.066 100.364 33.3855 96.7904 34.7728C88.9565 37.8112 81.0333 40.765 72.7595 42.4365C71.9074 42.6091 70.0829 43.2722 69.358 42.6091C68.8563 42.1489 69.0796 41.2117 69.3099 40.6838C70.0761 38.9447 72.3919 38.065 73.6563 36.6913C74.6424 35.6187 73.0309 34.0217 72.038 35.0976Z" fill="#C7D4F2"/>
<path d="M85.6437 49.3795C81.1548 51.6736 77.4376 55.4019 75.1862 59.8716C74.9043 60.4321 75.0347 61.1248 75.6055 61.4555C76.1234 61.7549 76.9268 61.6017 77.2086 61.0413C79.298 56.8918 82.6593 53.5081 86.824 51.3777C88.1629 50.6919 86.979 48.6937 85.6401 49.376L85.6437 49.3795Z" fill="#C7D4F2"/>
<path d="M55.1986 98.1249C56.0704 104.993 54.4199 111.921 50.4951 117.698C49.6819 118.899 51.6667 120.012 52.4764 118.822C56.5942 112.756 58.4067 105.334 57.4936 98.1249C57.3144 96.7206 55.0195 96.7039 55.2021 98.1249H55.1986Z" fill="#C7D4F2"/>
<path d="M47.4204 125.622L45.5063 128.456C45.1906 128.924 45.3933 129.654 45.9018 129.914C46.4534 130.196 47.0781 130.032 47.4137 129.533L49.3279 126.698C49.6435 126.231 49.4409 125.5 48.9324 125.241C48.3808 124.959 47.756 125.122 47.4204 125.622Z" fill="#C7D4F2"/>
<path d="M6.15659 142.911C5.48393 146.035 4.81129 149.162 4.14182 152.286C3.95692 153.145 5.20342 153.51 5.38832 152.651C6.06098 149.527 6.73363 146.4 7.4031 143.276C7.588 142.417 6.3415 142.052 6.15659 142.911Z" fill="#C7D4F2"/>
<path d="M9.22468 141.457C8.3501 147.873 7.47919 154.286 6.60461 160.703C6.47967 161.621 7.96794 161.611 8.09288 160.703C8.96746 154.29 9.83837 147.873 10.713 141.457C10.8379 140.538 9.34962 140.549 9.22468 141.457Z" fill="#C7D4F2"/>
<path d="M14.2733 138.789C12.4747 147.113 11.2873 155.551 10.722 164.033C10.6654 164.906 12.0966 164.902 12.1531 164.033C12.7079 155.669 13.8775 147.358 15.6514 139.148C15.8351 138.295 14.457 137.929 14.2697 138.785L14.2733 138.789Z" fill="#C7D4F2"/>
<path d="M16.7277 150.347C16.104 153.736 15.4803 157.121 14.8566 160.51C14.6953 161.391 16.0932 161.768 16.2581 160.883C16.8819 157.494 17.5056 154.109 18.1293 150.72C18.2906 149.839 16.8926 149.463 16.7277 150.347Z" fill="#C7D4F2"/>
<path d="M21.4312 151.814C20.784 152.791 20.487 153.885 20.6688 154.965C20.6998 155.145 20.7485 155.293 20.9303 155.425C21.0854 155.537 21.3426 155.624 21.5642 155.614C22.0031 155.602 22.5217 155.325 22.4641 154.962C22.4242 154.73 22.4065 154.495 22.4109 154.264C22.4109 154.148 22.4197 154.029 22.433 153.913C22.4419 153.856 22.4508 153.798 22.4596 153.74C22.4685 153.692 22.4641 153.708 22.4508 153.788C22.4552 153.756 22.464 153.721 22.4729 153.688C22.5261 153.457 22.597 153.232 22.6945 153.007C22.7433 152.894 22.7966 152.785 22.8542 152.676C22.8719 152.64 22.9339 152.495 22.8674 152.647C22.894 152.586 22.9428 152.524 22.9827 152.463C23.1866 152.158 23.1113 151.746 22.6591 151.573C22.2557 151.418 21.6484 151.479 21.4312 151.807V151.814Z" fill="#C7D4F2"/>
<path d="M25.564 153.034V154.073C25.564 154.258 25.6578 154.449 25.8048 154.58C25.9518 154.712 26.1845 154.8 26.3886 154.79C26.6009 154.783 26.8254 154.719 26.9724 154.58C27.1194 154.439 27.2133 154.268 27.2133 154.073V153.034C27.2133 152.85 27.1194 152.658 26.9724 152.527C26.8295 152.403 26.5928 152.307 26.3886 152.317C26.1763 152.325 25.9518 152.388 25.8048 152.527C25.6578 152.669 25.564 152.839 25.564 153.034Z" fill="#C7D4F2"/>
</svg>
