<svg width="188" height="220" viewBox="0 0 188 220" fill="none" xmlns="http://www.w3.org/2000/svg">
<path d="M100.283 90.6588C96.0354 90.6916 92.1385 92.9093 90.7543 97.0633C89.5857 100.567 90.6119 104.75 93.4679 107.147C96.8059 109.953 102.215 110.274 105.925 108.002C109.241 105.974 110.768 102.058 110.118 98.2872C109.289 93.4829 104.939 90.6953 100.283 90.6588C98.7197 90.6478 98.716 93.0774 100.283 93.0883C102.039 93.1029 103.756 93.5011 105.18 94.5424C106.247 95.3206 107.09 96.5445 107.488 97.772C108.358 100.45 107.682 103.435 105.487 105.335C103.058 107.443 98.7196 107.607 95.9294 105.937C94.7461 105.229 93.7746 104.078 93.2816 102.916C93.1428 102.591 93.0333 102.248 92.9456 101.908C92.858 101.572 92.7703 101.093 92.7521 100.925C92.679 100.231 92.7083 99.3759 92.7996 98.8681C93.1027 97.2167 93.8076 95.8832 95.0748 94.7908C96.4481 93.6071 98.3983 93.1029 100.279 93.0883C101.842 93.0774 101.846 90.6441 100.279 90.6588H100.283Z" fill="#C7D4F2"/>
<path d="M98.3618 108.451C97.321 111.761 98.0404 115.462 100.217 118.151C102.306 120.734 105.746 122.159 109.044 121.881C109.534 121.841 109.965 121.611 110.155 121.132C110.319 120.727 110.286 120.102 109.903 119.806C106.517 117.183 104.669 112.744 105.465 108.495C105.586 107.852 105.286 107.183 104.618 107.001C104.026 106.836 103.245 107.202 103.124 107.848C102.178 112.901 104.088 118.352 108.186 121.527C108.471 120.836 108.759 120.142 109.044 119.452C106.397 119.674 103.763 118.644 102.054 116.584C100.349 114.527 99.9103 111.615 100.699 109.101C101.17 107.603 98.822 106.964 98.3545 108.455L98.3618 108.451Z" fill="#C7D4F2"/>
<path d="M92.1786 104.557C89.7609 109.792 89.9582 115.955 92.8105 120.986C93.2853 121.823 94.4138 121.72 94.9105 120.986C96.1121 119.203 96.2472 117.092 96.7183 115.057C97.0507 113.613 97.7189 111.871 99.3149 111.483C100.834 111.114 100.191 108.769 98.6685 109.138C96.5831 109.646 95.3231 111.476 94.6585 113.405C93.939 115.499 94.0851 117.866 92.8141 119.755H94.9141C92.5183 115.528 92.2407 110.205 94.2823 105.78C94.5562 105.185 94.4503 104.472 93.8477 104.118C93.3218 103.811 92.4599 103.954 92.186 104.553L92.1786 104.557Z" fill="#C7D4F2"/>
<path d="M89.874 97.9327C84.8925 100.64 81.7225 106.259 82 111.925C82.0621 113.175 83.5741 113.522 84.2643 112.539C86.1415 109.865 88.8952 107.844 91.9922 106.822C93.4713 106.336 92.8359 103.986 91.3459 104.476C87.6097 105.707 84.425 108.093 82.1644 111.308C82.9203 111.513 83.6727 111.717 84.4287 111.922C84.1913 107.066 86.8245 102.35 91.0975 100.03C92.4707 99.2844 91.2472 97.1837 89.8704 97.929L89.874 97.9327Z" fill="#C7D4F2"/>
<path d="M95.0308 91.4733C92.6313 89.3653 89.2604 88.9524 86.2584 89.8621C82.9386 90.8668 80.309 93.3037 77.9498 95.7442C77.1572 96.5626 77.9425 98.2139 79.133 97.7755C81.0468 97.0704 83.154 96.2265 85.2357 96.5005C86.6564 96.6868 88.1721 97.5088 88.6286 98.941C89.1034 100.424 91.4481 99.7922 90.9733 98.2943C90.2977 96.1753 88.4351 94.7286 86.3022 94.2353C83.6362 93.6216 80.9701 94.513 78.4866 95.4264C78.881 96.1023 79.2755 96.7818 79.6699 97.4577C81.6201 95.441 83.7676 93.3037 86.4702 92.3428C88.698 91.5537 91.4517 91.5501 93.3143 93.1868C94.483 94.2171 96.2104 92.5036 95.0345 91.466L95.0308 91.4733Z" fill="#C7D4F2"/>
<path d="M96.3678 92.1017C95.7834 88.5213 94.0413 85.1857 91.4921 82.6063C91.3132 83.2822 91.1342 83.9618 90.9553 84.6377C96.0719 83.1836 101.729 87.0161 102.492 92.2223C102.587 92.8726 103.409 93.2306 103.986 93.0698C104.684 92.8799 104.932 92.2259 104.833 91.5756C103.877 85.0651 96.5759 80.5129 90.3052 82.2922C89.425 82.5406 89.1219 83.6695 89.7683 84.3235C92.0473 86.6252 93.4935 89.5516 94.0157 92.7447C94.1216 93.3913 94.9251 93.7531 95.5095 93.5923C96.1997 93.4023 96.4664 92.7483 96.3568 92.098L96.3678 92.1017Z" fill="#C7D4F2"/>
<path d="M104.322 92.9019C107.55 89.5845 108.964 84.9702 108.295 80.4107C107.7 80.8674 107.105 81.3277 106.509 81.7844C108.77 83.4869 110.647 85.8543 111.217 88.6748C111.732 91.2286 110.845 93.9796 108.781 95.5908C108.259 95.9963 108.361 96.8805 108.781 97.3116C109.285 97.8267 109.986 97.7135 110.501 97.3116C113.207 95.1999 114.168 91.5391 113.605 88.251C112.996 84.7035 110.534 81.788 107.74 79.6837C106.78 78.9603 105.823 80.1513 105.954 81.0574C106.491 84.7218 105.173 88.5433 102.605 91.1811C101.513 92.3027 103.23 94.0235 104.325 92.9019H104.322Z" fill="#C7D4F2"/>
<path d="M109.424 99.0141C112.747 98.2688 115.811 96.4677 118.079 93.9249C117.444 93.8445 116.808 93.7605 116.169 93.6801C117.473 95.9599 117.331 99.0288 115.676 101.111C114.098 103.095 111.341 104.016 108.887 103.42V105.766C109.062 105.704 109.234 105.641 109.409 105.579C110.026 105.357 110.443 104.75 110.256 104.085C110.092 103.486 109.384 103.015 108.763 103.238C108.587 103.3 108.416 103.362 108.24 103.424C107.178 103.804 106.999 105.466 108.24 105.769C111.644 106.595 115.417 105.371 117.586 102.591C119.829 99.7193 120.073 95.6091 118.269 92.4599C117.897 91.8095 116.885 91.6269 116.359 92.2151C114.347 94.4729 111.728 96.0183 108.777 96.6796C107.251 97.023 107.897 99.3685 109.424 99.0251V99.0141Z" fill="#C7D4F2"/>
<path d="M104.106 108.718C106.272 114.72 114.121 117.632 119.624 114.275C120.552 113.708 120.315 112.386 119.336 112.053C115.793 110.844 113.186 107.687 112.488 104.038C112.364 103.391 111.59 103.026 110.994 103.19C110.319 103.376 110.023 104.038 110.147 104.684C111.005 109.182 114.387 112.926 118.693 114.399C118.598 113.657 118.499 112.919 118.404 112.177C114.318 114.669 108.105 112.638 106.458 108.071C106.236 107.454 105.633 107.037 104.965 107.223C104.369 107.388 103.891 108.097 104.117 108.718H104.106Z" fill="#C7D4F2"/>
<path d="M80.2323 105.408C77.8182 107.439 76.0543 110.208 75.1778 113.233C74.9988 113.844 75.3932 114.585 76.025 114.728C76.6751 114.878 77.3289 114.534 77.5188 113.88C77.6174 113.54 77.7269 113.204 77.8474 112.872C77.9095 112.707 77.9716 112.543 78.0373 112.379C78.0848 112.258 77.9863 112.484 78.0739 112.291C78.1068 112.218 78.136 112.148 78.1689 112.075C78.472 111.418 78.8226 110.778 79.2206 110.172C79.4142 109.876 79.6151 109.587 79.8306 109.306C79.9511 109.149 79.7319 109.427 79.8561 109.273C79.9182 109.196 79.9803 109.12 80.0424 109.043C80.1556 108.908 80.2689 108.773 80.3857 108.641C80.8678 108.097 81.3901 107.593 81.9452 107.125C82.4346 106.712 82.4017 105.824 81.9452 105.404C81.4266 104.926 80.7472 104.966 80.225 105.404L80.2323 105.408Z" fill="#C7D4F2"/>
<path d="M73.6807 120.781C73.4762 123.185 73.2717 125.589 73.0672 127.997C73.0124 128.633 73.6661 129.239 74.2833 129.214C74.9881 129.181 75.441 128.68 75.4995 127.997C75.704 125.593 75.9085 123.189 76.113 120.781C76.1678 120.146 75.5141 119.539 74.8969 119.565C74.192 119.598 73.7392 120.098 73.6807 120.781Z" fill="#C7D4F2"/>
<path d="M75.0427 133.309C75.386 136.59 76.8359 139.673 79.239 141.953C79.7138 142.406 80.4844 142.424 80.9592 141.953C81.4339 141.482 81.4376 140.685 80.9592 140.232C80.7035 139.988 80.4552 139.735 80.2178 139.472C79.9621 139.184 79.8161 139.008 79.6627 138.797C79.2427 138.227 78.8739 137.62 78.5598 136.984C78.2749 136.414 78.0923 135.958 77.8804 135.245C77.7782 134.906 77.6942 134.562 77.6212 134.215C77.5846 134.032 77.5518 133.846 77.5225 133.663C77.5225 133.641 77.486 133.411 77.5006 133.517C77.5152 133.631 77.4787 133.298 77.4787 133.305C77.4129 132.673 76.9674 132.06 76.2626 132.089C75.66 132.114 74.977 132.626 75.0464 133.305L75.0427 133.309Z" fill="#C7D4F2"/>
<path d="M84.9546 146.41C86.6419 148.971 89.6183 150.579 92.7007 150.469C93.3362 150.447 93.946 149.925 93.9168 149.253C93.8876 148.613 93.3837 148.014 92.7007 148.036C92.3976 148.047 92.0945 148.043 91.7914 148.018C91.7074 148.011 91.6233 148 91.5393 147.992C91.353 147.974 91.8315 148.043 91.5138 147.985C91.364 147.956 91.218 147.93 91.0682 147.897C90.7724 147.828 90.4802 147.744 90.1953 147.642C90.115 147.612 90.0383 147.583 89.958 147.554C89.8411 147.51 89.8703 147.514 89.9689 147.561C89.8156 147.492 89.6622 147.422 89.5124 147.346C89.2422 147.207 88.9828 147.053 88.7308 146.882C88.676 146.845 88.6213 146.805 88.5628 146.768C88.5628 146.768 88.3145 146.586 88.4423 146.684C88.5701 146.783 88.3291 146.589 88.3291 146.589C88.278 146.546 88.2268 146.502 88.1757 146.458C87.9346 146.246 87.7083 146.019 87.4964 145.782C87.4526 145.731 87.4087 145.68 87.3649 145.628C87.2955 145.544 87.2334 145.464 87.3357 145.599C87.2334 145.464 87.1385 145.325 87.0472 145.186C86.6966 144.657 85.9552 144.383 85.3855 144.752C84.8559 145.091 84.5747 145.848 84.9509 146.414L84.9546 146.41Z" fill="#C7D4F2"/>
<path d="M100.283 146.973C97.6495 146.991 95.2719 148.402 94.4173 150.963C93.7051 153.096 94.3406 155.679 96.0791 157.144C98.1316 158.876 101.422 159.113 103.723 157.707C105.805 156.436 106.729 154.006 106.323 151.649C106.115 150.444 105.454 149.253 104.519 148.46C103.325 147.444 101.842 146.988 100.283 146.973C98.7195 146.962 98.7159 149.392 100.283 149.403C100.421 149.403 100.56 149.406 100.699 149.414C100.787 149.417 101.152 149.461 100.871 149.421C101.148 149.461 101.422 149.519 101.692 149.604C101.806 149.636 101.915 149.68 102.028 149.717C102.233 149.783 102.01 149.709 101.977 149.695C102.028 149.72 102.079 149.742 102.131 149.768C102.35 149.881 102.554 150.016 102.762 150.148C102.93 150.25 102.591 149.987 102.828 150.203C102.905 150.272 102.982 150.342 103.058 150.415C103.131 150.488 103.197 150.564 103.266 150.641C103.493 150.89 103.175 150.48 103.358 150.758C103.467 150.926 103.577 151.094 103.668 151.277C103.712 151.365 103.818 151.657 103.701 151.328C103.738 151.434 103.781 151.536 103.818 151.646C103.884 151.847 103.931 152.051 103.971 152.26C104.033 152.563 103.971 152.143 103.979 152.307C103.986 152.42 103.997 152.53 104.001 152.643C104.008 152.844 103.997 153.041 103.982 153.239C103.964 153.538 104.037 152.99 103.975 153.286C103.949 153.407 103.927 153.531 103.898 153.652C103.847 153.845 103.774 154.028 103.712 154.222C103.664 154.371 103.825 154.002 103.745 154.137C103.719 154.181 103.701 154.229 103.679 154.273C103.628 154.375 103.573 154.474 103.518 154.569C103.467 154.656 103.409 154.74 103.354 154.824C103.179 155.091 103.449 154.74 103.314 154.883C103.15 155.051 103 155.223 102.825 155.38C102.587 155.595 102.927 155.332 102.759 155.434C102.668 155.489 102.58 155.559 102.489 155.613C102.394 155.672 102.299 155.727 102.2 155.774C102.149 155.8 102.098 155.822 102.05 155.847C101.806 155.982 102.295 155.771 102.025 155.858C101.795 155.935 101.572 156.012 101.338 156.067C101.214 156.096 101.09 156.118 100.966 156.14C100.739 156.18 100.955 156.14 100.998 156.136C100.896 156.143 100.798 156.154 100.699 156.162C100.421 156.18 100.14 156.18 99.8626 156.162C99.7786 156.158 99.3915 156.11 99.691 156.154C99.5485 156.132 99.4098 156.107 99.271 156.077C99.019 156.023 98.7816 155.935 98.5369 155.858C98.4675 155.836 98.3506 155.752 98.588 155.88C98.5369 155.855 98.4858 155.833 98.4347 155.807C98.3251 155.749 98.2119 155.694 98.106 155.628C98.011 155.573 97.9234 155.511 97.8321 155.453C97.5837 155.288 97.9818 155.595 97.7626 155.398C97.5873 155.241 97.4267 155.08 97.2697 154.905C97.0724 154.685 97.3865 155.091 97.2258 154.85C97.171 154.766 97.1126 154.682 97.0615 154.598C97.0103 154.514 96.9592 154.426 96.9154 154.335C96.8533 154.214 96.762 153.98 96.8642 154.251C96.7948 154.064 96.7254 153.878 96.6743 153.684C96.6451 153.575 96.6195 153.465 96.6013 153.356C96.5903 153.308 96.5866 153.257 96.5757 153.209C96.5392 153.063 96.594 153.494 96.5867 153.275C96.5794 153.074 96.5574 152.881 96.5647 152.68C96.5647 152.581 96.5757 152.482 96.5793 152.38C96.6013 152.037 96.5246 152.596 96.594 152.26C96.6414 152.026 96.6962 151.799 96.7729 151.573C96.8167 151.441 96.93 151.226 96.8022 151.481C96.8569 151.368 96.9081 151.255 96.9702 151.145C97.0249 151.047 97.0834 150.948 97.1454 150.853C97.2185 150.743 97.3865 150.546 97.2002 150.762C97.3718 150.564 97.5436 150.382 97.7371 150.206C97.7773 150.17 97.8174 150.141 97.8576 150.104C97.7626 150.184 97.6896 150.221 97.8357 150.126C97.9379 150.057 98.0366 149.991 98.1425 149.929C98.263 149.859 98.3908 149.804 98.5113 149.735C98.5698 149.702 98.7195 149.662 98.4566 149.753C98.526 149.728 98.5917 149.702 98.661 149.677C98.935 149.578 99.2162 149.509 99.5011 149.457C99.5631 149.446 99.6289 149.435 99.691 149.428C99.3769 149.472 99.7165 149.428 99.764 149.428C99.9356 149.414 100.111 149.41 100.283 149.41C101.846 149.399 101.849 146.966 100.283 146.98V146.973Z" fill="#C7D4F2"/>
<path d="M158.067 135.413C155.434 135.432 153.056 136.842 152.201 139.403C151.489 141.537 152.125 144.12 153.863 145.585C155.916 147.316 159.206 147.554 161.507 146.147C163.589 144.876 164.513 142.446 164.107 140.09C163.899 138.884 163.238 137.693 162.303 136.9C161.109 135.885 159.626 135.428 158.067 135.413C156.504 135.402 156.5 137.832 158.067 137.843C158.206 137.843 158.344 137.847 158.483 137.854C158.571 137.858 158.936 137.901 158.655 137.861C158.932 137.901 159.206 137.96 159.477 138.044C159.59 138.077 159.699 138.121 159.813 138.157C160.017 138.223 159.794 138.15 159.761 138.135C159.813 138.161 159.864 138.183 159.915 138.208C160.134 138.322 160.338 138.457 160.547 138.588C160.715 138.69 160.375 138.427 160.612 138.643C160.689 138.712 160.766 138.782 160.842 138.855C160.915 138.928 160.981 139.005 161.051 139.081C161.277 139.33 160.959 138.921 161.142 139.198C161.251 139.366 161.361 139.534 161.452 139.717C161.496 139.805 161.602 140.097 161.485 139.768C161.522 139.874 161.566 139.977 161.602 140.086C161.668 140.287 161.715 140.492 161.755 140.7C161.818 141.003 161.755 140.583 161.763 140.747C161.77 140.861 161.781 140.97 161.785 141.084C161.792 141.284 161.781 141.482 161.766 141.679C161.748 141.979 161.821 141.431 161.759 141.727C161.734 141.847 161.712 141.971 161.682 142.092C161.631 142.286 161.558 142.468 161.496 142.662C161.449 142.812 161.609 142.443 161.529 142.578C161.503 142.622 161.485 142.669 161.463 142.713C161.412 142.815 161.357 142.914 161.303 143.009C161.251 143.097 161.193 143.181 161.138 143.265C160.963 143.531 161.233 143.181 161.098 143.323C160.934 143.491 160.784 143.663 160.609 143.82C160.371 144.036 160.711 143.772 160.543 143.875C160.452 143.93 160.364 143.999 160.273 144.054C160.178 144.112 160.083 144.167 159.984 144.215C159.933 144.24 159.882 144.262 159.834 144.288C159.59 144.423 160.079 144.211 159.809 144.299C159.579 144.375 159.356 144.452 159.122 144.507C158.998 144.536 158.874 144.558 158.75 144.58C158.523 144.62 158.739 144.58 158.783 144.576C158.68 144.584 158.582 144.595 158.483 144.602C158.206 144.62 157.924 144.62 157.647 144.602C157.563 144.598 157.176 144.551 157.475 144.595C157.333 144.573 157.194 144.547 157.055 144.518C156.803 144.463 156.566 144.375 156.321 144.299C156.252 144.277 156.135 144.193 156.372 144.32C156.321 144.295 156.27 144.273 156.219 144.247C156.109 144.189 155.996 144.134 155.89 144.068C155.795 144.014 155.708 143.951 155.616 143.893C155.368 143.729 155.766 144.036 155.547 143.838C155.372 143.681 155.211 143.52 155.054 143.345C154.857 143.126 155.171 143.531 155.01 143.29C154.955 143.206 154.897 143.122 154.846 143.038C154.795 142.95 154.743 142.866 154.7 142.775C154.637 142.655 154.546 142.421 154.648 142.691C154.579 142.505 154.51 142.318 154.458 142.125C154.429 142.015 154.404 141.906 154.385 141.796C154.375 141.748 154.371 141.697 154.36 141.65C154.323 141.504 154.378 141.935 154.371 141.716C154.364 141.515 154.342 141.321 154.349 141.12C154.349 141.021 154.36 140.923 154.364 140.82C154.385 140.477 154.309 141.036 154.378 140.7C154.426 140.466 154.48 140.24 154.557 140.013C154.601 139.882 154.714 139.666 154.586 139.922C154.641 139.808 154.692 139.695 154.754 139.586C154.809 139.487 154.868 139.388 154.93 139.293C155.003 139.184 155.174 138.986 154.984 139.202C155.156 139.005 155.328 138.822 155.521 138.647C155.561 138.61 155.602 138.581 155.642 138.544C155.547 138.625 155.474 138.661 155.62 138.566C155.722 138.497 155.821 138.431 155.927 138.369C156.047 138.3 156.175 138.245 156.296 138.175C156.354 138.143 156.504 138.102 156.241 138.194C156.31 138.168 156.376 138.143 156.445 138.117C156.719 138.018 157 137.949 157.285 137.898C157.347 137.887 157.413 137.876 157.475 137.868C157.161 137.912 157.501 137.868 157.548 137.868C157.72 137.854 157.895 137.85 158.067 137.85C159.63 137.839 159.634 135.406 158.067 135.421V135.413Z" fill="#C7D4F2"/>
<path d="M133.988 62.1946C131.355 62.2129 128.977 63.6231 128.123 66.1842C127.411 68.3178 128.046 70.9008 129.785 72.3659C131.837 74.0976 135.128 74.335 137.429 72.9285C139.51 71.6571 140.434 69.2275 140.029 66.8711C139.821 65.6654 139.16 64.4744 138.225 63.6816C137.03 62.6659 135.548 62.2092 133.988 62.1946C132.425 62.1837 132.421 64.6132 133.988 64.6242C134.127 64.6242 134.266 64.6278 134.405 64.6351C134.492 64.6388 134.857 64.6826 134.576 64.6425C134.854 64.6826 135.128 64.7411 135.398 64.8251C135.511 64.858 135.621 64.9018 135.734 64.9384C135.938 65.0041 135.716 64.9311 135.683 64.9165C135.734 64.942 135.785 64.9639 135.836 64.9895C136.055 65.1028 136.26 65.238 136.468 65.3695C136.636 65.4718 136.296 65.2087 136.534 65.4243C136.61 65.4937 136.687 65.5631 136.764 65.6362C136.837 65.7093 136.903 65.786 136.972 65.8627C137.198 66.1111 136.881 65.7019 137.063 65.9796C137.173 66.1476 137.282 66.3157 137.374 66.4984C137.417 66.5861 137.523 66.8784 137.407 66.5496C137.443 66.6555 137.487 66.7578 137.523 66.8674C137.589 67.0683 137.637 67.273 137.677 67.4812C137.739 67.7844 137.677 67.3642 137.684 67.5287C137.691 67.6419 137.702 67.7515 137.706 67.8648C137.713 68.0657 137.702 68.263 137.688 68.4603C137.67 68.7599 137.743 68.2119 137.68 68.5078C137.655 68.6284 137.633 68.7526 137.604 68.8731C137.553 69.0668 137.48 69.2495 137.418 69.4431C137.37 69.5929 137.531 69.2239 137.45 69.359C137.425 69.4029 137.407 69.4504 137.385 69.4942C137.334 69.5965 137.279 69.6952 137.224 69.7902C137.173 69.8778 137.114 69.9619 137.06 70.0459C136.884 70.3126 137.155 69.9619 137.019 70.1044C136.855 70.2724 136.705 70.4441 136.53 70.6012C136.293 70.8168 136.632 70.5537 136.464 70.656C136.373 70.7108 136.285 70.7802 136.194 70.835C136.099 70.8935 136.004 70.9483 135.906 70.9958C135.854 71.0214 135.803 71.0433 135.756 71.0689C135.511 71.2041 136 70.9922 135.73 71.0798C135.5 71.1566 135.277 71.2333 135.044 71.2881C134.919 71.3173 134.795 71.3392 134.671 71.3612C134.445 71.4014 134.66 71.3612 134.704 71.3575C134.602 71.3648 134.503 71.3758 134.405 71.3831C134.127 71.4013 133.846 71.4013 133.568 71.3831C133.484 71.3794 133.097 71.3319 133.397 71.3758C133.254 71.3538 133.115 71.3283 132.977 71.299C132.725 71.2442 132.487 71.1566 132.242 71.0798C132.173 71.0579 132.056 70.9739 132.294 71.1017C132.242 71.0762 132.191 71.0543 132.14 71.0287C132.031 70.9702 131.917 70.9154 131.811 70.8497C131.717 70.7949 131.629 70.7328 131.538 70.6743C131.289 70.5099 131.687 70.8168 131.468 70.6195C131.293 70.4624 131.132 70.3017 130.975 70.1263C130.778 69.9071 131.092 70.3126 130.931 70.0715C130.877 69.9875 130.818 69.9034 130.767 69.8194C130.716 69.7317 130.665 69.6477 130.621 69.5563C130.559 69.4358 130.468 69.202 130.57 69.4723C130.5 69.286 130.431 69.0996 130.38 68.906C130.351 68.7964 130.325 68.6868 130.307 68.5772C130.296 68.5297 130.292 68.4786 130.281 68.4311C130.245 68.285 130.3 68.716 130.292 68.4968C130.285 68.2959 130.263 68.1023 130.27 67.9013C130.27 67.8027 130.281 67.704 130.285 67.6017C130.307 67.2583 130.23 67.8173 130.3 67.4812C130.347 67.2474 130.402 67.0209 130.478 66.7943C130.522 66.6628 130.636 66.4473 130.508 66.703C130.563 66.5898 130.614 66.4765 130.676 66.3669C130.73 66.2682 130.789 66.1696 130.851 66.0746C130.924 65.965 131.096 65.7677 130.906 65.9832C131.077 65.786 131.249 65.6033 131.443 65.4279C131.483 65.3914 131.523 65.3622 131.563 65.3257C131.468 65.406 131.395 65.4425 131.541 65.3476C131.643 65.2781 131.742 65.2124 131.848 65.1503C131.969 65.0809 132.096 65.0261 132.217 64.9567C132.275 64.9238 132.425 64.8836 132.162 64.9749C132.232 64.9493 132.297 64.9238 132.367 64.8982C132.641 64.7995 132.922 64.7301 133.207 64.679C133.269 64.668 133.334 64.6571 133.397 64.6498C133.082 64.6936 133.422 64.6498 133.47 64.6498C133.641 64.6352 133.817 64.6315 133.988 64.6315C135.551 64.6205 135.555 62.1873 133.988 62.2019V62.1946Z" fill="#C7D4F2"/>
<path d="M85.8349 45.8162C83.2017 45.8345 80.8242 47.2447 79.9696 49.8058C79.2574 51.9394 79.8929 54.5224 81.6313 55.9874C83.6838 57.7191 86.9743 57.9566 89.2752 56.5501C91.3569 55.2786 92.2809 52.8491 91.8755 50.4926C91.6674 49.287 91.0064 48.0959 90.0714 47.3031C88.8772 46.2875 87.3944 45.8308 85.8349 45.8162C84.2718 45.8052 84.2681 48.2348 85.8349 48.2458C85.9737 48.2458 86.1124 48.2494 86.2512 48.2567C86.3389 48.2603 86.7041 48.3042 86.4228 48.264C86.7004 48.3042 86.9743 48.3626 87.2446 48.4467C87.3578 48.4795 87.4674 48.5234 87.5806 48.5599C87.7852 48.6257 87.5623 48.5526 87.5295 48.538C87.5806 48.5636 87.6318 48.5855 87.6829 48.6111C87.902 48.7244 88.1065 48.8595 88.3147 48.991C88.4827 49.0933 88.143 48.8303 88.3804 49.0458C88.4571 49.1153 88.5339 49.1847 88.6106 49.2578C88.6836 49.3308 88.7529 49.4076 88.8187 49.4843C89.0451 49.7327 88.7274 49.3235 88.91 49.6012C89.0195 49.7692 89.1291 49.9373 89.2204 50.12C89.2643 50.2077 89.3701 50.4999 89.2533 50.1711C89.2898 50.2771 89.3336 50.3794 89.3701 50.489C89.4359 50.6899 89.4834 50.8945 89.5236 51.1027C89.5857 51.406 89.5235 50.9858 89.5308 51.1502C89.5381 51.2635 89.5491 51.3731 89.5528 51.4864C89.5601 51.6873 89.5491 51.8846 89.5345 52.0819C89.5162 52.3815 89.5892 51.8334 89.5272 52.1294C89.5016 52.2499 89.4797 52.3742 89.4505 52.4947C89.3994 52.6884 89.3263 52.871 89.2642 53.0646C89.2167 53.2144 89.3775 52.8454 89.2971 52.9806C89.2716 53.0245 89.2533 53.072 89.2314 53.1158C89.1803 53.2181 89.1254 53.3168 89.0706 53.4117C89.0195 53.4994 88.9611 53.5834 88.9063 53.6675C88.731 53.9342 89.0013 53.5835 88.8662 53.7259C88.7018 53.894 88.5521 54.0657 88.3768 54.2228C88.1394 54.4384 88.4791 54.1753 88.3111 54.2776C88.2198 54.3324 88.1321 54.4018 88.0408 54.4566C87.9459 54.5151 87.8509 54.5699 87.7523 54.6174C87.7011 54.6429 87.65 54.6649 87.6026 54.6905C87.3579 54.8256 87.8472 54.6137 87.577 54.7014C87.3469 54.7781 87.1241 54.8549 86.8903 54.9097C86.7662 54.9389 86.642 54.9608 86.5178 54.9827C86.2914 55.0229 86.5069 54.9827 86.5507 54.979C86.4485 54.9864 86.3498 54.9973 86.2512 55.0046C85.9736 55.0229 85.6925 55.0229 85.4149 55.0046C85.3309 55.001 84.9437 54.9535 85.2432 54.9973C85.1008 54.9754 84.962 54.9499 84.8233 54.9206C84.5713 54.8658 84.3339 54.7781 84.0892 54.7014C84.0198 54.6795 83.9029 54.5955 84.1403 54.7233C84.0891 54.6977 84.038 54.6758 83.9869 54.6502C83.8773 54.5918 83.7642 54.537 83.6582 54.4712C83.5633 54.4164 83.4756 54.3543 83.3843 54.2959C83.136 54.1314 83.5341 54.4383 83.315 54.241C83.1397 54.0839 82.9789 53.9232 82.8219 53.7478C82.6247 53.5286 82.9387 53.9342 82.778 53.693C82.7232 53.609 82.6648 53.525 82.6137 53.441C82.5626 53.3569 82.5115 53.2693 82.4677 53.1779C82.4056 53.0574 82.3142 52.8235 82.4165 53.0939C82.3471 52.9076 82.2777 52.7212 82.2266 52.5276C82.1973 52.418 82.1718 52.3084 82.1535 52.1988C82.1426 52.1513 82.139 52.1001 82.128 52.0526C82.0915 51.9065 82.1462 52.3376 82.1389 52.1184C82.1316 51.9175 82.1098 51.7238 82.1171 51.5229C82.1171 51.4243 82.1279 51.3256 82.1316 51.2233C82.1535 50.8799 82.0768 51.4389 82.1462 51.1027C82.1937 50.8689 82.2485 50.6424 82.3252 50.4159C82.369 50.2844 82.4822 50.0688 82.3544 50.3245C82.4092 50.2113 82.4603 50.0981 82.5224 49.9885C82.5772 49.8898 82.6356 49.7912 82.6977 49.6962C82.7707 49.5866 82.9424 49.3893 82.7525 49.6048C82.9242 49.4075 83.0958 49.2249 83.2894 49.0495C83.3296 49.013 83.3697 48.9837 83.4098 48.9472C83.3149 49.0276 83.2456 49.0641 83.388 48.9691C83.4903 48.8997 83.5888 48.8339 83.6947 48.7718C83.8152 48.7024 83.9431 48.6476 84.0636 48.5782C84.122 48.5453 84.2718 48.5051 84.0088 48.5965C84.0782 48.5709 84.144 48.5453 84.2134 48.5198C84.4873 48.4211 84.7684 48.3517 85.0533 48.3006C85.1154 48.2896 85.1811 48.2786 85.2432 48.2713C84.9291 48.3152 85.2689 48.2713 85.3163 48.2713C85.488 48.2567 85.6633 48.2531 85.8349 48.2531C87.398 48.2421 87.4017 45.8089 85.8349 45.8235V45.8162Z" fill="#C7D4F2"/>
<path d="M29.0148 87.2426C26.3817 87.2609 24.0041 88.6711 23.1495 91.2321C22.4373 93.3658 23.0728 95.9488 24.8112 97.4138C26.8637 99.1455 30.1544 99.383 32.4552 97.9764C34.5369 96.705 35.4609 94.2755 35.0555 91.919C34.8473 90.7133 34.1863 89.5223 33.2513 88.7295C32.0571 87.7139 30.5743 87.2572 29.0148 87.2426C27.4517 87.2316 27.4481 89.6612 29.0148 89.6721C29.1536 89.6721 29.2924 89.6758 29.4312 89.6831C29.5189 89.6867 29.8841 89.7306 29.6029 89.6904C29.8804 89.7306 30.1543 89.789 30.4246 89.8731C30.5378 89.9059 30.6474 89.9498 30.7606 89.9863C30.9651 90.0521 30.7423 89.979 30.7095 89.9644C30.7606 89.99 30.8117 90.0119 30.8628 90.0375C31.082 90.1507 31.2865 90.2859 31.4947 90.4174C31.6626 90.5197 31.323 90.2567 31.5604 90.4722C31.6371 90.5416 31.7138 90.611 31.7905 90.6841C31.8635 90.7572 31.9293 90.8339 31.9987 90.9106C32.2251 91.1591 31.9074 90.7499 32.09 91.0276C32.1996 91.1956 32.3091 91.3637 32.4004 91.5464C32.4442 91.6341 32.5501 91.9263 32.4333 91.5975C32.4698 91.7034 32.5136 91.8057 32.5502 91.9153C32.6159 92.1163 32.6634 92.3209 32.7035 92.5291C32.7656 92.8324 32.7035 92.4122 32.7108 92.5766C32.7181 92.6899 32.7291 92.7995 32.7328 92.9128C32.7401 93.1137 32.7291 93.311 32.7145 93.5083C32.6962 93.8079 32.7693 93.2598 32.7072 93.5558C32.6816 93.6763 32.6597 93.8006 32.6305 93.9211C32.5794 94.1147 32.5063 94.2974 32.4442 94.491C32.3968 94.6408 32.5574 94.2718 32.4771 94.407C32.4515 94.4509 32.4333 94.4983 32.4113 94.5422C32.3602 94.6445 32.3054 94.7431 32.2507 94.8381C32.1995 94.9258 32.1411 95.0098 32.0863 95.0939C31.911 95.3606 32.1813 95.0098 32.0461 95.1523C31.8818 95.3204 31.732 95.4921 31.5567 95.6492C31.3193 95.8647 31.659 95.6017 31.491 95.704C31.3997 95.7588 31.312 95.8282 31.2207 95.883C31.1258 95.9415 31.0308 95.9963 30.9322 96.0438C30.8811 96.0693 30.83 96.0912 30.7825 96.1168C30.5378 96.252 31.0272 96.0401 30.7569 96.1278C30.5268 96.2045 30.3041 96.2812 30.0704 96.336C29.9462 96.3653 29.822 96.3872 29.6978 96.4091C29.4714 96.4493 29.6868 96.4091 29.7306 96.4054C29.6284 96.4127 29.5298 96.4237 29.4312 96.431C29.1537 96.4493 28.8724 96.4493 28.5949 96.431C28.5109 96.4274 28.1238 96.3799 28.4232 96.4237C28.2808 96.4018 28.142 96.3762 28.0032 96.347C27.7512 96.2922 27.5138 96.2045 27.2691 96.1278C27.1997 96.1059 27.0829 96.0218 27.3203 96.1497C27.2692 96.1241 27.218 96.1022 27.1668 96.0766C27.0573 96.0182 26.9441 95.9634 26.8382 95.8976C26.7432 95.8428 26.6556 95.7807 26.5643 95.7222C26.3159 95.5578 26.714 95.8647 26.4949 95.6674C26.3196 95.5103 26.1589 95.3496 26.0018 95.1742C25.8046 94.955 26.1187 95.3605 25.958 95.1194C25.9033 95.0354 25.8449 94.9514 25.7937 94.8673C25.7426 94.7797 25.6914 94.6956 25.6476 94.6043C25.5855 94.4837 25.4942 94.2499 25.5965 94.5202C25.5271 94.3339 25.4577 94.1476 25.4066 93.954C25.3774 93.8444 25.3518 93.7348 25.3335 93.6252C25.3226 93.5777 25.3189 93.5265 25.308 93.479C25.2714 93.3329 25.3262 93.764 25.3189 93.5448C25.3116 93.3439 25.2897 93.1502 25.297 92.9493C25.297 92.8506 25.308 92.752 25.3116 92.6497C25.3335 92.3063 25.2568 92.8652 25.3262 92.5291C25.3737 92.2953 25.4285 92.0688 25.5052 91.8423C25.549 91.7108 25.6622 91.4952 25.5343 91.7509C25.5891 91.6377 25.6403 91.5244 25.7024 91.4148C25.7572 91.3162 25.8156 91.2175 25.8777 91.1226C25.9508 91.013 26.1224 90.8157 25.9325 91.0312C26.1041 90.8339 26.2757 90.6513 26.4693 90.4759C26.5095 90.4394 26.5497 90.4101 26.5899 90.3736C26.4949 90.454 26.4218 90.4905 26.5679 90.3955C26.6702 90.3261 26.7688 90.2603 26.8747 90.1982C26.9953 90.1288 27.1231 90.074 27.2436 90.0046C27.302 89.9717 27.4517 89.9315 27.1888 90.0229C27.2582 89.9973 27.3239 89.9717 27.3933 89.9462C27.6672 89.8475 27.9485 89.7781 28.2333 89.7269C28.2954 89.716 28.3612 89.705 28.4232 89.6977C28.1092 89.7415 28.4488 89.6977 28.4963 89.6977C28.6679 89.6831 28.8432 89.6794 29.0148 89.6794C30.578 89.6685 30.5816 87.2353 29.0148 87.2499V87.2426Z" fill="#C7D4F2"/>
<path d="M51.1652 166.241C48.532 166.26 46.1545 167.67 45.2999 170.231C44.5877 172.364 45.2232 174.947 46.9616 176.412C49.0141 178.144 52.3047 178.382 54.6055 176.975C56.6872 175.704 57.6112 173.274 57.2058 170.918C56.9976 169.712 56.3366 168.521 55.4016 167.728C54.2074 166.713 52.7247 166.256 51.1652 166.241C49.6021 166.23 49.5985 168.66 51.1652 168.671C51.304 168.671 51.4428 168.674 51.5815 168.682C51.6692 168.685 52.0344 168.729 51.7532 168.689C52.0307 168.729 52.3046 168.788 52.5749 168.872C52.6881 168.905 52.7977 168.948 52.911 168.985C53.1155 169.051 52.8926 168.978 52.8598 168.963C52.9109 168.989 52.962 169.011 53.0131 169.036C53.2323 169.149 53.4368 169.285 53.645 169.416C53.8129 169.518 53.4734 169.255 53.7108 169.471C53.7874 169.54 53.8641 169.61 53.9408 169.683C54.0138 169.756 54.0796 169.833 54.149 169.909C54.3754 170.158 54.0577 169.749 54.2403 170.026C54.3499 170.194 54.4595 170.362 54.5508 170.545C54.5946 170.633 54.7004 170.925 54.5836 170.596C54.6201 170.702 54.6639 170.804 54.7005 170.914C54.7662 171.115 54.8137 171.32 54.8538 171.528C54.9159 171.831 54.8538 171.411 54.8611 171.575C54.8684 171.689 54.8794 171.798 54.8831 171.911C54.8904 172.112 54.8794 172.31 54.8648 172.507C54.8465 172.807 54.9196 172.258 54.8575 172.554C54.8319 172.675 54.81 172.799 54.7808 172.92C54.7297 173.113 54.6566 173.296 54.5945 173.49C54.5471 173.639 54.7078 173.27 54.6274 173.406C54.6019 173.45 54.5836 173.497 54.5616 173.541C54.5105 173.643 54.4558 173.742 54.401 173.837C54.3498 173.924 54.2914 174.008 54.2366 174.093C54.0613 174.359 54.3316 174.009 54.1964 174.151C54.0321 174.319 53.8824 174.491 53.7071 174.648C53.4697 174.863 53.8094 174.6 53.6414 174.703C53.5501 174.757 53.4623 174.827 53.371 174.882C53.2761 174.94 53.1812 174.995 53.0826 175.042C53.0315 175.068 52.9803 175.09 52.9328 175.116C52.6881 175.251 53.1776 175.039 52.9073 175.126C52.6772 175.203 52.4544 175.28 52.2207 175.335C52.0965 175.364 51.9723 175.386 51.8481 175.408C51.6217 175.448 51.8372 175.408 51.881 175.404C51.7788 175.411 51.6801 175.422 51.5815 175.43C51.304 175.448 51.0227 175.448 50.7452 175.43C50.6612 175.426 50.2741 175.379 50.5735 175.422C50.4311 175.4 50.2924 175.375 50.1536 175.346C49.9016 175.291 49.6642 175.203 49.4195 175.126C49.3501 175.105 49.2332 175.021 49.4706 175.148C49.4195 175.123 49.3684 175.101 49.3172 175.075C49.2077 175.017 49.0944 174.962 48.9885 174.896C48.8935 174.841 48.8059 174.779 48.7146 174.721C48.4662 174.556 48.8643 174.863 48.6452 174.666C48.4699 174.509 48.3093 174.348 48.1522 174.173C47.955 173.954 48.269 174.359 48.1084 174.118C48.0536 174.034 47.9952 173.95 47.944 173.866C47.8929 173.782 47.8418 173.694 47.798 173.603C47.7359 173.482 47.6445 173.249 47.7468 173.519C47.6774 173.333 47.608 173.146 47.5569 172.953C47.5277 172.843 47.5021 172.733 47.4838 172.624C47.4729 172.576 47.4692 172.525 47.4583 172.478C47.4217 172.332 47.4765 172.763 47.4692 172.543C47.4619 172.343 47.44 172.149 47.4473 171.948C47.4473 171.849 47.4583 171.751 47.4619 171.648C47.4838 171.305 47.4071 171.864 47.4765 171.528C47.524 171.294 47.5788 171.067 47.6555 170.841C47.6993 170.709 47.8126 170.494 47.6847 170.75C47.7395 170.636 47.7906 170.523 47.8527 170.414C47.9075 170.315 47.9659 170.216 48.028 170.121C48.1011 170.012 48.269 169.814 48.0828 170.03C48.2544 169.833 48.4261 169.65 48.6197 169.475C48.6599 169.438 48.7 169.409 48.7402 169.372C48.6452 169.453 48.5721 169.489 48.7182 169.394C48.8205 169.325 48.9191 169.259 49.025 169.197C49.1456 169.127 49.2734 169.073 49.3939 169.003C49.4523 168.97 49.6021 168.93 49.3392 169.022C49.4086 168.996 49.4742 168.97 49.5436 168.945C49.8175 168.846 50.0988 168.777 50.3836 168.726C50.4457 168.715 50.5115 168.704 50.5735 168.696C50.2595 168.74 50.5991 168.696 50.6466 168.696C50.8182 168.682 50.9936 168.678 51.1652 168.678C52.7283 168.667 52.732 166.234 51.1652 166.249V166.241Z" fill="#C7D4F2"/>
<path d="M168.662 50.6315C166.028 50.6498 163.651 52.06 162.796 54.6211C162.084 56.7547 162.72 59.3377 164.458 60.8028C166.51 62.5345 169.801 62.7719 172.102 61.3654C174.184 60.094 175.108 57.6644 174.702 55.3079C174.494 54.1023 173.833 52.9113 172.898 52.1185C171.704 51.1028 170.221 50.6461 168.662 50.6315C167.098 50.6205 167.095 53.0501 168.662 53.0611C168.8 53.0611 168.939 53.0647 169.078 53.072C169.166 53.0757 169.531 53.1195 169.25 53.0793C169.527 53.1195 169.801 53.178 170.071 53.262C170.184 53.2949 170.294 53.3387 170.407 53.3753C170.612 53.441 170.389 53.368 170.356 53.3534C170.407 53.3789 170.458 53.4008 170.51 53.4264C170.729 53.5397 170.933 53.6749 171.141 53.8064C171.309 53.9087 170.97 53.6456 171.207 53.8612C171.284 53.9306 171.36 54 171.437 54.0731C171.51 54.1461 171.58 54.2229 171.649 54.2996C171.875 54.548 171.558 54.1389 171.74 54.4165C171.85 54.5846 171.959 54.7526 172.051 54.9353C172.095 55.023 172.2 55.3153 172.084 54.9864C172.12 55.0924 172.164 55.1947 172.2 55.3043C172.266 55.5052 172.314 55.7098 172.354 55.9181C172.416 56.2213 172.354 55.8012 172.361 55.9656C172.368 56.0788 172.379 56.1884 172.383 56.3017C172.39 56.5026 172.379 56.6999 172.365 56.8972C172.347 57.1968 172.42 56.6488 172.357 56.9447C172.332 57.0653 172.31 57.1895 172.281 57.31C172.23 57.5037 172.157 57.6864 172.095 57.88C172.047 58.0298 172.208 57.6608 172.127 57.796C172.102 57.8398 172.084 57.8873 172.062 57.9311C172.011 58.0334 171.956 58.1321 171.901 58.2271C171.85 58.3147 171.791 58.3988 171.737 58.4828C171.561 58.7495 171.832 58.3988 171.697 58.5412C171.532 58.7093 171.382 58.881 171.207 59.0381C170.97 59.2537 171.309 58.9906 171.141 59.0929C171.05 59.1477 170.962 59.2171 170.871 59.2719C170.776 59.3304 170.681 59.3852 170.583 59.4327C170.531 59.4583 170.48 59.4802 170.433 59.5058C170.188 59.6409 170.678 59.4291 170.407 59.5167C170.177 59.5935 169.954 59.6702 169.721 59.725C169.596 59.7542 169.472 59.7761 169.348 59.7981C169.122 59.8382 169.337 59.7981 169.381 59.7944C169.279 59.8017 169.18 59.8126 169.082 59.82C168.804 59.8382 168.523 59.8382 168.245 59.82C168.161 59.8163 167.774 59.7688 168.074 59.8126C167.931 59.7907 167.792 59.7652 167.654 59.7359C167.402 59.6811 167.164 59.5935 166.919 59.5167C166.85 59.4948 166.733 59.4108 166.971 59.5386C166.919 59.5131 166.868 59.4912 166.817 59.4656C166.708 59.4071 166.594 59.3523 166.489 59.2866C166.394 59.2318 166.306 59.1697 166.215 59.1112C165.966 58.9468 166.364 59.2537 166.145 59.0564C165.97 58.8993 165.809 58.7386 165.652 58.5632C165.455 58.344 165.769 58.7495 165.608 58.5084C165.554 58.4243 165.495 58.3403 165.444 58.2563C165.393 58.1723 165.342 58.0846 165.298 57.9932C165.236 57.8727 165.145 57.6388 165.247 57.9092C165.177 57.7229 165.108 57.5366 165.057 57.3429C165.028 57.2333 165.002 57.1237 164.984 57.0141C164.973 56.9666 164.969 56.9155 164.958 56.868C164.922 56.7218 164.977 57.1529 164.969 56.9337C164.962 56.7328 164.94 56.5392 164.947 56.3382C164.947 56.2396 164.958 56.1409 164.962 56.0386C164.984 55.6952 164.907 56.2542 164.977 55.9181C165.024 55.6843 165.079 55.4578 165.155 55.2312C165.199 55.0997 165.313 54.8842 165.185 55.1399C165.24 55.0266 165.291 54.9134 165.353 54.8038C165.407 54.7051 165.466 54.6065 165.528 54.5115C165.601 54.4019 165.773 54.2046 165.583 54.4202C165.754 54.2229 165.926 54.0402 166.12 53.8648C166.16 53.8283 166.2 53.7991 166.24 53.7625C166.145 53.8429 166.076 53.8794 166.218 53.7844C166.321 53.715 166.419 53.6493 166.525 53.5872C166.646 53.5178 166.773 53.463 166.894 53.3935C166.952 53.3607 167.102 53.3205 166.839 53.4118C166.909 53.3863 166.974 53.3606 167.044 53.3351C167.318 53.2364 167.599 53.167 167.884 53.1159C167.946 53.1049 168.011 53.094 168.074 53.0867C167.759 53.1305 168.099 53.0867 168.147 53.0867C168.318 53.072 168.494 53.0684 168.665 53.0684C170.228 53.0574 170.232 50.6242 168.665 50.6388L168.662 50.6315Z" fill="#C7D4F2"/>
<path d="M119.497 109.379C122.013 110.606 125.008 110.807 127.622 109.741C128.21 109.499 128.689 108.922 128.47 108.246C128.287 107.68 127.604 107.139 126.976 107.399C125.796 107.881 124.92 108.038 123.74 108.009C123.455 108.002 123.174 107.983 122.893 107.947C123.119 107.976 122.659 107.903 122.615 107.896C122.495 107.874 122.378 107.848 122.258 107.819C121.651 107.676 121.122 107.479 120.724 107.286C120.154 107.008 119.383 107.11 119.062 107.72C118.773 108.268 118.887 109.087 119.497 109.383V109.379Z" fill="#C7D4F2"/>
<path d="M132.301 106.383C133.714 105.674 134.916 104.491 135.668 103.102C135.822 102.817 135.877 102.481 135.793 102.167C135.716 101.886 135.497 101.579 135.234 101.44C134.953 101.29 134.609 101.217 134.299 101.316C134.003 101.411 133.725 101.593 133.572 101.875C133.393 102.203 133.192 102.518 132.962 102.814C133.024 102.733 133.09 102.649 133.152 102.569C132.798 103.022 132.389 103.431 131.932 103.785C132.013 103.723 132.097 103.658 132.177 103.595C131.83 103.862 131.461 104.092 131.074 104.29C130.811 104.421 130.592 104.739 130.515 105.017C130.435 105.309 130.471 105.696 130.639 105.952C130.807 106.211 131.056 106.441 131.366 106.511C131.695 106.588 131.998 106.54 132.301 106.387V106.383Z" fill="#C7D4F2"/>
<path d="M136.281 92.6863C136.303 92.8032 136.325 92.9164 136.34 93.0333C136.325 92.9274 136.311 92.8178 136.296 92.7118C136.355 93.1795 136.355 93.6508 136.296 94.1184C136.311 94.0125 136.325 93.9029 136.34 93.7969C136.274 94.2828 136.146 94.7578 135.953 95.2108C135.993 95.1158 136.033 95.0172 136.077 94.9222C136.044 94.9953 136.015 95.0647 135.978 95.1377C135.836 95.4373 135.767 95.7442 135.854 96.073C135.931 96.3543 136.15 96.6613 136.413 96.8001C136.694 96.9499 137.038 97.0229 137.348 96.9243C137.633 96.833 137.94 96.6466 138.075 96.3653C138.422 95.6383 138.626 94.9222 138.725 94.1257C138.809 93.4316 138.758 92.7338 138.623 92.0469C138.564 91.762 138.308 91.4624 138.064 91.3199C137.804 91.1665 137.421 91.1043 137.129 91.1956C136.464 91.4112 136.146 92.0214 136.281 92.6899V92.6863Z" fill="#C7D4F2"/>
<path d="M135.803 77.7547C136.099 78.6717 136.337 79.6033 136.508 80.5495C136.548 80.7833 136.585 81.0135 136.621 81.2473C136.676 81.6054 136.592 80.9953 136.636 81.357C136.651 81.4848 136.665 81.609 136.68 81.7369C136.731 82.2228 136.768 82.7124 136.786 83.2019C136.811 83.8376 137.326 84.4478 138.002 84.4186C138.637 84.3893 139.244 83.8851 139.218 83.2019C139.134 81.1341 138.784 79.0772 138.148 77.108C137.954 76.5052 137.297 76.0521 136.654 76.2604C136.052 76.4577 135.595 77.108 135.807 77.7547H135.803Z" fill="#C7D4F2"/>
<path d="M175.929 64.54C176.893 65.9831 177.858 67.4299 178.818 68.873C179.169 69.4028 179.906 69.6805 180.48 69.3078C181.006 68.968 181.294 68.2118 180.915 67.6455C179.95 66.2024 178.986 64.7556 178.026 63.3125C177.675 62.7827 176.937 62.505 176.364 62.8777C175.838 63.2175 175.549 63.9737 175.929 64.54Z" fill="#C7D4F2"/>
<path d="M181.667 73.8637C182.265 75.643 182.864 77.4259 183.463 79.2051C183.664 79.8079 184.311 80.2646 184.957 80.0527C185.556 79.859 186.024 79.2014 185.804 78.5584C185.205 76.7792 184.607 74.9963 184.008 73.2171C183.807 72.6142 183.16 72.1575 182.514 72.3694C181.915 72.5631 181.447 73.2207 181.667 73.8637Z" fill="#C7D4F2"/>
<path d="M184.38 87.4071C184.49 87.7797 184.588 88.156 184.669 88.5396C184.713 88.7442 184.749 88.9525 184.786 89.1571C184.8 89.2448 184.815 89.3361 184.826 89.4238C184.866 89.6795 184.797 89.1717 184.833 89.5005C184.924 90.2896 184.95 91.0824 184.91 91.8752C184.881 92.5109 185.49 93.1211 186.126 93.0919C186.813 93.0626 187.309 92.5584 187.342 91.8752C187.426 90.1545 187.211 88.4081 186.725 86.7604C186.546 86.1503 185.863 85.7082 185.231 85.9128C184.614 86.1138 184.19 86.7568 184.384 87.4071H184.38Z" fill="#C7D4F2"/>
<path d="M184.395 99.1055C184.519 100.231 184.515 101.36 184.391 102.485C184.347 102.891 184.431 102.255 184.369 102.66C184.347 102.806 184.322 102.949 184.296 103.091C184.249 103.358 184.19 103.625 184.128 103.888C183.993 104.458 183.822 105.017 183.621 105.569C183.402 106.168 183.865 106.928 184.468 107.063C185.155 107.22 185.728 106.854 185.962 106.215C186.787 103.961 187.09 101.495 186.827 99.1055C186.758 98.4771 186.32 97.8597 185.611 97.8889C185.012 97.9145 184.322 98.426 184.395 99.1055Z" fill="#C7D4F2"/>
<path d="M181.075 114.669C180.315 116.774 179.556 118.874 178.796 120.979C178.581 121.578 179.041 122.338 179.643 122.473C180.326 122.63 180.907 122.265 181.137 121.625C181.897 119.521 182.656 117.42 183.416 115.316C183.632 114.717 183.171 113.957 182.569 113.822C181.886 113.665 181.305 114.03 181.075 114.669Z" fill="#C7D4F2"/>
<path d="M175.451 126.919C174.648 128.041 173.844 129.166 173.041 130.288C172.865 130.529 172.843 130.949 172.916 131.223C172.993 131.504 173.212 131.811 173.475 131.95C173.756 132.1 174.1 132.173 174.41 132.074C174.728 131.972 174.943 131.786 175.137 131.515C175.94 130.394 176.744 129.268 177.547 128.147C177.723 127.906 177.745 127.485 177.672 127.211C177.595 126.93 177.376 126.623 177.113 126.484C176.832 126.335 176.488 126.261 176.178 126.36C175.86 126.462 175.645 126.649 175.451 126.919Z" fill="#C7D4F2"/>
<path d="M169.582 134.139C168.468 134.957 167.354 135.772 166.244 136.59C165.981 136.784 165.776 136.988 165.685 137.317C165.605 137.609 165.641 137.997 165.809 138.252C165.977 138.512 166.225 138.742 166.536 138.811C166.835 138.881 167.215 138.877 167.471 138.687C168.585 137.869 169.699 137.054 170.809 136.236C171.072 136.042 171.276 135.837 171.368 135.509C171.448 135.216 171.411 134.829 171.243 134.573C171.075 134.314 170.827 134.084 170.517 134.014C170.217 133.945 169.837 133.949 169.582 134.139Z" fill="#C7D4F2"/>
<path d="M110.516 155.712H116.294C116.929 155.712 117.539 155.153 117.51 154.496C117.481 153.838 116.977 153.279 116.294 153.279H110.516C109.881 153.279 109.271 153.838 109.3 154.496C109.329 155.153 109.833 155.712 110.516 155.712Z" fill="#C7D4F2"/>
<path d="M124.967 155.299C127.695 154.989 130.427 154.675 133.155 154.364C133.809 154.291 134.372 153.86 134.372 153.147C134.372 152.548 133.813 151.858 133.155 151.931C130.427 152.241 127.695 152.556 124.967 152.866C124.314 152.939 123.751 153.37 123.751 154.083C123.751 154.682 124.31 155.372 124.967 155.299Z" fill="#C7D4F2"/>
<path d="M139.89 152.833C141.775 152.877 143.608 152.468 145.328 151.711C145.588 151.598 145.814 151.247 145.887 150.984C145.967 150.692 145.931 150.305 145.763 150.049C145.595 149.79 145.347 149.56 145.036 149.49C144.697 149.413 144.415 149.476 144.101 149.614C143.977 149.669 143.992 149.662 144.149 149.596C144.094 149.618 144.039 149.64 143.984 149.662C143.9 149.695 143.82 149.728 143.736 149.757C143.542 149.83 143.345 149.896 143.148 149.954C142.783 150.067 142.41 150.162 142.03 150.235C141.84 150.272 141.654 150.301 141.464 150.334C141.373 150.349 141.406 150.341 141.567 150.32C141.508 150.327 141.45 150.334 141.391 150.341C141.304 150.352 141.216 150.36 141.128 150.367C140.716 150.404 140.303 150.411 139.89 150.404C139.255 150.389 138.645 150.973 138.674 151.62C138.703 152.292 139.207 152.818 139.89 152.837V152.833Z" fill="#C7D4F2"/>
<path d="M152.037 149.238C152.359 149.077 152.68 148.917 152.998 148.756C153.14 148.679 153.253 148.577 153.337 148.442C153.443 148.325 153.516 148.186 153.556 148.029C153.608 147.868 153.615 147.707 153.578 147.543C153.571 147.382 153.524 147.229 153.436 147.09C153.374 147.009 153.308 146.925 153.246 146.845C153.093 146.695 152.917 146.589 152.709 146.531C152.603 146.516 152.494 146.502 152.388 146.487C152.169 146.487 151.964 146.542 151.774 146.651C151.453 146.812 151.131 146.973 150.814 147.134C150.671 147.21 150.558 147.313 150.474 147.448C150.368 147.565 150.295 147.704 150.255 147.861C150.204 148.021 150.197 148.182 150.233 148.347C150.24 148.507 150.288 148.661 150.375 148.8C150.438 148.88 150.503 148.964 150.565 149.044C150.719 149.194 150.894 149.3 151.102 149.359C151.208 149.373 151.318 149.388 151.424 149.403C151.643 149.403 151.847 149.348 152.037 149.238Z" fill="#C7D4F2"/>
<path d="M94.0046 51.2307C94.5159 51.1248 95.0346 51.0334 95.5496 50.9567C95.6701 50.9384 95.7869 50.9202 95.9075 50.9055C95.6701 50.9384 96.0535 50.8873 96.0645 50.8873C96.3238 50.8544 96.583 50.8289 96.846 50.8033C97.8686 50.7083 98.8949 50.6681 99.9211 50.679C100.557 50.6863 101.166 50.1164 101.137 49.4624C101.108 48.7975 100.604 48.2532 99.9211 48.2459C97.7189 48.2239 95.5167 48.4468 93.3583 48.8852C92.7338 49.0131 92.3174 49.784 92.511 50.3795C92.7264 51.0407 93.3363 51.3659 94.0046 51.227V51.2307Z" fill="#C7D4F2"/>
<path d="M105.206 51.2927C106.984 51.5265 108.759 51.7603 110.538 51.9941C110.823 52.0307 111.202 51.8297 111.396 51.6397C111.608 51.4278 111.765 51.0844 111.75 50.7812C111.736 50.467 111.633 50.1418 111.396 49.9226C111.14 49.6888 110.877 49.6121 110.538 49.5682C108.759 49.3344 106.984 49.1006 105.206 48.8668C104.921 48.8302 104.541 49.0312 104.347 49.2211C104.136 49.433 103.979 49.7765 103.993 50.0797C104.008 50.3939 104.11 50.7191 104.347 50.9383C104.603 51.1721 104.866 51.2488 105.206 51.2927Z" fill="#C7D4F2"/>
<path d="M115.475 53.1303C116.922 53.4372 118.372 53.7441 119.818 54.0474C120.439 54.1789 121.162 53.8647 121.312 53.1997C121.45 52.5896 121.129 51.8443 120.464 51.7055C119.018 51.3986 117.568 51.0917 116.122 50.7885C115.501 50.6569 114.778 50.9711 114.628 51.636C114.489 52.2462 114.811 52.9915 115.475 53.1303Z" fill="#C7D4F2"/>
<path d="M124.35 57.7593C124.62 57.8799 124.876 58.0333 125.113 58.2123C125.033 58.1502 124.949 58.0845 124.869 58.0224C125.128 58.2233 125.358 58.4535 125.559 58.7092C125.497 58.6289 125.431 58.5448 125.369 58.4644C125.555 58.7092 125.712 58.9723 125.837 59.2536C125.913 59.3961 126.016 59.5093 126.151 59.5934C126.268 59.6993 126.406 59.7724 126.563 59.8126C126.856 59.8929 127.243 59.8564 127.498 59.6883C127.758 59.5203 127.988 59.2719 128.057 58.9613C128.072 58.8554 128.086 58.7458 128.101 58.6398C128.101 58.4206 128.046 58.216 127.937 58.0261C127.842 57.8105 127.725 57.6022 127.59 57.4049C127.403 57.1346 127.195 56.8679 126.965 56.6341C126.567 56.2358 126.092 55.8887 125.577 55.6586C125.439 55.5709 125.289 55.5234 125.124 55.5161C124.964 55.4796 124.803 55.4869 124.639 55.538C124.357 55.6147 124.051 55.834 123.912 56.097C123.762 56.3783 123.689 56.7217 123.788 57.0323C123.879 57.3136 124.062 57.6314 124.347 57.7593H124.35Z" fill="#C7D4F2"/>
<path d="M158.819 45.9622C159.937 47.0912 161.058 48.2201 162.176 49.349C162.625 49.802 163.45 49.8313 163.896 49.349C164.341 48.8631 164.374 48.1105 163.896 47.6282C162.778 46.4993 161.657 45.3704 160.539 44.2414C160.09 43.7884 159.265 43.7592 158.819 44.2414C158.374 44.7274 158.341 45.48 158.819 45.9622Z" fill="#C7D4F2"/>
<path d="M151.452 39.5249C151.511 39.5286 151.569 39.5322 151.628 39.5395C151.832 39.5614 151.635 39.5505 151.551 39.5249C151.661 39.5542 151.785 39.5615 151.898 39.587C152.128 39.6345 152.355 39.6966 152.577 39.7734C152.676 39.8062 152.775 39.8464 152.873 39.883C153.012 39.9378 152.617 39.766 152.811 39.8574C152.866 39.883 152.917 39.9049 152.972 39.9341C153.184 40.0364 153.388 40.1533 153.585 40.2775C153.673 40.336 153.761 40.3944 153.848 40.4565C153.87 40.4748 154.06 40.6173 153.896 40.4895C153.735 40.3652 153.903 40.4968 153.94 40.526C154.122 40.6758 154.294 40.8365 154.455 41.0082C154.535 41.0923 154.615 41.1799 154.688 41.2713C154.718 41.3078 154.747 41.3443 154.78 41.3809C154.944 41.5782 154.615 41.1471 154.761 41.359C154.896 41.5526 155.024 41.7499 155.138 41.9545C155.444 42.5098 156.259 42.74 156.799 42.3892C157.362 42.0275 157.566 41.3224 157.234 40.7269C156.065 38.6152 153.841 37.2708 151.452 37.0954C150.817 37.0479 150.211 37.6872 150.236 38.312C150.269 39.0098 150.77 39.4775 151.452 39.5286V39.5249Z" fill="#C7D4F2"/>
<path d="M141.815 33.8109C142.041 33.8036 142.264 33.8109 142.487 33.8401C142.381 33.8255 142.271 33.8109 142.165 33.7963C142.527 33.8474 142.878 33.9424 143.213 34.0812C143.119 34.0411 143.02 34.0009 142.925 33.957C143.261 34.0995 143.575 34.2822 143.864 34.5051C143.783 34.4429 143.699 34.3772 143.619 34.3151C143.864 34.5087 144.086 34.7279 144.28 34.969C144.463 35.1955 144.861 35.3234 145.138 35.3234C145.438 35.3234 145.792 35.1919 145.996 34.969C146.208 34.7388 146.365 34.432 146.351 34.1105C146.336 34.0045 146.322 33.8949 146.307 33.7889C146.248 33.5844 146.146 33.4053 145.993 33.2519C145.014 32.028 143.371 31.3192 141.815 31.3813C141.497 31.3923 141.183 31.5092 140.957 31.7357C140.745 31.9476 140.588 32.291 140.602 32.5943C140.631 33.23 141.135 33.8365 141.818 33.8109H141.815Z" fill="#C7D4F2"/>
<path d="M128.959 29.5365C129.96 29.7411 130.931 30.0407 131.874 30.4352C131.779 30.3951 131.68 30.3548 131.585 30.311C131.914 30.4498 132.235 30.5997 132.549 30.7604C133.115 31.0454 133.893 30.9284 134.211 30.3256C134.503 29.774 134.379 28.9702 133.776 28.6633C132.458 27.9947 131.056 27.4869 129.606 27.191C129.284 27.1252 128.959 27.1435 128.671 27.3152C128.419 27.4613 128.178 27.7536 128.112 28.0422C127.973 28.6487 128.295 29.4013 128.959 29.5365Z" fill="#C7D4F2"/>
<path d="M115.567 26.2555L120.789 27.5306C121.407 27.6804 122.137 27.3333 122.283 26.683C122.426 26.0546 122.093 25.3495 121.436 25.1888C119.697 24.765 117.955 24.3375 116.213 23.9137C115.596 23.7639 114.866 24.111 114.72 24.7613C114.577 25.3897 114.909 26.0948 115.567 26.2555Z" fill="#C7D4F2"/>
<path d="M104.044 24.9293C104.234 24.8782 104.428 24.8343 104.622 24.7978C104.676 24.7868 104.731 24.7796 104.79 24.7686C104.925 24.7467 104.903 24.7503 104.716 24.7759C104.782 24.7467 104.899 24.754 104.968 24.7503C105.363 24.7138 105.761 24.7102 106.155 24.7357C106.239 24.743 106.323 24.7467 106.407 24.7576C106.462 24.7649 106.521 24.7686 106.575 24.7759C106.393 24.7503 106.367 24.7467 106.506 24.7686C106.7 24.8015 106.897 24.838 107.087 24.8818C107.474 24.9732 107.846 25.0974 108.215 25.2472C108.486 25.3568 108.909 25.2655 109.15 25.123C109.402 24.9768 109.643 24.6846 109.709 24.3959C109.778 24.0854 109.764 23.7346 109.585 23.4606C109.402 23.1757 109.168 23.0296 108.858 22.9017C107.142 22.1966 105.18 22.1125 103.394 22.5838C102.781 22.7446 102.346 23.4607 102.547 24.0781C102.752 24.7101 103.384 25.101 104.041 24.9257L104.044 24.9293Z" fill="#C7D4F2"/>
<path d="M90.1115 24.5934C90.6812 24.3851 91.2656 24.2389 91.8682 24.1549C91.7623 24.1695 91.6527 24.1841 91.5468 24.1988C92.3064 24.0965 93.0697 24.0965 93.8257 24.1951C93.7198 24.1805 93.6103 24.1659 93.5044 24.1513C93.6103 24.1659 93.7126 24.1805 93.8148 24.1988C94.1472 24.2536 94.4502 24.2499 94.7497 24.0746C95.0017 23.9284 95.2427 23.6361 95.3085 23.3475C95.4436 22.7593 95.1295 21.9665 94.4612 21.8533C92.7885 21.5683 91.0684 21.6669 89.4687 22.2478C89.1656 22.3574 88.91 22.5218 88.742 22.8068C88.5886 23.0662 88.5265 23.4498 88.6178 23.7421C88.8077 24.3266 89.4724 24.8235 90.1115 24.5897V24.5934Z" fill="#C7D4F2"/>
<path d="M79.0563 27.0556C80.3418 26.5733 81.6237 26.0911 82.9093 25.6088C83.2124 25.4955 83.4681 25.3385 83.6361 25.0499C83.7894 24.7905 83.8516 24.4068 83.7603 24.1146C83.574 23.5337 82.902 23.0258 82.2665 23.267C80.981 23.7492 79.699 24.2315 78.4135 24.7137C78.1104 24.827 77.8547 24.9841 77.6867 25.2727C77.5333 25.5321 77.4713 25.9157 77.5626 26.208C77.7489 26.7889 78.4208 27.2967 79.0563 27.0556Z" fill="#C7D4F2"/>
<path d="M34.7379 85.9275C35.8737 84.6525 37.0058 83.3774 38.1417 82.1023C38.5653 81.6274 38.6457 80.8456 38.1417 80.3816C37.6815 79.9578 36.8744 79.8737 36.4215 80.3816C35.2857 81.6566 34.1535 82.9317 33.0177 84.2067C32.5941 84.6817 32.5137 85.4635 33.0177 85.9275C33.4779 86.3513 34.2851 86.4354 34.7379 85.9275Z" fill="#C7D4F2"/>
<path d="M41.5453 77.795C43.3019 76.1802 45.0549 74.5617 46.8116 72.9469C47.2791 72.5158 47.2827 71.6609 46.8116 71.2261C46.3113 70.7658 45.5918 70.7658 45.0915 71.2261C43.3348 72.8409 41.5818 74.4594 39.8251 76.0742C39.3576 76.5053 39.354 77.3603 39.8251 77.795C40.3255 78.2554 41.0449 78.2554 41.5453 77.795Z" fill="#C7D4F2"/>
<path d="M51.3695 69.3626C51.4389 69.264 51.5083 69.169 51.5777 69.074C51.5923 69.0521 51.7421 68.8585 51.6142 69.0265C51.4901 69.1873 51.6251 69.0156 51.6507 68.9827C51.8004 68.7964 51.9538 68.6174 52.1145 68.4383C52.4323 68.084 52.7719 67.7478 53.1262 67.4336C53.3051 67.2765 53.4877 67.1231 53.674 66.977C53.8018 66.8747 53.6375 67.0098 53.5973 67.0354C53.6558 66.9952 53.7105 66.9477 53.769 66.9075C53.8566 66.8454 53.9406 66.7833 54.0282 66.7212C54.4263 66.4399 54.8427 66.1878 55.2737 65.954C55.8325 65.6507 56.0589 64.8287 55.7083 64.2916C55.343 63.7253 54.6455 63.5317 54.0465 63.8569C52.1365 64.8908 50.5222 66.3741 49.2695 68.1424C49.0979 68.3872 49.0723 68.8 49.1454 69.0777C49.2221 69.359 49.4412 69.6659 49.7042 69.8047C50.3287 70.1335 50.9714 69.9253 51.3658 69.3699L51.3695 69.3626Z" fill="#C7D4F2"/>
<path d="M60.109 62.1434C61.0658 61.6465 62.019 61.1497 62.9758 60.6528C63.5419 60.3605 63.7538 59.5239 63.4105 58.9905C63.038 58.4132 62.3514 58.2415 61.7488 58.5557C60.7919 59.0526 59.8387 59.5494 58.8818 60.0463C58.3157 60.3386 58.1039 61.1753 58.4472 61.7087C58.8197 62.2859 59.5064 62.4576 60.109 62.1434Z" fill="#C7D4F2"/>
<path d="M69.9918 56.1591C70.0722 56.0897 70.1526 56.0203 70.2366 55.9546C70.1562 56.0167 70.0722 56.0824 69.9918 56.1446C70.2621 55.94 70.5506 55.7755 70.8574 55.6404C70.7625 55.6806 70.6638 55.7207 70.5689 55.7646C70.9122 55.6221 71.2701 55.5234 71.6389 55.4723C71.533 55.4869 71.4235 55.5016 71.3176 55.5162C71.6682 55.4723 72.0224 55.4687 72.373 55.5162C72.2671 55.5016 72.1576 55.4869 72.0517 55.4723C72.0882 55.4759 72.1211 55.4833 72.1576 55.4869C72.4899 55.5381 72.7893 55.5417 73.0925 55.3627C73.3445 55.2166 73.5855 54.9243 73.6513 54.6357C73.7207 54.3251 73.7061 53.9744 73.5271 53.7004C73.3665 53.4519 73.1072 53.1889 72.8004 53.1414C71.9823 53.0136 71.1751 53.0245 70.3753 53.2583C69.5901 53.4885 68.8889 53.894 68.279 54.4384C67.8042 54.8622 67.8152 55.7317 68.279 56.1591C68.7866 56.6268 69.4915 56.6122 69.9991 56.1591H69.9918Z" fill="#C7D4F2"/>
<path d="M24.6288 100.366C24.1868 101.21 23.8509 102.119 23.6939 103.062C23.5149 104.111 23.5149 105.112 23.6573 106.164C23.6938 106.442 23.986 106.756 24.2161 106.891C24.4754 107.044 24.8589 107.106 25.1511 107.015C25.4469 106.92 25.7281 106.737 25.8778 106.456C26.0422 106.146 26.0458 105.864 26.002 105.521C26.0531 105.89 26.002 105.495 25.9983 105.422C25.991 105.338 25.9837 105.254 25.98 105.166C25.9691 104.969 25.9655 104.768 25.9691 104.571C25.9728 104.374 25.9837 104.173 26.002 103.975C26.0056 103.935 26.0641 103.595 26.0202 103.8C25.9764 104.005 26.0458 103.661 26.0531 103.625C26.1225 103.234 26.2211 102.85 26.3489 102.474C26.3745 102.394 26.4038 102.313 26.433 102.233C26.4512 102.178 26.4731 102.127 26.495 102.076C26.5462 101.951 26.5388 101.97 26.4694 102.13C26.5023 101.951 26.6447 101.754 26.7287 101.593C27.0246 101.031 26.8931 100.245 26.2942 99.9311C25.7354 99.6352 24.9465 99.7667 24.6324 100.366H24.6288Z" fill="#C7D4F2"/>
<path d="M22.3462 112.309C21.7509 114.607 21.572 117.015 21.8642 119.371C21.9408 120 22.3681 120.617 23.0802 120.588C23.6719 120.562 24.3804 120.047 24.2964 119.371C24.1613 118.268 24.1211 117.154 24.1905 116.047C24.2051 115.791 24.227 115.535 24.2562 115.279C24.2635 115.195 24.2745 115.108 24.2855 115.024C24.3037 114.885 24.3074 114.856 24.2964 114.932C24.2855 115.009 24.2891 114.98 24.3111 114.841C24.322 114.757 24.3366 114.673 24.3512 114.589C24.4425 114.041 24.5594 113.497 24.6982 112.959C24.8553 112.346 24.4973 111.611 23.8509 111.465C23.2154 111.319 22.5251 111.655 22.3571 112.313L22.3462 112.309Z" fill="#C7D4F2"/>
<path d="M21.7033 128.326C22.3278 130.258 22.9524 132.191 23.5769 134.124C23.7704 134.727 24.4278 135.18 25.0705 134.971C25.6731 134.774 26.1297 134.124 25.9179 133.477C25.2933 131.544 24.6689 129.612 24.0444 127.679C23.8508 127.076 23.1934 126.623 22.5506 126.832C21.948 127.029 21.4915 127.679 21.7033 128.326Z" fill="#C7D4F2"/>
<path d="M25.0669 142.3L27.4956 148.073C27.6235 148.38 27.755 148.624 28.0544 148.8C28.3137 148.953 28.6972 149.015 28.9894 148.924C29.5482 148.741 30.1032 148.054 29.8366 147.43C29.0259 145.504 28.2188 143.583 27.408 141.657C27.2802 141.35 27.1487 141.106 26.8492 140.93C26.5899 140.777 26.2064 140.715 25.9142 140.806C25.3555 140.989 24.8003 141.676 25.0669 142.3Z" fill="#C7D4F2"/>
<path d="M32.656 156.764C33.6128 157.893 34.5734 159.018 35.5302 160.147C35.7238 160.374 36.1036 160.502 36.3884 160.502C36.6733 160.502 37.0422 160.37 37.2467 160.147C37.4585 159.917 37.6156 159.61 37.601 159.289C37.5864 158.953 37.4622 158.686 37.2467 158.43C36.2899 157.301 35.3294 156.176 34.3725 155.047C34.179 154.821 33.7991 154.693 33.5143 154.693C33.2294 154.693 32.8605 154.824 32.656 155.047C32.4441 155.277 32.2871 155.584 32.3017 155.906C32.3163 156.242 32.4405 156.508 32.656 156.764Z" fill="#C7D4F2"/>
<path d="M39.6537 164.261C40.3768 165.69 41.7354 166.771 43.262 167.224C43.8719 167.403 44.6133 167.005 44.7557 166.376C44.9055 165.723 44.5585 165.076 43.9084 164.882C43.7404 164.831 43.5761 164.773 43.4118 164.707C43.5067 164.747 43.6053 164.787 43.7002 164.831C43.324 164.67 42.9698 164.462 42.6448 164.21C42.7251 164.272 42.8091 164.338 42.8895 164.4C42.5644 164.148 42.2759 163.856 42.0239 163.534C42.086 163.614 42.1518 163.699 42.2139 163.779C42.0349 163.545 41.8815 163.297 41.75 163.037C41.6186 162.774 41.3008 162.555 41.0233 162.478C40.7311 162.398 40.3439 162.434 40.0883 162.602C39.829 162.771 39.5989 163.019 39.5295 163.33C39.4528 163.658 39.4967 163.962 39.6537 164.265V164.261Z" fill="#C7D4F2"/>
<path d="M57.907 181.063C59.3131 182.079 60.7192 183.095 62.1289 184.11C62.3699 184.286 62.7899 184.308 63.0638 184.235C63.345 184.158 63.6518 183.939 63.7905 183.676C64.1229 183.047 63.9074 182.411 63.356 182.013C61.9499 180.998 60.5438 179.982 59.1341 178.966C58.893 178.791 58.4731 178.769 58.1992 178.842C57.918 178.919 57.6112 179.138 57.4724 179.401C57.1401 180.029 57.3555 180.665 57.907 181.063Z" fill="#C7D4F2"/>
<path d="M68.4652 187.877C69.9078 188.524 71.3504 189.17 72.793 189.817C73.0998 189.956 73.392 190.033 73.728 189.941C74.0092 189.865 74.316 189.645 74.4547 189.382C74.736 188.853 74.6373 187.998 74.0201 187.72C72.5775 187.073 71.1349 186.427 69.6923 185.78C69.3856 185.641 69.0934 185.564 68.7574 185.656C68.4762 185.733 68.1694 185.952 68.0306 186.215C67.7494 186.745 67.848 187.599 68.4652 187.877Z" fill="#C7D4F2"/>
<path d="M80.7802 191.943C83.0445 192.517 85.3089 193.094 87.5732 193.668C88.1868 193.825 88.9209 193.467 89.067 192.82C89.2094 192.188 88.877 191.49 88.2196 191.326C85.9553 190.752 83.691 190.175 81.4266 189.602C80.8131 189.444 80.0791 189.803 79.933 190.449C79.7905 191.081 80.1228 191.779 80.7802 191.943Z" fill="#C7D4F2"/>
<path d="M96.0424 195.422C98.6755 195.162 101.334 195.268 103.909 195.776C104.552 195.904 105.22 195.593 105.403 194.928C105.567 194.329 105.202 193.562 104.556 193.434C101.751 192.879 98.8874 192.711 96.0424 192.992C95.3886 193.058 94.8262 193.503 94.8262 194.209C94.8262 194.815 95.385 195.491 96.0424 195.425V195.422Z" fill="#C7D4F2"/>
<path d="M112.744 195.516C114.676 195.232 116.608 194.943 118.536 194.658C119.168 194.563 119.569 193.734 119.383 193.164C119.16 192.473 118.565 192.214 117.889 192.316C115.957 192.601 114.025 192.89 112.097 193.175C111.465 193.27 111.064 194.099 111.25 194.669C111.473 195.359 112.068 195.619 112.744 195.516Z" fill="#C7D4F2"/>
<path d="M129.777 191.845C132.02 191.794 134.185 191.271 136.223 190.347C136.804 190.084 136.99 189.196 136.658 188.684C136.271 188.085 135.617 187.965 134.996 188.25C134.952 188.268 134.543 188.447 134.792 188.341C134.693 188.381 134.591 188.421 134.492 188.462C134.258 188.553 134.021 188.637 133.784 188.717C133.342 188.863 132.893 188.988 132.436 189.094C132.21 189.145 131.979 189.192 131.749 189.232C131.625 189.254 131.501 189.273 131.377 189.295C131.023 189.353 131.629 189.269 131.275 189.309C130.774 189.368 130.274 189.404 129.774 189.415C129.138 189.43 128.528 189.963 128.557 190.632C128.587 191.278 129.091 191.863 129.774 191.848L129.777 191.845Z" fill="#C7D4F2"/>
<path d="M134.039 168.178C133.481 170.651 133.327 173.205 133.638 175.722C133.714 176.35 134.142 176.968 134.854 176.939C135.445 176.913 136.154 176.398 136.07 175.722C135.924 174.542 135.869 173.351 135.927 172.164C135.986 170.943 136.11 170.03 136.384 168.824C136.523 168.207 136.194 167.48 135.537 167.33C134.92 167.188 134.193 167.516 134.043 168.178H134.039Z" fill="#C7D4F2"/>
<path d="M132.148 173.073C132.754 172.734 133.075 172.595 133.74 172.405C134.427 172.207 134.828 172.145 135.435 172.116C135.734 172.101 136.034 172.101 136.329 172.116C136.501 172.123 136.669 172.142 136.841 172.156C136.99 172.175 137.009 172.175 136.899 172.164C136.983 172.178 137.067 172.189 137.151 172.207C137.783 172.321 138.397 172.511 138.985 172.759C139.573 173.008 140.347 172.492 140.478 171.912C140.639 171.199 140.259 170.68 139.631 170.417C136.844 169.241 133.543 169.504 130.921 170.98C130.347 171.301 130.157 172.083 130.486 172.642C130.822 173.219 131.574 173.402 132.148 173.077V173.073Z" fill="#C7D4F2"/>
<path d="M160.36 1.79942C160.16 4.16686 160.335 6.55255 160.839 8.86885C160.974 9.48993 161.734 9.91374 162.333 9.71645C162.986 9.50455 163.326 8.88711 163.18 8.22218C163.059 7.6705 162.957 7.11152 162.877 6.55255C162.902 6.74618 162.851 6.35162 162.855 6.35892C162.84 6.23105 162.826 6.09953 162.811 5.968C162.782 5.68669 162.76 5.40537 162.742 5.12405C162.672 4.01706 162.69 2.90642 162.785 1.79942C162.84 1.16372 162.186 0.557238 161.569 0.582812C160.864 0.615693 160.412 1.11622 160.353 1.79942H160.36Z" fill="#C7D4F2"/>
<path d="M159.151 5.90221H165.411C166.046 5.90221 166.656 5.34322 166.627 4.6856C166.598 4.02798 166.094 3.46899 165.411 3.46899H159.151C158.516 3.46899 157.906 4.02798 157.935 4.6856C157.964 5.34322 158.468 5.90221 159.151 5.90221Z" fill="#C7D4F2"/>
<path d="M2.39844 118.37V128.486C2.39844 130.05 4.82707 130.054 4.82707 128.486V118.37C4.82707 116.806 2.39844 116.803 2.39844 118.37Z" fill="#C7D4F2"/>
<path d="M1.54726 123.945C2.0476 123.818 2.54799 123.712 3.05564 123.624C3.17251 123.602 3.28936 123.584 3.40623 123.565C3.48293 123.554 3.56323 123.544 3.63993 123.533C3.53402 123.547 3.52303 123.547 3.61068 123.536C3.86633 123.507 4.12202 123.478 4.37767 123.456C5.40392 123.368 6.4338 123.368 7.4637 123.445C8.09917 123.492 8.70545 122.853 8.67989 122.228C8.64702 121.53 8.14665 121.063 7.4637 121.012C5.26512 120.851 3.03732 121.059 0.897172 121.6C0.279962 121.757 -0.151015 122.48 0.0498523 123.094C0.254372 123.733 0.882571 124.11 1.54361 123.942L1.54726 123.945Z" fill="#C7D4F2"/>
<path d="M74.1482 210.375V218.562C74.1482 219.22 74.707 219.779 75.3644 219.779C76.0218 219.779 76.5805 219.224 76.5805 218.562V210.375C76.5805 209.717 76.0218 209.158 75.3644 209.158C74.707 209.158 74.1482 209.714 74.1482 210.375Z" fill="#C7D4F2"/>
<path d="M79.4577 213.253L71.2703 213.253C70.6127 213.253 70.0537 213.811 70.0537 214.469C70.0537 215.126 70.6091 215.685 71.2703 215.685L79.4577 215.685C80.1153 215.685 80.6743 215.126 80.6743 214.469C80.6743 213.811 80.119 213.253 79.4577 213.253Z" fill="#C7D4F2"/>
</svg>
