<svg width="251" height="110" viewBox="0 0 251 110" fill="none" xmlns="http://www.w3.org/2000/svg">
<path d="M127.318 55.0254C127.336 57.4873 128.756 59.6304 131.136 60.3794C133.152 61.0134 135.614 60.472 137.033 58.8592C138.657 57.0128 138.92 54.0059 137.586 51.9184C136.34 49.9719 134.023 49.1488 131.796 49.5159C130.661 49.705 129.538 50.2833 128.76 51.1361C127.785 52.2076 127.329 53.5868 127.318 55.0217C127.314 55.6965 127.896 56.2712 128.567 56.2712C129.238 56.2712 129.809 55.7002 129.816 55.0217C129.816 54.8957 129.82 54.7697 129.827 54.6436C129.835 54.5176 129.887 54.2432 129.831 54.5287C129.876 54.2914 129.92 54.0577 129.994 53.8279C130.009 53.7871 130.135 53.4423 130.057 53.6388C129.979 53.8316 130.124 53.509 130.142 53.4682C130.243 53.2754 130.365 53.1049 130.483 52.9269C130.287 53.2235 130.454 52.9751 130.524 52.8972C130.591 52.8268 130.658 52.7564 130.728 52.6897C130.776 52.6452 130.88 52.5117 130.943 52.5006C130.939 52.5006 130.684 52.6822 130.862 52.5636C130.91 52.5302 130.958 52.4931 131.01 52.4635C131.169 52.3596 131.332 52.2632 131.503 52.1817C131.547 52.1594 131.592 52.1446 131.633 52.1224C131.773 52.0482 131.38 52.2076 131.532 52.1668C131.633 52.1409 131.733 52.0927 131.836 52.063C132.018 52.0074 132.203 51.9666 132.389 51.9296C132.696 51.8702 132.24 51.9333 132.411 51.9296C132.518 51.9259 132.626 51.911 132.73 51.911C132.923 51.9036 133.108 51.9184 133.301 51.9296C133.601 51.9481 133.026 51.874 133.323 51.9296C133.427 51.9481 133.534 51.9666 133.638 51.9926C133.823 52.0371 134.001 52.1075 134.183 52.1594C134.376 52.215 133.923 52.0259 134.212 52.1705C134.309 52.2187 134.405 52.267 134.498 52.3189C134.579 52.3671 134.661 52.4153 134.743 52.4672C134.783 52.4931 135.039 52.7007 134.876 52.5599C134.713 52.4153 134.932 52.6155 134.969 52.6488C135.058 52.7304 135.143 52.8157 135.224 52.9046C135.295 52.9825 135.462 53.231 135.265 52.9343C135.321 53.0159 135.38 53.0937 135.436 53.179C135.491 53.2643 135.543 53.3533 135.588 53.4423C135.617 53.4979 135.762 53.8241 135.692 53.6462C135.614 53.4497 135.74 53.7945 135.755 53.8353C135.784 53.928 135.81 54.0207 135.832 54.1134C135.858 54.2246 135.881 54.3359 135.903 54.4471C135.951 54.6658 135.903 54.4137 135.895 54.3766C135.903 54.4656 135.914 54.5583 135.921 54.6473C135.94 54.8994 135.94 55.1515 135.921 55.3999C135.914 55.5 135.843 55.8523 135.918 55.5149C135.892 55.6409 135.873 55.767 135.843 55.8931C135.795 56.0933 135.717 56.2824 135.658 56.4789C135.751 56.1563 135.673 56.4381 135.621 56.5382C135.562 56.6494 135.499 56.7607 135.432 56.8682C135.376 56.9535 135.317 57.0313 135.262 57.1129C135.41 56.9016 135.325 57.0313 135.221 57.1426C135.191 57.1759 134.832 57.5615 134.802 57.5392C134.78 57.5244 135.043 57.3761 134.883 57.4762C134.843 57.5022 134.806 57.5318 134.765 57.5578C134.687 57.6097 134.605 57.6616 134.524 57.7098C134.442 57.758 134.357 57.8025 134.272 57.8433C134.231 57.8655 134.187 57.884 134.142 57.9026C133.916 58.0175 134.42 57.81 134.175 57.8841C134.005 57.936 133.838 57.999 133.664 58.0435C133.571 58.0658 133.479 58.0843 133.386 58.1028C133.338 58.1102 133.293 58.1177 133.245 58.1251C133.093 58.1584 133.549 58.1065 133.33 58.1102C133.141 58.1139 132.952 58.1362 132.759 58.1325C132.663 58.1325 132.57 58.1214 132.474 58.1177C132.129 58.0991 132.719 58.1733 132.381 58.1065C132.17 58.0657 131.962 58.0176 131.759 57.9545C131.703 57.936 131.369 57.8284 131.573 57.8952C131.77 57.9619 131.458 57.8395 131.399 57.8099C131.195 57.7061 131.017 57.5763 130.824 57.454C130.695 57.3724 131.014 57.6283 130.906 57.5171C130.865 57.4726 130.813 57.4392 130.769 57.3984C130.687 57.3242 130.609 57.25 130.539 57.1685C130.439 57.0609 130.309 56.8756 130.476 57.1129C130.406 57.0091 130.331 56.9089 130.265 56.8051C130.205 56.7087 130.15 56.6086 130.098 56.5048C130.076 56.4603 130.057 56.4084 130.031 56.3639C129.957 56.2379 130.113 56.6198 130.05 56.4048C129.983 56.1638 129.898 55.9338 129.85 55.6854C129.838 55.6298 129.831 55.5705 129.82 55.5149C129.89 55.8486 129.827 55.5667 129.82 55.4889C129.805 55.3332 129.801 55.1774 129.801 55.0217C129.798 54.3469 129.231 53.7723 128.552 53.7723C127.874 53.7723 127.299 54.3432 127.303 55.0217L127.318 55.0254Z" fill="#C7D4F2"/>
<path d="M118.533 55.0256C118.584 61.3546 122.117 66.9124 128.274 68.8441C133.601 70.5163 139.977 69.137 143.728 64.8769C147.928 60.1051 148.424 52.2115 145.007 46.865C141.878 41.9709 135.892 39.8242 130.276 40.7363C123.125 41.8968 118.592 47.9366 118.533 55.0256C118.518 56.631 121.016 56.6347 121.027 55.0256C121.072 49.783 123.893 45.1521 129.038 43.5801C133.471 42.2268 138.638 43.2945 141.811 46.7723C145.414 50.721 145.689 57.4875 142.846 61.9256C140.31 65.8891 135.258 67.6503 130.721 66.8717C124.745 65.8447 121.072 60.9838 121.024 55.0256C121.009 53.4202 118.514 53.4165 118.529 55.0256L118.533 55.0256Z" fill="#C7D4F2"/>
<path d="M110.722 55.0256C110.748 60.0421 112.053 65.0364 115.126 69.0629C117.784 72.5481 121.52 75.0434 125.69 76.3596C133.905 78.9549 143.691 76.8861 149.54 70.3792C156.168 63.0083 156.909 50.6283 151.571 42.3306C146.715 34.7818 137.404 31.5153 128.741 32.9613C119.504 34.5037 112.398 41.6484 111.03 50.9324C110.83 52.2894 110.73 53.6538 110.722 55.0256C110.715 56.6311 113.209 56.6348 113.217 55.0256C113.239 50.5319 114.373 46.0457 117.139 42.4344C119.47 39.3867 122.81 37.1955 126.458 36.0646C133.812 33.7844 142.427 35.5641 147.698 41.3518C153.64 47.881 154.148 59.0003 149.477 66.36C145.266 72.9967 136.881 75.9703 129.29 74.6652C121.001 73.2378 114.763 67.0904 113.473 58.7296C113.284 57.5024 113.217 56.264 113.213 55.0256C113.206 53.4202 110.711 53.4165 110.719 55.0256L110.722 55.0256Z" fill="#C7D4F2"/>
<path d="M69.0689 55.0254C69.1134 60.4942 72.1752 65.2957 77.4945 66.9642C82.0872 68.4064 87.5918 67.2126 90.8242 63.5383C94.4531 59.419 94.8942 52.608 91.9399 47.9882C89.2302 43.7504 84.0555 41.8966 79.1959 42.6863C73.0315 43.6874 69.1171 48.9151 69.0689 55.0254C69.0541 56.6308 71.5525 56.6345 71.5636 55.0254C71.6007 50.6503 73.9434 46.7796 78.2433 45.4671C81.9538 44.3325 86.2722 45.2224 88.9337 48.1366C91.9473 51.4364 92.1549 57.1017 89.7863 60.8057C87.6734 64.1055 83.4587 65.5701 79.6778 64.9286C74.6736 64.0796 71.6044 60.0122 71.5636 55.0291C71.5488 53.4237 69.0541 53.42 69.0689 55.0291L69.0689 55.0254Z" fill="#C7D4F2"/>
<path d="M54.4566 25.5125C40.8674 23.2508 26.6518 29.6242 21.3919 42.7939C18.4709 50.1054 18.3819 58.9779 21.0545 66.3784C23.4046 72.8817 28.0678 78.2949 34.2026 81.502C40.8266 84.9687 48.5813 85.8289 55.8615 84.2679C57.0365 84.0158 57.0662 82.0915 55.8615 81.8617C48.281 80.4157 41.0528 75.0877 37.4757 68.3027C33.8912 61.5102 33.5836 52.8825 35.8076 45.6155C37.5498 39.9242 41.2344 35.0375 46.1719 31.7303C48.7036 30.0359 51.4874 28.5899 54.4529 27.9188C56.0171 27.5665 55.3574 25.1603 53.7894 25.5125C45.1785 27.4516 37.6017 34.3997 34.3027 42.4305C31.2445 49.8681 31.0481 59.0632 33.9653 66.5749C36.2302 72.4071 40.43 77.1752 45.7641 80.4046C48.6147 82.1323 51.8952 83.6376 55.1942 84.2679L55.1942 81.8617C43.1953 84.4385 29.9509 79.4183 24.4426 68.058C18.4301 55.6558 21.9368 38.76 34.0543 31.4966C39.9222 27.9781 47.0615 26.8028 53.7857 27.9225C55.3574 28.1857 56.032 25.7794 54.4492 25.5162L54.4566 25.5125Z" fill="#C7D4F2"/>
<path d="M208.063 27.9189C220.344 25.876 233.551 31.7897 238.185 43.7766C240.843 50.6469 240.898 58.7889 238.396 65.7148C236.265 71.6175 231.939 76.4486 226.393 79.3479C220.385 82.4921 213.26 83.2781 206.658 81.8618L206.658 84.268C215.013 82.6737 223.028 76.608 226.797 69.048C230.412 61.7995 230.812 52.8158 228.499 45.1076C226.634 38.8861 222.701 33.5768 217.382 29.8802C214.624 27.9634 211.366 26.2616 208.06 25.5163C206.495 25.1641 205.828 27.5704 207.396 27.9226C215.091 29.6578 222.086 35.8459 225.141 43.0981C228.117 50.1723 228.254 58.9187 225.419 66.0559C223.309 71.3727 219.276 75.6662 214.369 78.5249C211.803 80.019 208.923 81.3056 205.987 81.8655C204.783 82.0953 204.812 84.0196 205.987 84.2717C219.132 87.0933 233.788 81.5985 239.701 69.0221C246.095 55.4149 242.303 37.2882 229.047 29.3427C222.575 25.4607 214.787 24.2854 207.392 25.5163C205.813 25.7796 206.484 28.1858 208.056 27.9226L208.063 27.9189Z" fill="#C7D4F2"/>
<path d="M172.889 55.0254C172.934 60.4942 175.996 65.2957 181.315 66.9642C185.908 68.4064 191.412 67.2126 194.645 63.5383C198.273 59.419 198.715 52.608 195.76 47.9882C193.051 43.7504 187.876 41.8966 183.016 42.6863C176.852 43.6874 172.937 48.9151 172.889 55.0254C172.874 56.6308 175.373 56.6345 175.384 55.0254C175.421 50.6503 177.764 46.7796 182.064 45.4671C185.774 44.3325 190.093 45.2224 192.754 48.1366C195.768 51.4364 195.975 57.1017 193.607 60.8057C191.494 64.1055 187.279 65.5701 183.498 64.9286C178.494 64.0796 175.425 60.0122 175.384 55.0291C175.369 53.4237 172.874 53.42 172.889 55.0291L172.889 55.0254Z" fill="#C7D4F2"/>
<path d="M185.692 43.7394C185.692 44.2548 185.322 44.7146 184.795 44.8073C184.206 44.9111 183.643 44.518 183.539 43.9285C183.164 41.8077 182.671 39.7203 182.075 37.7182C181.904 37.1435 182.23 36.5392 182.805 36.3686C183.379 36.1981 183.984 36.5243 184.154 37.099C184.773 39.179 185.288 41.348 185.674 43.5503C185.685 43.6134 185.692 43.6764 185.692 43.7394ZM181.956 31.3039C181.956 31.7229 181.715 32.1196 181.311 32.2976C180.762 32.5386 180.121 32.2902 179.88 31.7452C179.02 29.7986 178.03 27.9002 176.933 26.1094C176.622 25.5978 176.781 24.9304 177.293 24.6189C177.804 24.3075 178.472 24.467 178.783 24.9787C179.928 26.851 180.963 28.8346 181.863 30.8701C181.926 31.0147 181.956 31.163 181.956 31.3076L181.956 31.3039ZM175.18 20.2365C175.18 20.5517 175.043 20.8631 174.783 21.0782C174.32 21.4564 173.634 21.3896 173.256 20.9261C171.922 19.291 170.454 17.7338 168.904 16.2915C168.463 15.8837 168.437 15.1978 168.845 14.7566C169.253 14.3154 169.938 14.2932 170.38 14.6973C172.003 16.2063 173.538 17.8376 174.939 19.5506C175.102 19.7508 175.184 19.9955 175.184 20.2365L175.18 20.2365ZM165.672 11.3974C165.672 11.6125 165.609 11.8312 165.475 12.024C165.131 12.5134 164.452 12.6284 163.963 12.2836C162.251 11.0712 160.423 9.95141 158.536 8.95775C158.006 8.67968 157.802 8.02344 158.084 7.49324C158.362 6.96304 159.018 6.75913 159.548 7.04092C161.517 8.07906 163.422 9.24702 165.212 10.5113C165.513 10.7227 165.672 11.0563 165.672 11.4011L165.672 11.3974ZM154.199 5.31688C154.199 5.44665 154.177 5.57644 154.129 5.7025C153.918 6.26236 153.291 6.54412 152.728 6.32907C150.763 5.58383 148.713 4.93864 146.645 4.41957C146.063 4.27497 145.711 3.68552 145.855 3.10342C146 2.52131 146.589 2.16904 147.171 2.31364C149.325 2.85125 151.453 3.52237 153.499 4.29728C153.932 4.46041 154.199 4.87196 154.199 5.31317L154.199 5.31688ZM141.6 2.15423C141.6 2.20243 141.6 2.25059 141.589 2.29879C141.511 2.89202 140.966 3.31099 140.373 3.23313C138.279 2.95506 136.136 2.79561 134.008 2.75112C133.408 2.73999 132.967 2.26171 132.944 1.64624C132.956 1.0456 133.452 0.571061 134.049 0.582184C136.258 0.626676 138.482 0.793467 140.658 1.08266C141.203 1.15311 141.6 1.62033 141.6 2.15794L141.6 2.15423ZM128.611 1.89843C128.611 2.45087 128.189 2.92542 127.625 2.97732C125.509 3.17383 123.385 3.489 121.309 3.91909C120.723 4.04144 120.149 3.66325 120.026 3.07744C119.908 2.49534 120.282 1.91695 120.868 1.7946C123.021 1.34968 125.227 1.01965 127.425 0.815724C128.022 0.760109 128.552 1.20138 128.604 1.79831C128.604 1.83168 128.608 1.86506 128.608 1.89843L128.611 1.89843ZM115.893 4.54566C115.893 5.00171 115.604 5.42439 115.152 5.57641C113.128 6.24749 111.137 7.0446 109.236 7.94557C108.695 8.2014 108.046 7.97156 107.79 7.43024C107.531 6.88521 107.764 6.24011 108.305 5.98429C110.285 5.04995 112.357 4.21938 114.466 3.51863C115.033 3.32954 115.649 3.63731 115.838 4.20459C115.875 4.31952 115.893 4.43443 115.893 4.54566ZM104.161 10.1072C104.161 10.4668 103.983 10.8153 103.661 11.023C101.867 12.1686 100.147 13.4367 98.5416 14.79C98.082 15.1756 97.3999 15.1162 97.0144 14.6602C96.6252 14.2004 96.6882 13.5182 97.1442 13.1326C98.8233 11.72 100.621 10.3927 102.497 9.19881C103.001 8.87624 103.672 9.02451 103.994 9.52875C104.109 9.71043 104.165 9.91066 104.165 10.1109L104.161 10.1072ZM94.2491 18.4754C94.2491 18.7349 94.1564 18.9945 93.9711 19.2021C92.5514 20.7741 91.2318 22.4537 90.0456 24.2C89.7083 24.6931 89.0337 24.8229 88.537 24.4855C88.0439 24.1481 87.9142 23.4733 88.2515 22.9765C89.4933 21.1486 90.8759 19.3912 92.3586 17.745C92.759 17.3001 93.4485 17.2666 93.8896 17.6671C94.1268 17.8821 94.2491 18.1751 94.2491 18.4717L94.2491 18.4754ZM86.9467 29.2017C86.9467 29.3648 86.9097 29.528 86.8318 29.6837C85.8977 31.5598 85.0674 33.5323 84.3668 35.5492C84.1703 36.1165 83.5513 36.4168 82.9878 36.2166C82.4207 36.02 82.1205 35.4046 82.3206 34.8373C83.0509 32.7314 83.9182 30.6699 84.8931 28.7159C85.16 28.1783 85.8124 27.9634 86.3462 28.2303C86.728 28.4194 86.9467 28.8049 86.9467 29.2017ZM82.6728 41.4592C82.6728 41.5371 82.6654 41.6149 82.6468 41.6928C82.4874 42.4306 82.3391 43.1833 82.2057 43.9434C82.1019 44.5329 81.5385 44.9297 80.9491 44.8221C80.3597 44.7183 79.9631 44.151 80.0706 43.5652C80.2077 42.7754 80.3634 41.9968 80.5303 41.233C80.6563 40.6472 81.2345 40.2765 81.8202 40.4025C82.328 40.5138 82.6728 40.9624 82.6728 41.463L82.6728 41.4592Z" fill="#C7D4F2"/>
<path d="M185.589 66.8752C185.589 66.9419 185.581 67.0086 185.57 67.0753C185.463 67.6426 185.352 68.2099 185.229 68.7661C185.103 69.3519 184.525 69.7226 183.939 69.5966C183.354 69.4705 182.983 68.8884 183.109 68.3063C183.224 67.7687 183.335 67.2237 183.439 66.675C183.55 66.0855 184.117 65.6961 184.707 65.8073C185.229 65.9037 185.592 66.3598 185.592 66.8715L185.589 66.8752ZM183.506 74.8022C183.506 74.9208 183.487 75.0394 183.446 75.1581C182.712 77.2715 181.849 79.3329 180.881 81.2832C180.614 81.8208 179.962 82.0395 179.428 81.7726C178.891 81.5056 178.672 80.8568 178.939 80.3192C179.869 78.4506 180.696 76.4743 181.396 74.4499C181.593 73.8827 182.212 73.5823 182.775 73.7788C183.224 73.9346 183.506 74.3535 183.506 74.8059L183.506 74.8022ZM177.715 86.4146C177.715 86.6259 177.656 86.8372 177.53 87.0226C176.288 88.8542 174.909 90.6154 173.427 92.2579C173.026 92.7028 172.337 92.7362 171.892 92.3357C171.447 91.9316 171.414 91.2493 171.814 90.8007C173.23 89.2324 174.546 87.5491 175.732 85.7991C176.07 85.3022 176.744 85.1726 177.241 85.51C177.549 85.7213 177.715 86.0624 177.715 86.4109L177.715 86.4146ZM169.034 96.0545C169.034 96.3623 168.904 96.67 168.649 96.8851C166.973 98.3014 165.175 99.625 163.3 100.826C162.796 101.149 162.125 101.001 161.802 100.496C161.476 99.9921 161.628 99.321 162.132 98.9984C163.926 97.849 165.646 96.581 167.247 95.2277C167.703 94.8421 168.389 94.8977 168.775 95.3575C168.949 95.5614 169.03 95.8098 169.03 96.0583L169.034 96.0545ZM158.114 103.062C158.114 103.47 157.884 103.859 157.495 104.045C155.515 104.983 153.443 105.817 151.338 106.518C150.771 106.707 150.155 106.399 149.966 105.832C149.774 105.257 150.085 104.649 150.652 104.46C152.676 103.785 154.667 102.984 156.564 102.083C157.106 101.827 157.754 102.057 158.01 102.599C158.081 102.751 158.114 102.906 158.114 103.062ZM145.796 107.185C145.796 107.689 145.444 108.142 144.932 108.245C142.783 108.694 140.577 109.024 138.379 109.228C137.782 109.284 137.252 108.846 137.196 108.249C137.141 107.667 137.578 107.122 138.175 107.066C140.292 106.87 142.416 106.551 144.488 106.117C145.073 105.995 145.648 106.373 145.77 106.959C145.785 107.033 145.792 107.107 145.792 107.181L145.796 107.185ZM132.859 108.386L132.859 108.409C132.848 109.005 132.352 109.484 131.755 109.473C129.546 109.432 127.321 109.265 125.146 108.979C124.552 108.902 124.126 108.36 124.211 107.763C124.289 107.17 124.834 106.751 125.427 106.829C127.525 107.103 129.668 107.263 131.796 107.304C132.389 107.315 132.859 107.797 132.859 108.39L132.859 108.386ZM119.978 106.692C119.978 106.777 119.967 106.866 119.945 106.955C119.8 107.537 119.211 107.889 118.629 107.749C116.483 107.215 114.351 106.547 112.298 105.769C111.738 105.557 111.456 104.931 111.668 104.367C111.879 103.807 112.505 103.525 113.069 103.737C115.041 104.486 117.091 105.123 119.155 105.639C119.648 105.761 119.978 106.206 119.978 106.692ZM107.838 102.08C107.838 102.25 107.798 102.424 107.712 102.584C107.434 103.114 106.778 103.318 106.248 103.04C104.28 102.002 102.371 100.837 100.581 99.5731C100.091 99.2283 99.9763 98.5535 100.317 98.0604C100.662 97.571 101.34 97.4523 101.83 97.7971C103.546 99.0058 105.373 100.126 107.26 101.119C107.627 101.312 107.838 101.69 107.838 102.08ZM97.2295 94.5938C97.2295 94.857 97.1332 95.1239 96.9404 95.3316C96.5327 95.7728 95.8469 95.795 95.4058 95.3909C93.7748 93.8781 92.2402 92.2467 90.8427 90.5449C90.4609 90.0815 90.5314 89.3993 90.9947 89.0174C91.4581 88.6392 92.1401 88.7059 92.5219 89.1694C93.8564 90.7971 95.3243 92.3543 96.8811 93.8003C97.111 94.0153 97.2295 94.3046 97.2295 94.5975L97.2295 94.5938ZM89.0004 84.5534C89.0004 84.9204 88.8151 85.2763 88.4815 85.4803C87.9699 85.7954 87.3027 85.6323 86.9913 85.1206C85.8422 83.2446 84.8043 81.2646 83.9036 79.2365C83.6589 78.6878 83.9073 78.0464 84.4559 77.8054C85.0045 77.5644 85.6458 77.8091 85.8867 78.3579C86.7467 80.3007 87.7401 82.1953 88.841 83.9898C88.9485 84.1677 89.0004 84.3643 89.0004 84.5571L89.0004 84.5534ZM83.7293 72.6962C83.7293 73.1634 83.4254 73.5935 82.9546 73.7344C82.3801 73.905 81.7759 73.5823 81.6053 73.0076C80.9826 70.9313 80.4673 68.7624 80.0781 66.5563C79.9706 65.952 80.3673 65.4033 80.9566 65.2994C81.546 65.1956 82.1095 65.5886 82.2133 66.1781C82.5876 68.2989 83.0844 70.39 83.6812 72.3848C83.7108 72.4886 83.7257 72.5924 83.7257 72.6962L83.7293 72.6962Z" fill="#C7D4F2"/>
<path d="M250.599 54.6179C250.599 55.2185 250.113 55.7042 249.513 55.7042L243.004 55.7042C242.403 55.7042 241.917 55.2185 241.917 54.6179C241.917 54.0173 242.403 53.5316 243.004 53.5316L249.513 53.5316C250.113 53.5316 250.599 54.0173 250.599 54.6179Z" fill="#C7D4F2"/>
<path d="M228.899 54.6179C228.899 55.2185 228.413 55.7042 227.813 55.7042L222.445 55.7042C221.845 55.7042 221.359 55.2185 221.359 54.6179C221.359 54.0173 221.845 53.5316 222.445 53.5316L227.813 53.5316C228.413 53.5316 228.899 54.0173 228.899 54.6179ZM217.022 54.6179C217.022 55.2185 216.537 55.7042 215.936 55.7042L209.427 55.7042C208.827 55.7042 208.341 55.2185 208.341 54.6179C208.341 54.0173 208.827 53.5316 209.427 53.5316L215.936 53.5316C216.537 53.5316 217.022 54.0173 217.022 54.6179ZM204.004 54.6179C204.004 55.2185 203.519 55.7042 202.918 55.7042L196.409 55.7042C195.808 55.7042 195.323 55.2185 195.323 54.6179C195.323 54.0173 195.808 53.5316 196.409 53.5316L202.918 53.5316C203.519 53.5316 204.004 54.0173 204.004 54.6179Z" fill="#C7D4F2"/>
<path d="M174.064 54.6179C174.064 55.2185 173.579 55.7042 172.978 55.7042L166.688 55.7042C166.087 55.7042 165.602 55.2185 165.602 54.6179C165.602 54.0173 166.087 53.5316 166.688 53.5316L172.978 53.5316C173.579 53.5316 174.064 54.0173 174.064 54.6179ZM161.265 54.6179C161.265 55.2185 160.779 55.7042 160.179 55.7042L153.669 55.7042C153.069 55.7042 152.583 55.2185 152.583 54.6179C152.583 54.0173 153.069 53.5316 153.669 53.5316L160.179 53.5316C160.779 53.5316 161.265 54.0173 161.265 54.6179Z" fill="#C7D4F2"/>
<path d="M110.934 54.6179C110.934 55.2185 110.448 55.7042 109.848 55.7042L105.618 55.7042C105.018 55.7042 104.532 55.2185 104.532 54.6179C104.532 54.0173 105.018 53.5316 105.618 53.5316L109.848 53.5316C110.448 53.5316 110.934 54.0173 110.934 54.6179ZM100.195 54.6179C100.195 55.2185 99.7095 55.7042 99.109 55.7042L92.5998 55.7042C91.9993 55.7042 91.5137 55.2185 91.5137 54.6179C91.5137 54.0173 91.9993 53.5316 92.5998 53.5316L99.109 53.5316C99.7095 53.5316 100.195 54.0173 100.195 54.6179Z" fill="#C7D4F2"/>
<path d="M68.8278 54.6179C68.8278 55.2185 68.3423 55.7042 67.7418 55.7042L61.2326 55.7042C60.6321 55.7042 60.1465 55.2185 60.1465 54.6179C60.1465 54.0173 60.6321 53.5316 61.2326 53.5316L67.7418 53.5316C68.3423 53.5316 68.8278 54.0173 68.8278 54.6179ZM55.8095 54.6179C55.8095 55.2185 55.3239 55.7042 54.7234 55.7042L48.2143 55.7042C47.6138 55.7042 47.1282 55.2185 47.1282 54.6179C47.1282 54.0173 47.6138 53.5316 48.2143 53.5316L54.7234 53.5316C55.3239 53.5316 55.8095 54.0173 55.8095 54.6179ZM42.7912 54.6179C42.7912 55.2185 42.3056 55.7042 41.7051 55.7042L35.196 55.7042C34.5955 55.7042 34.1099 55.2185 34.1099 54.6179C34.1099 54.0173 34.5955 53.5316 35.196 53.5316L41.7051 53.5316C42.3056 53.5316 42.7912 54.0173 42.7912 54.6179Z" fill="#C7D4F2"/>
<path d="M19.2272 54.6179C19.2272 55.2185 18.7416 55.7042 18.1411 55.7042L14.1044 55.7042C13.5039 55.7042 13.0183 55.2185 13.0183 54.6179C13.0183 54.0173 13.5039 53.5316 14.1044 53.5316L18.1411 53.5316C18.7416 53.5316 19.2272 54.0173 19.2272 54.6179ZM8.68132 54.6179C8.68132 55.2185 8.19575 55.7042 7.59525 55.7042L1.08607 55.7042C0.485567 55.7042 -2.12297e-08 55.2185 -4.74846e-08 54.6179C-7.37396e-08 54.0173 0.485567 53.5316 1.08607 53.5316L7.59525 53.5316C8.19575 53.5316 8.68132 54.0173 8.68132 54.6179Z" fill="#C7D4F2"/>
<path d="M38.6509 28.1375C40.6007 28.968 42.5542 29.7985 44.504 30.6291C44.8821 30.7885 45.3195 30.7403 45.5419 30.3547C45.7272 30.0358 45.6494 29.476 45.2676 29.3165C43.3178 28.486 41.3643 27.6555 39.4145 26.825C39.0364 26.6656 38.599 26.7137 38.3766 27.0956C38.1913 27.4145 38.2691 27.9744 38.6472 28.1338L38.6509 28.1375Z" fill="#C7D4F2"/>
<path d="M36.1562 29.9544C38.1171 30.7626 40.078 31.5709 42.0389 32.3792C42.417 32.5349 42.8729 32.2086 42.973 31.8489C43.0916 31.4114 42.8247 31.0704 42.4429 30.9147C40.482 30.1064 38.5211 29.2981 36.5602 28.4899C36.1821 28.3341 35.7262 28.6604 35.6261 29.02C35.5075 29.4575 35.7744 29.7986 36.1562 29.9544Z" fill="#C7D4F2"/>
<path d="M32.8793 32.1936C35.0515 32.9277 37.2237 33.6618 39.3959 34.3959C39.7851 34.5257 40.2262 34.2439 40.33 33.8658C40.4449 33.4505 40.1891 33.0649 39.7999 32.9314C37.6277 32.1973 35.4555 31.4632 33.2833 30.7291C32.8941 30.5993 32.453 30.8811 32.3492 31.2593C32.2343 31.6745 32.4901 32.0601 32.8793 32.1936Z" fill="#C7D4F2"/>
<path d="M28.3496 34.2625C31.6153 35.664 34.9811 36.8023 38.4321 37.6439C39.3811 37.8738 39.7851 36.4093 38.8362 36.1794C35.5149 35.3712 32.2566 34.2997 29.1169 32.9501C28.7388 32.7869 28.3052 32.8388 28.0791 33.2244C27.89 33.5433 27.9753 34.1031 28.3496 34.2625Z" fill="#C7D4F2"/>
<path d="M219.006 81.6357C218.212 81.2983 217.453 80.8868 216.737 80.4011C216.567 80.2862 216.4 80.1638 216.233 80.0415C216.222 80.0304 216.074 79.9191 216.137 79.9672C216.189 80.008 216.081 79.9228 216.07 79.9154C215.985 79.8486 215.899 79.7782 215.818 79.7077C215.484 79.4259 215.162 79.1294 214.858 78.8179C214.58 78.5324 214.061 78.5176 213.783 78.8179C213.501 79.122 213.486 79.5891 213.783 79.8931C215.051 81.1871 216.57 82.2401 218.238 82.9482C218.602 83.104 219.069 83.0706 219.276 82.6739C219.447 82.3476 219.395 81.8025 219.002 81.6357L219.006 81.6357Z" fill="#C7D4F2"/>
<path d="M223.928 80.6938C222.09 79.8558 220.351 78.7731 218.828 77.4792C218.516 77.2122 218.06 77.1714 217.753 77.4792C217.482 77.7498 217.438 78.2875 217.753 78.5544C219.391 79.9448 221.204 81.1164 223.161 82.0062C223.535 82.1768 223.976 82.1137 224.199 81.7318C224.388 81.4056 224.303 80.8643 223.925 80.6938L223.928 80.6938Z" fill="#C7D4F2"/>
<path d="M229.229 78.6549C226.738 77.5463 224.406 76.0965 222.334 74.3205C222.023 74.0536 221.567 74.0165 221.259 74.3205C220.985 74.5949 220.948 75.1251 221.259 75.3958C223.428 77.2571 225.848 78.8068 228.462 79.9673C228.836 80.1341 229.277 80.0748 229.5 79.6966C229.689 79.3741 229.603 78.8253 229.229 78.6585L229.229 78.6549Z" fill="#C7D4F2"/>
<path d="M231.894 75.633C229.462 74.454 227.031 73.2749 224.599 72.0959C224.228 71.9179 223.78 71.9958 223.561 72.3702C223.365 72.7039 223.465 73.2304 223.836 73.4084C226.267 74.5874 228.699 75.7665 231.131 76.9455C231.501 77.1235 231.95 77.0456 232.168 76.6712C232.365 76.3375 232.265 75.811 231.894 75.633Z" fill="#C7D4F2"/>
<path d="M75.3668 62.0773C76.464 63.1748 77.565 64.276 78.6622 65.3735C78.9439 65.6553 79.4592 65.6775 79.7372 65.3735C80.0152 65.0695 80.0374 64.5985 79.7372 64.2982L76.4418 61.0021C76.1601 60.7204 75.6448 60.6981 75.3668 61.0021C75.0888 61.3062 75.0666 61.777 75.3668 62.0773Z" fill="#C7D4F2"/>
<path d="M78.9438 61.7995C80.2561 63.012 81.572 64.2281 82.8842 65.4405C83.177 65.7112 83.6737 65.7519 83.9592 65.4405C84.2298 65.1476 84.2705 64.6545 83.9592 64.3653C82.647 63.1529 81.331 61.9368 80.0188 60.7244C79.726 60.4537 79.2293 60.4129 78.9438 60.7244C78.6733 61.0173 78.6325 61.5103 78.9438 61.7995Z" fill="#C7D4F2"/>
<path d="M82.8137 60.613C83.9628 62.2741 85.3752 63.7052 87.0173 64.8843C87.3398 65.1179 87.8772 64.951 88.0552 64.6136C88.2627 64.2206 88.1293 63.8239 87.7846 63.5755C87.6919 63.5087 87.5992 63.442 87.5066 63.3715C87.4621 63.3382 87.4139 63.3012 87.3694 63.2678C87.3027 63.2159 87.4399 63.3271 87.3324 63.2381C87.1544 63.0935 86.9765 62.9489 86.8023 62.8006C86.4538 62.5003 86.1202 62.1888 85.7977 61.8626C85.4864 61.5437 85.1861 61.2137 84.897 60.8688C84.8228 60.7799 84.7524 60.6909 84.6783 60.6019C84.6412 60.5574 84.6078 60.513 84.5708 60.4685C84.656 60.576 84.5597 60.4536 84.5448 60.4314C84.4003 60.2386 84.2594 60.0457 84.1222 59.8455C83.8961 59.5192 83.4476 59.3376 83.0843 59.5712C82.7618 59.7788 82.5691 60.2608 82.8137 60.6093L82.8137 60.613Z" fill="#C7D4F2"/>
<path d="M86.4984 59.523C87.7142 60.6131 88.9338 61.7032 90.1496 62.7895C90.4461 63.0527 90.9354 63.1047 91.2246 62.7895C91.4915 62.5003 91.5397 61.9997 91.2246 61.7142C90.0087 60.6242 88.7892 59.5342 87.5734 58.4478C87.2768 58.1846 86.7875 58.1327 86.4984 58.4478C86.2315 58.737 86.1833 59.2375 86.4984 59.523Z" fill="#C7D4F2"/>
<path d="M89.2413 56.7684C90.0124 57.5359 90.7871 58.2996 91.5581 59.0671C91.8398 59.3489 92.355 59.3711 92.633 59.0671C92.911 58.7668 92.9333 58.2921 92.633 57.9918C91.862 57.2243 91.0873 56.4606 90.3163 55.6931C90.0346 55.4113 89.5194 55.3891 89.2413 55.6931C88.9633 55.9934 88.9411 56.468 89.2413 56.7684Z" fill="#C7D4F2"/>
<path d="M180.57 62.3443C181.712 64.1426 183.298 65.6442 185.174 66.6638C185.522 66.8529 186.019 66.7602 186.212 66.3932C186.401 66.0372 186.312 65.5552 185.941 65.355C185.507 65.1177 185.089 64.8581 184.688 64.5689C184.592 64.5022 184.499 64.4318 184.406 64.3577C184.492 64.4244 184.406 64.3576 184.366 64.3243C184.321 64.2872 184.273 64.2501 184.229 64.213C184.039 64.0573 183.854 63.8942 183.673 63.7237C183.32 63.3937 182.99 63.0451 182.679 62.6744C182.605 62.5854 182.531 62.4927 182.457 62.4C182.538 62.5038 182.442 62.3777 182.423 62.3592C182.386 62.311 182.353 62.2665 182.32 62.2183C182.168 62.0107 182.023 61.7957 181.882 61.5769C181.671 61.2432 181.196 61.0764 180.844 61.3025C180.511 61.5176 180.344 61.9848 180.574 62.3407L180.57 62.3443Z" fill="#C7D4F2"/>
<path d="M184.992 62.2629C185.941 63.6125 187.227 64.621 188.754 65.2365C188.925 65.3069 189.188 65.2476 189.34 65.1586C189.496 65.066 189.648 64.8843 189.688 64.7063C189.789 64.2651 189.555 63.9314 189.158 63.772C189.151 63.772 188.988 63.7052 189.103 63.7497C189.214 63.7942 189.069 63.7349 189.047 63.7238C188.966 63.6867 188.888 63.6496 188.81 63.6089C188.662 63.5347 188.513 63.4531 188.369 63.3715C188.224 63.2862 188.083 63.1973 187.943 63.1046C187.868 63.0564 187.798 63.0045 187.728 62.9526C187.691 62.9266 187.657 62.9007 187.62 62.8748C187.539 62.8117 187.765 62.9897 187.627 62.8785C187.368 62.6671 187.12 62.4446 186.886 62.1999C186.764 62.0739 186.649 61.9404 186.534 61.8032C186.512 61.7772 186.489 61.7476 186.467 61.7216C186.356 61.5844 186.534 61.8106 186.471 61.729C186.412 61.6512 186.356 61.5734 186.3 61.4955C186.074 61.1729 185.626 60.9876 185.263 61.2211C184.94 61.4288 184.747 61.9144 184.992 62.2592L184.992 62.2629Z" fill="#C7D4F2"/>
<path d="M188.565 61.2099C189.885 62.1999 191.201 63.1898 192.521 64.1761C192.839 64.4171 193.384 64.2391 193.558 63.9054C193.77 63.505 193.625 63.1231 193.288 62.8673C191.968 61.8773 190.652 60.8874 189.333 59.9011C189.014 59.6601 188.469 59.8381 188.295 60.1718C188.083 60.5722 188.228 60.9541 188.569 61.2099L188.565 61.2099Z" fill="#C7D4F2"/>
<path d="M191.416 58.0697C192.079 59.2265 193.139 60.0867 194.378 60.5576C194.552 60.6243 194.808 60.5724 194.963 60.4797C195.119 60.387 195.271 60.2053 195.312 60.0273C195.356 59.8345 195.345 59.6158 195.234 59.4416C195.123 59.2673 194.974 59.1672 194.782 59.0931C194.722 59.0708 194.659 59.0448 194.6 59.0226C194.659 59.0485 194.722 59.0744 194.782 59.1004C194.541 58.9966 194.311 58.8779 194.088 58.7371C193.985 58.6703 193.881 58.5999 193.781 58.5258C193.681 58.4516 193.788 58.5369 193.825 58.5628C193.799 58.5443 193.773 58.5221 193.747 58.5035C193.695 58.4627 193.647 58.4182 193.599 58.3774C193.41 58.2106 193.232 58.0252 193.069 57.8287C193.047 57.8027 193.028 57.7768 193.006 57.7546C192.95 57.6878 193.125 57.9177 193.043 57.7991C193.006 57.7472 192.965 57.6952 192.928 57.6396C192.854 57.5321 192.787 57.4209 192.721 57.3097C192.524 56.9648 192.024 56.8165 191.683 57.0353C191.334 57.2578 191.197 57.7064 191.408 58.0735L191.416 58.0697Z" fill="#C7D4F2"/>
<path d="M192.513 55.6223C193.399 56.1599 194.285 56.7013 195.171 57.2389C195.512 57.4465 196.02 57.3242 196.209 56.9645C196.405 56.5938 196.298 56.1451 195.938 55.9264C195.052 55.3887 194.166 54.8474 193.28 54.3098C192.939 54.1021 192.431 54.2245 192.242 54.5841C192.046 54.9549 192.153 55.4035 192.517 55.6223L192.513 55.6223Z" fill="#C7D4F2"/>
</svg>
