<svg width="40" height="40" viewBox="0 0 40 40" fill="none" xmlns="http://www.w3.org/2000/svg">
<path fill-rule="evenodd" clip-rule="evenodd" d="M8.87822 8.87798C7.05884 10.6974 7.05884 13.6256 7.05884 19.4821V20.5174C7.05884 26.3739 7.05884 29.3022 8.87822 31.1216C10.6976 32.9409 13.6258 32.9409 19.4824 32.9409H20.5177C26.3742 32.9409 29.3024 32.9409 31.1218 31.1216C32.9412 29.3022 32.9412 26.3739 32.9412 20.5174V19.4821C32.9412 13.6256 32.9412 10.6974 31.1218 8.87798C29.3024 7.05859 26.3742 7.05859 20.5177 7.05859H19.4824C13.6258 7.05859 10.6976 7.05859 8.87822 8.87798ZM11.0407 15.0226C11.1862 21.8624 14.6781 25.9729 20.8002 25.9729H21.1472V22.0597C23.3969 22.2789 25.0979 23.8902 25.7806 25.9729H28.9593C28.0863 22.8599 25.7918 21.139 24.3592 20.4813C25.7918 19.6702 27.8064 17.6972 28.2876 15.0226H25.4C24.7733 17.1929 22.9156 19.166 21.1472 19.3523V15.0226H18.2596V22.6078C16.4688 22.1693 14.2081 20.0429 14.1074 15.0226H11.0407Z" fill="white"/>
</svg>
