<svg width="399" height="183" viewBox="0 0 399 183" fill="none" xmlns="http://www.w3.org/2000/svg">
<path d="M29.3127 182.32C45.3538 181.225 61.3894 180.015 77.4086 178.681C87.7994 177.815 98.1956 176.932 108.554 175.706C114.738 174.977 120.819 174.121 127.068 174.47C133.58 174.835 139.884 176.355 146.297 177.406C156.377 179.057 166.691 176.834 176.717 175.521C189.309 173.871 201.956 172.204 214.379 169.534C220.498 168.222 226.502 166.386 232.365 164.196C237.143 162.409 241.862 160.301 245.758 156.94C248.264 154.777 251.615 151.166 249.681 147.614C247.218 143.087 239.574 142.679 235.171 142.281C224.906 141.344 214.477 141.633 204.184 141.742C195.325 141.834 186.465 142.025 177.611 142.286C177.109 142.303 176.608 142.314 176.107 142.33C173.753 142.406 173.742 146.072 176.107 145.996C193.227 145.446 210.417 144.988 227.543 145.528C232.507 145.686 237.65 145.811 242.451 147.178C243.791 147.559 246.145 148.257 246.553 149.613C246.793 150.408 245.703 151.841 244.902 152.696C241.818 155.981 237.737 158.106 233.613 159.789C227.744 162.18 221.609 164.125 215.43 165.547C203.688 168.249 191.668 169.856 179.741 171.452C174.249 172.187 168.751 172.874 163.253 173.549C158.856 174.089 154.563 174.737 150.122 174.263C144.139 173.626 138.287 172.035 132.31 171.283C125.39 170.412 118.628 170.733 111.736 171.643C102.353 172.879 92.9103 173.68 83.484 174.497C65.7811 176.033 48.0564 177.357 30.3262 178.583C29.9884 178.605 29.6506 178.632 29.3073 178.654C26.9643 178.812 26.948 182.483 29.3073 182.32H29.3127Z" fill="#C7D4F2"/>
<path d="M174.418 147.625C189.707 137.089 202.196 122.828 210.511 106.224L208.44 107.068C218.15 110.054 228.9 106.447 235.547 98.9626C237.111 97.2031 234.523 94.5992 232.954 96.3696C227.135 102.923 217.948 106.159 209.415 103.533C208.685 103.31 207.699 103.675 207.345 104.377C199.319 120.415 187.348 134.284 172.571 144.465C170.642 145.794 172.473 148.976 174.424 147.63L174.418 147.625Z" fill="#C7D4F2"/>
<path d="M234.251 98.7392C243.486 99.747 252.76 96.5711 259.571 90.2902C259.14 90.4699 258.704 90.6497 258.274 90.8295C263.586 90.8022 268.964 90.2194 274.179 89.2279C280.178 88.0894 287.599 86.3081 291.37 81.024C294.105 77.189 292.688 72.8202 288.444 70.968C285.24 69.568 281.524 69.4318 278.08 69.5789C273.928 69.7532 269.771 70.2871 265.646 70.8101C257.048 71.8996 248.494 73.2832 239.934 74.5961C233.45 75.5875 226.873 76.7805 220.296 76.9385C216.27 77.0365 212.483 78.5345 208.805 80.0544C203.177 82.3859 197.706 85.0715 192.263 87.8007C186.095 90.8948 179.976 94.1034 173.786 97.154C171.492 98.287 169.187 99.4147 166.828 100.406C166.033 100.738 165.232 101.06 164.409 101.316C164.087 101.414 163.766 101.506 163.444 101.588C162.85 101.735 163.608 101.637 163.025 101.648C160.671 101.703 160.66 105.369 163.025 105.314C166.479 105.238 170.179 102.956 173.198 101.506C178.734 98.8536 184.171 96.0046 189.642 93.2264C195.445 90.2738 201.264 87.3322 207.219 84.6956C210.957 83.0396 215.643 80.7626 219.534 80.6155C225.958 80.3758 232.3 79.4334 238.653 78.4746C247.649 77.1182 256.623 75.6202 265.646 74.4762C269.874 73.9423 274.146 73.3813 278.407 73.2342C281.42 73.1307 285.414 73.0217 288.008 74.8739C291.827 77.6031 285.605 81.7213 283.104 82.8435C275.808 86.1174 267.15 86.94 259.227 87.147C258.345 87.1688 257.751 87.147 256.972 87.7026C254.629 89.3641 252.667 91.1617 250.03 92.4474C245.126 94.8333 239.645 95.6668 234.245 95.0785C231.902 94.8225 231.918 98.494 234.245 98.7446L234.251 98.7392Z" fill="#C7D4F2"/>
<path d="M229.766 102.798C236.86 108.817 246.33 113.371 255.849 112.205C258.655 111.862 261.979 111.225 263.88 108.915C265.537 106.91 265.46 104.339 264.354 102.089C262.365 98.0364 257.843 95.3018 254.062 93.1773C252.002 92.0225 250.149 95.1874 252.209 96.3423C255.195 98.0201 258.546 99.9758 260.546 102.852C260.796 103.212 261.074 103.664 261.232 104.029C261.292 104.17 261.374 104.432 261.428 104.617C261.505 104.878 261.51 104.971 261.515 104.987C261.586 105.723 261.548 105.886 261.145 106.485C261.101 106.551 261.227 106.415 261.014 106.638C260.878 106.785 260.731 106.927 260.573 107.052C260.78 106.883 260.431 107.145 260.36 107.188C260.175 107.303 259.984 107.412 259.788 107.51C258.769 108.011 256.813 108.43 255.413 108.588C251.566 109.024 247.698 108.354 244.069 107.074C239.791 105.565 235.814 103.135 232.359 100.205C230.567 98.6847 227.962 101.267 229.766 102.798Z" fill="#C7D4F2"/>
<path d="M214.918 107.815C217.419 108.594 219.511 110.201 221.702 111.59C223.914 112.995 226.257 114.101 228.872 114.472C233.76 115.163 238.822 113.605 242.298 110.059C243.949 108.37 241.361 105.777 239.704 107.466C236.789 110.435 232.37 111.644 228.328 110.647C223.74 109.52 220.411 105.674 215.899 104.274C213.638 103.571 212.673 107.112 214.924 107.809L214.918 107.815Z" fill="#C7D4F2"/>
<path d="M220.678 144.22C218.062 149.204 222.503 154.331 227.396 155.191C230.322 155.709 233.242 155.235 236.152 154.837C239.367 154.396 242.582 153.955 245.802 153.513C246.783 153.377 247.322 152.124 247.082 151.258C246.793 150.201 245.813 149.842 244.826 149.978C242.342 150.321 239.857 150.659 237.373 151.002C235.03 151.324 232.67 151.754 230.3 151.77C228.409 151.781 226.344 151.492 224.944 150.103C223.92 149.09 223.113 147.472 223.843 146.078C224.939 143.991 221.773 142.134 220.678 144.225V144.22Z" fill="#C7D4F2"/>
<path d="M270.119 73.414C271.236 76.8459 274.358 79.1611 277.835 79.8529C282.079 80.6973 286.242 79.2755 290.171 77.7992C291.097 77.4506 291.729 76.5627 291.451 75.544C291.206 74.656 290.127 73.9152 289.195 74.2638C286.095 75.4296 282.695 76.8078 279.306 76.4047C276.974 76.1269 274.418 74.7868 273.656 72.4389C272.931 70.2055 269.384 71.1588 270.119 73.414Z" fill="#C7D4F2"/>
<path d="M154.874 87.0599C161.096 85.9159 167.215 84.2871 173.165 82.1299C178.924 80.0436 184.318 77.1727 189.996 74.912C192.699 73.8389 195.526 72.9074 198.436 72.6296C201.515 72.3354 204.495 72.8638 207.481 73.5665C214.019 75.1136 220.482 77.0093 226.851 79.1447C229.096 79.8965 230.055 76.3556 227.827 75.6093C221.234 73.3977 214.537 71.4148 207.748 69.8677C201.727 68.495 196.131 68.7401 190.317 70.8809C184.498 73.0218 179.05 76.0397 173.236 78.2132C166.959 80.5611 160.486 82.3152 153.893 83.5245C151.577 83.9494 152.558 87.4848 154.868 87.0599H154.874Z" fill="#C7D4F2"/>
<path d="M148.165 76.3284C155.848 74.2911 163.531 72.2537 171.214 70.2163C174.853 69.2521 178.564 68.2171 182.367 68.6584C186.219 69.1105 189.799 70.8265 193.265 72.4661C195.384 73.4739 197.248 70.3089 195.117 69.3012C191.608 67.6397 188.023 65.9183 184.171 65.2374C180.171 64.5347 176.292 65.1284 172.396 66.1144C163.972 68.2444 155.598 70.565 147.201 72.7876C144.923 73.3922 145.888 76.9276 148.176 76.3229L148.165 76.3284Z" fill="#C7D4F2"/>
<path d="M171.748 66.7682C165.536 66.316 159.456 64.5619 153.288 63.7285C148.907 63.1347 144.025 62.5627 139.802 64.2242C132.136 67.2366 125.014 72.0304 118.002 76.2794C97.6452 88.607 77.741 102.351 55.8534 111.873C38.8153 119.282 20.4368 124.021 1.76947 123.601C-0.589824 123.547 -0.589824 127.213 1.76947 127.268C31.4323 127.932 59.1173 116.019 84.176 101.196C94.3814 95.1603 104.429 88.8685 114.542 82.6802C122.475 77.8265 130.403 72.7168 138.789 68.6639C142.575 66.8335 146.384 66.6429 150.754 67.0896C157.81 67.8086 164.675 69.9222 171.753 70.4398C174.107 70.6086 174.096 66.9425 171.753 66.7736L171.748 66.7682Z" fill="#C7D4F2"/>
<path d="M272.092 86.9346C270 95.0513 271.128 103.729 275.775 110.778C280.75 118.323 288.825 123.215 297.505 125.35C308.31 128.003 320.597 126.968 330.987 123.078C338.746 120.175 345.388 114.951 349.883 107.973C358.269 94.9696 358.591 77.0311 350.303 63.9027C340.419 48.2522 319.316 43.0499 302.109 48.0452C290.89 51.3028 280.587 59.5774 275.122 69.9766C275.018 70.1782 274.909 70.3743 274.811 70.5759C273.798 72.6949 276.958 74.5579 277.977 72.428C281.655 64.7471 288.705 58.1938 296.17 54.3315C303.934 50.3113 312.854 49.2327 321.457 50.4475C329.631 51.6024 337.34 54.6203 343.138 60.6452C353.022 70.9136 355.103 86.9618 349.911 99.9703C347.23 106.687 342.457 112.543 336.322 116.394C327.991 121.624 317.197 123.433 307.498 123.051C298.682 122.703 289.631 119.935 283.088 113.801C277.497 108.561 274.364 101.267 274.729 93.5859C274.822 91.6575 275.143 89.7727 275.628 87.9097C276.217 85.6217 272.681 84.6466 272.092 86.9346Z" fill="#C7D4F2"/>
<path d="M291.528 57.0227C304.288 52.2834 322.356 52.0709 330.459 64.8452C339.324 78.8125 336.659 100.352 325.44 112.254C317.747 120.415 306.675 122.812 295.854 121.074C293.544 120.704 292.552 124.239 294.878 124.609C305.591 126.331 316.51 124.664 325.059 117.631C332.257 111.715 336.67 102.819 338.365 93.7658C340.059 84.7394 339.4 75.0919 335.591 66.6702C331.102 56.7394 321.877 51.341 311.225 50.5729C304.397 50.0772 296.993 51.0959 290.552 53.4873C288.356 54.3044 289.31 57.8453 291.528 57.0227Z" fill="#C7D4F2"/>
<path d="M307.797 1.76906C307.585 12.1792 307.372 22.5893 307.16 32.9994C307.111 35.3581 310.778 35.3581 310.827 32.9994C311.039 22.5893 311.252 12.1792 311.464 1.76906C311.513 -0.589687 307.846 -0.589687 307.797 1.76906Z" fill="#C7D4F2"/>
<path d="M282.335 17.3814C283.931 23.1448 285.828 28.8156 288.018 34.3775C288.383 35.2981 289.244 35.9409 290.274 35.6576C291.151 35.4179 291.919 34.3285 291.554 33.4024C289.364 27.8405 287.468 22.1697 285.871 16.4063C285.245 14.1347 281.703 15.0989 282.335 17.3814Z" fill="#C7D4F2"/>
<path d="M256.633 21.5815C262.316 30.1449 267.999 38.7083 273.682 47.2717C274.979 49.2273 278.161 47.397 276.848 45.4196C271.165 36.8562 265.482 28.2927 259.799 19.7293C258.502 17.7737 255.32 19.6041 256.633 21.5815Z" fill="#C7D4F2"/>
<path d="M250.749 44.7714C255.391 48.3558 260.028 51.9402 264.67 55.5246C265.455 56.1293 266.724 55.6445 267.182 54.8655C267.738 53.9176 267.313 52.9643 266.523 52.3542C261.88 48.7698 257.244 45.1854 252.601 41.6009C251.817 40.9963 250.547 41.4811 250.089 42.2601C249.534 43.208 249.959 44.1612 250.749 44.7714Z" fill="#C7D4F2"/>
<path d="M230.768 58.9564C239.05 62.2249 247.338 65.4933 255.62 68.7564C256.546 69.1214 257.625 68.3533 257.876 67.4762C258.175 66.4412 257.511 65.5805 256.595 65.221C248.313 61.9525 240.026 58.684 231.744 55.421C230.817 55.056 229.738 55.8241 229.488 56.7011C229.188 57.7362 229.853 58.5969 230.768 58.9564Z" fill="#C7D4F2"/>
<path d="M326.497 13.6717C325.38 20.1869 324.258 26.6966 323.141 33.2117C322.972 34.1868 323.402 35.1892 324.421 35.467C325.304 35.7067 326.508 35.1674 326.677 34.1869C327.794 27.6717 328.916 21.162 330.033 14.6468C330.202 13.6717 329.772 12.6694 328.753 12.3916C327.87 12.1519 326.666 12.6912 326.497 13.6717Z" fill="#C7D4F2"/>
<path d="M356.258 11.7651C351.289 19.9199 346.314 28.0802 341.345 36.235C340.114 38.256 343.285 40.1027 344.511 38.0872C349.48 29.9323 354.455 21.7721 359.424 13.6172C360.655 11.5962 357.484 9.7495 356.258 11.7651Z" fill="#C7D4F2"/>
<path d="M365.963 33.1846C362.111 36.5947 358.651 40.3807 355.529 44.4608C354.946 45.2235 355.387 46.5472 356.188 46.9666C357.158 47.4787 358.073 47.1246 358.7 46.3075C358.738 46.253 358.781 46.204 358.82 46.1495C358.754 46.2312 358.76 46.2258 358.836 46.1277C358.918 46.0242 358.999 45.9207 359.081 45.8118C359.266 45.5775 359.452 45.3433 359.637 45.1091C360.035 44.6188 360.432 44.134 360.841 43.6492C361.631 42.7122 362.448 41.797 363.288 40.8982C364.96 39.106 366.726 37.3955 368.562 35.7667C369.281 35.1293 369.259 33.8165 368.562 33.1737C367.794 32.4655 366.737 32.4927 365.968 33.1737L365.963 33.1846Z" fill="#C7D4F2"/>
<path d="M363.897 60.923C371.831 56.6903 379.764 52.4577 387.697 48.225C389.779 47.1137 387.932 43.9487 385.845 45.06C377.911 49.2927 369.978 53.5254 362.05 57.758C359.969 58.8693 361.816 62.0343 363.903 60.923H363.897Z" fill="#C7D4F2"/>
<path d="M369.406 76.8895C374.735 76.3774 380.058 75.86 385.387 75.3479C386.373 75.2553 387.223 74.5744 387.223 73.5121C387.223 72.5969 386.379 71.5837 385.387 71.6763C380.058 72.1884 374.735 72.7059 369.406 73.2179C368.42 73.3105 367.57 73.9915 367.57 75.0537C367.57 75.9689 368.414 76.9821 369.406 76.8895Z" fill="#C7D4F2"/>
<path d="M249.169 133.015C256.851 128.776 264.54 124.538 272.222 120.3C274.287 119.162 272.44 115.991 270.37 117.135C262.687 121.373 254.999 125.612 247.316 129.85C245.251 130.988 247.098 134.159 249.169 133.015Z" fill="#C7D4F2"/>
<path d="M277.699 128.689C274.664 133.352 271.345 137.819 267.738 142.058C267.095 142.809 266.997 143.91 267.738 144.651C268.398 145.31 269.689 145.408 270.332 144.651C274.135 140.178 277.66 135.461 280.864 130.542C281.404 129.714 281.033 128.515 280.205 128.03C279.311 127.507 278.238 127.856 277.693 128.689H277.699Z" fill="#C7D4F2"/>
<path d="M291.178 132.71C287.321 142.068 283.572 151.471 279.932 160.917C279.082 163.123 282.629 164.076 283.469 161.892C287.108 152.446 290.857 143.043 294.715 133.685C295.096 132.764 294.301 131.68 293.434 131.429C292.383 131.13 291.554 131.8 291.178 132.71Z" fill="#C7D4F2"/>
<path d="M306.708 134.987C305.176 140.363 304.119 145.854 303.493 151.411C303.384 152.397 304.414 153.247 305.329 153.247C306.413 153.247 307.051 152.402 307.165 151.411C307.754 146.187 308.805 141.017 310.249 135.956C310.898 133.685 307.361 132.71 306.713 134.981L306.708 134.987Z" fill="#C7D4F2"/>
<path d="M319.207 136.855C320.629 147.483 321.533 158.171 321.926 168.886C322.013 171.239 325.68 171.25 325.593 168.886C325.2 158.171 324.296 147.483 322.874 136.855C322.743 135.864 322.127 135.03 321.037 135.019C320.149 135.008 319.07 135.869 319.201 136.855H319.207Z" fill="#C7D4F2"/>
<path d="M335.128 133.674C337.956 140.657 341.307 147.407 345.224 153.851C346.45 155.867 349.621 154.025 348.39 151.999C344.641 145.838 341.367 139.388 338.664 132.699C338.293 131.783 337.443 131.135 336.408 131.418C335.536 131.658 334.752 132.753 335.128 133.674Z" fill="#C7D4F2"/>
<path d="M350.679 128.019C356.356 135.362 362.366 142.439 368.686 149.237C370.299 150.969 372.887 148.371 371.28 146.644C364.954 139.851 358.944 132.769 353.272 125.426C352.667 124.642 351.316 124.789 350.679 125.426C349.905 126.2 350.068 127.235 350.679 128.019Z" fill="#C7D4F2"/>
<path d="M360.367 115.403C364.666 118.65 369.608 121.025 374.817 122.392C377.1 122.991 378.075 119.456 375.792 118.857C370.861 117.56 366.284 115.31 362.219 112.238C361.429 111.639 360.17 112.113 359.707 112.897C359.157 113.84 359.571 114.809 360.367 115.403Z" fill="#C7D4F2"/>
<path d="M368.196 98.7447C377.824 100.412 387.332 102.678 396.677 105.543C398.938 106.235 399.908 102.7 397.652 102.008C388.313 99.1424 378.799 96.8708 369.172 95.2093C366.861 94.8116 365.87 98.3416 368.196 98.7447Z" fill="#C7D4F2"/>
<path d="M323.909 116.16C324.628 118.1 325.353 120.039 326.072 121.978C326.274 122.523 326.835 122.953 327.445 122.757C327.979 122.583 328.442 121.973 328.224 121.384C327.505 119.445 326.781 117.506 326.061 115.566C325.86 115.022 325.299 114.591 324.688 114.787C324.154 114.962 323.691 115.572 323.909 116.16Z" fill="#C7D4F2"/>
<path d="M327.511 111.094C328.72 114.003 329.925 116.906 331.134 119.815C331.363 120.371 331.875 120.769 332.507 120.594C333.03 120.447 333.521 119.783 333.286 119.222C332.077 116.313 330.873 113.409 329.663 110.5C329.434 109.945 328.922 109.547 328.29 109.721C327.767 109.868 327.277 110.533 327.511 111.094Z" fill="#C7D4F2"/>
<path d="M331.379 107.673C333.15 111.067 334.561 114.624 335.613 118.307C336.005 119.685 338.163 119.102 337.765 117.713C336.664 113.85 335.166 110.108 333.308 106.545C332.643 105.271 330.714 106.398 331.379 107.673Z" fill="#C7D4F2"/>
<path d="M334.921 100.864C336.349 105.886 338.523 110.686 341.378 115.06C342.157 116.258 344.091 115.142 343.307 113.932C340.555 109.71 338.457 105.118 337.079 100.27C336.686 98.8918 334.534 99.4746 334.926 100.864H334.921Z" fill="#C7D4F2"/>
<path d="M149.392 110.811C150.362 110.331 151.337 109.852 152.307 109.373C152.705 109.177 153.037 108.692 153.151 108.278C153.271 107.836 153.217 107.254 152.966 106.867C152.716 106.475 152.34 106.131 151.871 106.023C151.707 106.001 151.544 105.979 151.386 105.957C151.054 105.957 150.748 106.044 150.46 106.208C149.49 106.687 148.515 107.166 147.545 107.646C147.147 107.842 146.815 108.327 146.7 108.741C146.58 109.182 146.635 109.765 146.885 110.152C147.136 110.544 147.512 110.887 147.981 110.996C148.144 111.018 148.307 111.04 148.465 111.061C148.798 111.061 149.103 110.98 149.392 110.811Z" fill="#C7D4F2"/>
<path d="M138.08 95.0732C138.805 94.8335 139.535 94.5884 140.26 94.3487C140.5 94.2942 140.707 94.1853 140.881 94.0218C141.083 93.8911 141.241 93.7222 141.355 93.5098C141.491 93.2973 141.562 93.074 141.573 92.8289C141.627 92.5837 141.617 92.344 141.54 92.0989C141.399 91.6577 141.121 91.2273 140.696 91.004C140.271 90.7806 139.753 90.6608 139.285 90.8187C138.56 91.0584 137.83 91.3036 137.105 91.5433C136.865 91.5977 136.658 91.7067 136.484 91.8701C136.282 92.0008 136.124 92.1697 136.01 92.3822C135.874 92.5946 135.803 92.818 135.792 93.0631C135.737 93.3082 135.748 93.5479 135.825 93.7931C135.966 94.2343 136.244 94.6647 136.669 94.888C137.094 95.1114 137.612 95.2312 138.08 95.0732Z" fill="#C7D4F2"/>
<path d="M131.667 80.8389C132.152 80.3541 132.632 79.8693 133.116 79.379C133.296 79.2156 133.422 79.014 133.498 78.7907C133.612 78.5728 133.667 78.3385 133.656 78.0825C133.667 77.8319 133.612 77.5922 133.498 77.3743C133.422 77.1455 133.296 76.9494 133.116 76.786C132.991 76.6879 132.871 76.5954 132.746 76.4973C132.457 76.3339 132.152 76.2467 131.82 76.2467C131.656 76.2685 131.493 76.2903 131.335 76.3121C131.024 76.3992 130.752 76.5572 130.523 76.786C130.038 77.2708 129.558 77.7557 129.073 78.2405C128.894 78.4039 128.768 78.6054 128.692 78.8288C128.578 79.0467 128.523 79.281 128.534 79.537C128.523 79.7876 128.578 80.0273 128.692 80.2452C128.768 80.4739 128.894 80.6701 129.073 80.8335C129.199 80.9315 129.319 81.0241 129.444 81.1222C129.733 81.2856 130.038 81.3728 130.37 81.3728C130.534 81.351 130.697 81.3292 130.855 81.3074C131.166 81.2203 131.438 81.0623 131.667 80.8335V80.8389Z" fill="#C7D4F2"/>
</svg>
