<svg width="223" height="401" viewBox="0 0 223 401" fill="none" xmlns="http://www.w3.org/2000/svg">
<path d="M192.247 129.106C195.633 115.382 194.741 100.628 189.347 87.5339C183.696 73.8262 173.376 62.4733 160.119 55.7503C144.005 47.5801 124.515 46.0154 106.953 49.6573C91.1692 52.9307 76.8547 61.4801 67.342 74.6005C57.7545 87.8223 53.8233 104.718 55.7729 120.861C56.0453 123.13 59.6453 123.157 59.3675 120.861C57.7117 107.19 60.3022 93.1142 67.3153 81.2007C74.9319 68.2619 87.3663 59.013 101.691 54.7036C118.26 49.7161 137.344 50.234 153.453 56.6581C166.582 61.8966 177.468 71.7222 183.92 84.2979C190.805 97.7173 192.38 113.556 188.78 128.155C188.225 130.403 191.691 131.359 192.247 129.111V129.106Z" fill="#C7D4F2"/>
<path d="M67.8445 151.528C78.6872 165.93 94.9566 174.378 112.69 176.765C131.662 179.318 152.316 176.188 168.116 164.857C175.47 159.581 181.559 152.767 186.009 144.885C187.146 142.867 184.043 141.051 182.905 143.07C175.054 157.002 161.946 166.811 146.596 171.121C128.761 176.135 107.882 175.04 91.2338 166.598C83.2967 162.571 76.305 156.831 70.9477 149.713C69.575 147.886 66.4504 149.675 67.8445 151.528Z" fill="#C7D4F2"/>
<path d="M218.703 262.301C210.408 286.887 189.085 305.213 165.733 315.183C142.264 325.201 115.793 326.931 90.8653 322.061C73.597 318.686 56.9484 311.76 43.0665 300.845C30.6588 291.094 20.7134 278.497 13.9621 264.25C7.40307 250.404 3.9473 235.115 3.62682 219.811C3.30635 204.448 6.13186 189.031 12.066 174.843C18.0909 160.435 27.39 147.475 39.1781 137.222C52.2695 125.832 68.2238 118.164 85.0327 114.068C94.93 111.66 105.078 110.469 115.253 110.245C128.425 109.956 141.746 110.998 154.528 114.292C165.616 117.149 176.213 121.8 185.437 128.636C194.395 135.273 201.712 143.919 207.272 153.552C210.167 158.566 212.592 163.826 214.643 169.241C215.738 168.782 216.833 168.317 217.928 167.858C213.511 162.053 208.041 156.922 202.465 152.26C189.812 141.676 175.161 133.399 159.287 128.769C139.07 122.874 116.637 122.997 96.6499 129.8C80.3057 135.359 66.4024 146.065 57.5413 160.953C49.7164 174.1 46.0256 189.335 44.8505 204.48C43.7235 219.015 44.6956 233.924 48.771 247.969C53.1722 263.118 61.3977 277.253 74.019 286.967C90.1122 299.355 110.671 302.453 130.476 301.182C151.771 299.815 172.629 293.93 191.633 284.259C201.878 279.042 211.823 272.768 220.476 265.158C220.887 264.795 221.298 264.432 221.694 264.053C223.365 262.451 220.823 259.909 219.151 261.511C213.623 266.803 207.043 271.187 200.542 275.16C184.7 284.841 167.16 291.703 148.925 295.222C128.644 299.136 105.917 299.927 86.8861 290.705C72.6196 283.789 62.0974 271.652 55.8641 257.212C50.133 243.942 48.0072 229.364 48.0339 214.989C48.0606 200.704 50.1437 186.249 55.5543 172.968C61.4991 158.385 71.8932 146.071 85.7484 138.461C103.524 128.7 125.61 126.206 145.458 129.351C162.55 132.059 178.638 139.15 192.675 149.195C200.532 154.823 207.94 161.386 214.125 168.835C214.36 169.118 214.59 169.412 214.825 169.695C215.14 170.079 214.921 169.812 214.814 169.679C215.92 171.137 218.89 170.384 218.099 168.296C213.853 157.087 208.073 146.477 200.158 137.42C192.669 128.849 183.37 121.95 173.078 117.123C161.621 111.751 149.218 108.851 136.672 107.521C124.419 106.218 111.936 106.25 99.7051 107.783C80.9733 110.122 62.6475 116.161 46.9336 126.772C33.228 136.026 21.8298 148.479 13.8393 162.961C6.1105 176.968 1.5918 192.62 0.347294 208.554C-0.886532 224.371 1.16986 240.514 6.47371 255.477C11.8844 270.744 20.6387 284.777 32.2292 296.119C44.8772 308.503 60.6072 317.362 77.5175 322.472C100.223 329.334 125.455 330.317 148.492 324.683C174.782 318.248 199.96 302.757 214.478 279.496C217.656 274.402 220.241 268.955 222.158 263.262C222.901 261.068 219.429 260.122 218.692 262.307L218.703 262.301Z" fill="#C7D4F2"/>
<path d="M124.558 340.943C123.692 340.943 122.993 340.244 122.993 339.379V334.69C122.993 333.825 123.692 333.126 124.558 333.126C125.423 333.126 126.123 333.825 126.123 334.69V339.379C126.123 340.244 125.423 340.943 124.558 340.943Z" fill="#C7D4F2"/>
<path d="M124.558 362.453C123.692 362.453 122.993 361.754 122.993 360.888V350.134C122.993 349.269 123.692 348.569 124.558 348.569C125.423 348.569 126.123 349.269 126.123 350.134V360.888C126.123 361.754 125.423 362.453 124.558 362.453Z" fill="#C7D4F2"/>
<path d="M124.558 377.896C123.692 377.896 122.993 377.197 122.993 376.332V371.643C122.993 370.778 123.692 370.079 124.558 370.079C125.423 370.079 126.123 370.778 126.123 371.643V376.332C126.123 377.197 125.423 377.896 124.558 377.896Z" fill="#C7D4F2"/>
<path d="M124.558 269.766C123.692 269.766 122.993 269.067 122.993 268.202V263.513C122.993 262.648 123.692 261.949 124.558 261.949C125.423 261.949 126.123 262.648 126.123 263.513V268.202C126.123 269.067 125.423 269.766 124.558 269.766Z" fill="#C7D4F2"/>
<path d="M124.558 283.202C123.692 283.202 122.993 282.502 122.993 281.637V274.92C122.993 274.055 123.692 273.355 124.558 273.355C125.423 273.355 126.123 274.055 126.123 274.92V281.637C126.123 282.502 125.423 283.202 124.558 283.202Z" fill="#C7D4F2"/>
<path d="M124.558 294.608C123.692 294.608 122.993 293.909 122.993 293.044V288.355C122.993 287.49 123.692 286.791 124.558 286.791C125.423 286.791 126.123 287.49 126.123 288.355V293.044C126.123 293.909 125.423 294.608 124.558 294.608Z" fill="#C7D4F2"/>
<path d="M124.558 136.699C123.692 136.699 122.993 136 122.993 135.134V130.446C122.993 129.581 123.692 128.881 124.558 128.881C125.423 128.881 126.123 129.581 126.123 130.446V135.134C126.123 136 125.423 136.699 124.558 136.699Z" fill="#C7D4F2"/>
<path d="M124.558 187.734C123.692 187.734 122.993 187.034 122.993 186.169V177.662C122.993 176.797 123.692 176.098 124.558 176.098C125.423 176.098 126.123 176.797 126.123 177.662V186.169C126.123 187.034 125.423 187.734 124.558 187.734ZM124.558 170.72C123.692 170.72 122.993 170.021 122.993 169.156V160.649C122.993 159.784 123.692 159.085 124.558 159.085C125.423 159.085 126.123 159.784 126.123 160.649V169.156C126.123 170.021 125.423 170.72 124.558 170.72ZM124.558 153.707C123.692 153.707 122.993 153.008 122.993 152.143V143.636C122.993 142.771 123.692 142.071 124.558 142.071C125.423 142.071 126.123 142.771 126.123 143.636V152.143C126.123 153.008 125.423 153.707 124.558 153.707Z" fill="#C7D4F2"/>
<path d="M124.558 200.929C123.692 200.929 122.993 200.229 122.993 199.364V194.675C122.993 193.81 123.692 193.111 124.558 193.111C125.423 193.111 126.123 193.81 126.123 194.675V199.364C126.123 200.229 125.423 200.929 124.558 200.929Z" fill="#C7D4F2"/>
<path d="M124.558 28.6495C123.692 28.6495 122.993 27.95 122.993 27.0849V22.3964C122.993 21.5313 123.692 20.8318 124.558 20.8318C125.423 20.8318 126.123 21.5313 126.123 22.3964V27.0849C126.123 27.95 125.423 28.6495 124.558 28.6495Z" fill="#C7D4F2"/>
<path d="M124.558 88.8634C123.692 88.8634 122.993 88.1639 122.993 87.2988V77.2649C122.993 76.3999 123.692 75.7003 124.558 75.7003C125.423 75.7003 126.123 76.3999 126.123 77.2649V87.2988C126.123 88.1639 125.423 88.8634 124.558 88.8634ZM124.558 68.7904C123.692 68.7904 122.993 68.0908 122.993 67.2257V57.1919C122.993 56.3268 123.692 55.6273 124.558 55.6273C125.423 55.6273 126.123 56.3268 126.123 57.1919V67.2257C126.123 68.0908 125.423 68.7904 124.558 68.7904ZM124.558 48.7173C123.692 48.7173 122.993 48.0178 122.993 47.1527V37.1188C122.993 36.2537 123.692 35.5542 124.558 35.5542C125.423 35.5542 126.123 36.2537 126.123 37.1188V47.1527C126.123 48.0178 125.423 48.7173 124.558 48.7173Z" fill="#C7D4F2"/>
<path d="M124.558 103.591C123.692 103.591 122.993 102.892 122.993 102.027V97.3381C122.993 96.473 123.692 95.7734 124.558 95.7734C125.423 95.7734 126.123 96.473 126.123 97.3381V102.027C126.123 102.892 125.423 103.591 124.558 103.591Z" fill="#C7D4F2"/>
<path d="M112.433 230.982C120.348 227.469 125.551 219.272 125.572 210.648C125.578 208.335 121.988 208.33 121.978 210.648C121.961 215.155 122.597 219.95 125.332 223.682C127.682 226.892 131.255 229.044 135.293 229.001C134.989 227.885 134.69 226.769 134.385 225.653C125.449 231.548 120.263 242.298 121.534 252.978C122.709 252.818 123.89 252.657 125.065 252.502C124.659 249.555 124.253 246.607 123.847 243.659C123.478 240.995 123.227 238.255 122.357 235.697C120.957 231.586 117.993 228.323 113.554 227.752C111.268 227.458 111.29 231.052 113.554 231.345C117.619 231.869 119.099 236.573 119.707 239.975C120.509 244.434 120.984 248.967 121.598 253.458C121.871 255.445 125.369 254.996 125.129 252.983C124.007 243.574 128.248 234.01 136.201 228.761C137.638 227.81 137.152 225.397 135.293 225.413C127.613 225.482 125.551 216.719 125.578 210.648H121.983C121.961 218.118 117.421 224.857 110.622 227.88C108.512 228.82 110.339 231.917 112.438 230.982H112.433Z" fill="#C7D4F2"/>
<path d="M132.671 376.481L117.918 376.401C116.797 376.396 115.819 377.56 116.183 378.676C118.116 384.582 120.055 390.483 121.988 396.389C122.266 397.238 122.544 398.082 122.822 398.931C123.409 400.72 125.642 400.543 126.288 398.931C128.649 393.051 131.015 387.177 133.376 381.298C133.718 380.449 134.06 379.6 134.402 378.751C134.765 377.848 134.006 376.775 133.146 376.54C132.121 376.257 131.298 376.892 130.935 377.795C128.574 383.674 126.208 389.548 123.847 395.428C123.505 396.277 123.164 397.126 122.822 397.975H126.288C124.355 392.069 122.416 386.168 120.482 380.262C120.205 379.413 119.927 378.569 119.649 377.72C119.072 378.478 118.495 379.237 117.913 379.995C122.832 380.022 127.746 380.048 132.666 380.075C134.978 380.086 134.984 376.492 132.666 376.481H132.671Z" fill="#C7D4F2"/>
<path d="M132.719 20.0949C127.805 20.143 122.885 20.1964 117.972 20.2445C118.548 21.0027 119.125 21.761 119.707 22.5193C121.614 16.6079 123.521 10.6912 125.428 4.77983C125.7 3.93077 125.973 3.08171 126.25 2.23265H122.784C125.182 8.11199 127.575 13.986 129.973 19.8653C130.315 20.6984 130.657 21.5367 130.993 22.3698C131.362 23.2669 132.19 23.9024 133.205 23.6247C134.054 23.3897 134.829 22.3164 134.46 21.4139C132.062 15.5346 129.669 9.66059 127.271 3.78125C126.929 2.94821 126.587 2.10983 126.25 1.27679C125.599 -0.319874 123.366 -0.528134 122.784 1.27679C120.877 7.18817 118.97 13.1049 117.064 19.0216C116.791 19.8707 116.519 20.7197 116.241 21.5688C115.883 22.6795 116.845 23.8543 117.977 23.8436C122.896 23.7956 127.81 23.7422 132.724 23.6941C135.037 23.6727 135.042 20.0736 132.724 20.1003L132.719 20.0949Z" fill="#C7D4F2"/>
<path d="M67.7321 166.042C65.7666 168.75 63.801 171.452 61.8354 174.159C61.2799 174.923 61.6805 176.194 62.4817 176.621C63.4164 177.112 64.3511 176.792 64.944 175.975C66.9096 173.267 68.8751 170.565 70.8407 167.858C71.3962 167.094 70.9956 165.823 70.1945 165.402C69.2597 164.91 68.325 165.231 67.7321 166.048V166.042Z" fill="#C7D4F2"/>
<path d="M78.6337 169.626C73.2871 177.78 67.9459 185.934 62.5993 194.083C61.3281 196.021 64.4367 197.826 65.7026 195.898C71.0491 187.744 76.3904 179.59 81.737 171.441C83.0082 169.503 79.8995 167.698 78.6337 169.626Z" fill="#C7D4F2"/>
<path d="M85.3152 181.229C84.247 184.15 83.1787 187.066 82.1105 189.987C81.7847 190.874 82.4738 191.995 83.3657 192.198C84.3806 192.427 85.2298 191.888 85.577 190.943C86.6452 188.022 87.7135 185.106 88.7817 182.185C89.1075 181.299 88.4185 180.177 87.5265 179.975C86.5117 179.745 85.6624 180.284 85.3152 181.229Z" fill="#C7D4F2"/>
<path d="M100.891 183.462C98.1612 192.305 95.4318 201.142 92.7025 209.985C92.0188 212.201 95.4906 213.147 96.1689 210.941C98.8983 202.098 101.628 193.261 104.357 184.417C105.041 182.201 101.569 181.256 100.891 183.462Z" fill="#C7D4F2"/>
<path d="M112.401 187.568C112.096 191.744 111.797 195.915 111.493 200.09C111.423 201.062 112.369 201.89 113.293 201.89C114.324 201.89 115.018 201.062 115.093 200.09C115.397 195.915 115.696 191.744 116.001 187.568C116.07 186.596 115.125 185.769 114.201 185.769C113.17 185.769 112.476 186.596 112.401 187.568Z" fill="#C7D4F2"/>
<path d="M135.908 188.599C137.152 192.288 138.172 196.048 138.963 199.861C139.155 200.784 140.293 201.404 141.174 201.116C142.151 200.8 142.632 199.893 142.429 198.905C141.639 195.092 140.619 191.333 139.374 187.643C139.075 186.751 138.124 186.078 137.163 186.388C136.276 186.676 135.587 187.643 135.908 188.599Z" fill="#C7D4F2"/>
<path d="M147.957 184.337C151.563 193.212 154.623 202.296 157.134 211.539C157.737 213.771 161.209 212.821 160.6 210.583C158.09 201.34 155.024 192.256 151.424 183.381C151.055 182.473 150.233 181.859 149.213 182.126C148.358 182.351 147.594 183.44 147.957 184.337Z" fill="#C7D4F2"/>
<path d="M160.381 180.557C160.445 180.637 160.509 180.717 160.573 180.802C160.45 180.642 160.45 180.642 160.573 180.802C160.696 180.968 160.824 181.128 160.947 181.294C161.193 181.625 161.439 181.956 161.679 182.292C162.16 182.96 162.624 183.638 163.078 184.327C163.981 185.704 164.83 187.12 165.621 188.561C166.075 189.389 167.282 189.72 168.083 189.207C168.922 188.668 169.21 187.632 168.729 186.746C167.047 183.67 165.092 180.77 162.929 178.01C162.347 177.267 160.99 177.353 160.386 178.01C159.66 178.8 159.767 179.756 160.386 180.551L160.381 180.557Z" fill="#C7D4F2"/>
<path d="M171 173.577C176.117 178.784 181.234 183.99 186.35 189.197C187.974 190.852 190.517 188.305 188.893 186.655C183.776 181.448 178.659 176.242 173.542 171.035C171.918 169.38 169.376 171.927 171 173.577Z" fill="#C7D4F2"/>
<path d="M182.654 164.788C185.619 166.486 188.583 168.184 191.547 169.877C192.365 170.346 193.55 170.095 194.004 169.23C194.458 168.376 194.229 167.271 193.358 166.774C190.394 165.076 187.429 163.378 184.47 161.685C183.653 161.215 182.467 161.466 182.008 162.331C181.554 163.186 181.784 164.291 182.654 164.793V164.788Z" fill="#C7D4F2"/>
<path d="M198.395 279.715C197.92 285.637 196.862 291.484 195.265 297.209C194.886 298.565 196.996 299.147 197.375 297.791C199.02 291.885 200.088 285.829 200.58 279.715C200.692 278.311 198.502 278.321 198.39 279.715H198.395Z" fill="#C7D4F2"/>
<path d="M192.6 282.353C191.157 289.487 189.71 296.622 188.268 303.756C187.99 305.128 190.1 305.721 190.378 304.338C191.82 297.204 193.267 290.069 194.709 282.935C194.987 281.563 192.877 280.97 192.6 282.353Z" fill="#C7D4F2"/>
<path d="M185.143 286.753C183.429 294.427 181.714 302.106 180 309.779C179.695 311.152 181.805 311.739 182.11 310.361C183.824 302.688 185.539 295.009 187.253 287.335C187.558 285.963 185.448 285.376 185.143 286.753Z" fill="#C7D4F2"/>
<path d="M190.068 113.7C187.274 116.584 184.978 119.926 183.317 123.584C183.071 124.124 183.162 124.759 183.712 125.079C184.182 125.352 184.962 125.229 185.207 124.69C186.794 121.197 188.946 118.004 191.617 115.249C192.6 114.239 191.051 112.685 190.068 113.7Z" fill="#C7D4F2"/>
<path d="M189.154 105.108C185.955 110.485 182.387 115.638 178.467 120.514C178.093 120.978 178.023 121.608 178.467 122.062C178.846 122.452 179.647 122.521 180.016 122.062C184.059 117.043 187.75 111.751 191.045 106.213C191.766 105.001 189.876 103.901 189.154 105.108Z" fill="#C7D4F2"/>
<path d="M187.6 97.6798C182.937 104.99 177.553 111.799 171.523 118.02C170.54 119.029 172.089 120.583 173.072 119.568C179.231 113.214 184.737 106.245 189.491 98.7852C190.25 97.5944 188.359 96.4943 187.6 97.6798Z" fill="#C7D4F2"/>
<path d="M19.2551 181.058C11.6919 199.044 10.0468 219.186 14.4159 238.186C14.934 240.439 18.4005 239.483 17.8824 237.23C13.6468 218.818 15.404 199.417 22.7215 182.014C23.6189 179.884 20.1364 178.954 19.2551 181.058Z" fill="#C7D4F2"/>
<path d="M21.3006 252.78C23.6133 252.78 23.6187 249.186 21.3006 249.186C18.9825 249.186 18.9825 252.78 21.3006 252.78Z" fill="#C7D4F2"/>
</svg>
