<svg width="182" height="177" viewBox="0 0 182 177" fill="none" xmlns="http://www.w3.org/2000/svg">
<path d="M81.6108 33.4653C56.5867 36.5804 35.7951 55.3512 28.6799 79.3675C21.6938 102.932 29.6803 130.472 50.7353 144.191C70.2146 156.883 96.153 154.822 116.041 144.218C138.457 132.264 156.027 107.274 150.842 81.0407C145.491 53.9739 118.752 34.6974 92.0496 33.1533C88.5646 32.9543 85.0796 33.0672 81.6161 33.4707C79.352 33.729 79.3305 37.3121 81.6161 37.0484C107.259 34.0948 134.94 48.793 144.765 73.1752C149.735 85.5061 149.17 99.1713 143.437 111.153C138.462 121.541 130.621 130.445 121.139 136.944C103.639 148.936 79.6155 153.698 59.7006 144.966C38.2744 135.572 26.8891 111.373 30.2826 88.6534C33.7031 65.7561 50.5471 45.3821 72.9252 38.8615C75.7702 38.033 78.6797 37.4197 81.6215 37.0538C83.8749 36.7741 83.9072 33.191 81.6215 33.4761L81.6108 33.4653Z" fill="#C7D4F2"/>
<path d="M63.0561 41.9279C70.1821 29.7637 73.8822 15.8241 73.7101 1.72314C73.6832 -0.622544 70.3595 -0.525704 70.1337 1.72314C69.3001 9.94378 76.4368 16.7226 83.9929 18.4227C93.4691 20.5585 102.827 15.3722 110.27 10.0621C109.393 9.38964 108.517 8.71175 107.64 8.03925C105.236 17.2498 111.453 26.4927 119.832 30.0488C129.959 34.3528 141.586 30.2533 150.035 24.1792L147.588 21.7313C143.324 31.071 142.113 43.2352 149.143 51.628C154.704 58.2616 165.379 61.1506 172.79 55.9051C172.069 54.969 171.343 54.0329 170.623 53.0914C163.319 60.0047 157.285 70.3127 159.646 80.7123C161.695 89.7614 170.655 97.3257 180.147 95.3136C179.69 94.2215 179.227 93.1347 178.77 92.0426C171.139 95.8893 164.217 101.84 160.705 109.78C157.258 117.576 157.382 127.018 162.201 134.222C163.136 133.501 164.072 132.775 165.013 132.054C159.006 127.26 150.611 128.578 144.862 133.162C138.085 138.563 135.88 147.709 134.358 155.812C135.45 155.672 136.536 155.527 137.628 155.387C133.412 145.45 121.731 139.892 111.34 142.545C109.108 143.115 110.055 146.569 112.292 145.999C121.268 143.707 130.949 148.726 134.536 157.194C135.127 158.593 137.537 158.206 137.806 156.769C139.096 149.904 140.699 142.297 145.781 137.132C149.885 132.963 157.473 130.596 162.48 134.593C163.932 135.755 166.519 134.259 165.293 132.425C160.958 125.947 160.91 117.404 164.309 110.496C167.708 103.583 173.801 98.5578 180.577 95.1468C182.47 94.1946 181.099 91.4723 179.201 91.8758C171.225 93.5651 163.943 86.1299 162.889 78.641C161.647 69.8016 167.014 61.4465 173.156 55.6361C174.602 54.2696 172.672 51.628 170.988 52.8224C164.841 57.1748 156.226 54.6408 151.681 49.1048C145.851 42.0032 147.126 31.3454 150.686 23.5444C151.342 22.1026 149.853 19.9344 148.239 21.0965C140.941 26.3474 131.261 30.2371 122.285 27.1813C115.04 24.7172 109.06 16.814 111.104 8.99691C111.469 7.59811 109.802 6.02714 108.474 6.97402C102.106 11.5147 94.2058 16.3406 86.0204 15.1731C79.4861 14.2424 73.0055 8.76556 73.7208 1.72314H70.1444C70.3058 15.2162 66.7939 28.4833 59.9799 40.1202C58.8129 42.1108 61.9052 43.9185 63.0723 41.9279H63.0561Z" fill="#C7D4F2"/>
<path d="M89.9413 33.1693C80.2715 36.2843 71.828 42.3691 65.7508 50.509C59.6682 58.6544 54.6666 70.9584 59.4154 80.8791C61.287 84.7904 65.2775 86.3882 69.2142 87.4804C71.3708 88.0776 73.5866 88.5671 75.6572 89.4279C75.5335 89.3795 76.6736 89.8691 76.6683 89.8906C76.6629 89.9068 76.1036 89.0729 76.1251 89.0836C75.8831 88.976 76.4101 88.7716 76.0766 89.1266C75.8023 89.4172 75.6087 90.2888 75.4205 90.6492C73.92 93.5275 71.9785 96.1583 70.5641 99.0904C69.4132 101.474 68.4022 104.852 71.6021 106.144C73.2639 106.816 75.1355 106.386 76.8619 106.289C78.3785 106.208 79.809 106.31 79.7929 108.193C79.7821 109.312 78.5774 110.168 77.7492 110.889C75.6141 112.75 73.4683 114.574 71.4569 116.57C69.8166 118.195 72.3496 120.723 73.9899 119.104C75.8077 117.302 77.7169 115.618 79.6638 113.955C80.7394 113.035 81.9279 112.094 82.6647 110.856C84.0523 108.522 83.3424 104.852 80.9599 103.427C79.5025 102.555 77.7008 102.63 76.0712 102.765C75.2592 102.83 74.4094 102.98 73.5973 102.921C73.3177 102.899 73.0918 102.862 72.8176 102.797C73.0273 102.846 72.9412 103.088 72.9412 102.91C72.9251 100.823 75.5388 97.5033 76.7005 95.5826C77.8514 93.6835 80.1747 90.7568 79.6154 88.3627C79.2443 86.7649 77.4696 86.2968 76.1197 85.7857C74.0222 84.9948 71.828 84.5052 69.6768 83.8919C67.7461 83.3431 65.6916 82.7137 64.1589 81.3526C62.2658 79.674 61.5882 76.8764 61.3247 74.4607C60.7062 68.8333 62.4863 63.1466 65.0947 58.2186C70.505 48.0073 79.9004 40.1633 90.8878 36.6232C93.0713 35.9185 92.1355 32.4645 89.9359 33.1693H89.9413Z" fill="#C7D4F2"/>
<path d="M74.5009 118.964C76.0014 117.743 78.0988 116.947 79.9488 116.484C80.5082 116.344 81.7881 115.935 82.3313 116.323C82.4604 116.414 82.1054 116.064 82.2668 116.42C82.5625 117.049 82.0839 118.545 81.9225 119.196C81.1911 122.155 80.2231 124.968 81.1643 128.03C82.0463 130.897 84.2674 133.141 86.7736 134.69C98.8204 142.125 115.675 136.788 127.039 130.526C133.864 126.765 139.973 121.724 144.76 115.564C146.158 113.767 143.641 111.217 142.227 113.03C133.627 124.102 120.472 131.71 106.662 134.044C100.02 135.169 90.9792 134.986 86.0905 129.558C83.7296 126.932 84.2943 123.984 85.1655 120.885C85.7679 118.733 86.6069 115.457 84.7246 113.692C81.5085 110.679 74.6945 114.214 71.9571 116.436C70.1716 117.888 72.7154 120.412 74.4901 118.97L74.5009 118.964Z" fill="#C7D4F2"/>
<path d="M93.3993 122.865C95.2655 120.508 96.6208 117.867 97.3038 114.935C96.212 115.075 95.1256 115.22 94.0339 115.36C95.5075 117.592 98.4708 118.577 100.929 117.345C103.225 116.194 104.387 113.24 103.483 110.83L101.283 113.03C105 113.848 108.969 112.697 111.55 109.856C113.099 108.156 110.571 105.616 109.017 107.322C107.307 109.2 104.742 110.125 102.235 109.571C101.02 109.302 99.5249 110.41 100.036 111.771C100.348 112.605 100.235 113.665 99.3366 114.138C98.6214 114.515 97.5888 114.241 97.1316 113.541C96.3303 112.325 94.2275 112.39 93.8618 113.966C93.324 116.269 92.3506 118.458 90.877 120.32C90.2746 121.079 90.1402 122.112 90.877 122.854C91.5008 123.478 92.8023 123.618 93.41 122.854L93.3993 122.865Z" fill="#C7D4F2"/>
<path d="M103.08 126.222C104.274 125.291 105.467 124.366 106.661 123.435C106.995 123.171 107.183 122.574 107.183 122.171C107.183 121.729 106.989 121.208 106.661 120.906C106.323 120.594 105.871 120.363 105.398 120.384C105.242 120.406 105.08 120.427 104.924 120.449C104.623 120.535 104.36 120.686 104.134 120.912C102.94 121.842 101.746 122.768 100.552 123.698C100.218 123.962 100.03 124.559 100.03 124.963C100.03 125.404 100.224 125.926 100.552 126.227C100.891 126.539 101.342 126.77 101.816 126.749C101.972 126.727 102.133 126.706 102.289 126.684C102.59 126.598 102.854 126.448 103.08 126.222Z" fill="#C7D4F2"/>
<path d="M87.3061 105.509C88.1343 107.575 90.1619 108.505 92.3131 107.806C94.7386 107.015 95.4861 104.373 95.7927 102.119H92.3399C92.8885 104.169 94.9429 105.353 97.0189 104.971C99.3153 104.551 100.66 102.356 100.681 100.113C100.708 97.1535 98.6376 95.0123 96.992 92.785C95.2495 90.4232 93.7006 87.8354 92.7057 85.0701C90.6728 79.4157 91.3289 73.6053 95.7657 69.3174C100.364 64.8789 106.855 63.3994 112.879 61.9737C115.121 61.4411 114.169 57.9925 111.927 58.5197C102.483 60.7578 90.6082 64.4109 88.3172 75.3538C87.2846 80.2819 88.5968 85.2745 90.8395 89.6753C91.985 91.9188 93.4102 93.974 94.9483 95.9646C95.7443 96.9975 96.8683 98.208 97.0673 99.553C97.1426 100.053 97.1694 100.989 96.6478 101.296C96.3573 101.468 95.911 101.619 95.7873 101.167C95.3624 99.5907 92.5819 99.3378 92.3345 101.167C92.227 101.974 92.1517 102.862 91.8021 103.604C91.6408 103.948 91.4902 104.234 91.146 104.395C90.8717 104.53 90.6405 104.261 90.7534 104.551C89.9091 102.437 86.4456 103.362 87.3007 105.503L87.3061 105.509Z" fill="#C7D4F2"/>
<path d="M98.9227 86.4421C99.6433 81.471 101.359 76.2471 105.387 72.9653C108.705 70.2591 114.25 69.2961 117.762 72.1744C118.51 72.7877 119.564 72.9061 120.295 72.1744C120.924 71.5449 121.048 70.2591 120.295 69.6404C115.638 65.826 108.77 66.1434 103.962 69.5812C98.8313 73.245 96.352 79.4374 95.4754 85.4953C95.3356 86.4529 95.712 87.4214 96.7231 87.6957C97.562 87.9271 98.7828 87.4106 98.9227 86.4475V86.4421Z" fill="#C7D4F2"/>
<path d="M97.8038 87.459C103.332 88.5457 109.178 87.5504 113.97 84.5537C118.525 81.7077 123.269 76.2201 120.628 70.5711C120.22 69.6942 118.961 69.4736 118.181 69.9309C117.283 70.4582 117.127 71.5019 117.541 72.3788C118.396 74.2026 117.358 76.36 116.267 77.8395C114.997 79.5611 113.19 80.9115 111.335 81.9498C107.549 84.0696 103.015 84.8443 98.7503 84.005C96.5023 83.5638 95.5396 87.0124 97.7984 87.459H97.8038Z" fill="#C7D4F2"/>
<path d="M45.965 97.7294C47.573 99.6716 50.4718 100.097 52.7897 99.3919C55.3228 98.6226 57.1997 96.6588 58.91 94.7382C59.5338 94.0388 59.6521 92.8875 58.91 92.2042C58.2323 91.5801 57.0437 91.4564 56.3769 92.2042C55.6831 92.9843 54.9894 93.7644 54.2149 94.4638C54.0213 94.636 53.8277 94.8081 53.6233 94.9642C53.4781 95.0771 53.7631 94.8727 53.505 95.0448C53.4082 95.1094 53.3167 95.1739 53.2199 95.2385C52.9833 95.3945 52.7359 95.5398 52.4832 95.6743C52.381 95.7281 52.2788 95.7765 52.1766 95.825C52.3918 95.7227 52.2465 95.798 52.1067 95.8464C51.9024 95.9218 51.6872 95.981 51.4775 96.0348C51.3807 96.0563 51.2839 96.0724 51.1871 96.094C50.8429 96.1693 51.3699 96.094 51.1548 96.0993C50.9343 96.1047 50.7192 96.1316 50.4933 96.1262C50.3965 96.1262 50.2997 96.1154 50.2029 96.1154C49.8533 96.1047 50.3858 96.1639 50.176 96.1154C49.9663 96.067 49.7565 96.0294 49.5521 95.9648C49.4607 95.9379 49.3747 95.9003 49.2832 95.8734C49.6489 95.9971 49.3531 95.8949 49.2617 95.8464C49.181 95.8034 49.1004 95.755 49.0197 95.7065C48.8584 95.6043 48.8099 95.5398 48.982 95.7012C48.8046 95.5398 48.6379 95.3784 48.4873 95.1955C47.885 94.4746 46.5673 94.5284 45.9542 95.1955C45.2497 95.9648 45.3142 96.9547 45.9542 97.7294H45.965Z" fill="#C7D4F2"/>
<path d="M56.3768 117.092C56.7586 117.13 56.3338 117.071 56.678 117.13C56.8716 117.162 57.0652 117.2 57.2534 117.243C57.6353 117.329 58.0118 117.431 58.3829 117.549C59.0981 117.781 59.5284 117.98 60.2598 118.399C61.5774 119.153 62.5831 120.019 63.6211 121.256C65.4389 123.435 66.4015 126.292 66.1757 129.202C66.1004 130.165 67.0523 130.994 67.9665 130.994C68.9991 130.994 69.6821 130.171 69.7574 129.202C70.3651 121.428 64.0029 114.3 56.3822 113.514C55.4195 113.412 54.5913 114.407 54.5913 115.306C54.5913 116.355 55.4141 116.995 56.3822 117.097L56.3768 117.092Z" fill="#C7D4F2"/>
<path d="M35.3591 34.0892C37.1231 36.7739 38.8871 39.4585 40.6565 42.1431C41.1728 42.9232 42.2646 43.3266 43.1035 42.7833C43.8834 42.2829 44.2974 41.1693 43.7435 40.3354C41.9795 37.6508 40.2155 34.9662 38.4461 32.2816C37.9298 31.5015 36.8381 31.0979 35.9991 31.6413C35.2193 32.1416 34.8052 33.2553 35.3591 34.0892Z" fill="#C7D4F2"/>
<path d="M20.8708 43.2999C25.0818 45.9738 29.2875 48.6423 33.4985 51.3162C34.3159 51.8326 35.4722 51.4883 35.9454 50.6759C36.451 49.8151 36.123 48.7445 35.3055 48.228C31.0945 45.5541 26.8888 42.8857 22.6778 40.2118C21.8604 39.6953 20.7041 40.0396 20.2308 40.852C19.7253 41.7128 20.0534 42.7835 20.8708 43.2999Z" fill="#C7D4F2"/>
<path d="M16.2244 62.0974C18.5961 62.7753 20.9732 63.4478 23.3449 64.1257C24.2431 64.384 25.3348 63.8137 25.5446 62.8776C25.7597 61.9253 25.2595 60.9515 24.2969 60.6771C21.9251 59.9992 19.548 59.3268 17.1763 58.6489C16.2781 58.3907 15.1864 58.9609 14.9767 59.897C14.7615 60.8493 15.2617 61.8231 16.2244 62.0974Z" fill="#C7D4F2"/>
<path d="M3.47307 77.6458C7.71635 78.4205 11.9597 79.1899 16.2029 79.9646C17.1549 80.1367 18.1336 79.7063 18.4025 78.7164C18.6392 77.8502 18.1068 76.6881 17.1549 76.516C12.9116 75.7413 8.66828 74.9719 4.42499 74.1972C3.47308 74.025 2.49429 74.4554 2.22539 75.4454C1.98875 76.3115 2.52115 77.4736 3.47307 77.6458Z" fill="#C7D4F2"/>
<path d="M4.64538 97.6327H11.739C12.6748 97.6327 13.573 96.8095 13.5299 95.8411C13.4869 94.8727 12.7447 94.0496 11.739 94.0496H4.64538C3.7096 94.0496 2.81149 94.8727 2.85451 95.8411C2.89754 96.8095 3.63969 97.6327 4.64538 97.6327Z" fill="#C7D4F2"/>
<path d="M2.67679 120.008C6.66731 118.308 10.8192 116.979 15.0355 115.968C15.9767 115.742 16.5361 114.676 16.2833 113.767C16.0198 112.81 15.0248 112.293 14.0836 112.519C9.5553 113.606 5.15608 115.101 0.869775 116.92C-0.0176041 117.296 -0.216561 118.609 0.229818 119.368C0.767623 120.288 1.78404 120.39 2.67679 120.008Z" fill="#C7D4F2"/>
<path d="M16.1864 126.545C14.2826 128.422 12.3734 130.3 10.4695 132.172C9.80267 132.828 9.75964 134.055 10.4695 134.706C11.1902 135.368 12.2874 135.411 13.0027 134.706C14.9065 132.828 16.8157 130.951 18.7195 129.079C19.3864 128.422 19.4294 127.196 18.7195 126.545C17.9989 125.883 16.9017 125.84 16.1864 126.545Z" fill="#C7D4F2"/>
<path d="M26.8243 138.628C23.6889 142.776 20.5481 146.924 17.4127 151.077C16.8318 151.847 17.289 153.079 18.0526 153.525C18.9723 154.063 19.9135 153.654 20.4997 152.885C23.6351 148.737 26.7759 144.589 29.9113 140.436C30.4975 139.666 30.035 138.434 29.2713 137.988C28.3517 137.45 27.4105 137.859 26.8243 138.628Z" fill="#C7D4F2"/>
<path d="M38.7852 151.276C36.8383 153.251 35.44 155.79 34.87 158.507C34.6764 159.422 35.1389 160.487 36.1177 160.708C37.0158 160.912 38.113 160.439 38.3173 159.459C38.441 158.873 38.6024 158.292 38.8067 157.727C38.8551 157.593 38.9035 157.463 38.9573 157.329C38.9842 157.264 39.0111 157.2 39.038 157.135C38.8605 157.603 38.9573 157.329 39.0057 157.221C39.1294 156.947 39.2639 156.678 39.4037 156.414C39.678 155.903 39.9899 155.408 40.3287 154.935C40.3825 154.865 40.4363 154.795 40.4847 154.72C40.447 154.779 40.248 155.016 40.3986 154.833C40.49 154.725 40.5761 154.612 40.6675 154.504C40.8719 154.262 41.087 154.031 41.3129 153.805C41.969 153.138 42.0281 151.933 41.3129 151.271C40.603 150.62 39.4843 150.555 38.7798 151.271L38.7852 151.276Z" fill="#C7D4F2"/>
<path d="M51.5367 159.088C49.7297 163.769 48.2346 168.563 47.0514 173.437C46.5082 175.675 49.961 176.632 50.5041 174.389C51.6819 169.515 53.1824 164.721 54.9894 160.041C55.339 159.137 54.6076 158.077 53.7417 157.84C52.7307 157.56 51.8917 158.184 51.5421 159.088H51.5367Z" fill="#C7D4F2"/>
<path d="M69.5098 162.521V170.322C69.5098 171.258 70.3326 172.156 71.3006 172.113C72.2687 172.07 73.0916 171.328 73.0916 170.322V162.521C73.0916 161.585 72.2687 160.686 71.3006 160.729C70.3326 160.772 69.5098 161.515 69.5098 162.521Z" fill="#C7D4F2"/>
<path d="M84.3588 165.152L86.8543 174.986C87.0855 175.895 88.1504 176.53 89.0539 176.234C89.9897 175.933 90.549 175.008 90.3016 174.034C89.468 170.757 88.6398 167.476 87.8062 164.199C87.5749 163.29 86.5101 162.655 85.6066 162.951C84.6708 163.252 84.1115 164.178 84.3588 165.152Z" fill="#C7D4F2"/>
<path d="M100.439 161.176C102.327 164.253 104.209 167.33 106.097 170.408C106.586 171.204 107.721 171.581 108.544 171.048C109.345 170.532 109.711 169.456 109.184 168.6C107.296 165.523 105.414 162.445 103.526 159.368C103.037 158.572 101.902 158.195 101.079 158.728C100.278 159.244 99.912 160.32 100.439 161.176Z" fill="#C7D4F2"/>
<path d="M100.079 75.9726C100.283 78.0708 101.364 79.7602 103.08 80.9653C104.655 82.0736 106.661 82.4825 108.549 82.1866C110.378 81.9014 112.066 80.6748 112.895 79.0123C113.728 77.3338 113.889 75.3809 113.379 73.5786C112.771 71.4427 111.297 69.7533 109.211 68.9732C108.334 68.6451 107.21 69.3391 107.011 70.2214C106.78 71.2382 107.323 72.0721 108.259 72.4218C108.592 72.5456 107.952 72.255 108.156 72.3734C108.226 72.4164 108.307 72.4434 108.377 72.481C108.506 72.551 108.63 72.6316 108.753 72.7069C109.092 72.9114 108.463 72.4434 108.813 72.7554C108.947 72.8738 109.076 72.9975 109.194 73.1266C109.248 73.1858 109.302 73.2504 109.356 73.3096C109.469 73.4387 109.377 73.4655 109.254 73.1804C109.313 73.3203 109.447 73.4601 109.523 73.5893C109.587 73.7022 109.652 73.8152 109.711 73.9336C109.748 74.0089 109.775 74.0843 109.818 74.1596C109.899 74.3156 109.668 73.7238 109.786 74.1004C109.883 74.4017 109.98 74.6976 110.039 75.0096C110.05 75.0742 110.06 75.1387 110.076 75.2086C110.146 75.5637 110.055 74.8374 110.06 75.0795C110.06 75.2625 110.093 75.4454 110.093 75.6283C110.093 75.7628 110.093 75.8919 110.087 76.0264C110.087 76.1233 110.071 76.2255 110.066 76.3223C110.055 76.4784 109.969 76.5267 110.093 76.1394C109.996 76.4514 109.964 76.7796 109.856 77.0916C109.695 77.5382 110.023 76.8011 109.829 77.1562C109.759 77.2853 109.695 77.4145 109.619 77.5382C109.576 77.6082 109.528 77.6727 109.485 77.7427C109.388 77.8987 109.264 77.8987 109.56 77.6512C109.436 77.7534 109.345 77.9041 109.232 78.0117C109.173 78.0709 109.108 78.1246 109.049 78.1784C108.877 78.3398 108.866 78.1892 109.135 78.1192C109.022 78.1515 108.893 78.286 108.791 78.3452C108.716 78.3883 108.64 78.4259 108.565 78.469C108.42 78.555 108.253 78.5281 108.667 78.4366C108.506 78.4743 108.35 78.555 108.189 78.5981C108.044 78.6411 107.828 78.6411 107.699 78.7056C107.721 78.6949 108.173 78.6626 107.877 78.6788C107.791 78.6842 107.71 78.6949 107.624 78.6949C107.473 78.7003 107.318 78.7056 107.167 78.6949C107.097 78.6949 107.032 78.6896 106.963 78.6842C106.893 78.6842 106.828 78.6734 106.758 78.6626C107.049 78.7057 107.119 78.7165 106.979 78.6896C106.678 78.6142 106.376 78.5712 106.075 78.4743C105.93 78.4259 105.785 78.3506 105.64 78.3129C106.07 78.4259 105.871 78.4205 105.736 78.3452C105.645 78.2968 105.553 78.2538 105.462 78.2053C105.295 78.1139 105.134 78.017 104.978 77.9094C104.919 77.8718 104.865 77.8287 104.811 77.7911C104.521 77.592 105.091 78.0385 104.849 77.8179C104.698 77.6781 104.542 77.549 104.403 77.3983C104.354 77.3499 104.311 77.3015 104.268 77.2477C104.128 77.0863 104.15 76.9625 104.295 77.2961C104.225 77.1347 104.08 76.9841 103.988 76.8334C103.945 76.7581 103.908 76.6881 103.87 76.6128C103.784 76.4407 103.827 76.2578 103.886 76.6721C103.865 76.516 103.768 76.3492 103.73 76.1878C103.709 76.1071 103.693 76.021 103.671 75.9403C103.564 75.5099 103.703 76.3116 103.671 75.9565C103.58 75.0257 102.913 74.1219 101.88 74.165C100.987 74.2026 99.9926 74.9558 100.089 75.9565L100.079 75.9726Z" fill="#C7D4F2"/>
<path d="M126.227 135.567V146.208C126.227 147.613 128.405 147.613 128.405 146.208V135.567C128.405 134.163 126.227 134.163 126.227 135.567Z" fill="#C7D4F2"/>
<path d="M132.111 129.886C132.218 137.219 132.326 144.551 132.428 151.879C132.449 153.278 134.627 153.283 134.606 151.879C134.498 144.546 134.391 137.213 134.289 129.886C134.267 128.487 132.089 128.481 132.111 129.886Z" fill="#C7D4F2"/>
<path d="M137.22 124.909C137.467 130.359 137.709 135.804 137.956 141.253C138.021 142.652 140.199 142.658 140.135 141.253C139.887 135.804 139.645 130.354 139.398 124.909C139.333 123.51 137.155 123.505 137.22 124.909Z" fill="#C7D4F2"/>
<path d="M141.807 118.545C142.426 123.521 143.049 128.498 143.668 133.474C143.743 134.061 144.114 134.555 144.76 134.566C145.292 134.572 145.921 134.061 145.851 133.474C145.233 128.498 144.609 123.521 143.991 118.545C143.915 117.958 143.544 117.463 142.899 117.452C142.366 117.447 141.737 117.958 141.807 118.545Z" fill="#C7D4F2"/>
<path d="M73.8663 36.6879C73.463 39.0335 73.5598 41.4277 74.2213 43.7196C74.3773 44.2683 74.9958 44.661 75.5604 44.4781C76.1198 44.2952 76.4909 43.7249 76.3188 43.1385C76.0176 42.0948 75.867 41.2179 75.8132 40.2226C75.7863 39.7007 75.7863 39.1788 75.8132 38.6516C75.824 38.4095 75.8455 38.1674 75.8724 37.9307C75.8724 37.9307 75.9154 37.5702 75.8939 37.7423C75.9154 37.5809 75.9423 37.425 75.9692 37.2636C76.066 36.704 75.8186 36.0638 75.2109 35.9239C74.6838 35.8055 73.9739 36.0853 73.8717 36.6825L73.8663 36.6879Z" fill="#C7D4F2"/>
<path d="M69.3647 39.109C69.5852 41.4762 69.8057 43.8434 70.0208 46.2052C70.0746 46.7701 70.4833 47.3242 71.1126 47.2973C71.6557 47.2704 72.2581 46.8132 72.2043 46.2052C71.9838 43.838 71.7633 41.4708 71.5482 39.109C71.4944 38.5441 71.0857 37.9899 70.4564 38.0168C69.9133 38.0437 69.3109 38.501 69.3647 39.109Z" fill="#C7D4F2"/>
<path d="M64.1321 41.1857C64.5839 45.2314 65.0356 49.2826 65.4874 53.3284C65.5519 53.9148 65.9392 54.4204 66.5791 54.4204C67.1169 54.4204 67.7354 53.9202 67.6708 53.3284C67.2191 49.2826 66.7674 45.2314 66.3156 41.1857C66.2511 40.5992 65.8638 40.0935 65.2239 40.0935C64.6861 40.0935 64.0676 40.5939 64.1321 41.1857Z" fill="#C7D4F2"/>
<path d="M58.8885 44.0584C58.6949 49.729 59.5768 55.4103 61.4968 60.7526C61.9701 62.0599 64.0729 61.4951 63.5996 60.1716C61.7388 54.996 60.8838 49.5568 61.0666 44.0584C61.115 42.6543 58.9369 42.6596 58.8885 44.0584Z" fill="#C7D4F2"/>
<path d="M54.6989 53.7156C54.2472 55.4372 54.4946 57.3041 55.3981 58.8374C55.6885 59.327 56.393 59.5476 56.8878 59.2301C57.3826 58.9127 57.587 58.2671 57.2804 57.7399C57.1836 57.5731 57.0975 57.4063 57.0115 57.2342C57.0975 57.4655 56.8986 57.0082 57.0115 57.2342C56.9792 57.1427 56.9416 57.0566 56.9147 56.9652C56.8609 56.8092 56.8125 56.6477 56.7748 56.4863C56.7533 56.3949 56.7318 56.298 56.7157 56.2066C56.7049 56.1582 56.6942 55.8838 56.6888 56.0667C56.6835 56.255 56.6781 55.9698 56.6781 55.9268C56.6673 55.83 56.6619 55.7385 56.6619 55.6417C56.6565 55.4749 56.6619 55.3081 56.6619 55.1413C56.6619 55.0445 56.6781 54.953 56.6834 54.8562C56.6996 54.6356 56.6404 55.0983 56.6834 54.8616C56.7157 54.6733 56.7533 54.485 56.8017 54.302C56.947 53.7533 56.6189 53.0915 56.0434 52.9624C55.4733 52.8333 54.8603 53.1346 54.7043 53.721L54.6989 53.7156Z" fill="#C7D4F2"/>
<path d="M49.9663 62.5657L50.6762 63.2759C50.773 63.3835 50.8913 63.4588 51.0257 63.5018C51.1548 63.5718 51.2947 63.5987 51.4452 63.5933C51.5958 63.5987 51.7356 63.5664 51.8647 63.5018C51.9991 63.4588 52.1175 63.3835 52.2143 63.2759C52.2734 63.2006 52.3272 63.1306 52.3864 63.0553C52.4832 62.8832 52.5369 62.7002 52.5369 62.5066C52.5262 62.4097 52.5101 62.3129 52.4993 62.216C52.4455 62.0331 52.3541 61.8717 52.2197 61.7372L51.5098 61.0271C51.413 60.9195 51.2946 60.8442 51.1602 60.8011C51.0311 60.7312 50.8913 60.7043 50.7407 60.7097C50.5901 60.7043 50.4503 60.7366 50.3212 60.8011C50.1867 60.8442 50.0685 60.9195 49.9717 61.0271C49.9125 61.1024 49.8587 61.1723 49.7995 61.2477C49.7027 61.4198 49.6489 61.6027 49.6489 61.7964C49.6597 61.8933 49.6759 61.9901 49.6866 62.0869C49.7404 62.2698 49.8318 62.4312 49.9663 62.5657Z" fill="#C7D4F2"/>
<path d="M137.682 80.1098C139.102 81.9982 140.522 83.8919 141.941 85.7803C142.28 86.2322 142.899 86.5174 143.431 86.173C143.877 85.8825 144.189 85.167 143.824 84.6828C142.404 82.7944 140.984 80.9007 139.564 79.0123C139.225 78.5604 138.607 78.2753 138.075 78.6196C137.628 78.9101 137.316 79.6256 137.682 80.1098Z" fill="#C7D4F2"/>
<path d="M138.43 89.2988L139.849 91.4293C140.005 91.666 140.221 91.8544 140.5 91.9297C140.758 91.9996 141.108 91.9673 141.339 91.822C141.57 91.6714 141.775 91.4508 141.839 91.1711C141.904 90.8967 141.893 90.5739 141.732 90.3318L140.312 88.2013C140.156 87.9646 139.941 87.7763 139.661 87.701C139.403 87.6311 139.054 87.6633 138.822 87.8086C138.591 87.9592 138.387 88.1798 138.322 88.4595C138.258 88.7339 138.268 89.0567 138.43 89.2988Z" fill="#C7D4F2"/>
<path d="M138.661 98.3481H139.371C139.522 98.3535 139.661 98.3213 139.791 98.2567C139.925 98.2137 140.043 98.1383 140.14 98.0307C140.248 97.9339 140.323 97.8155 140.366 97.681C140.436 97.5519 140.463 97.412 140.457 97.2614C140.447 97.1645 140.43 97.0677 140.42 96.9709C140.366 96.788 140.275 96.6266 140.14 96.4921C140.065 96.4329 139.995 96.3791 139.92 96.3199C139.748 96.223 139.565 96.1693 139.371 96.1693H138.661C138.511 96.1639 138.371 96.1961 138.242 96.2607C138.107 96.3037 137.989 96.3791 137.892 96.4867C137.785 96.5835 137.709 96.7019 137.666 96.8364C137.596 96.9655 137.564 97.1053 137.575 97.256C137.586 97.3528 137.602 97.4497 137.612 97.5465C137.666 97.7294 137.758 97.8909 137.892 98.0254C137.967 98.0845 138.037 98.1383 138.113 98.1975C138.285 98.2943 138.467 98.3481 138.661 98.3481Z" fill="#C7D4F2"/>
</svg>
