<svg width="157" height="362" viewBox="0 0 157 362" fill="none" xmlns="http://www.w3.org/2000/svg">
<path d="M78.4364 183.413C74.8898 183.44 71.8025 185.485 70.7236 188.913C69.8102 191.818 70.5901 195.364 72.9135 197.409C75.5735 199.748 79.9052 200.127 82.9123 198.205C85.7165 196.411 86.9022 193.073 86.3734 189.864C86.101 188.23 85.2679 186.612 84.0394 185.49C82.4958 184.086 80.5088 183.429 78.4418 183.413C77.4697 183.408 76.6417 184.246 76.6417 185.213C76.6417 186.179 77.4643 187.001 78.4418 187.012C78.6234 187.012 78.8049 187.018 78.9865 187.028C79.1681 187.039 79.5633 187.114 79.1521 187.034C79.4939 187.098 79.8305 187.162 80.1616 187.268C80.2204 187.29 80.7171 187.471 80.434 187.359C80.1563 187.247 80.621 187.455 80.6797 187.482C80.9575 187.626 81.2031 187.802 81.4595 187.973C81.0322 187.69 81.3901 187.931 81.5023 188.032C81.6038 188.128 81.7052 188.224 81.8013 188.326C81.8654 188.395 82.0577 188.545 82.0737 188.636C82.0737 188.63 81.812 188.262 81.9829 188.518C82.031 188.587 82.0844 188.657 82.1272 188.732C82.2767 188.961 82.4156 189.196 82.5331 189.442C82.5652 189.506 82.5865 189.57 82.6185 189.629C82.7253 189.832 82.4957 189.266 82.5545 189.485C82.5919 189.629 82.6613 189.773 82.7041 189.922C82.7842 190.184 82.8429 190.451 82.8963 190.718C82.9817 191.161 82.8909 190.505 82.8963 190.75C82.9016 190.905 82.923 191.06 82.923 191.209C82.9337 191.487 82.9123 191.754 82.8963 192.032C82.8696 192.464 82.9764 191.637 82.8963 192.064C82.8696 192.213 82.8429 192.368 82.8055 192.518C82.7414 192.785 82.64 193.041 82.5652 193.303C82.4851 193.58 82.7575 192.929 82.5492 193.345C82.4797 193.484 82.4102 193.623 82.3354 193.757C82.266 193.874 82.1966 193.992 82.1218 194.109C82.0844 194.168 81.7853 194.536 81.9883 194.301C82.1966 194.066 81.9082 194.381 81.8601 194.435C81.7426 194.563 81.6198 194.686 81.4916 194.803C81.3794 194.905 81.0215 195.145 81.4488 194.862C81.3313 194.942 81.2192 195.028 81.0963 195.108C80.9735 195.188 80.8452 195.262 80.717 195.327C80.6369 195.369 80.167 195.578 80.4233 195.476C80.7064 195.364 80.2097 195.545 80.1509 195.567C80.0174 195.61 79.8839 195.647 79.7503 195.679C79.5901 195.716 79.4298 195.748 79.2696 195.78C78.9544 195.85 79.3177 195.78 79.3711 195.77C79.2429 195.78 79.1093 195.796 78.9811 195.807C78.6179 195.834 78.2548 195.834 77.897 195.807C77.7527 195.796 77.2453 195.695 77.7313 195.802C77.5497 195.764 77.3681 195.738 77.1865 195.695C76.8981 195.626 76.6257 195.513 76.3426 195.428C76.8073 195.562 76.4014 195.449 76.2572 195.375C76.0969 195.289 75.9366 195.198 75.7817 195.102C75.6589 195.022 75.5467 194.937 75.4292 194.857C75.7337 195.07 75.5467 194.947 75.3865 194.798C75.3384 194.755 74.783 194.237 74.815 194.194C74.8364 194.162 75.05 194.542 74.9058 194.312C74.8684 194.253 74.8257 194.2 74.7883 194.141C74.7135 194.029 74.6388 193.911 74.5694 193.794C74.4999 193.676 74.4358 193.554 74.377 193.431C74.345 193.372 74.3183 193.308 74.2916 193.244C74.126 192.918 74.425 193.644 74.3182 193.292C74.2434 193.046 74.1527 192.806 74.0886 192.555C74.0565 192.422 74.0299 192.288 74.0032 192.155C73.9925 192.085 73.9818 192.021 73.9711 191.952C73.923 191.733 73.9978 192.39 73.9925 192.074C73.9871 191.802 73.9551 191.53 73.9604 191.252C73.9604 191.113 73.9764 190.98 73.9818 190.841C74.0085 190.344 73.9017 191.193 73.9978 190.707C74.0566 190.403 74.126 190.104 74.2168 189.81C74.2435 189.73 74.3984 189.25 74.3023 189.543C74.2062 189.826 74.3824 189.378 74.4251 189.292C74.5747 188.999 74.7616 188.742 74.9379 188.465C75.0554 188.278 74.6868 188.737 74.847 188.582C74.9111 188.523 74.9592 188.449 75.0179 188.385C75.1248 188.267 75.2317 188.155 75.3492 188.053C75.5041 187.909 75.7711 187.722 75.4292 187.963C75.5788 187.861 75.723 187.754 75.8726 187.658C76.0115 187.573 76.1557 187.493 76.3053 187.418C76.3694 187.386 76.4441 187.359 76.5082 187.322C76.6898 187.215 76.1396 187.439 76.4494 187.349C76.7965 187.252 77.1278 187.13 77.4857 187.06C77.5658 187.044 77.6512 187.034 77.7313 187.018C77.2506 187.119 77.6566 187.028 77.7688 187.018C77.9931 186.996 78.2174 186.991 78.4418 186.991C79.4139 186.985 80.2417 186.168 80.2417 185.191C80.2417 184.214 79.4192 183.386 78.4418 183.392L78.4364 183.413Z" fill="#C7D4F2"/>
<path d="M78.4362 170.757C69.3187 170.832 61.3121 175.921 58.5293 184.791C56.1204 192.464 58.1074 201.649 64.2444 207.053C71.1186 213.103 82.4902 213.819 90.1922 208.895C97.2427 204.388 100.335 195.764 99.0212 187.674C97.3494 177.373 88.6486 170.843 78.4362 170.757C76.1234 170.736 76.1181 174.335 78.4362 174.351C85.9887 174.415 92.6598 178.479 94.9245 185.891C96.8741 192.277 95.3358 199.721 90.3258 204.292C84.6373 209.483 74.8895 209.878 68.4961 205.782C62.7863 202.13 60.2491 194.851 61.3708 188.315C62.8503 179.707 69.8528 174.415 78.4362 174.346C80.7489 174.324 80.7543 170.73 78.4362 170.752V170.757Z" fill="#C7D4F2"/>
<path d="M78.4362 159.506C71.2095 159.543 64.0148 161.423 58.2142 165.85C53.1935 169.678 49.5988 175.061 47.7027 181.069C43.9638 192.902 46.9442 207 56.3181 215.426C66.9364 224.974 84.7709 226.042 96.7246 218.353C107.599 211.357 112.305 197.943 110.222 185.464C108 172.156 97.7073 161.919 84.3328 159.949C82.3779 159.661 80.4125 159.516 78.4362 159.506C76.1235 159.495 76.1181 163.089 78.4362 163.1C84.9098 163.132 91.3727 164.766 96.575 168.749C100.966 172.108 104.122 176.92 105.751 182.174C109.036 192.769 106.472 205.179 98.1346 212.772C88.7287 221.332 72.7104 222.064 62.108 215.336C52.5472 209.269 48.2634 197.19 50.1435 186.254C52.1999 174.314 61.0558 165.326 73.1003 163.468C74.8683 163.196 76.6522 163.1 78.4362 163.094C80.749 163.084 80.7543 159.49 78.4362 159.5V159.506Z" fill="#C7D4F2"/>
<path d="M78.4365 99.5002C70.5582 99.5643 63.6412 103.975 61.2376 111.638C59.1599 118.254 60.8797 126.184 66.1729 130.841C72.107 136.069 81.919 136.704 88.5742 132.448C94.6792 128.544 97.3497 121.09 96.212 114.089C94.7699 105.209 87.2389 99.5696 78.4365 99.5002C76.1237 99.4789 76.1184 103.078 78.4365 103.094C84.7392 103.147 90.3153 106.522 92.2061 112.717C93.8405 118.062 92.5586 124.283 88.3604 128.117C83.6067 132.459 75.4454 132.758 70.1095 129.345C65.3558 126.302 63.2459 120.23 64.1699 114.783C65.3931 107.574 71.2525 103.153 78.4311 103.094C80.7439 103.073 80.7492 99.4789 78.4311 99.5002H78.4365Z" fill="#C7D4F2"/>
<path d="M120.953 78.4499C124.211 58.8734 115.029 38.3946 96.0571 30.8171C85.5242 26.6092 72.7426 26.481 62.0815 30.3312C52.7129 33.7167 44.9147 40.4344 40.2945 49.2721C35.3005 58.8147 34.0613 69.986 36.31 80.4738C36.6732 82.1665 39.4453 82.2093 39.7764 80.4738C41.8595 69.5535 49.5349 59.1405 59.3094 53.9874C69.0945 48.8236 81.5236 48.3804 91.9924 51.5844C100.191 54.0942 107.231 59.4021 111.995 66.515C114.436 70.1622 116.519 74.1725 117.486 78.4445C117.994 80.698 121.46 79.7475 120.953 77.4887C118.159 65.0839 108.15 54.1689 96.5806 49.4163C85.8661 45.0108 72.6197 44.7278 61.7984 48.9304C53.3966 52.1931 46.5277 58.2434 41.8755 65.9276C39.3865 70.0341 37.218 74.7599 36.31 79.5125H39.7764C36.0643 62.227 43.2963 43.1472 59.6619 35.2119C77.5283 26.5504 101.868 31.6021 112.332 49.0586C117.401 57.5118 119.094 67.7966 117.481 77.4834C117.102 79.7475 120.568 80.7194 120.947 78.4392L120.953 78.4499Z" fill="#C7D4F2"/>
<path d="M117.486 299.734C120.429 317.426 111.91 336.452 94.6414 343.127C84.7441 346.956 73.0147 347.036 63.0373 343.431C54.534 340.361 47.5744 334.129 43.3976 326.141C38.8682 317.484 37.7358 307.221 39.7762 297.71H36.3097C38.6064 309.747 47.3447 321.292 58.2355 326.723C68.6777 331.929 81.6195 332.506 92.724 329.174C101.687 326.488 109.335 320.822 114.66 313.159C117.422 309.186 119.873 304.492 120.947 299.729C121.454 297.475 117.988 296.514 117.481 298.773C114.981 309.859 106.066 319.935 95.6189 324.336C85.4278 328.624 72.8278 328.821 62.5459 324.736C54.8866 321.698 48.7014 315.888 44.5833 308.818C42.4308 305.122 40.5774 300.973 39.7708 296.744C39.4397 295.008 36.6676 295.051 36.3044 296.744C32.2397 315.679 40.1555 336.794 58.273 345.311C77.8753 354.523 103.989 349.06 115.435 329.964C121.027 320.64 122.72 309.421 120.947 298.768C120.568 296.493 117.101 297.459 117.481 299.723L117.486 299.734Z" fill="#C7D4F2"/>
<path d="M78.4365 249.063C70.5582 249.127 63.6412 253.538 61.2376 261.201C59.1599 267.817 60.8797 275.747 66.1729 280.403C72.107 285.631 81.919 286.267 88.5742 282.011C94.6792 278.107 97.3497 270.653 96.212 263.652C94.7699 254.771 87.2389 249.132 78.4365 249.063C76.1237 249.042 76.1184 252.641 78.4365 252.657C84.7392 252.71 90.3153 256.085 92.2061 262.279C93.8405 267.625 92.5586 273.846 88.3604 277.68C83.6067 282.021 75.4454 282.32 70.1095 278.908C65.3558 275.864 63.2459 269.793 64.1699 264.346C65.3931 257.137 71.2525 252.715 78.4311 252.657C80.7439 252.635 80.7492 249.042 78.4311 249.063H78.4365Z" fill="#C7D4F2"/>
<path d="M94.6949 267.507C93.9525 267.507 93.2901 266.973 93.1566 266.215C93.007 265.366 93.5733 264.554 94.4225 264.405C97.4777 263.865 100.485 263.155 103.369 262.295C104.197 262.05 105.068 262.52 105.313 263.347C105.559 264.175 105.089 265.045 104.261 265.291C101.265 266.183 98.14 266.925 94.9673 267.48C94.8765 267.496 94.7857 267.507 94.6949 267.507ZM112.609 262.124C112.006 262.124 111.434 261.777 111.178 261.195C110.831 260.405 111.189 259.481 111.974 259.134C114.778 257.895 117.513 256.469 120.093 254.889C120.83 254.44 121.791 254.67 122.24 255.407C122.688 256.144 122.459 257.105 121.722 257.553C119.024 259.203 116.167 260.693 113.234 261.991C113.026 262.082 112.812 262.124 112.604 262.124H112.609ZM128.553 252.363C128.099 252.363 127.65 252.165 127.341 251.792C126.796 251.124 126.892 250.136 127.56 249.591C129.915 247.669 132.158 245.554 134.236 243.322C134.824 242.687 135.812 242.65 136.447 243.237C137.083 243.824 137.115 244.812 136.533 245.448C134.359 247.787 132.009 249.997 129.541 252.016C129.253 252.251 128.9 252.368 128.553 252.368V252.363ZM141.287 238.666C140.977 238.666 140.662 238.575 140.384 238.383C139.679 237.886 139.513 236.909 140.01 236.204C141.757 233.737 143.37 231.104 144.801 228.386C145.202 227.623 146.147 227.329 146.911 227.735C147.675 228.135 147.968 229.081 147.563 229.844C146.067 232.68 144.384 235.424 142.563 238.004C142.259 238.436 141.778 238.666 141.281 238.666H141.287ZM150.046 222.139C149.859 222.139 149.672 222.106 149.491 222.037C148.684 221.733 148.278 220.83 148.588 220.019C149.662 217.188 150.591 214.235 151.339 211.256C151.547 210.417 152.396 209.91 153.235 210.118C154.073 210.326 154.581 211.176 154.373 212.014C153.598 215.116 152.631 218.182 151.515 221.129C151.28 221.754 150.687 222.139 150.051 222.139H150.046ZM154.602 203.988C154.533 203.988 154.463 203.988 154.394 203.972C153.539 203.86 152.936 203.075 153.048 202.22C153.449 199.203 153.678 196.117 153.742 193.052C153.758 192.186 154.447 191.551 155.334 191.519C156.199 191.535 156.883 192.251 156.867 193.11C156.803 196.293 156.563 199.497 156.146 202.632C156.044 203.417 155.371 203.988 154.597 203.988H154.602ZM154.971 185.277C154.175 185.277 153.491 184.668 153.416 183.856C153.133 180.807 152.679 177.747 152.06 174.757C151.884 173.913 152.428 173.085 153.272 172.909C154.111 172.738 154.944 173.278 155.12 174.121C155.761 177.224 156.237 180.401 156.53 183.568C156.611 184.427 155.975 185.191 155.115 185.266C155.067 185.266 155.019 185.271 154.971 185.271V185.277ZM151.157 166.955C150.5 166.955 149.891 166.538 149.672 165.887C148.706 162.971 147.557 160.104 146.259 157.364C145.891 156.585 146.222 155.65 147.002 155.282C147.787 154.908 148.716 155.244 149.085 156.024C150.431 158.876 151.627 161.861 152.637 164.899C152.909 165.716 152.466 166.603 151.649 166.875C151.483 166.928 151.317 166.955 151.157 166.955ZM143.145 150.054C142.627 150.054 142.125 149.798 141.826 149.333C140.176 146.748 138.349 144.271 136.399 141.958C135.844 141.296 135.929 140.314 136.586 139.758C137.249 139.198 138.231 139.288 138.787 139.945C140.822 142.364 142.734 144.954 144.454 147.656C144.919 148.382 144.705 149.349 143.979 149.814C143.717 149.979 143.428 150.059 143.14 150.059L143.145 150.054ZM131.09 135.775C130.716 135.775 130.342 135.641 130.043 135.374C127.779 133.329 125.359 131.428 122.843 129.719C122.133 129.233 121.946 128.261 122.432 127.546C122.918 126.836 123.89 126.649 124.606 127.135C127.239 128.924 129.771 130.915 132.142 133.051C132.783 133.628 132.831 134.621 132.255 135.257C131.945 135.598 131.523 135.775 131.095 135.775H131.09ZM115.638 125.255C115.403 125.255 115.168 125.202 114.944 125.089C112.241 123.744 109.399 122.548 106.494 121.538C105.676 121.255 105.244 120.363 105.532 119.552C105.815 118.735 106.702 118.302 107.519 118.591C110.553 119.643 113.523 120.892 116.338 122.297C117.112 122.681 117.422 123.621 117.037 124.39C116.765 124.94 116.209 125.255 115.638 125.255ZM97.9797 119.098C97.8676 119.098 97.7555 119.087 97.6433 119.061C96.5804 118.831 95.4961 118.617 94.4011 118.425C93.5519 118.276 92.9803 117.464 93.1352 116.615C93.2848 115.766 94.102 115.194 94.946 115.349C96.0836 115.547 97.2053 115.771 98.3056 116.011C99.1495 116.193 99.6837 117.026 99.5021 117.87C99.3418 118.601 98.6955 119.098 97.9744 119.098H97.9797Z" fill="#C7D4F2"/>
<path d="M61.3657 267.358C61.2696 267.358 61.1735 267.347 61.0774 267.331C60.2602 267.176 59.443 267.016 58.6418 266.84C57.7979 266.658 57.2637 265.825 57.4453 264.981C57.6269 264.138 58.4655 263.604 59.3041 263.785C60.0786 263.951 60.8637 264.111 61.6542 264.261C62.5034 264.421 63.0643 265.238 62.9041 266.087C62.7652 266.84 62.1082 267.363 61.3711 267.363L61.3657 267.358ZM49.9462 264.357C49.7753 264.357 49.6044 264.33 49.4335 264.271C46.389 263.214 43.4192 261.97 40.6097 260.576C39.8353 260.191 39.5201 259.252 39.9047 258.483C40.2892 257.708 41.2239 257.393 41.9984 257.778C44.6904 259.118 47.5373 260.309 50.4536 261.318C51.2708 261.601 51.7035 262.493 51.4204 263.305C51.1961 263.951 50.5925 264.357 49.9409 264.357H49.9462ZM33.2174 256.016C32.913 256.016 32.6086 255.93 32.3415 255.749C29.7029 253.96 27.1658 251.973 24.7996 249.837C24.1587 249.26 24.1106 248.267 24.6875 247.626C25.2697 246.986 26.2525 246.938 26.8988 247.514C29.1582 249.554 31.5831 251.45 34.1041 253.159C34.8199 253.645 35.0067 254.616 34.5206 255.332C34.2162 255.775 33.7248 256.016 33.2228 256.016H33.2174ZM19.3302 243.509C18.8869 243.509 18.4435 243.322 18.1338 242.954C16.0934 240.54 14.1866 237.95 12.4561 235.248C11.9914 234.522 12.205 233.556 12.9314 233.091C13.6578 232.621 14.6246 232.84 15.0893 233.566C16.7451 236.151 18.5717 238.629 20.5213 240.935C21.0768 241.592 20.9967 242.58 20.3344 243.135C20.0406 243.386 19.6827 243.504 19.3248 243.504L19.3302 243.509ZM9.2353 227.778C8.64776 227.778 8.08685 227.447 7.81979 226.886C6.46846 224.034 5.26672 221.049 4.25723 218.016C3.98482 217.199 4.4282 216.313 5.24541 216.04C6.0733 215.763 6.94924 216.211 7.22164 217.028C8.19375 219.944 9.34741 222.811 10.6453 225.546C11.0139 226.325 10.6828 227.26 9.90295 227.628C9.68396 227.73 9.45963 227.778 9.2353 227.778ZM3.29578 210.033C2.56937 210.033 1.91781 209.526 1.76826 208.789C1.12197 205.691 0.646517 202.514 0.352749 199.347C0.27263 198.488 0.90297 197.724 1.76291 197.644C2.60148 197.564 3.38662 198.194 3.46673 199.054C3.74982 202.103 4.2092 205.163 4.83412 208.148C5.01038 208.992 4.46557 209.819 3.62165 209.995C3.51483 210.017 3.40795 210.027 3.30112 210.027L3.29578 210.033ZM1.56522 191.396H1.53314C0.673202 191.38 -0.0157498 190.665 0.000273947 189.805C0.0590276 186.622 0.299425 183.418 0.710701 180.284C0.822867 179.429 1.6027 178.815 2.46264 178.938C3.31724 179.05 3.92068 179.835 3.80852 180.69C3.41326 183.712 3.18371 186.798 3.12495 189.864C3.10893 190.718 2.41447 191.396 1.55987 191.396H1.56522ZM4.0062 172.84C3.88336 172.84 3.75519 172.824 3.627 172.792C2.78842 172.583 2.28093 171.734 2.4839 170.896C3.25304 167.804 4.21451 164.734 5.33617 161.775C5.64062 160.969 6.5433 160.563 7.35517 160.867C8.1617 161.172 8.56761 162.074 8.26316 162.886C7.18423 165.727 6.2656 168.68 5.52316 171.654C5.3469 172.364 4.70591 172.84 4.0062 172.84ZM10.6507 155.351C10.405 155.351 10.154 155.292 9.92434 155.17C9.16054 154.769 8.86678 153.824 9.26738 153.06C10.7629 150.225 12.44 147.475 14.2614 144.896C14.7581 144.191 15.7302 144.025 16.4406 144.516C17.1457 145.013 17.3166 145.99 16.8198 146.695C15.0786 149.168 13.4656 151.8 12.0341 154.518C11.7564 155.047 11.2115 155.351 10.6507 155.351ZM21.4346 140.068C21.0554 140.068 20.6708 139.929 20.3717 139.652C19.7361 139.064 19.7041 138.076 20.2863 137.441C22.4655 135.091 24.8157 132.88 27.2673 130.867C27.935 130.317 28.9177 130.419 29.4679 131.086C30.0127 131.754 29.9166 132.736 29.2489 133.286C26.9041 135.209 24.6608 137.323 22.5777 139.566C22.2679 139.897 21.8512 140.068 21.4293 140.068H21.4346ZM35.8987 128.213C35.3699 128.213 34.8572 127.946 34.5634 127.466C34.1094 126.729 34.3444 125.768 35.0815 125.319C37.7842 123.664 40.6365 122.168 43.5581 120.871C44.3486 120.518 45.2726 120.876 45.6198 121.667C45.9669 122.457 45.6144 123.381 44.8239 123.728C42.0251 124.967 39.2958 126.398 36.7106 127.984C36.4542 128.139 36.1711 128.213 35.8934 128.213H35.8987ZM52.98 120.62C52.307 120.62 51.6874 120.182 51.4844 119.504C51.2387 118.676 51.7035 117.806 52.5314 117.56C55.5225 116.663 58.6471 115.921 61.8251 115.36C62.6958 115.205 63.4862 115.776 63.6358 116.626C63.7853 117.475 63.2192 118.286 62.3699 118.436C59.3148 118.975 56.3023 119.691 53.4287 120.55C53.2792 120.593 53.1296 120.615 52.98 120.615V120.62Z" fill="#C7D4F2"/>
<path d="M79.0234 361.011C78.1582 361.011 77.4585 360.311 77.4585 359.446V350.069C77.4585 349.204 78.1582 348.504 79.0234 348.504C79.8887 348.504 80.5884 349.204 80.5884 350.069V359.446C80.5884 360.311 79.8887 361.011 79.0234 361.011Z" fill="#C7D4F2"/>
<path d="M79.0234 329.75C78.1582 329.75 77.4585 329.051 77.4585 328.186V320.453C77.4585 319.588 78.1582 318.889 79.0234 318.889C79.8887 318.889 80.5884 319.588 80.5884 320.453V328.186C80.5884 329.051 79.8887 329.75 79.0234 329.75ZM79.0234 312.641C78.1582 312.641 77.4585 311.941 77.4585 311.076V301.699C77.4585 300.834 78.1582 300.135 79.0234 300.135C79.8887 300.135 80.5884 300.834 80.5884 301.699V311.076C80.5884 311.941 79.8887 312.641 79.0234 312.641ZM79.0234 293.887C78.1582 293.887 77.4585 293.187 77.4585 292.322V282.945C77.4585 282.08 78.1582 281.381 79.0234 281.381C79.8887 281.381 80.5884 282.08 80.5884 282.945V292.322C80.5884 293.187 79.8887 293.887 79.0234 293.887Z" fill="#C7D4F2"/>
<path d="M79.0234 250.756C78.1582 250.756 77.4585 250.056 77.4585 249.191V240.129C77.4585 239.264 78.1582 238.565 79.0234 238.565C79.8887 238.565 80.5884 239.264 80.5884 240.129V249.191C80.5884 250.056 79.8887 250.756 79.0234 250.756ZM79.0234 232.317C78.1582 232.317 77.4585 231.617 77.4585 230.752V221.375C77.4585 220.51 78.1582 219.81 79.0234 219.81C79.8887 219.81 80.5884 220.51 80.5884 221.375V230.752C80.5884 231.617 79.8887 232.317 79.0234 232.317Z" fill="#C7D4F2"/>
<path d="M79.0234 159.81C78.1582 159.81 77.4585 159.111 77.4585 158.246V152.153C77.4585 151.288 78.1582 150.588 79.0234 150.588C79.8887 150.588 80.5884 151.288 80.5884 152.153V158.246C80.5884 159.111 79.8887 159.81 79.0234 159.81ZM79.0234 144.34C78.1582 144.34 77.4585 143.641 77.4585 142.776V133.399C77.4585 132.533 78.1582 131.834 79.0234 131.834C79.8887 131.834 80.5884 132.533 80.5884 133.399V142.776C80.5884 143.641 79.8887 144.34 79.0234 144.34Z" fill="#C7D4F2"/>
<path d="M79.0234 99.153C78.1582 99.153 77.4585 98.4535 77.4585 97.5884V88.2114C77.4585 87.3463 78.1582 86.6467 79.0234 86.6467C79.8887 86.6467 80.5884 87.3463 80.5884 88.2114V97.5884C80.5884 98.4535 79.8887 99.153 79.0234 99.153ZM79.0234 80.3989C78.1582 80.3989 77.4585 79.6994 77.4585 78.8343V69.4573C77.4585 68.5922 78.1582 67.8926 79.0234 67.8926C79.8887 67.8926 80.5884 68.5922 80.5884 69.4573V78.8343C80.5884 79.6994 79.8887 80.3989 79.0234 80.3989ZM79.0234 61.6449C78.1582 61.6449 77.4585 60.9453 77.4585 60.0802V50.7032C77.4585 49.8381 78.1582 49.1385 79.0234 49.1385C79.8887 49.1385 80.5884 49.8381 80.5884 50.7032V60.0802C80.5884 60.9453 79.8887 61.6449 79.0234 61.6449Z" fill="#C7D4F2"/>
<path d="M79.0234 27.6986C78.1582 27.6986 77.4585 26.999 77.4585 26.1339V20.3187C77.4585 19.4536 78.1582 18.7541 79.0234 18.7541C79.8887 18.7541 80.5884 19.4536 80.5884 20.3187V26.1339C80.5884 26.999 79.8887 27.6986 79.0234 27.6986ZM79.0234 12.5062C78.1582 12.5062 77.4585 11.8067 77.4585 10.9417V1.56458C77.4585 0.699504 78.1582 0 79.0234 0C79.8887 0 80.5884 0.699504 80.5884 1.56458V10.9417C80.5884 11.8067 79.8887 12.5062 79.0234 12.5062Z" fill="#C7D4F2"/>
<path d="M117.171 55.68C115.975 58.4889 114.778 61.3031 113.582 64.1119C113.352 64.6566 113.421 65.2868 113.977 65.6072C114.436 65.8742 115.243 65.762 115.473 65.212C116.669 62.4032 117.865 59.589 119.062 56.7801C119.292 56.2354 119.222 55.6053 118.672 55.2849C118.213 55.0179 117.406 55.13 117.176 55.6747L117.171 55.68Z" fill="#C7D4F2"/>
<path d="M114.554 52.0863C113.389 54.9112 112.225 57.736 111.06 60.5609C110.836 61.1056 111.306 61.7624 111.824 61.9066C112.455 62.0775 112.946 61.693 113.17 61.143C114.335 58.3181 115.499 55.4932 116.663 52.6683C116.888 52.1237 116.418 51.4669 115.9 51.3227C115.269 51.1518 114.778 51.5363 114.554 52.0863Z" fill="#C7D4F2"/>
<path d="M111.328 47.3658C110.27 50.495 109.213 53.6242 108.155 56.7535C107.968 57.3142 108.374 57.9496 108.919 58.0992C109.517 58.2647 110.073 57.8963 110.265 57.3356C111.322 54.2063 112.38 51.0771 113.437 47.9478C113.624 47.3871 113.219 46.7516 112.674 46.6021C112.076 46.4366 111.52 46.8051 111.328 47.3658Z" fill="#C7D4F2"/>
<path d="M108.347 40.8404C106.328 45.5449 104.689 50.3936 103.476 55.3652C103.145 56.7322 105.255 57.3142 105.586 55.9472C106.75 51.1626 108.294 46.4687 110.238 41.9457C110.473 41.4011 110.398 40.7763 109.843 40.4506C109.383 40.1782 108.577 40.301 108.347 40.8404Z" fill="#C7D4F2"/>
<path d="M40.1019 315.498C40.588 314.355 41.1808 313.26 41.8805 312.23C42.0461 311.984 42.2223 311.744 42.3986 311.504C42.4146 311.488 42.5749 311.274 42.5055 311.365C42.4467 311.439 42.5695 311.285 42.5802 311.269C42.6764 311.146 42.7779 311.023 42.8794 310.905C43.2853 310.425 43.7125 309.96 44.1612 309.522C44.5725 309.122 44.5938 308.374 44.1612 307.974C43.7232 307.568 43.0503 307.547 42.6123 307.974C40.7482 309.8 39.2313 311.99 38.2111 314.393C37.9868 314.916 38.0349 315.589 38.6064 315.888C39.0764 316.133 39.8616 316.059 40.1019 315.493V315.498Z" fill="#C7D4F2"/>
<path d="M41.4588 322.589C42.6659 319.941 44.2256 317.436 46.0897 315.242C46.4743 314.793 46.533 314.136 46.0897 313.693C45.6998 313.303 44.9252 313.239 44.5407 313.693C42.5377 316.053 40.85 318.664 39.5681 321.484C39.3224 322.023 39.4132 322.659 39.9633 322.979C40.4333 323.251 41.2131 323.129 41.4588 322.584V322.589Z" fill="#C7D4F2"/>
<path d="M44.3961 330.226C45.9931 326.637 48.0816 323.278 50.6401 320.293C51.0246 319.845 51.078 319.188 50.6401 318.745C50.2448 318.349 49.4809 318.296 49.091 318.745C46.4097 321.868 44.1772 325.355 42.5054 329.12C42.265 329.659 42.3505 330.295 42.8953 330.615C43.36 330.888 44.1505 330.765 44.3908 330.226H44.3961Z" fill="#C7D4F2"/>
<path d="M48.7493 334.065C50.4478 330.562 52.1463 327.059 53.8448 323.556C54.1012 323.022 53.989 322.376 53.4496 322.061C52.9689 321.778 52.2104 321.922 51.954 322.456C50.2555 325.959 48.557 329.462 46.8584 332.965C46.6021 333.499 46.7142 334.145 47.2537 334.46C47.7344 334.743 48.4929 334.599 48.7493 334.065Z" fill="#C7D4F2"/>
<path d="M68.2774 108.573C66.6964 110.154 65.11 111.74 63.529 113.32C63.1231 113.726 63.091 114.468 63.529 114.869C63.967 115.269 64.6454 115.301 65.078 114.869L69.8263 110.121C70.2323 109.716 70.2643 108.973 69.8263 108.573C69.3883 108.172 68.7101 108.14 68.2774 108.573Z" fill="#C7D4F2"/>
<path d="M68.6777 113.726C66.9311 115.616 65.1791 117.512 63.4325 119.402C63.0426 119.824 62.9839 120.54 63.4325 120.951C63.8545 121.341 64.5648 121.4 64.9814 120.951C66.728 119.061 68.48 117.165 70.2266 115.275C70.6165 114.853 70.6752 114.137 70.2266 113.726C69.8046 113.336 69.0943 113.277 68.6777 113.726Z" fill="#C7D4F2"/>
<path d="M70.387 119.301C67.9941 120.956 65.9323 122.991 64.2338 125.357C63.8973 125.821 64.1377 126.595 64.6237 126.852C65.1899 127.151 65.7614 126.959 66.1193 126.462C66.2154 126.328 66.3116 126.195 66.4131 126.061C66.4612 125.997 66.5145 125.928 66.5625 125.864C66.6373 125.768 66.4771 125.965 66.6053 125.81C66.8136 125.554 67.0219 125.298 67.2355 125.047C67.6682 124.545 68.1169 124.064 68.5869 123.6C69.0462 123.151 69.5217 122.719 70.0184 122.302C70.1466 122.195 70.2748 122.094 70.403 121.987C70.4671 121.934 70.5311 121.885 70.5952 121.832C70.4403 121.955 70.6166 121.816 70.6487 121.795C70.9264 121.586 71.2042 121.384 71.4926 121.186C71.9627 120.86 72.2244 120.214 71.8879 119.691C71.5888 119.226 70.8944 118.949 70.3923 119.301H70.387Z" fill="#C7D4F2"/>
<path d="M71.9572 124.609C70.3869 126.36 68.8165 128.117 67.2516 129.869C66.8723 130.296 66.7976 131.001 67.2516 131.417C67.6682 131.802 68.3893 131.871 68.8006 131.417C70.3709 129.666 71.9412 127.909 73.5061 126.158C73.8854 125.73 73.9601 125.025 73.5061 124.609C73.0895 124.224 72.3685 124.155 71.9572 124.609Z" fill="#C7D4F2"/>
<path d="M75.9255 128.56C74.8199 129.671 73.7196 130.787 72.6139 131.898C72.208 132.304 72.176 133.046 72.6139 133.447C73.0466 133.847 73.7303 133.879 74.163 133.447C75.2686 132.336 76.3689 131.22 77.4745 130.109C77.8805 129.703 77.9125 128.961 77.4745 128.56C77.0419 128.16 76.3581 128.128 75.9255 128.56Z" fill="#C7D4F2"/>
<path d="M67.8928 260.127C65.3023 261.772 63.1391 264.058 61.6702 266.76C61.3978 267.262 61.5313 267.977 62.0601 268.255C62.5729 268.527 63.2673 268.399 63.5557 267.865C63.8975 267.24 64.2715 266.637 64.6881 266.06C64.7842 265.921 64.8856 265.788 64.9925 265.654C64.8963 265.777 64.9925 265.654 65.0406 265.596C65.094 265.532 65.1474 265.462 65.2008 265.398C65.4252 265.126 65.6601 264.859 65.9058 264.597C66.3812 264.09 66.8833 263.614 67.4174 263.166C67.5456 263.059 67.6791 262.952 67.8126 262.846C67.6631 262.963 67.8448 262.824 67.8715 262.797C67.9409 262.744 68.0049 262.696 68.0744 262.648C68.3735 262.429 68.6833 262.221 68.9984 262.018C69.4791 261.713 69.7194 261.03 69.3936 260.523C69.0838 260.042 68.4108 259.802 67.8981 260.133L67.8928 260.127Z" fill="#C7D4F2"/>
<path d="M68.0101 266.498C66.0659 267.865 64.6131 269.718 63.7264 271.918C63.6249 272.164 63.7104 272.543 63.8386 272.762C63.9721 272.986 64.2338 273.205 64.4902 273.264C65.1258 273.408 65.6065 273.072 65.8362 272.5C65.8362 272.49 65.9324 272.255 65.8683 272.42C65.8042 272.58 65.8895 272.372 65.9056 272.34C65.959 272.223 66.0124 272.11 66.0712 271.998C66.178 271.785 66.2956 271.571 66.4131 271.363C66.5359 271.154 66.6641 270.952 66.7976 270.749C66.8671 270.642 66.9418 270.54 67.0166 270.439C67.054 270.386 67.0913 270.337 67.1287 270.284C67.2195 270.167 66.9631 270.492 67.1234 270.295C67.4278 269.921 67.7483 269.563 68.1009 269.227C68.2825 269.051 68.4748 268.885 68.6724 268.719C68.7098 268.687 68.7525 268.655 68.7899 268.623C68.9875 268.463 68.6617 268.719 68.7792 268.629C68.8914 268.543 69.0035 268.463 69.1157 268.383C69.5803 268.057 69.8474 267.411 69.5109 266.888C69.2118 266.423 68.5122 266.146 68.0155 266.498H68.0101Z" fill="#C7D4F2"/>
<path d="M69.5271 271.646C68.1009 273.547 66.6748 275.443 65.2541 277.344C64.9069 277.803 65.1632 278.588 65.644 278.839C66.2208 279.143 66.771 278.935 67.1395 278.449C68.5656 276.548 69.9918 274.652 71.4125 272.751C71.7597 272.292 71.5033 271.507 71.0226 271.256C70.4458 270.952 69.8956 271.16 69.5271 271.651V271.646Z" fill="#C7D4F2"/>
<path d="M74.0508 275.752C72.3843 276.708 71.1452 278.235 70.4668 280.019C70.3707 280.27 70.4454 280.638 70.579 280.863C70.7125 281.087 70.9743 281.306 71.2307 281.365C71.5085 281.429 71.8235 281.413 72.0745 281.252C72.3256 281.092 72.4698 280.879 72.5766 280.601C72.6086 280.515 72.6461 280.425 72.6782 280.339C72.6408 280.425 72.6034 280.515 72.566 280.601C72.7156 280.254 72.8865 279.923 73.0895 279.602C73.1856 279.453 73.287 279.303 73.3938 279.159C73.5006 279.015 73.3779 279.17 73.3405 279.223C73.3672 279.186 73.3992 279.148 73.4259 279.111C73.4846 279.036 73.5488 278.967 73.6075 278.897C73.8479 278.625 74.115 278.369 74.398 278.134C74.4354 278.102 74.4728 278.075 74.5048 278.043C74.601 277.963 74.2698 278.214 74.4407 278.096C74.5155 278.043 74.5903 277.984 74.6704 277.931C74.8253 277.824 74.9855 277.728 75.1458 277.632C75.6425 277.349 75.8561 276.628 75.541 276.137C75.2205 275.635 74.5742 275.437 74.0454 275.742L74.0508 275.752Z" fill="#C7D4F2"/>
<path d="M77.5765 277.333C76.802 278.609 76.0221 279.885 75.2477 281.162C74.9486 281.653 75.1248 282.385 75.6429 282.657C76.177 282.94 76.8234 282.785 77.1385 282.267C77.913 280.991 78.6928 279.715 79.4673 278.438C79.7664 277.947 79.5902 277.215 79.0721 276.943C78.538 276.66 77.8916 276.815 77.5765 277.338V277.333Z" fill="#C7D4F2"/>
</svg>
