<svg width="375" height="577" viewBox="0 0 375 577" fill="none" xmlns="http://www.w3.org/2000/svg">
<path d="M188.086 14.2486C221.387 17.2985 345.996 14.2486 375 0.64209V549.177C375 549.177 274.512 588.211 187.5 573.081C100.488 557.951 0 573.081 0 573.081L3.05176e-05 19.9149C61.9141 -6.26655 154.785 11.1987 188.086 14.2486Z" fill="url(#paint0_linear_702_1214)"/>
<path d="M188.086 21.2809C221.387 24.1139 345.996 21.2809 375 8.64209L374.272 538.921C374.272 538.921 273.783 575.179 186.772 561.125C99.76 547.071 -0.728271 561.125 -0.728271 561.125L6.10352e-05 26.5442C61.9141 2.22482 154.785 18.4479 188.086 21.2809Z" fill="url(#paint1_linear_702_1214)"/>
<defs>
<linearGradient id="paint0_linear_702_1214" x1="78.711" y1="0.642079" x2="304.928" y2="170.257" gradientUnits="userSpaceOnUse">
<stop offset="0.0646048" stop-color="#1A2D5C"/>
<stop offset="1" stop-color="#192B5A"/>
</linearGradient>
<linearGradient id="paint1_linear_702_1214" x1="78.711" y1="8.64194" x2="292.685" y2="181.361" gradientUnits="userSpaceOnUse">
<stop offset="0.0646048" stop-color="#0E1C40"/>
<stop offset="1" stop-color="#1B3168"/>
</linearGradient>
</defs>
</svg>
