<svg width="1280" height="864" viewBox="0 0 1280 864" fill="none" xmlns="http://www.w3.org/2000/svg">
<path d="M638 51.6777C524.333 63.1945 99 51.6777 0 0.297607V760.035C0 760.035 343 907.431 640 850.298C937 793.164 1280 850.298 1280 850.298V73.0743C1068.67 -25.7903 751.667 40.1608 638 51.6777Z" fill="url(#paint0_linear_702_1212)"/>
<path d="M638 71.1866C524.333 81.9209 99 71.1866 0 23.2976V739.168C0 739.168 343 876.549 640 823.298C937 770.046 1280 823.298 1280 823.298V91.1294C1068.67 -1.01772 751.667 60.4523 638 71.1866Z" fill="url(#paint1_linear_702_1212)"/>
<defs>
<linearGradient id="paint0_linear_702_1212" x1="1011.33" y1="0.297476" x2="184.766" y2="560.502" gradientUnits="userSpaceOnUse">
<stop offset="0.0646048" stop-color="#1A2D5C"/>
<stop offset="1" stop-color="#192B5A"/>
</linearGradient>
<linearGradient id="paint1_linear_702_1212" x1="1011.33" y1="23.2975" x2="222.297" y2="597.051" gradientUnits="userSpaceOnUse">
<stop offset="0.0646048" stop-color="#0E1C40"/>
<stop offset="1" stop-color="#1B3168"/>
</linearGradient>
</defs>
</svg>
