<svg width="245" height="238" viewBox="0 0 245 238" fill="none" xmlns="http://www.w3.org/2000/svg">
<path d="M136.019 122.316C135.39 116.618 134.578 110.874 133.237 105.297C132.871 103.774 132.471 102.236 131.871 100.785C131.518 99.9264 131.027 98.78 130.115 98.3727C129.068 97.9045 128.156 98.7797 127.69 99.6376C126.917 101.062 126.68 102.807 126.48 104.393C125.954 108.569 125.986 112.819 126.058 117.021C126.079 118.26 126.169 119.584 126.103 120.675C126.005 122.325 125.736 123.968 125.492 125.602C124.822 130.079 124.035 134.546 123.596 139.053C123.433 140.723 123.266 142.453 123.448 144.129C123.634 145.84 124.414 147.564 124.973 149.179C125.821 151.625 126.705 154.059 127.563 156.501C127.919 157.512 128.273 158.527 128.611 159.547C128.823 160.187 129.09 160.85 129.184 161.522C129.439 163.328 128.817 165.383 128.388 167.119C127.946 168.913 127.418 170.687 126.847 172.443C126.749 172.748 126.649 173.053 126.546 173.357C126.407 173.766 126.63 174.223 127.086 174.279L155.108 177.73C155.574 177.787 155.878 177.395 155.856 176.967C155.77 175.284 155.801 173.588 155.894 171.907C156.049 169.064 156.337 166.066 157.572 163.462C158.833 160.801 160.163 158.173 161.771 155.699C163.921 152.393 166.506 149.508 169.363 146.799C171.897 144.395 174.104 141.636 175.815 138.59C177.013 136.46 178.266 133.814 177.985 131.294C177.796 129.597 176.554 128.278 174.789 128.411C172.922 128.551 171.128 129.771 169.639 130.802C166.504 132.973 163.631 135.611 160.986 138.352C161.386 138.516 161.787 138.677 162.187 138.841C162.774 136.264 163.334 133.681 163.883 131.097C164.969 125.994 166.009 120.881 166.902 115.74C167.295 113.478 167.665 111.207 167.932 108.927C168.102 107.481 168.322 105.936 168.141 104.481C168.012 103.441 167.463 102.177 166.442 101.742C165.054 101.154 163.686 102.308 162.834 103.281C161.24 105.098 160.486 107.444 159.699 109.682C158.146 114.109 156.731 118.586 155.341 123.066C155.311 123.16 155.281 123.257 155.251 123.352C155.68 123.465 156.11 123.578 156.539 123.689C156.849 120.164 157.134 116.636 157.408 113.109C157.865 107.22 158.32 101.324 158.55 95.4209C158.616 93.7248 158.78 91.9305 158.55 90.24C158.242 87.9821 156.244 85.8752 153.975 87.4205C152.488 88.4317 151.629 90.3252 151.025 91.9469C150.622 93.0275 150.322 94.1466 150.033 95.2613C149.234 98.3565 148.611 101.5 148.021 104.643C147.416 107.852 146.863 111.072 146.339 114.295C146.036 116.149 145.619 118.038 145.458 119.912C145.451 120.001 145.432 120.091 145.419 120.18C145.863 120.174 146.308 120.169 146.751 120.165C146.678 116.384 146.582 112.605 146.474 108.824C146.318 103.353 146.225 97.8574 145.778 92.4007C145.62 90.4764 145.257 88.332 143.234 87.4847C142.05 86.9876 140.748 87.3091 139.842 88.185C138.78 89.2104 138.359 90.6782 138.091 92.0865C137.069 97.4445 136.631 102.949 136.062 108.371C135.583 112.943 135.058 117.521 134.709 122.105C134.703 122.184 134.693 122.263 134.688 122.341C134.608 123.198 135.944 123.367 136.022 122.505C136.354 118.871 136.711 115.237 137.08 111.605C137.664 105.87 138.225 100.118 139.071 94.4131C139.337 92.6072 139.507 89.1896 141.646 88.632C142.694 88.3596 143.621 89.1924 144.016 90.0881C144.296 90.7228 144.342 91.429 144.405 92.1092C144.879 97.214 144.946 102.371 145.1 107.493C145.18 110.194 145.252 112.897 145.315 115.598C145.351 117.108 145.322 118.634 145.416 120.141C145.421 120.214 145.418 120.288 145.421 120.361C145.436 121.137 146.646 121.066 146.753 120.346C147.355 116.263 148.027 112.189 148.749 108.127C149.318 104.927 149.919 101.731 150.622 98.5555C151.192 95.9881 151.75 93.3188 152.918 90.9435C153.379 90.0067 154.353 88.1254 155.655 88.2074C156.586 88.2658 157.05 89.4772 157.19 90.2512C157.448 91.6841 157.288 93.1478 157.239 94.6291C157.045 100.256 156.614 105.877 156.187 111.489C155.885 115.439 155.488 119.384 155.223 123.336C155.219 123.4 155.211 123.463 155.205 123.527C155.143 124.244 156.26 124.618 156.494 123.864C157.645 120.136 158.834 116.416 160.076 112.717C160.756 110.693 161.406 108.631 162.271 106.676C162.84 105.39 163.717 103.89 164.972 103.157C166.049 102.529 166.648 103.586 166.797 104.576C166.888 105.167 166.858 105.525 166.83 106.138C166.792 106.942 166.713 107.743 166.623 108.541C166.377 110.703 166.033 112.855 165.667 114.999C164.816 119.981 163.815 124.938 162.771 129.884C162.366 131.801 161.953 133.718 161.532 135.631C161.319 136.596 161.04 137.568 160.884 138.542C160.878 138.588 160.863 138.632 160.853 138.675C160.688 139.401 161.654 139.58 162.055 139.164C162.609 138.59 163.397 137.826 164.112 137.149C165.649 135.698 167.239 134.294 168.913 132.999C170.388 131.858 176.188 127.311 176.655 131.49C176.921 133.871 175.51 136.491 174.349 138.464C172.579 141.468 170.301 144.068 167.774 146.452C165.069 149.004 162.663 151.855 160.643 154.976C159.087 157.382 157.776 159.925 156.54 162.504C155.21 165.283 154.77 168.322 154.581 171.374C154.461 173.295 154.427 175.235 154.526 177.161C154.775 176.906 155.024 176.652 155.274 176.398L127.252 172.947C127.432 173.254 127.611 173.561 127.793 173.868C128.823 170.86 129.75 167.758 130.299 164.624C130.584 162.997 130.649 161.556 130.159 159.976C129.54 157.979 128.819 156.011 128.119 154.042C127.288 151.706 126.445 149.372 125.656 147.022C125.193 145.647 124.742 144.363 124.724 142.901C124.675 138.794 125.472 134.627 126.09 130.582C126.41 128.494 126.745 126.407 127.041 124.316C127.234 122.947 127.462 121.553 127.462 120.166C127.461 116.706 127.311 113.257 127.433 109.795C127.504 107.76 127.627 105.718 127.936 103.703C128.126 102.467 128.321 100.737 129.2 99.7915C129.286 99.6977 129.4 99.6536 129.491 99.5884C129.537 99.554 129.535 99.5758 129.547 99.5874C129.436 99.4954 129.802 99.7874 129.714 99.7003C129.86 99.8446 129.981 100.018 130.091 100.19C130.688 101.127 131.102 102.505 131.43 103.649C133.14 109.627 133.929 115.933 134.643 122.097C134.658 122.235 134.675 122.373 134.691 122.512C134.786 123.369 136.116 123.175 136.021 122.316L136.019 122.316Z" fill="#C7D4F2"/>
<path d="M156.671 143.802C154.665 139.217 149.648 137.095 144.831 136.77C140.508 136.479 135.585 137.279 132.78 140.804C132.581 141.054 132.635 141.342 132.788 141.592C134.242 143.97 136.869 145.849 139.421 146.927C143.977 148.852 149.28 148.501 153.649 146.327C154.634 145.838 155.637 145.275 156.474 144.565C157.111 144.024 156.301 143.003 155.66 143.547C153.645 145.257 150.854 146.309 148.25 146.715C143.705 147.423 139.006 146.095 135.659 142.959C134.978 142.32 134.311 141.598 133.825 140.802C133.828 141.064 133.829 141.327 133.832 141.589C136.336 138.444 140.832 137.791 144.676 138.05C149.026 138.343 153.638 140.139 155.464 144.309C155.798 145.073 157.009 144.569 156.673 143.803L156.671 143.802Z" fill="#C7D4F2"/>
<path d="M146.442 137.702C140.924 137.023 139.811 146.053 145.33 146.733C150.849 147.412 151.961 138.382 146.442 137.702Z" fill="#C7D4F2"/>
<path d="M146.62 141.06C146.683 141.116 146.742 141.18 146.796 141.251C146.771 141.218 146.748 141.187 146.723 141.154C146.801 141.259 146.867 141.375 146.923 141.502C146.905 141.461 146.889 141.423 146.871 141.382C146.927 141.516 146.971 141.658 146.999 141.808C146.99 141.762 146.981 141.716 146.973 141.671C146.989 141.76 146.999 141.851 147.006 141.944C147.014 142.08 147.077 142.219 147.156 142.297C147.236 142.377 147.362 142.423 147.467 142.392C147.698 142.324 147.859 142.055 147.84 141.748C147.804 141.112 147.545 140.507 147.154 140.157C147.064 140.076 146.956 140.036 146.843 140.062C146.742 140.087 146.626 140.172 146.564 140.286C146.498 140.408 146.453 140.561 146.47 140.706C146.485 140.843 146.532 140.982 146.62 141.06Z" fill="#C7D4F2"/>
<path d="M134.432 128.31C134.679 128.636 134.905 128.978 135.106 129.336C135.075 129.282 135.046 129.23 135.015 129.176C135.281 129.651 135.505 130.148 135.687 130.665C135.812 131.024 136.275 131.21 136.606 131.043C136.964 130.862 137.111 130.464 136.978 130.081C136.642 129.118 136.151 128.206 135.541 127.405C135.314 127.106 134.85 127.025 134.558 127.284C134.269 127.539 134.19 127.991 134.432 128.31Z" fill="#C7D4F2"/>
<path d="M139.218 125.298C139.426 125.968 139.635 126.641 139.844 127.312C139.888 127.457 139.968 127.585 140.121 127.68C140.26 127.767 140.474 127.823 140.645 127.801C140.99 127.755 141.306 127.488 141.21 127.182C141.001 126.512 140.793 125.839 140.584 125.169C140.54 125.023 140.46 124.896 140.307 124.8C140.168 124.713 139.954 124.657 139.783 124.679C139.438 124.725 139.122 124.992 139.218 125.298Z" fill="#C7D4F2"/>
<path d="M146.417 122.425C146.428 123.443 146.437 124.458 146.448 125.476C146.45 125.686 146.486 125.868 146.654 126.043C146.797 126.193 147.048 126.324 147.279 126.346C147.737 126.386 148.3 126.132 148.297 125.703C148.286 124.686 148.277 123.67 148.266 122.653C148.264 122.443 148.228 122.26 148.06 122.085C147.917 121.935 147.666 121.804 147.435 121.782C146.978 121.742 146.414 121.996 146.417 122.425Z" fill="#C7D4F2"/>
<path d="M153.27 125.167C152.849 125.876 152.428 126.584 152.007 127.293C151.809 127.629 151.817 128.132 152.109 128.371C152.382 128.594 152.809 128.564 153.024 128.204C153.445 127.495 153.866 126.787 154.287 126.078C154.486 125.742 154.478 125.239 154.185 125.002C153.912 124.779 153.485 124.81 153.272 125.169L153.27 125.167Z" fill="#C7D4F2"/>
<path d="M158.652 130.155C157.625 130.651 156.724 131.358 156.016 132.241C155.734 132.594 155.801 133.181 156.184 133.445C156.578 133.714 157.108 133.661 157.411 133.284C157.562 133.092 157.726 132.912 157.899 132.738C157.846 132.79 157.795 132.84 157.741 132.893C158.141 132.497 158.586 132.153 159.071 131.868C159.006 131.907 158.944 131.943 158.88 131.981C159.032 131.892 159.188 131.811 159.347 131.735C159.55 131.637 159.72 131.485 159.809 131.275C159.891 131.077 159.899 130.802 159.802 130.608C159.706 130.411 159.548 130.229 159.332 130.151C159.117 130.073 158.866 130.053 158.654 130.155L158.652 130.155Z" fill="#C7D4F2"/>
<path d="M142.99 80.2908C143.617 78.9239 143.883 77.4497 143.822 75.9555C143.404 76.0632 142.985 76.1728 142.567 76.2805C143.17 77.2267 143.77 78.1745 144.373 79.1207C144.6 78.8357 144.826 78.5508 145.053 78.2677C143.759 78.1509 142.534 77.8945 141.325 77.4753L141.343 78.6161C142.597 77.9319 143.948 77.4503 145.334 77.2008L144.824 76.0956C143.785 76.96 142.875 77.9513 142.134 79.0561C141.945 79.3365 141.963 79.707 142.266 79.9258C142.531 80.1176 143 80.0976 143.191 79.8156C143.878 78.7895 144.704 77.8618 145.644 77.0797C145.864 76.8975 145.962 76.6134 145.839 76.3483C145.726 76.1049 145.417 75.9242 145.134 75.9745C143.612 76.2481 142.15 76.7475 140.815 77.4755C140.58 77.6039 140.423 77.7752 140.427 78.0478C140.431 78.2817 140.586 78.5304 140.833 78.6162C142.144 79.0703 143.516 79.3707 144.904 79.4953C145.347 79.5351 145.857 79.0739 145.584 78.6422C144.981 77.696 144.38 76.7482 143.778 75.802C143.609 75.535 143.331 75.3563 142.991 75.4496C142.654 75.5414 142.51 75.8088 142.523 76.1269C142.573 77.3716 142.3 78.6526 141.77 79.8111C141.635 80.1073 141.803 80.5075 142.135 80.6224C142.478 80.7406 142.848 80.6102 142.993 80.2931L142.99 80.2908Z" fill="#C7D4F2"/>
<path d="M158.787 81.9335C159.615 81.0846 160.442 80.2376 161.27 79.3887C160.867 79.2288 160.463 79.0708 160.059 78.911C159.888 79.9838 159.716 81.0564 159.545 82.1293C159.975 82.0722 160.406 82.0169 160.836 81.9598C160.34 81.0734 159.843 80.187 159.344 79.3003L158.47 80.1474C159.424 80.4775 160.376 80.8073 161.33 81.1374L161.483 79.9019C160.31 80.1323 159.154 80.4383 158.025 80.8173C157.691 80.9289 157.522 81.3623 157.676 81.6652C157.845 81.9973 158.21 82.1292 158.567 82.0089C158.831 81.9197 159.095 81.8362 159.36 81.7548C159.493 81.7151 159.627 81.6756 159.762 81.638C159.833 81.6178 159.906 81.5979 159.978 81.5777C160.003 81.5711 160.179 81.5232 160.057 81.5565C160.595 81.4141 161.139 81.2917 161.687 81.1833C161.97 81.1273 162.234 80.9202 162.257 80.6253C162.278 80.3516 162.127 80.047 161.84 79.9458C160.886 79.6158 159.934 79.2859 158.98 78.9558C158.719 78.8658 158.442 78.909 158.245 79.0992C158.068 79.2688 157.977 79.5765 158.105 79.8048C158.602 80.6912 159.098 81.5776 159.597 82.4643C159.735 82.7112 160.01 82.9075 160.319 82.8527C160.619 82.7989 160.842 82.5867 160.888 82.2947C161.059 81.2218 161.231 80.1492 161.402 79.0764C161.445 78.8091 161.257 78.4922 160.985 78.3969C160.682 78.29 160.404 78.3794 160.191 78.5986C159.363 79.4475 158.535 80.2945 157.707 81.1435C157.466 81.3902 157.56 81.8617 157.841 82.0508C158.168 82.269 158.532 82.1978 158.789 81.9338L158.787 81.9335Z" fill="#C7D4F2"/>
<path d="M172.247 93.7761C173.267 93.1043 174.285 92.4347 175.306 91.7629L174.546 90.7426C174.051 92.1253 173.556 93.5081 173.062 94.8885L174.208 95.0297C174.043 93.5169 173.88 92.0018 173.715 90.489L172.624 91.1521C173.209 92.3972 174.113 93.3524 175.155 93.8465L175.196 92.3517C175.126 92.3919 175.057 92.4321 174.986 92.4673C174.977 92.471 174.804 92.5497 174.925 92.4988C174.8 92.5517 174.672 92.5895 174.544 92.6226C174.416 92.6556 174.287 92.6714 174.159 92.6898C174.026 92.7076 174.244 92.6955 174.1 92.6923C174.035 92.6916 173.971 92.691 173.906 92.688C173.787 92.6806 173.669 92.666 173.553 92.6445C173.481 92.6307 173.41 92.6122 173.339 92.5937C173.445 92.6214 173.32 92.5865 173.284 92.5723C173.163 92.5256 173.044 92.472 172.928 92.4089C172.877 92.3808 172.829 92.3529 172.781 92.3225C172.761 92.3103 172.571 92.1724 172.676 92.2536C172.413 92.048 172.04 92.046 171.826 92.444C171.647 92.778 171.622 93.3578 171.904 93.5754C173.008 94.4333 174.37 94.5547 175.621 93.8209C176.1 93.5386 176.138 92.5506 175.661 92.3261C175.428 92.2144 175.202 92.0842 174.987 91.9236C175.092 92.0024 174.958 91.898 174.936 91.8808C174.876 91.8319 174.818 91.7808 174.76 91.7273C174.666 91.6427 174.574 91.5508 174.485 91.4569C174.396 91.3631 174.31 91.2622 174.227 91.1594C174.203 91.1271 174.176 91.0945 174.151 91.0622C174.194 91.1212 174.193 91.1186 174.145 91.0542C174.11 91.0035 174.073 90.9527 174.039 90.8996C173.877 90.6529 173.731 90.3885 173.6 90.1115C173.287 89.4462 172.426 90.0059 172.509 90.7746C172.674 92.2874 172.837 93.8024 173.002 95.3153C173.087 96.0988 173.878 96.2108 174.148 95.4564C174.643 94.0736 175.138 92.6909 175.632 91.3105C175.865 90.6611 175.354 89.9715 174.872 90.2902C173.852 90.962 172.833 91.6316 171.813 92.3034C171.522 92.4944 171.332 92.988 171.463 93.3845C171.588 93.7657 171.929 93.9809 172.241 93.7755L172.247 93.7761Z" fill="#C7D4F2"/>
<path d="M126.706 89.5962C126.738 88.4093 126.66 87.218 126.456 86.0365C126.018 86.1381 125.579 86.2415 125.14 86.3431C125.692 87.2762 126.375 88.1475 127.19 88.9229L128.142 88.0828C127.119 87.3921 125.752 87.0971 124.516 87.343C124.74 87.6692 124.962 87.9951 125.186 88.3195C125.212 88.2938 125.24 88.2683 125.266 88.2443C125.219 88.2856 125.212 88.2902 125.247 88.2601C125.298 88.2193 125.347 88.1765 125.397 88.1357C125.485 88.0668 125.576 88.0003 125.669 87.9357C125.778 87.8623 125.891 87.7911 126.007 87.7258C126.056 87.6974 126.107 87.6712 126.159 87.6431C126.034 87.711 126.214 87.6173 126.24 87.6043C126.468 87.4983 126.703 87.4079 126.947 87.3348C127.012 87.3139 127.079 87.2967 127.145 87.2778C127.176 87.2688 127.347 87.232 127.203 87.2632C127.338 87.2345 127.474 87.2097 127.614 87.1889L126.857 86.3464C126.41 87.2741 125.963 88.2017 125.518 89.1296C125.379 89.4183 125.559 89.8115 125.909 89.9269C126.268 90.0454 126.66 89.9217 126.808 89.6124C127.255 88.6847 127.702 87.7571 128.147 86.8292C128.345 86.4193 127.906 85.9093 127.39 85.9868C126.094 86.1783 124.951 86.7324 124.073 87.5671C123.682 87.9371 124.171 88.6579 124.742 88.5436C124.987 88.496 125.234 88.4684 125.486 88.4633C125.334 88.4663 125.517 88.4653 125.552 88.466C125.614 88.4682 125.678 88.4742 125.74 88.4782C125.875 88.4913 126.01 88.5115 126.144 88.5353C126.165 88.5378 126.351 88.5807 126.268 88.5596C126.188 88.5388 126.371 88.5885 126.391 88.5946C126.511 88.6311 126.629 88.6727 126.746 88.7179C126.803 88.7413 126.86 88.7664 126.917 88.7916C126.945 88.804 126.974 88.8185 127.002 88.831C126.945 88.8005 126.94 88.7979 126.982 88.8213C127.099 88.8881 127.213 88.9547 127.323 89.0279C127.601 89.216 127.995 89.1903 128.231 88.9823C128.452 88.787 128.513 88.4144 128.274 88.1878C127.895 87.8279 127.543 87.4461 127.22 87.0462C127.063 86.8496 126.911 86.6499 126.77 86.4461C126.745 86.4105 126.747 86.4125 126.775 86.4522C126.758 86.4265 126.74 86.4008 126.722 86.3751C126.687 86.3237 126.654 86.2708 126.621 86.2196C126.548 86.1057 126.478 85.9922 126.412 85.8772C126.25 85.6039 125.924 85.4461 125.582 85.5252C125.252 85.6023 125.043 85.8806 125.095 86.1838C125.189 86.7365 125.26 87.2917 125.302 87.8488C125.311 87.9766 125.32 88.1062 125.325 88.2335C125.328 88.3081 125.332 88.3827 125.335 88.4591C125.336 88.5027 125.336 88.5027 125.335 88.4573C125.336 88.5009 125.337 88.5426 125.338 88.5862C125.343 88.8637 125.342 89.1423 125.335 89.4201C125.327 89.7359 125.554 90.0715 125.951 90.1059C126.301 90.1345 126.705 89.929 126.715 89.5901L126.706 89.5962Z" fill="#C7D4F2"/>
<path d="M125.464 69.8078C125.844 71.303 126.374 72.7096 127.028 73.9744C127.187 74.2809 127.544 74.3408 127.771 74.0659C128.001 73.7868 128.071 73.324 127.902 72.998C127.748 72.6988 127.599 72.3913 127.459 72.0757C127.39 71.9215 127.324 71.7676 127.259 71.6116C127.225 71.5277 127.193 71.444 127.159 71.3624C127.12 71.2642 127.193 71.4554 127.156 71.3575C127.138 71.3097 127.12 71.2642 127.102 71.2165C126.856 70.5553 126.643 69.8664 126.463 69.1587C126.371 68.7967 126.039 68.6101 125.777 68.7987C125.506 68.9931 125.363 69.4219 125.461 69.8097L125.464 69.8078Z" fill="#C7D4F2"/>
<path d="M133.107 63.6727C133.911 65.8973 134.717 68.124 135.522 70.3485C135.638 70.6722 136.102 70.8105 136.414 70.6867C136.773 70.546 136.88 70.1876 136.762 69.86C135.957 67.6354 135.151 65.4088 134.347 63.1842C134.229 62.8603 133.766 62.7223 133.453 62.8459C133.094 62.9865 132.987 63.3449 133.105 63.6706L133.107 63.6727Z" fill="#C7D4F2"/>
<path d="M142.096 64.4608C141.979 65.6253 142.066 66.8149 142.359 67.9794C142.441 68.3035 142.857 68.5863 143.287 68.5328C143.702 68.4812 144.025 68.1883 143.938 67.8394C143.8 67.2938 143.707 66.746 143.664 66.1952C143.66 66.1312 143.655 66.069 143.651 66.0049C143.643 65.8563 143.65 66.0552 143.647 65.9185C143.644 65.7705 143.64 65.6225 143.644 65.4753C143.649 65.2013 143.666 64.9287 143.692 64.6554C143.725 64.3306 143.408 63.9758 142.969 63.9368C142.541 63.899 142.13 64.1099 142.094 64.4586L142.096 64.4608Z" fill="#C7D4F2"/>
<path d="M151.582 61.8408L150.724 68.8116C150.616 69.6819 151.369 69.7766 151.476 68.9042L152.335 61.9334C152.442 61.0631 151.69 60.9684 151.582 61.8408Z" fill="#C7D4F2"/>
<path d="M159.806 67.2441C159.606 68.0799 159.35 68.8973 159.039 69.6889C158.919 69.9954 159.049 70.4072 159.311 70.5139C159.587 70.6283 159.883 70.4793 160.012 70.151C160.323 69.3594 160.579 68.542 160.779 67.7062C160.821 67.5316 160.844 67.3815 160.785 67.2118C160.738 67.0721 160.628 66.9324 160.507 66.8812C160.377 66.827 160.225 66.8177 160.094 66.8954C159.978 66.9651 159.844 67.0882 159.806 67.2441Z" fill="#C7D4F2"/>
<path d="M169.434 67.4589C168.222 68.7351 167.007 70.011 165.795 71.2872C165.28 71.8293 166.418 72.5123 166.932 71.9718C168.144 70.6956 169.359 69.4197 170.572 68.1435C171.086 67.6014 169.949 66.9184 169.434 67.4589Z" fill="#C7D4F2"/>
<path d="M174.274 73.4812C173.571 74.2014 172.865 74.9233 172.162 75.6435C171.88 75.9335 171.939 76.3996 172.399 76.6386C172.837 76.8664 173.472 76.865 173.774 76.5544C174.48 75.8346 175.183 75.1123 175.886 74.3921C176.168 74.102 176.11 73.636 175.649 73.397C175.212 73.1692 174.577 73.1706 174.271 73.4808L174.274 73.4812Z" fill="#C7D4F2"/>
<path d="M183.391 78.2655C180.91 79.8257 178.432 81.3862 175.951 82.9484C175.186 83.4302 176.14 84.4558 176.906 83.974C179.386 82.4137 181.864 80.8532 184.345 79.291C185.11 78.8092 184.156 77.7836 183.391 78.2655Z" fill="#C7D4F2"/>
<path d="M182.976 88.5631C183.498 88.1115 184.059 87.6966 184.654 87.3247C184.801 87.2333 184.949 87.1436 185.099 87.0576C185.172 87.0176 185.242 86.9756 185.314 86.9373C185.354 86.9153 185.394 86.8932 185.434 86.8712C185.53 86.8189 185.408 86.8832 185.468 86.8534C185.788 86.6922 186.11 86.5363 186.443 86.3935C186.735 86.2693 186.913 85.9406 186.76 85.6553C186.616 85.388 186.25 85.2165 185.937 85.3499C184.563 85.9394 183.293 86.7154 182.195 87.6626C181.963 87.8633 181.861 88.2032 182.097 88.4532C182.3 88.6687 182.724 88.7765 182.973 88.561L182.976 88.5631Z" fill="#C7D4F2"/>
<path d="M117.838 76.1057C117.838 76.1057 117.836 76.1225 117.835 76.13C117.873 76.0262 117.912 75.9244 117.951 75.8205C117.947 75.8239 117.945 75.8293 117.941 75.8327L118.312 75.5832C118.312 75.5832 118.302 75.5838 118.297 75.5851L118.595 75.6219C118.755 75.7977 118.809 75.8406 118.756 75.7502C118.793 75.85 118.83 75.9479 118.867 76.0477C118.867 76.0895 118.867 76.1295 118.867 76.1714C118.829 76.2753 118.789 76.3771 118.751 76.4809L118.768 76.4622L118.538 76.6643C118.553 76.6584 118.567 76.6526 118.579 76.6465C118.481 76.6629 118.384 76.6814 118.285 76.6978C118.268 76.6958 118.102 76.6296 118.11 76.5906C118.108 76.6075 118.186 76.6895 118.198 76.7024C118.256 76.7781 118.314 76.8518 118.372 76.9276C118.487 77.077 118.605 77.2267 118.72 77.3761C118.96 77.6857 119.2 77.9933 119.44 78.3028C119.912 78.9115 120.385 79.5201 120.857 80.1287C121.049 80.3751 121.406 80.461 121.652 80.2266C121.879 80.0107 121.967 79.5968 121.762 79.3335C121.035 78.3983 120.308 77.4612 119.582 76.5262C119.408 76.301 119.236 76.0741 119.059 75.8522C118.799 75.525 118.356 75.2286 117.979 75.5898C117.66 75.8952 117.66 76.4209 117.983 76.7044C118.339 77.0168 118.912 76.7808 118.962 76.248C118.993 75.9165 118.79 75.5697 118.478 75.5464C118.18 75.525 117.871 75.7536 117.837 76.1094L117.838 76.1057Z" fill="#C7D4F2"/>
<path d="M183.718 93.3836C185.868 93.2233 187.996 92.9012 190.086 92.421C190.446 92.3372 190.724 92.0609 190.662 91.6885C190.61 91.3677 190.236 91.0518 189.874 91.1353C187.784 91.6155 185.656 91.9376 183.506 92.0979C183.135 92.1259 182.876 92.4978 182.93 92.8305C182.991 93.1951 183.347 93.4116 183.718 93.3836Z" fill="#C7D4F2"/>
<path d="M129.246 168.937C129.517 170.491 130.156 171.95 131.109 173.137C131.423 173.529 132.023 173.023 131.707 172.629C130.837 171.545 130.24 170.231 129.994 168.81C129.905 168.3 129.159 168.421 129.248 168.937L129.246 168.937Z" fill="#C7D4F2"/>
<path d="M129.654 168.395C129.836 168.399 129.931 168.53 130.021 168.667C130.147 168.857 130.246 169.067 130.357 169.265C130.607 169.716 130.859 170.166 131.109 170.617C131.603 171.504 132.098 172.392 132.592 173.279C132.803 173.659 133.458 173.405 133.245 173.021C132.69 172.025 132.136 171.029 131.58 170.032C131.307 169.541 131.035 169.048 130.76 168.557C130.547 168.178 130.247 167.746 129.735 167.735C129.541 167.731 129.365 167.828 129.34 168.021C129.318 168.183 129.461 168.39 129.654 168.395Z" fill="#C7D4F2"/>
<path d="M129.844 164.545C131.623 167.931 133.2 171.418 134.564 174.988C134.758 175.496 135.54 175.164 135.345 174.654C133.982 171.084 132.405 167.598 130.626 164.211C130.373 163.731 129.59 164.061 129.844 164.545Z" fill="#C7D4F2"/>
<rect x="104.526" y="33.6482" width="110.452" height="159.6" rx="7.77367" transform="rotate(7.02063 104.526 33.6482)" stroke="#C7D4F2" stroke-width="1.4"/>
<rect x="109.792" y="39.4192" width="98.5893" height="149.431" rx="5.23157" transform="rotate(7.02063 109.792 39.4192)" stroke="#C7D4F2" stroke-width="1.4"/>
<rect x="1.2728" y="41.9929" width="110.452" height="159.6" rx="7.77367" transform="rotate(-11.2991 1.2728 41.9929)" fill="#04142B" stroke="#C7D4F2" stroke-width="1.4"/>
<rect x="8.08579" y="45.8164" width="98.5893" height="149.431" rx="5.23157" transform="rotate(-11.2991 8.08579 45.8164)" stroke="#C7D4F2" stroke-width="1.4"/>
<path d="M62.6107 85.7127C53.1565 88.8567 46.554 97.7388 45.6565 107.595C44.7739 117.265 50.0002 127.317 59.2198 131.003C67.7493 134.412 77.6394 131.605 84.524 125.958C92.2833 119.591 97.1562 108.548 93.1168 98.786C88.9482 88.7134 77.096 83.3149 66.631 84.7837C65.2653 84.9764 63.9238 85.2899 62.6132 85.7144C61.756 85.9897 62.025 87.3796 62.8901 87.1005C72.5965 83.9711 84.459 87.523 90.1534 96.209C93.0332 100.602 93.8723 105.94 92.5786 111.026C91.4554 115.436 89.1066 119.493 85.9362 122.745C80.0843 128.746 71.145 132.45 62.7532 130.609C53.7247 128.628 47.4403 120.133 46.9963 111.068C46.549 101.932 51.4978 92.7344 59.6633 88.4757C60.7014 87.9345 61.7812 87.4716 62.8927 87.1022C63.7441 86.8193 63.4792 85.4286 62.6157 85.716L62.6107 85.7127Z" fill="#C7D4F2"/>
<path d="M56.0769 90.4278C57.8961 85.1633 58.2506 79.4761 57.0923 74.0261C56.9003 73.1194 55.6201 73.4142 55.7067 74.303C56.0201 77.5525 59.3099 79.6264 62.3691 79.7002C66.2058 79.7941 69.43 77.0603 71.9027 74.4268C71.511 74.2341 71.1189 74.0393 70.7272 73.8466C70.5088 77.6013 73.633 80.7011 77.1547 81.4303C81.4114 82.3139 85.599 79.8254 88.4023 76.818L87.2647 76.059C86.3353 80.0078 86.8081 84.8144 90.1812 87.5219C92.8493 89.6616 97.209 89.9545 99.6743 87.3485C99.3226 87.0416 98.9688 86.7351 98.6167 86.4261C96.3223 89.67 94.7823 94.1308 96.5021 97.9773C97.9965 101.325 102.053 103.562 105.575 102.047C105.314 101.66 105.05 101.274 104.789 100.887C102.13 102.968 99.9087 105.809 99.1628 109.157C98.4307 112.445 99.2095 116.093 101.634 118.511C101.941 118.16 102.247 117.806 102.556 117.454C99.8575 116.061 96.7069 117.222 94.8343 119.443C92.627 122.06 92.4807 125.774 92.5182 129.031C92.9304 128.893 93.3401 128.752 93.7522 128.614C91.3494 125.09 86.3934 123.841 82.5731 125.673C81.7525 126.067 82.3866 127.332 83.2093 126.938C86.5095 125.355 90.6487 126.55 92.6941 129.553C93.0315 130.05 93.935 129.713 93.928 129.136C93.8967 126.376 93.9287 123.305 95.498 120.91C96.765 118.977 99.5219 117.472 101.771 118.633C102.424 118.971 103.31 118.192 102.693 117.576C100.512 115.402 99.8322 112.095 100.614 109.156C101.396 106.214 103.368 103.796 105.729 101.949C106.389 101.434 105.647 100.485 104.943 100.789C101.983 102.061 98.5864 99.7437 97.5982 96.9237C96.4326 93.5952 97.8654 89.9426 99.7951 87.2159C100.25 86.5745 99.2973 85.7005 98.7376 86.2936C96.6929 88.4557 93.1587 88.1409 90.9694 86.3478C88.1609 84.0477 87.8297 79.8198 88.6052 76.5217C88.7478 75.9123 88.0028 75.1876 87.4677 75.7627C85.0466 78.3621 81.5971 80.6185 77.8829 80.1294C74.8854 79.7355 71.9565 77.1364 72.1432 73.9496C72.1766 73.3793 71.4091 72.8997 70.9677 73.3694C68.8521 75.6216 66.1648 78.1029 62.903 78.2842C60.2993 78.4295 57.3645 76.8092 57.0965 74.0253L55.7108 74.3021C56.8179 79.5174 56.4843 84.9295 54.7451 89.9656C54.447 90.8272 55.7851 91.2882 56.0831 90.4266L56.0769 90.4278Z" fill="#C7D4F2"/>
<path d="M65.8136 84.9532C62.3082 86.9087 59.5079 89.9198 57.7835 93.544C56.0574 97.1707 55.072 102.325 57.6799 105.801C58.7078 107.172 60.3776 107.482 61.9874 107.6C62.8692 107.665 63.7656 107.683 64.6344 107.856C64.5827 107.847 65.0624 107.948 65.062 107.957C65.0611 107.964 64.7799 107.684 64.789 107.686C64.6869 107.663 64.8753 107.543 64.7736 107.707C64.6898 107.841 64.6823 108.193 64.6373 108.347C64.2787 109.579 63.7302 110.748 63.4091 111.994C63.1477 113.006 63.0176 114.394 64.3573 114.646C65.0532 114.778 65.745 114.466 66.4064 114.295C66.9877 114.147 67.5499 114.075 67.6894 114.806C67.7719 115.241 67.3713 115.665 67.1063 116.009C66.4231 116.895 65.733 117.768 65.1082 118.697C64.5984 119.454 65.7756 120.237 66.2857 119.483C66.8505 118.644 67.4599 117.844 68.0855 117.049C68.431 116.609 68.8186 116.152 69.0083 115.616C69.3651 114.604 68.806 113.237 67.7726 112.869C67.1404 112.644 66.4482 112.813 65.8273 112.991C65.5176 113.079 65.2001 113.203 64.8809 113.243C64.7709 113.256 64.6804 113.259 64.5692 113.256C64.6542 113.258 64.6396 113.359 64.6258 113.29C64.458 112.482 65.2137 110.994 65.5151 110.16C65.814 109.335 66.4876 108.021 66.0855 107.137C65.8181 106.546 65.0942 106.502 64.5317 106.409C63.6578 106.265 62.7698 106.245 61.8888 106.174C61.0983 106.111 60.2536 106.026 59.5544 105.617C58.691 105.114 58.2119 104.082 57.9228 103.167C57.2475 101.034 57.497 98.6931 58.1261 96.5818C59.4318 92.2067 62.4648 88.4403 66.4477 86.2182C67.2391 85.7761 66.6091 84.5103 65.8115 84.9537L65.8136 84.9532Z" fill="#C7D4F2"/>
<path d="M66.4733 119.389C66.9601 118.8 67.7111 118.329 68.3921 118.007C68.5979 117.909 69.0622 117.652 69.3026 117.76C69.3597 117.785 69.1951 117.677 69.2851 117.802C69.4484 118.023 69.3788 118.64 69.3667 118.904C69.3123 120.107 69.1551 121.272 69.7567 122.386C70.3204 123.428 71.3547 124.126 72.4456 124.532C77.6886 126.48 83.8057 123.108 87.7237 119.802C90.0768 117.816 92.0537 115.39 93.4313 112.633C93.8339 111.829 92.6613 111.035 92.2537 111.847C89.779 116.803 85.2712 120.769 80.1011 122.742C77.6148 123.692 74.0979 124.321 71.7836 122.596C70.6657 121.762 70.6562 120.576 70.7539 119.308C70.8207 118.427 70.8921 117.093 70.0262 116.555C68.5469 115.637 66.1806 117.534 65.292 118.606C64.7126 119.307 65.8935 120.088 66.4695 119.392L66.4733 119.389Z" fill="#C7D4F2"/>
<path d="M74.0994 119.437C74.6401 118.38 74.9607 117.251 74.9983 116.063C74.5861 116.201 74.1765 116.342 73.7643 116.48C74.5081 117.231 75.7324 117.383 76.5893 116.716C77.3899 116.092 77.6113 114.858 77.0747 113.994L76.3928 115.017C77.8959 115.046 79.3445 114.292 80.1248 112.992C80.5933 112.213 79.4174 111.425 78.9472 112.206C78.43 113.066 77.5077 113.623 76.4938 113.603C76.002 113.592 75.5086 114.138 75.8119 114.625C75.9973 114.924 76.0356 115.344 75.7243 115.597C75.4763 115.798 75.055 115.772 74.8237 115.536C74.4191 115.127 73.6094 115.315 73.5898 115.954C73.5597 116.888 73.352 117.811 72.9252 118.647C72.7505 118.987 72.7784 119.398 73.1213 119.628C73.4114 119.822 73.9264 119.775 74.1027 119.432L74.0994 119.437Z" fill="#C7D4F2"/>
<path d="M78.11 119.988C78.5005 119.535 78.8914 119.085 79.282 118.631C79.3908 118.504 79.4175 118.258 79.3862 118.101C79.3521 117.93 79.2367 117.743 79.0862 117.652C78.9308 117.557 78.7379 117.502 78.5562 117.547C78.4974 117.568 78.4366 117.589 78.3778 117.609C78.2678 117.666 78.1774 117.745 78.1073 117.85C77.7168 118.303 77.3259 118.754 76.9353 119.207C76.8265 119.334 76.7999 119.58 76.8311 119.737C76.8652 119.908 76.9806 120.095 77.1311 120.186C77.2865 120.281 77.4794 120.336 77.6611 120.291C77.7199 120.27 77.7807 120.249 77.8395 120.229C77.9495 120.172 78.04 120.094 78.11 119.988Z" fill="#C7D4F2"/>
<path d="M70.3928 113.184C70.8736 113.921 71.7312 114.124 72.5105 113.687C73.389 113.193 73.4742 112.111 73.4184 111.214L72.0807 111.481C72.4519 112.233 73.3395 112.533 74.1143 112.224C74.9715 111.884 75.3225 110.929 75.1572 110.058C74.9385 108.91 73.9705 108.24 73.1605 107.505C72.3026 106.725 71.5022 105.842 70.9026 104.848C69.6773 102.814 69.4817 100.512 70.8688 98.5074C72.3067 96.4318 74.7072 95.3561 76.9306 94.3374C77.7582 93.9575 77.1224 92.695 76.2944 93.0729C72.8087 94.6711 68.4907 97.0057 68.4502 101.423C68.4316 103.412 69.3265 105.245 70.5361 106.776C71.1536 107.557 71.8648 108.243 72.6149 108.895C73.0032 109.234 73.5324 109.615 73.7136 110.121C73.7815 110.309 73.8644 110.67 73.686 110.829C73.5868 110.918 73.4256 111.011 73.3426 110.846C73.056 110.268 71.9592 110.385 72.0049 111.113C72.0257 111.434 72.0653 111.784 71.9873 112.098C71.9514 112.244 71.9152 112.366 71.7943 112.456C71.6985 112.529 71.588 112.443 71.6543 112.546C71.1635 111.793 69.8932 112.419 70.3903 113.183L70.3928 113.184Z" fill="#C7D4F2"/>
<path d="M73.4172 104.898C73.3116 102.916 73.5719 100.76 74.8785 99.1762C75.9546 97.8709 78.0284 97.0685 79.6118 97.9119C79.9489 98.0916 80.3665 98.0559 80.5933 97.7158C80.7883 97.4232 80.7367 96.9154 80.3971 96.734C78.2973 95.6167 75.6611 96.2713 74.0644 97.9755C72.3602 99.7921 71.8789 102.383 72.0083 104.798C72.0282 105.18 72.249 105.526 72.662 105.554C73.005 105.579 73.438 105.284 73.4176 104.9L73.4172 104.898Z" fill="#C7D4F2"/>
<path d="M73.0635 105.379C75.2897 105.372 77.4776 104.533 79.1022 103.001C80.6467 101.546 82.0597 99.0529 80.5994 97.0686C80.3731 96.7605 79.8684 96.7725 79.6017 97.01C79.2946 97.2838 79.3149 97.7003 79.5433 98.008C80.0158 98.6484 79.7806 99.5646 79.4721 100.222C79.1137 100.988 78.5181 101.651 77.8796 102.197C76.5768 103.311 74.8802 103.962 73.1629 103.967C72.2578 103.97 72.1517 105.381 73.0614 105.379L73.0635 105.379Z" fill="#C7D4F2"/>
<path d="M53.7761 113.371C54.5495 113.999 55.7055 113.939 56.549 113.487C57.4709 112.993 58.0461 112.087 58.56 111.21C58.7476 110.891 58.7043 110.436 58.3639 110.228C58.053 110.039 57.5829 110.083 57.3824 110.424C57.174 110.78 56.9656 111.136 56.7197 111.467C56.658 111.549 56.5963 111.631 56.5292 111.707C56.4817 111.762 56.5763 111.661 56.4896 111.747C56.4571 111.78 56.4267 111.812 56.3942 111.844C56.3146 111.923 56.23 111.999 56.1425 112.07C56.107 112.099 56.0712 112.126 56.0354 112.152C56.1108 112.096 56.0604 112.137 56.0099 112.166C55.9366 112.211 55.8578 112.251 55.7807 112.288C55.7449 112.304 55.7086 112.317 55.6728 112.333C55.5453 112.389 55.7436 112.319 55.6607 112.338C55.5757 112.357 55.4944 112.384 55.4065 112.399C55.369 112.407 55.3306 112.41 55.2931 112.418C55.1569 112.441 55.3677 112.422 55.2827 112.42C55.1977 112.417 55.1135 112.419 55.0294 112.41C54.9919 112.406 54.9556 112.398 54.9181 112.395C55.0694 112.415 54.9468 112.398 54.9077 112.386C54.8731 112.376 54.8381 112.363 54.8031 112.351C54.7327 112.324 54.7089 112.303 54.7881 112.352C54.7068 112.303 54.6297 112.253 54.5572 112.194C54.2681 111.961 53.7617 112.084 53.5758 112.39C53.3624 112.743 53.464 113.121 53.772 113.372L53.7761 113.371Z" fill="#C7D4F2"/>
<path d="M59.3072 120.066C59.458 120.051 59.2889 120.061 59.4268 120.058C59.5043 120.055 59.5822 120.055 59.6585 120.057C59.8131 120.061 59.9669 120.071 60.1198 120.088C60.4149 120.123 60.597 120.166 60.9128 120.272C61.4816 120.462 61.9383 120.72 62.4363 121.119C63.3092 121.822 63.9033 122.855 64.0411 124C64.0865 124.379 64.5195 124.626 64.8737 124.555C65.2738 124.475 65.4747 124.104 65.4289 123.723C65.0625 120.664 62.0457 118.394 59.0323 118.68C58.6514 118.715 58.4076 119.164 58.4771 119.513C58.5584 119.919 58.9267 120.103 59.3097 120.068L59.3072 120.066Z" fill="#C7D4F2"/>
<path d="M44.7394 89.5349C45.6307 90.4385 46.5219 91.3421 47.4153 92.2452C47.6757 92.5075 48.1299 92.5793 48.4129 92.3038C48.6763 92.0496 48.7506 91.5861 48.4714 91.3059C47.5801 90.4023 46.6889 89.4987 45.7955 88.5956C45.5351 88.3333 45.0808 88.2615 44.7979 88.537C44.5345 88.7912 44.4602 89.2547 44.7394 89.5349Z" fill="#C7D4F2"/>
<path d="M39.8389 94.2251C41.6774 94.9351 43.5134 95.6434 45.3519 96.3534C45.7086 96.4902 46.1299 96.2673 46.2504 95.9159C46.3796 95.5433 46.1697 95.1539 45.813 95.017C43.9745 94.3071 42.1385 93.5988 40.2999 92.8888C39.9432 92.752 39.5219 92.9749 39.4014 93.3263C39.2722 93.6989 39.4822 94.0883 39.8389 94.2251Z" fill="#C7D4F2"/>
<path d="M39.4931 101.867C40.4645 101.947 41.4375 102.023 42.4089 102.102C42.7769 102.133 43.1557 101.827 43.1645 101.448C43.1741 101.063 42.905 100.724 42.5108 100.692C41.5394 100.613 40.5663 100.537 39.5949 100.458C39.227 100.427 38.8481 100.733 38.8393 101.112C38.8297 101.497 39.0989 101.836 39.4931 101.867Z" fill="#C7D4F2"/>
<path d="M35.7573 108.879C37.4613 108.85 39.1649 108.82 40.8689 108.792C41.251 108.785 41.597 108.542 41.6245 108.138C41.6491 107.784 41.3529 107.375 40.9708 107.382C39.2668 107.41 37.5632 107.441 35.8592 107.469C35.477 107.476 35.1311 107.718 35.1036 108.123C35.079 108.477 35.3752 108.886 35.7573 108.879Z" fill="#C7D4F2"/>
<path d="M37.757 116.532L40.5053 115.983C40.8679 115.91 41.1521 115.522 41.0605 115.15C40.9689 114.778 40.6176 114.517 40.2279 114.595L37.4796 115.144C37.117 115.216 36.8328 115.605 36.9244 115.976C37.0161 116.348 37.3673 116.61 37.757 116.532Z" fill="#C7D4F2"/>
<path d="M38.7274 125.353C40.1418 124.386 41.6476 123.549 43.2029 122.831C43.55 122.671 43.6843 122.215 43.516 121.882C43.3397 121.531 42.9143 121.408 42.5671 121.569C40.8968 122.34 39.3081 123.26 37.7882 124.297C37.4735 124.511 37.4981 125.035 37.7297 125.295C38.0093 125.609 38.411 125.57 38.7274 125.353Z" fill="#C7D4F2"/>
<path d="M44.4674 126.84C43.8751 127.715 43.2808 128.59 42.6881 129.463C42.4805 129.769 42.5588 130.247 42.8843 130.445C43.2147 130.645 43.6431 130.577 43.8657 130.249C44.458 129.374 45.0523 128.499 45.645 127.626C45.8526 127.32 45.7743 126.841 45.4488 126.644C45.1184 126.443 44.69 126.512 44.4674 126.84Z" fill="#C7D4F2"/>
<path d="M49.5233 130.698C48.6296 132.548 47.7339 134.399 46.8406 136.25C46.6751 136.593 46.9476 137.035 47.278 137.149C47.676 137.287 48.009 137.055 48.1766 136.712C49.0702 134.862 49.966 133.012 50.8593 131.16C51.0268 130.816 50.7523 130.375 50.4218 130.261C50.0239 130.124 49.6909 130.355 49.5233 130.698Z" fill="#C7D4F2"/>
<path d="M55.1383 134.673C54.5368 135.589 54.1916 136.681 54.1811 137.777C54.1769 138.147 54.4385 138.524 54.8349 138.533C55.1987 138.543 55.5871 138.275 55.5904 137.88C55.593 137.643 55.6105 137.405 55.646 137.17C55.6543 137.115 55.663 137.061 55.6735 137.005C55.6789 136.977 55.6843 136.95 55.6897 136.923C55.6572 137.118 55.6735 137.005 55.6839 136.959C55.7106 136.843 55.7419 136.729 55.7756 136.616C55.8423 136.396 55.9249 136.18 56.0195 135.971C56.0349 135.94 56.0503 135.908 56.0633 135.875C56.0533 135.901 55.9945 136.008 56.0387 135.926C56.0658 135.877 56.0903 135.827 56.1174 135.778C56.1779 135.668 56.2433 135.562 56.3133 135.457C56.5159 135.148 56.4455 134.676 56.1172 134.475C55.7917 134.278 55.3533 134.339 55.1358 134.671L55.1383 134.673Z" fill="#C7D4F2"/>
<path d="M60.6843 136.712C60.3465 138.666 60.1383 140.639 60.0572 142.619C60.02 143.528 61.4319 143.632 61.4687 142.72C61.5477 140.741 61.7579 138.767 62.0957 136.814C62.1612 136.437 61.7958 136.083 61.442 136.058C61.0286 136.028 60.7518 136.335 60.6864 136.712L60.6843 136.712Z" fill="#C7D4F2"/>
<path d="M67.9122 136.651L68.5161 139.674C68.5886 140.036 68.9769 140.321 69.3487 140.229C69.7204 140.137 69.9817 139.786 69.9039 139.396L69.3 136.374C69.2275 136.011 68.8391 135.727 68.4674 135.818C68.0957 135.91 67.8344 136.261 67.9122 136.651Z" fill="#C7D4F2"/>
<path d="M73.8691 136.52L75.5973 140.138C75.7573 140.472 76.219 140.636 76.5461 140.451C76.8853 140.262 77.0304 139.86 76.8592 139.502C76.2826 138.297 75.7077 137.09 75.131 135.885C74.9711 135.55 74.5094 135.387 74.1822 135.571C73.843 135.761 73.6979 136.162 73.8691 136.52Z" fill="#C7D4F2"/>
<path d="M79.7911 133.735C80.7607 134.782 81.7282 135.828 82.6978 136.874C82.9491 137.145 83.4179 137.203 83.6954 136.933C83.9659 136.671 84.0243 136.226 83.7539 135.935C82.7843 134.889 81.8168 133.842 80.8472 132.796C80.5959 132.525 80.1271 132.467 79.8495 132.737C79.5791 133 79.5207 133.445 79.7911 133.735Z" fill="#C7D4F2"/>
<path d="M73.0575 100.752C73.2991 101.549 73.8487 102.12 74.6067 102.454C75.303 102.761 76.1119 102.764 76.8204 102.504C77.5067 102.252 78.0661 101.646 78.2583 100.937C78.4513 100.222 78.3626 99.4534 78.0251 98.7946C77.6243 98.0142 76.9226 97.4737 76.0538 97.333C75.6887 97.2737 75.307 97.6296 75.2982 97.9869C75.2873 98.3987 75.5623 98.6798 75.9519 98.7428C76.0907 98.7649 75.8203 98.7019 75.9086 98.7319C75.939 98.7432 75.9724 98.7474 76.0024 98.7566C76.0578 98.7737 76.1119 98.7954 76.1657 98.815C76.3128 98.8679 76.0328 98.7353 76.1924 98.8292C76.2536 98.8646 76.3132 98.9026 76.3691 98.9434C76.3945 98.9622 76.4203 98.9831 76.4457 99.0018C76.4995 99.0431 76.4661 99.0606 76.3961 98.9597C76.4299 99.0093 76.4928 99.0531 76.532 99.0973C76.5657 99.1361 76.5995 99.1748 76.6316 99.2161C76.652 99.2424 76.6682 99.2695 76.6907 99.2954C76.734 99.3496 76.5987 99.1382 76.6736 99.2749C76.7345 99.3842 76.7949 99.4913 76.842 99.6076C76.8511 99.6318 76.8603 99.656 76.872 99.6818C76.9265 99.814 76.8349 99.5397 76.8557 99.633C76.8699 99.7039 76.8965 99.7723 76.9107 99.8432C76.9211 99.8953 76.9311 99.9453 76.9394 99.9978C76.9469 100.035 76.9486 100.076 76.954 100.114C76.9619 100.175 76.9323 100.201 76.9502 100.041C76.9369 100.17 76.9498 100.299 76.9323 100.428C76.9043 100.614 76.9744 100.303 76.9269 100.456C76.9098 100.511 76.8948 100.566 76.8752 100.62C76.8639 100.65 76.8502 100.679 76.8389 100.709C76.8135 100.777 76.7656 100.787 76.861 100.668C76.821 100.717 76.7972 100.783 76.7618 100.833C76.7435 100.861 76.7226 100.887 76.7039 100.912C76.6497 100.988 76.6339 100.93 76.7326 100.882C76.6914 100.904 76.6518 100.966 76.6168 100.997C76.5909 101.019 76.5647 101.039 76.5388 101.062C76.4892 101.107 76.4226 101.109 76.5759 101.042C76.5163 101.069 76.4622 101.112 76.403 101.141C76.35 101.169 76.2667 101.186 76.2217 101.221C76.2292 101.215 76.4017 101.167 76.2884 101.197C76.2554 101.205 76.225 101.216 76.1917 101.222C76.1337 101.236 76.0737 101.25 76.0146 101.258C75.9875 101.263 75.9621 101.266 75.9346 101.269C75.9075 101.275 75.8816 101.276 75.8537 101.277C75.9696 101.271 75.9975 101.27 75.9412 101.27C75.8187 101.264 75.6987 101.271 75.5745 101.257C75.5145 101.249 75.4524 101.231 75.3932 101.228C75.5687 101.238 75.4912 101.252 75.4332 101.233C75.3941 101.221 75.3553 101.212 75.3161 101.2C75.2445 101.178 75.1744 101.153 75.1057 101.123C75.0799 101.113 75.0557 101.1 75.0319 101.09C74.904 101.035 75.1594 101.164 75.0486 101.097C74.9794 101.055 74.909 101.017 74.8432 100.969C74.8207 100.954 74.8003 100.939 74.7794 100.921C74.7128 100.87 74.7115 100.82 74.7936 100.938C74.754 100.881 74.6861 100.834 74.639 100.783C74.6165 100.757 74.5965 100.733 74.5761 100.706C74.5294 100.646 74.5319 100.572 74.5869 100.728C74.5665 100.669 74.5161 100.612 74.489 100.552C74.4744 100.523 74.4615 100.491 74.4469 100.461C74.3719 100.303 74.4882 100.602 74.4482 100.467C74.3407 100.114 74.0124 99.8153 73.6156 99.9119C73.2726 99.9956 72.9455 100.364 73.0604 100.745L73.0575 100.752Z" fill="#C7D4F2"/>
<path d="M87.8003 121.818L88.6241 125.941C88.7328 126.485 89.5767 126.316 89.468 125.772L88.6442 121.649C88.5355 121.105 87.6916 121.274 87.8003 121.818Z" fill="#C7D4F2"/>
<path d="M89.64 119.161C90.2494 121.994 90.8587 124.826 91.4655 127.657C91.5821 128.198 92.4264 128.031 92.3094 127.489C91.7001 124.656 91.0907 121.823 90.4839 118.992C90.3673 118.452 89.523 118.619 89.64 119.161Z" fill="#C7D4F2"/>
<path d="M91.2352 116.837C91.753 118.929 92.2682 121.02 92.786 123.112C92.9192 123.649 93.7635 123.482 93.6298 122.943C93.1121 120.851 92.5964 118.758 92.0791 116.668C91.9458 116.131 91.1015 116.298 91.2352 116.837Z" fill="#C7D4F2"/>
<path d="M92.5188 114.016C93.1436 115.896 93.7706 117.776 94.3954 119.656C94.47 119.878 94.6521 120.041 94.903 119.995C95.1097 119.956 95.3139 119.709 95.2414 119.487C94.6165 117.607 93.9896 115.727 93.3647 113.847C93.2901 113.626 93.108 113.463 92.8572 113.508C92.6505 113.547 92.4463 113.794 92.5188 114.016Z" fill="#C7D4F2"/>
<path d="M59.8597 87.5612C59.885 88.5012 60.1079 89.4213 60.5416 90.2581C60.6445 90.4586 60.9145 90.5629 61.1191 90.4483C61.3217 90.3341 61.4213 90.0845 61.3092 89.8706C61.1118 89.4895 60.9855 89.1614 60.8876 88.78C60.8368 88.5799 60.7964 88.3777 60.766 88.1713C60.7514 88.0767 60.741 87.9812 60.7331 87.8874C60.7331 87.8874 60.7219 87.7444 60.7269 87.8128C60.7227 87.7486 60.7211 87.6861 60.719 87.6215C60.7132 87.3972 60.5678 87.1683 60.3215 87.1611C60.1081 87.1561 59.8547 87.3194 59.8614 87.5587L59.8597 87.5612Z" fill="#C7D4F2"/>
<path d="M58.3042 88.8468C58.5729 89.7469 58.8415 90.647 59.1077 91.5454C59.1723 91.7601 59.3735 91.9432 59.6153 91.884C59.8236 91.8316 60.0216 91.6078 59.9537 91.3764C59.685 90.4763 59.4163 89.5762 59.1502 88.6778C59.0856 88.4631 58.8843 88.28 58.6426 88.3392C58.4343 88.3916 58.2363 88.6155 58.3042 88.8468Z" fill="#C7D4F2"/>
<path d="M56.436 90.0573C56.9242 91.5898 57.4128 93.1244 57.901 94.657C57.9714 94.8792 58.1606 95.0451 58.4086 94.9956C58.6169 94.9539 58.8178 94.7122 58.747 94.4879C58.2588 92.9554 57.7702 91.4208 57.2819 89.8883C57.2115 89.6661 57.0224 89.5001 56.7744 89.5496C56.566 89.5913 56.3651 89.833 56.436 90.0573Z" fill="#C7D4F2"/>
<path d="M54.6267 91.5764C54.9906 93.7883 55.7721 95.9212 56.9296 97.8424C57.2141 98.3123 57.9851 97.9307 57.6993 97.4546C56.5777 95.5934 55.8254 93.5522 55.4706 91.4077C55.3806 90.86 54.5371 91.0307 54.6267 91.5764Z" fill="#C7D4F2"/>
<path d="M53.7519 95.6417C53.7102 96.3437 53.9506 97.0478 54.4193 97.5719C54.5697 97.7391 54.8598 97.7701 55.0269 97.6088C55.194 97.4475 55.2232 97.1815 55.0636 97.001C55.0132 96.9439 54.967 96.8859 54.9203 96.8259C54.8591 96.7471 54.9716 96.9089 54.9203 96.8259C54.9007 96.793 54.8795 96.7625 54.862 96.7292C54.8291 96.6729 54.7978 96.6141 54.7707 96.5545C54.7553 96.5207 54.7395 96.4848 54.7262 96.4507C54.7182 96.4327 54.6928 96.3273 54.7049 96.3985C54.7174 96.4719 54.6933 96.3619 54.6899 96.3452C54.6783 96.3085 54.6691 96.2735 54.6616 96.2359C54.6466 96.1717 54.6358 96.1067 54.6229 96.0421C54.6154 96.0046 54.6145 95.9679 54.6091 95.93C54.5983 95.8432 54.6112 96.0271 54.6095 95.932C54.6075 95.8566 54.6075 95.7807 54.6121 95.7061C54.6258 95.4822 54.4475 95.2513 54.2146 95.2458C53.9837 95.2399 53.7695 95.4041 53.7544 95.6434L53.7519 95.6417Z" fill="#C7D4F2"/>
<path d="M52.6031 99.4372L52.9331 99.6574C52.979 99.6916 53.0306 99.7116 53.0861 99.7179C53.1415 99.735 53.1977 99.7346 53.2557 99.7209C53.3144 99.7113 53.3661 99.688 53.4111 99.653C53.4599 99.6259 53.4999 99.5876 53.5291 99.5384C53.5461 99.5046 53.5616 99.4733 53.5787 99.4396C53.6029 99.3654 53.6095 99.2904 53.5945 99.2153C53.5828 99.1786 53.5691 99.1423 53.5574 99.1057C53.5225 99.039 53.4745 98.9835 53.412 98.9418L53.082 98.7216C53.0362 98.6874 52.9845 98.6674 52.9291 98.6611C52.8737 98.644 52.8174 98.6444 52.7595 98.6582C52.7007 98.6677 52.649 98.6911 52.604 98.7261C52.5553 98.7532 52.5153 98.7915 52.4861 98.8407C52.469 98.8744 52.4536 98.9057 52.4365 98.9395C52.4123 99.0137 52.4056 99.0887 52.4206 99.1637C52.4323 99.2004 52.446 99.2367 52.4577 99.2734C52.4927 99.3401 52.5406 99.3955 52.6031 99.4372Z" fill="#C7D4F2"/>
<path d="M87.9444 99.4446C88.6407 100.066 89.3374 100.69 90.0337 101.312C90.1999 101.461 90.4616 101.523 90.6412 101.349C90.7917 101.202 90.8572 100.9 90.678 100.741C89.9817 100.119 89.285 99.4954 88.5887 98.8736C88.4225 98.7248 88.1608 98.6622 87.9811 98.8368C87.8307 98.9839 87.7652 99.2853 87.9444 99.4446Z" fill="#C7D4F2"/>
<path d="M88.9461 102.947L89.6611 103.662C89.7399 103.742 89.8378 103.798 89.952 103.806C90.0574 103.813 90.1903 103.773 90.2687 103.699C90.3466 103.623 90.4087 103.522 90.4121 103.408C90.4158 103.297 90.3867 103.173 90.3054 103.091L89.5904 102.376C89.5117 102.296 89.4137 102.24 89.2996 102.232C89.1941 102.225 89.0612 102.265 88.9828 102.339C88.9049 102.415 88.8428 102.517 88.8394 102.63C88.8357 102.741 88.8648 102.866 88.9461 102.947Z" fill="#C7D4F2"/>
<path d="M89.7374 106.435L90.0124 106.38C90.0712 106.371 90.1229 106.347 90.1679 106.312C90.2166 106.285 90.2566 106.247 90.2858 106.198C90.32 106.152 90.34 106.1 90.3462 106.045C90.3633 105.989 90.3629 105.933 90.3492 105.875C90.3375 105.838 90.3238 105.802 90.3121 105.765C90.2771 105.699 90.2292 105.643 90.1667 105.602C90.1329 105.584 90.1017 105.569 90.0679 105.552C89.9938 105.528 89.9188 105.521 89.8437 105.536L89.5687 105.591C89.5099 105.601 89.4583 105.624 89.4133 105.659C89.3645 105.686 89.3245 105.724 89.2953 105.774C89.2611 105.819 89.2411 105.871 89.2349 105.927C89.2178 105.982 89.2161 106.039 89.2319 106.096C89.2436 106.133 89.2573 106.169 89.269 106.206C89.304 106.273 89.3519 106.328 89.4144 106.37C89.4482 106.387 89.4794 106.402 89.5132 106.419C89.5874 106.443 89.6623 106.45 89.7374 106.435Z" fill="#C7D4F2"/>
</svg>
