<svg width="126" height="146" viewBox="0 0 126 146" fill="none" xmlns="http://www.w3.org/2000/svg">
<path d="M1 37.3122L61.9619 2M1 37.3122V108.124M1 37.3122L22.7047 47.0794M61.9619 2L123.679 37.3122M61.9619 2L22.7047 47.0794M61.9619 2L102.352 47.0794M123.679 37.3122L125 108.124M123.679 37.3122L102.352 47.0794M125 108.124L62.3394 144M125 108.124L62.3394 116.765M125 108.124L102.352 47.0794M62.3394 144L1 108.124M62.3394 144V116.765M1 108.124L22.7047 47.0794M1 108.124L62.3394 116.765M22.7047 47.0794H102.352M22.7047 47.0794L62.3394 116.765M62.3394 116.765L102.352 47.0794" stroke="#C7D4F2" stroke-width="1.8"/>
<path d="M67.3129 72.509C69.4096 73.4979 71.027 74.825 71.6698 77.0518C72.7896 80.9392 70.9994 84.7209 67.2346 86.1819C64.0458 87.4198 60.8385 87.2577 57.7788 85.6628C55.1568 84.2957 53.9863 81.9562 54.0001 79.0436C54.0139 76.178 55.5438 74.2284 57.97 72.9388C58.2303 72.8003 58.4884 72.6617 58.7948 72.4973C58.2603 72.1426 57.7741 71.8419 57.311 71.5084C53.5186 68.779 54.0255 61.7628 59.0114 59.8132C61.6933 58.7656 64.4167 58.6928 67.0802 59.8132C69.7183 60.9219 71.004 63.0547 71.1376 65.9345C71.2574 68.4877 70.3059 70.4936 68.2 71.91C67.9465 72.0815 67.6931 72.253 67.3129 72.5114V72.509ZM58.4538 78.8722C58.4654 81.423 60.4031 83.281 63.0896 83.3116C65.654 83.3421 67.5364 81.4489 67.5295 78.8487C67.5226 76.2085 65.6171 74.3153 62.9951 74.3482C60.3662 74.3811 58.4446 76.2954 58.4538 78.8745V78.8722ZM59.2764 66.5663C59.2695 68.9222 60.9537 70.7168 63.1817 70.7215C65.1724 70.7262 66.6931 68.9457 66.6885 66.6109C66.6839 64.3184 65.2508 62.7658 63.1357 62.7517C60.8155 62.7376 59.2856 64.2503 59.2764 66.5663Z" fill="#C7D4F2"/>
<path d="M97.8885 103.998C97.2436 103.459 96.7928 103.081 96.3399 102.704C99.5268 98.9985 99.5039 96.4083 96.5048 95.2846C95.9851 96.6606 95.647 98.1401 94.9123 99.3673C93.7185 101.362 91.8256 102.219 89.5444 101.828C86.8709 101.371 85.5456 99.432 86.1404 96.6994C86.7102 94.0768 88.1022 91.9675 90.4335 90.6476C91.8986 89.8172 93.4472 89.7698 94.9165 90.5958C96.223 91.3313 97.5107 92.1271 98.7045 93.0394C101.048 94.8317 101.693 98.1919 100.193 100.84C99.5707 101.936 98.7087 102.889 97.8885 104V103.998ZM91.0721 99.3587C93.1592 99.4989 94.6577 96.7188 94.5784 94.9158C94.5659 94.6138 94.2987 94.1846 94.0399 94.0617C93.2949 93.708 92.5101 93.3219 91.7129 93.2335C89.9159 93.0373 88.144 94.7627 88.0835 96.6045C88.0334 98.1164 89.4004 99.3716 91.0763 99.3565L91.0721 99.3587Z" fill="#C7D4F2"/>
<path d="M93 84.8237C93.5993 83.8142 94.1131 82.9522 94.6805 82C97.7031 84.408 100.666 86.769 103.728 89.2118C104.081 88.6692 104.435 88.1225 104.841 87.4959C105.178 87.801 105.538 88.0426 105.779 88.3764C105.939 88.5996 106.062 89.0132 105.966 89.2385C105.447 90.4732 104.853 91.6772 104.236 93C100.469 90.2582 96.7633 87.5635 93 84.8258V84.8237Z" fill="#C7D4F2"/>
<path d="M20 87.9144C20.1259 86.0429 20.8175 84.4752 22.2005 83.2552C23.4886 82.1205 24.8098 81.0186 26.1752 79.9735C27.9295 78.6311 29.7854 78.6901 31.5109 80.0697C33.3911 81.5717 34.5201 83.5591 34.9111 85.8723C35.2558 87.9188 34.6129 89.6963 32.7194 90.8354C31.3098 91.6837 29.9113 92.5604 28.4421 93.2951C25.17 94.9326 21.9111 93.6405 20.5899 90.2145C20.3071 89.4798 20.1944 88.6818 20.0022 87.9122L20 87.9144ZM32.5493 85.5269C32.5228 83.2684 30.3532 81.3378 28.716 82.337C26.6149 83.6204 24.6751 85.2186 22.8545 86.8824C21.847 87.8029 22.1431 89.4405 23.1307 90.5599C23.9769 91.5219 25.1081 91.7056 26.4183 90.9447C28.062 89.9893 29.6705 88.966 31.259 87.9188C32.092 87.37 32.5935 86.5741 32.5515 85.5269H32.5493Z" fill="#C7D4F2"/>
<path d="M39.1349 92C39.7867 93.1402 40.3806 94.1761 41 95.2571C36.9832 97.1014 33.0728 98.9006 29.0029 100.771C29.6431 101.892 30.2486 102.954 30.9304 104.147C30.2671 104.443 29.6916 104.699 29.0191 105C27.7017 103.137 26.4005 101.295 25 99.3131C29.754 96.8525 34.4225 94.4393 39.1372 92H39.1349Z" fill="#C7D4F2"/>
<path d="M63.0692 30.7577C63.0692 29.7102 62.9177 28.6345 63.0974 27.6196C63.6948 24.2208 66.6386 22.3779 70.011 23.1907C72.9028 23.8883 74.641 25.692 75.1431 28.6453C75.4505 30.4556 75.7925 32.268 75.9743 34.0935C76.167 36.0341 75.2687 37.5227 73.4938 38.2464C70.7534 39.3656 67.9958 39.2721 65.4048 37.7379C63.7381 36.7512 63.0974 35.1279 63.0173 33.2568C62.9826 32.4266 63.0108 31.5922 63.0108 30.7598C63.0303 30.7598 63.0497 30.7598 63.0714 30.7598L63.0692 30.7577ZM66.0628 29.1278C66.1775 30.5577 66.2273 32.5157 66.5174 34.4347C66.7966 36.2688 68.5239 37.1337 70.7404 36.7556C72.0283 36.5361 72.8682 35.3952 72.7015 33.9522C72.4742 31.9833 72.2188 30.0144 71.8963 28.0608C71.5738 26.0962 70.2447 25.0183 68.5001 25.1857C66.8161 25.3465 66.0195 26.4613 66.0606 29.1278H66.0628Z" fill="#C7D4F2"/>
<path d="M52.2231 27.6062H49.5449C49.8797 25.5813 51.119 24.3747 52.8199 23.5961C54.3129 22.9135 55.8952 22.8488 57.4838 23.2412C60.5654 24.0053 61.6695 27.1658 59.6484 29.6311C58.7086 30.7772 57.5878 31.7854 56.4733 32.7708C55.2548 33.8458 53.9511 34.8228 52.4498 36.0315H61C60.9626 36.7684 60.9335 37.3445 60.9002 38H48C48 36.9542 48.3535 36.1692 49.2538 35.4908C51.4101 33.8667 53.4894 32.1382 55.5605 30.4035C56.1364 29.9213 56.6396 29.3201 57.0659 28.6959C57.9351 27.4309 57.8748 26.2159 56.9973 25.5062C56.1032 24.7839 54.2214 24.9091 53.3668 25.8339C52.9343 26.3015 52.6577 26.9173 52.2252 27.6021L52.2231 27.6062Z" fill="#C7D4F2"/>
<path d="M54.7513 123.946C53.2088 122.909 51.6663 121.873 50.0818 120.807C50.596 119.906 51.0913 119.762 51.9307 120.362C53.9056 121.773 55.9475 123.079 57.9622 124.428C57.9748 124.55 57.9874 124.67 58 124.792C57.3914 125.006 56.7954 125.327 56.17 125.414C54.6569 125.628 53.0997 125.588 51.6201 125.933C50.6401 126.162 49.6327 126.722 48.8793 127.418C48.0399 128.192 47.4334 128.176 46.6716 127.477C46.4953 127.315 46.2791 127.2 46 127.008C48.4008 124.252 51.5488 124.204 54.7513 123.944V123.946Z" fill="#C7D4F2"/>
<path d="M46.087 119.259C45.5828 119.015 45.2356 118.846 44.8904 118.677C44.9059 118.558 44.9215 118.442 44.937 118.323C46.3411 117.322 47.4562 118.96 49 119.026C46.8841 121.139 44.9932 123.041 43.0771 124.912C42.9452 125.04 42.5961 125.018 42.4138 124.912C41.9581 124.655 41.5392 124.31 41 123.925C42.6912 122.373 44.3241 120.876 46.087 119.257V119.259Z" fill="#C7D4F2"/>
<path d="M75.7381 125.537C75.3675 125.284 75.0809 125.089 74.7491 124.861C75.5334 124.204 76.3522 123.623 77.0136 122.918C77.3282 122.581 77.339 122.007 77.4876 121.542C76.9059 121.422 76.1518 121.034 75.7769 121.235C74.7254 121.796 73.8248 122.6 72.8768 123.32C72.7755 123.397 72.6721 123.562 72.6936 123.665C73.019 125.198 71.3815 125.424 70.6899 126.35C69.7634 125.773 69.9271 125.075 70.2762 124.419C71.3923 122.328 73.3465 121.002 75.4559 119.85C75.9708 119.568 76.5676 119.408 77.1364 119.215C78.0759 118.898 79.1359 118.854 79.6875 119.623C80.043 120.118 79.8017 120.971 79.8275 121.702C79.862 121.69 80.127 121.554 80.4114 121.505C81.1375 121.379 81.8809 121.17 82.6005 121.217C83.6994 121.29 84.2682 122.194 83.876 123.14C83.652 123.682 83.3374 124.218 82.9431 124.668C81.1289 126.733 78.9226 128.307 76.0548 128.948C75.514 129.068 74.9129 128.965 74.2945 128.802C75.2232 128.084 75.7079 127.066 77.2442 127.016C79.0497 126.959 80.3748 125.826 81.2022 124.342C81.3293 124.114 81.269 123.568 81.0966 123.475C80.6721 123.247 80.0473 122.985 79.6552 123.117C78.802 123.4 78.0198 123.887 77.2549 124.356C76.7249 124.681 76.2724 125.115 75.7381 125.535V125.537Z" fill="#C7D4F2"/>
<path d="M9.05682 60.4742C9.91257 60.6743 10.0536 61.2063 9.76962 61.8769C9.41225 62.7233 9.07807 63.6203 8.56037 64.3304C7.81087 65.3571 6.77355 65.1878 6.36596 63.9281C6.05881 62.9739 5.95643 61.8637 6.01632 60.8414C6.16119 58.3857 7.29511 56.3696 8.5256 54.4306C9.14375 53.4566 9.76576 52.4893 10.4515 51.4165C9.61702 50.9768 8.84627 50.57 7.977 50.1127C8.08131 49.4884 8.19335 48.8244 8.33243 48C9.53395 48.6046 10.6698 49.1498 11.7747 49.7654C11.9293 49.8511 12.0471 50.3348 11.9814 50.5546C11.7689 51.267 11.5352 51.9969 11.1759 52.619C10.1366 54.4174 8.94285 56.108 7.98666 57.9614C7.48828 58.9287 7.27772 60.1291 7.11353 61.2569C7.04785 61.7032 7.46316 62.2374 7.65827 62.7321C7.99438 62.3517 8.37107 62.0088 8.65116 61.5823C8.85206 61.2767 8.92353 60.8612 9.06068 60.4764L9.05682 60.4742Z" fill="#C7D4F2"/>
<path d="M10 65.8207C11.3434 60.7689 12.6382 55.9049 13.9417 51.0049C14.9399 50.9501 15.1479 51.353 14.9111 52.1988C13.9528 55.6053 13.01 59.0161 12.118 62.4374C11.9875 62.9352 11.4585 63.5237 12.3394 64.0784C12.5806 64.2303 12.1977 65.2765 12.0871 66C11.3678 65.9388 10.7658 65.8861 10 65.8207Z" fill="#C7D4F2"/>
<path d="M115.282 66.1315C117.605 66.1146 117.964 65.7395 117.826 63.3015C117.783 62.5249 117.605 61.7579 117.485 60.9741C117.29 61.0245 117.184 61.0197 117.153 61.0654C115.924 62.936 114.59 63.0731 113.327 61.2481C111.82 59.0674 110.937 56.6053 111.565 53.9148C112.13 51.4984 113.943 51.0752 115.71 52.8424C117.189 54.3187 117.685 56.2831 118.245 58.1898C118.704 59.7526 119.154 61.3443 119.344 62.9529C119.483 64.1454 119.32 65.4149 119.053 66.5955C118.923 67.1605 118.329 67.776 117.786 68.0598C116.199 68.8869 115.496 68.305 115.28 66.129L115.282 66.1315ZM112.76 55.658C113.207 56.9347 113.539 58.072 114.01 59.1491C114.318 59.8584 114.864 60.5124 115.783 60.1349C116.684 59.7646 116.807 58.8967 116.569 58.108C116.251 57.0501 115.84 55.9946 115.28 55.0497C115.008 54.5904 114.188 54.0302 113.835 54.1504C113.371 54.3115 113.125 55.0977 112.757 55.658H112.76Z" fill="#C7D4F2"/>
<path d="M114.321 48C114.552 48.5939 114.735 49.0675 114.973 49.6831C113.511 50.1038 112.121 50.5054 110.642 50.9309C110.418 50.3274 110.231 49.8201 110 49.1998C111.501 48.7838 112.893 48.3967 114.321 48Z" fill="#C7D4F2"/>
<path d="M23.1683 36.8102C24.4884 35.2786 25.811 33.747 27.1311 32.2154C27.5231 31.761 27.8886 31.2777 28.3214 30.8642C28.5018 30.6934 28.8288 30.6766 29.0885 30.5901C29.0741 30.9002 29.1775 31.3018 29.0212 31.5037C28.2613 32.4847 27.4365 33.4152 26.6262 34.3553C24.5413 36.7741 22.4517 39.1905 20.362 41.6069C20.2418 41.5901 20.1192 41.5709 19.9989 41.554C19.9989 41.0996 19.8787 40.6019 20.0182 40.1956C20.8766 37.7046 21.8337 35.2497 22.6633 32.7492C22.8533 32.1769 22.6609 31.4797 22.6441 30.8425C22.0285 31.1383 21.2662 31.2945 20.8261 31.7586C19.7032 32.9391 18.5297 34.0259 18.4552 35.9807C18.4215 36.8968 17.1254 37.7671 16.404 38.6592C16.2693 38.6207 16.1347 38.5822 16 38.5413C16.125 37.7671 16.0818 36.9136 16.4016 36.2307C17.8708 33.0858 20.0855 30.5372 22.9206 28.5295C23.0817 28.4141 23.2524 28.2674 23.4376 28.2338C23.9594 28.1376 24.813 27.8731 24.9501 28.0727C25.2579 28.5247 25.4262 29.2821 25.2723 29.8014C24.6592 31.8644 23.8993 33.8841 23.1971 35.923C23.1106 36.173 23.0504 36.4327 22.9759 36.6876C23.0408 36.7284 23.1033 36.7693 23.1683 36.8126V36.8102Z" fill="#C7D4F2"/>
<path d="M108.316 36.6683C106.945 37.7118 105.839 38.5557 104.689 39.4309C105.048 39.8829 105.394 40.2243 105.617 40.6355C105.755 40.8856 105.704 41.2366 105.738 41.542C105.456 41.4458 105.108 41.4241 104.908 41.2414C104.538 40.9 104.256 40.4624 103.903 40.0224C103.473 40.3542 103.136 40.6139 102.715 40.9384C102.087 40.1522 101.501 39.4141 100.873 38.6254C101.251 38.2984 101.57 38.0219 101.982 37.6637C100.556 35.8243 99.1514 34.0114 97.7471 32.1985C97.7952 32.0927 97.8409 31.9893 97.8889 31.8835C98.3146 31.9172 98.7666 31.8715 99.161 31.999C101.289 32.6818 103.468 33.2637 105.492 34.1797C106.541 34.6534 107.306 35.7498 108.313 36.6707L108.316 36.6683ZM100.731 34.0499C100.681 34.122 100.63 34.1918 100.58 34.2639C101.304 35.1824 102.03 36.1008 102.806 37.0842C103.521 36.5456 104.158 36.0624 104.947 35.4661C103.386 34.9419 102.059 34.4971 100.734 34.0499H100.731Z" fill="#C7D4F2"/>
<path d="M100.329 28.7121C98.7612 29.9432 97.2631 31.1189 95.6255 32.4053C95.1158 31.7585 94.5964 31.0997 94 30.3423C95.0845 29.5032 96.08 28.7218 97.0876 27.9548C97.5372 27.6109 98.0711 27.3344 97.542 26.6348C97.4483 26.5097 97.5733 26.2164 97.5974 26C97.8258 26.089 98.1216 26.1178 98.2683 26.2813C98.956 27.0459 99.6028 27.849 100.329 28.7121Z" fill="#C7D4F2"/>
</svg>
