<svg width="179" height="114" viewBox="0 0 179 114" fill="none" xmlns="http://www.w3.org/2000/svg">
<path d="M60.307 39.1533V54.2302M60.307 39.1533C60.307 30.9687 82.2044 28.2046 93.1531 27.8456C117.276 27.8456 125.102 34.6661 126 38.0764M60.307 39.1533L38.769 27.8456L93.1531 2L147.538 27.8456L126 38.0764M60.307 54.2302C60.1275 58.3585 66.4454 66.6149 93.1531 66.6149C104.102 66.0764 126 62.8456 126 54.2302M60.307 54.2302C88.3066 38.7226 115.769 47.7687 126 54.2302M126 54.2302V38.0764" stroke="#C7D4F2" stroke-width="2"/>
<path d="M122.769 16H157.539C159.748 16 161.539 17.7909 161.539 20V88.4615C161.539 90.6707 159.748 92.4615 157.539 92.4615H27.6924C25.4832 92.4615 23.6924 90.6707 23.6924 88.4615V20C23.6924 17.7909 25.4832 16 27.6924 16H63.5385" stroke="#C7D4F2" stroke-width="2"/>
<path d="M170.154 104.308V15.4614C170.154 11.5954 167.02 8.46143 163.154 8.46143H131.385H106.616M15.0771 104.308V15.4614C15.0771 11.5954 18.2112 8.46143 22.0771 8.46143H53.8464H79.6925" stroke="#C7D4F2" stroke-width="2"/>
<path d="M110.115 104.769H110.323L110.514 104.686L116.516 102.077H134.077H177.728C177.22 108.194 172.094 113 165.846 113H12.9231C6.67493 113 1.54929 108.194 1.04134 102.077H44.6923H71.3683L76.265 104.654L76.4837 104.769H76.7308H93.9615H110.115Z" stroke="#C7D4F2" stroke-width="2"/>
</svg>
