<svg width="116" height="174" viewBox="0 0 116 174" fill="none" xmlns="http://www.w3.org/2000/svg">
<path d="M28.3736 75.0508C23.6503 75.4404 20.0932 78.9123 18.3095 83.16C15.9839 88.6938 17.1365 94.8206 18.2513 100.499C20.4705 111.801 21.3178 124.42 14.2037 134.246C10.9622 138.722 6.28693 142.094 0.829584 143.142C0.21559 143.259 -0.110254 143.99 0.0338116 144.552C1.39214 149.899 3.6423 155.209 6.45501 159.933C8.56112 163.47 11.0891 166.78 14.533 169.086C17.4863 171.066 20.9096 172.341 24.3603 173.114C26.5179 173.596 28.7715 173.962 30.9873 174C31.8037 174.013 32.2359 173.7 32.8774 173.234C36.6505 170.497 40.0875 167.263 43.202 163.791C49.4826 156.795 54.4152 148.672 57.6498 139.825C58.1574 138.435 55.9518 137.839 55.4476 139.215C50.9884 151.427 42.8762 162.729 32.6029 170.6C32.1879 170.921 31.766 171.231 31.3338 171.534C31.2275 171.61 31.0697 171.683 30.9839 171.776C30.6409 172.152 31.104 171.083 31.4127 171.714C31.3749 171.634 30.2567 171.665 30.1572 171.659C29.1625 171.593 28.1712 171.479 27.1867 171.324C24.0996 170.828 21.0194 169.976 18.2135 168.569C14.6908 166.804 12.0221 164.208 9.81652 160.957C6.35894 155.868 3.75205 149.913 2.2325 143.935C1.96838 144.404 1.70085 144.876 1.43672 145.345C11.2812 143.459 18.3473 134.757 20.8444 125.372C22.3331 119.772 22.4463 113.873 21.8049 108.139C21.112 101.961 19.023 95.8308 19.2528 89.5764C19.4449 84.3185 22.484 77.8263 28.377 77.3401C29.8314 77.2195 29.8451 74.9267 28.377 75.0473L28.3736 75.0508Z" fill="#C7D4F2"/>
<path d="M51.2129 144.182C57.8416 140.921 63.5861 136.072 68.0316 130.165C72.5284 124.19 75.2738 117.289 76.7991 109.995C79.8256 95.5475 78.979 79.3027 89.0558 67.4316C93.8714 61.7595 100.606 56.2252 100.606 48.1114C100.606 46.6374 98.3238 46.634 98.3272 48.1114C98.3272 55.1128 92.401 60.1478 88.1578 64.9864C83.4313 70.3761 80.4905 76.5751 78.8316 83.5455C75.4281 97.848 76.2884 113.211 68.1241 126.033C63.7061 132.972 57.4166 138.582 50.0612 142.205C48.7417 142.853 49.8967 144.829 51.2129 144.185V144.182Z" fill="#C7D4F2"/>
<path d="M28.9455 95.2128C34.1361 92.617 38.7837 88.9413 42.5229 84.4661C41.9288 84.0023 41.3346 83.535 40.737 83.0713C38.3158 87.5811 38.5959 93.3854 41.5804 97.5664C41.939 98.0683 42.5673 98.314 43.1342 97.9782C43.626 97.6875 43.9025 96.9088 43.5406 96.4035C41.0272 92.8835 40.6345 88.0726 42.6971 84.2342C43.2879 83.1335 41.7785 81.801 40.9111 82.8393C37.2777 87.183 32.8316 90.7065 27.7913 93.2261C26.48 93.8803 27.6308 95.8704 28.9386 95.2163L28.9455 95.2128Z" fill="#C7D4F2"/>
<path d="M43.5475 95.0096C39.1915 98.2143 36.4808 103.183 36.2851 108.536C36.2307 110.058 38.6407 110.058 38.695 108.536C38.8581 104.09 41.1194 99.7295 44.7615 97.0512C45.2834 96.667 45.5479 96.0269 45.1928 95.4329C44.892 94.9278 44.0657 94.6219 43.5439 95.0096H43.5475Z" fill="#C7D4F2"/>
<path d="M45.9372 105.046C44.5273 106.365 43.0583 107.624 41.5629 108.842C39.1967 110.773 36.515 112.911 33.7872 114.056C34.2473 114.415 34.7107 114.774 35.1708 115.134C35.1708 115.083 35.1905 115.016 35.1807 114.969C35.1314 114.747 35.1215 115.258 35.1708 115.04C35.1905 114.949 35.2037 114.858 35.2234 114.768C35.276 114.523 35.3516 114.284 35.4337 114.046C35.46 113.975 35.4896 113.905 35.5159 113.834C35.4502 114.009 35.4436 113.992 35.5159 113.851C35.5981 113.68 35.6769 113.509 35.769 113.341C35.8577 113.176 35.953 113.015 36.0549 112.861C36.114 112.77 36.1732 112.683 36.2324 112.592C36.2652 112.545 36.5018 112.233 36.3375 112.441C36.6563 112.035 37.0047 111.652 37.3793 111.296C38.3127 110.41 39.4136 109.702 40.6394 109.077C42.6442 108.053 44.8198 107.409 47.002 106.915C48.3757 106.603 47.794 104.451 46.4203 104.76C42.7691 105.586 39.0258 106.892 36.1534 109.423C34.7961 110.618 33.6229 112.196 33.1595 113.992C33.0642 114.358 32.9854 114.754 32.9854 115.134C32.9854 115.788 33.6952 116.493 34.3689 116.211C37.491 114.902 40.2418 112.747 42.8677 110.622C44.4484 109.343 45.9996 108.017 47.4851 106.627C48.5236 105.653 46.9757 104.075 45.9372 105.046Z" fill="#C7D4F2"/>
<path d="M47.4512 107.722C52.5851 103.075 54.8195 96.2757 55.5906 89.5418C56.0464 85.5546 56.163 81.4362 56.0156 77.4283C55.8957 74.1425 54.1067 72.0937 50.8304 71.8069C46.8378 71.4614 42.4374 72.5947 38.7121 73.9352C37.3412 74.4293 37.9307 76.6509 39.3187 76.1534C41.2961 75.4416 43.3216 74.8819 45.3915 74.5191C47.2422 74.1943 49.3361 73.835 51.2108 74.1529C53.2499 74.4984 53.7091 75.915 53.7434 77.8256C53.7845 80.0473 53.7469 82.2758 53.668 84.4974C53.3904 92.2955 51.8654 100.64 45.8371 106.095C44.7438 107.087 46.3614 108.707 47.4512 107.722Z" fill="#C7D4F2"/>
<path d="M24.5798 78.0922C24.7907 76.0857 25.1988 74.1094 25.8041 72.1771C26.3609 70.3965 27.0112 68.3629 28.1387 66.8352C29.3285 65.2233 32.1369 65.1086 33.9873 64.7343C36.142 64.2992 38.3106 63.908 40.4791 63.5472C44.8854 62.8221 49.3125 62.2353 53.7465 61.7025C55.9323 61.4395 58.1217 61.1831 60.311 60.9336C62.068 60.7346 63.3408 60.9066 64.3161 62.468C65.3122 64.0632 65.5785 66.0056 65.7895 67.8267C66.0661 70.2413 66.1734 72.6695 66.1388 75.1009C66.118 76.5443 68.418 76.5477 68.4388 75.1009C68.4768 72.5919 68.3592 70.0862 68.0618 67.594C67.8405 65.7359 67.5603 63.9013 66.751 62.1847C66.0731 60.7447 64.9802 59.416 63.41 58.8596C61.4109 58.1514 58.9414 58.8461 56.9042 59.0855C51.8581 59.6757 46.8154 60.2962 41.7934 61.0752C39.2168 61.4766 36.6435 61.9217 34.0876 62.4276C31.9363 62.8525 29.1625 63.0413 27.3743 64.3937C25.5205 65.7932 24.6593 68.4607 23.9261 70.5415C23.0614 72.9898 22.5426 75.5191 22.2728 78.0922C22.1207 79.5289 24.4241 79.5188 24.5728 78.0922H24.5798Z" fill="#C7D4F2"/>
<path d="M65.3867 79.1617C64.8995 81.3562 64.4158 83.5508 63.9286 85.7488C63.5032 87.6773 63.191 89.7509 62.22 91.4927C61.2525 93.2346 59.5646 94.1746 57.88 95.0974C55.8215 96.2241 53.7562 97.3473 51.6943 98.4705C50.4008 99.1755 51.5536 101.163 52.847 100.458C55.005 99.2792 57.1664 98.1111 59.3176 96.9257C61.1565 95.913 62.9165 94.7656 64.0315 92.927C65.1019 91.1679 65.5205 89.1012 65.9631 87.114C66.5051 84.6671 67.0472 82.2203 67.5893 79.7769C67.9083 78.3357 65.7092 77.7205 65.3867 79.1651V79.1617Z" fill="#C7D4F2"/>
<path d="M33.2736 63.5485C37.6487 59.0505 39.8072 52.1102 46.6286 50.8098C50.4385 50.0854 54.5327 50.4062 58.394 50.3544C62.6732 50.2993 66.9627 50.1406 71.242 50.1854C72.2116 50.1958 72.4754 50.4441 72.7152 51.3651C72.9996 52.4517 73.2292 53.559 73.4553 54.6594C73.863 56.6566 74.209 58.671 74.4763 60.6924C75.0279 64.8662 75.2746 69.0884 75.2266 73.3001C75.2026 75.3456 75.2095 77.4636 74.8189 79.478C74.4729 81.2683 73.6883 82.8481 72.9208 84.4797C72.054 86.3183 71.3859 88.2603 70.7178 90.1782C68.717 95.9008 66.9388 101.696 65.0338 107.45C64.5679 108.853 66.7709 109.457 67.2334 108.06C69.0561 102.548 70.7692 96.9977 72.6673 91.5062C73.3628 89.4883 74.0378 87.4359 74.956 85.5076C75.8228 83.676 76.7067 81.8788 77.0664 79.8644C77.4364 77.7843 77.481 75.6492 77.5084 73.5381C77.5701 69.1401 77.2994 64.7455 76.7204 60.3854C76.4292 58.1812 76.0626 55.9874 75.6103 53.8108C75.2883 52.262 75.1444 49.9992 74 48.785C72.7358 47.4466 70.4026 47.8984 68.7752 47.9191C66.4694 47.9502 64.1636 47.9812 61.8578 48.0088C57.5237 48.064 53.1452 47.9398 48.8214 48.2434C44.7785 48.5262 41.2839 49.8577 38.5395 52.9312C36.0179 55.7494 34.3117 59.2023 31.6667 61.9204C30.6388 62.9759 32.2492 64.6006 33.2804 63.5451L33.2736 63.5485Z" fill="#C7D4F2"/>
<path d="M69.7847 91.5615C66.4183 91.2103 64.0502 94.5082 63.2257 97.4171C62.2069 101.025 62.626 104.905 64.2376 108.268C64.8748 109.593 66.8306 108.433 66.1968 107.111C64.9293 104.464 64.592 101.373 65.2871 98.5153C65.8016 96.3947 67.2394 93.5857 69.7847 93.8507C70.3946 93.9161 70.9193 93.2793 70.9193 92.7044C70.9193 92.0331 70.398 91.6235 69.7847 91.5581V91.5615Z" fill="#C7D4F2"/>
<path d="M59.9415 94.8728C58.6212 98.1036 59.6761 102.237 62.365 104.4C62.8511 104.791 63.513 104.886 63.9887 104.4C64.3852 103.994 64.4783 103.133 63.9887 102.738C62.858 101.832 62.2099 100.77 61.8686 99.4228C61.8238 99.25 61.7859 99.0807 61.7549 98.9043C61.7411 98.8267 61.7273 98.7491 61.7169 98.6715C61.748 98.869 61.71 98.6115 61.7066 98.5763C61.6721 98.2059 61.6617 97.8321 61.6824 97.4617C61.6859 97.3841 61.6928 97.3065 61.6997 97.2289C61.6997 97.236 61.7376 96.915 61.7204 97.0349C61.7031 97.1654 61.7514 96.8692 61.7549 96.8445C61.7686 96.7669 61.7859 96.6928 61.8031 96.6152C61.8893 96.2307 62.0099 95.8604 62.1582 95.4971C62.396 94.9116 61.8996 94.2062 61.3584 94.0545C60.6965 93.8676 60.1863 94.2873 59.9484 94.8728H59.9415Z" fill="#C7D4F2"/>
<path d="M46.768 50.3032C47.9476 45.4736 49.3187 40.6925 50.8984 35.984C52.3756 31.5837 53.8117 26.8926 56.1299 22.8593C57.231 20.9413 58.6534 19.366 60.5305 18.2062C62.4932 16.991 64.6679 16.1567 66.781 15.26C71.5645 13.2277 76.3481 11.192 81.1317 9.1598C86.5204 6.8679 91.9126 4.576 97.3014 2.2841C96.8227 1.91366 96.3406 1.54321 95.8619 1.17276C95.7422 3.95628 92.8221 5.99546 90.5893 7.08948C88.7703 7.97923 85.3545 9.17711 83.7748 7.25911C82.8379 6.12009 81.2342 7.75766 82.1643 8.88976C84.4176 11.6248 88.784 10.4615 91.4852 9.20134C94.6207 7.74034 97.9716 4.93259 98.1323 1.17623C98.1631 0.49766 97.3698 -0.22244 96.6928 0.0649133C86.6709 4.32674 76.649 8.5851 66.6271 12.8469C62.4248 14.6334 58.0584 16.1948 55.2409 20.0342C52.5055 23.756 51.0694 28.5959 49.5478 32.9132C47.6091 38.4179 45.9542 44.0195 44.5694 49.6939C44.2172 51.1341 46.4124 51.7469 46.7646 50.3067L46.768 50.3032Z" fill="#C7D4F2"/>
<path d="M94.0409 6.3607C94.9976 9.91305 90.6315 11.9052 88.085 13.1671C84.4842 14.9501 80.8801 16.7297 77.2794 18.5128C75.9469 19.1711 77.1193 21.1393 78.4483 20.4844C82.5013 18.4785 86.5855 16.5206 90.6142 14.4632C93.8948 12.7865 97.3738 9.83076 96.2779 5.75721C95.8952 4.33764 93.6617 4.94114 94.0444 6.36414L94.0409 6.3607Z" fill="#C7D4F2"/>
<path d="M76.842 16.489C75.6366 21.1324 71.6576 24.8099 66.8358 25.7965C66.21 25.9242 65.8473 26.6383 66.0109 27.2075C66.1887 27.8354 66.8394 28.1389 67.4652 28.0078C73.055 26.8625 77.7274 22.4641 79.1249 17.0962C79.4982 15.6645 77.2154 15.0505 76.842 16.4856V16.489Z" fill="#C7D4F2"/>
<path d="M67.0867 23.9261C65.4178 32.1468 63.1411 40.2171 60.2767 48.074C59.7663 49.4762 61.9255 50.0811 62.4325 48.6929C65.2969 40.8359 67.5736 32.7657 69.2425 24.545C69.538 23.0834 67.3855 22.461 67.0867 23.9261Z" fill="#C7D4F2"/>
<path d="M84.138 16.3401C80.2969 16.9696 77.3248 19.8369 75.6354 23.1661C73.814 26.7484 72.7537 31.0596 72.5834 35.056C72.42 38.8881 73.5776 42.6416 76.4593 45.3206C79.3827 48.0408 83.3211 49.3136 87.2908 49.4607C91.6046 49.6215 96.3773 48.7046 100.191 46.6722C103.503 44.9066 106.037 41.9709 107.692 38.676C110.699 32.6917 112.041 24.1446 107.869 18.3417C105.433 14.9543 101.522 13.4215 97.4097 13.2196C95.1885 13.1101 92.9464 13.3667 90.7703 13.7876C88.6464 14.1982 86.5956 14.8551 85.0035 16.364C83.9294 17.3836 85.5666 18.9918 86.6407 17.9756C88.9384 15.7926 93.1862 15.4984 96.2174 15.4744C99.4953 15.4471 102.867 16.2237 105.175 18.6633C109.343 23.0668 108.519 30.3411 106.573 35.5145C105.45 38.5049 103.649 41.3516 101.101 43.3635C98.2892 45.5807 94.5732 46.5695 91.0554 47.0109C84.3222 47.856 76.1499 45.3856 75.0132 37.8514C74.4257 33.9713 75.5068 29.6431 76.8833 26.0196C78.2286 22.4783 80.7592 19.1902 84.7532 18.5367C86.2167 18.2972 85.5979 16.1006 84.138 16.3401Z" fill="#C7D4F2"/>
<path d="M72.0377 34.5155C70.5465 36.1362 68.2342 37.0227 67.2687 39.0934C66.5781 40.5754 66.5437 42.5311 67.8459 43.7018C69.581 45.2683 72.5291 44.2127 74.5219 43.7796C77.2879 43.1807 80.0194 42.4397 82.7235 41.6074C88.0698 39.9596 93.2924 37.9565 98.4978 35.9298C103.013 34.1737 107.655 32.465 111.537 29.5248C113.197 28.2695 116.052 26.2292 115.337 23.8201C114.509 21.0422 111.235 21.2182 108.981 21.7765C107.555 22.1317 108.16 24.304 109.589 23.9487C110.541 23.7118 111.829 23.2957 112.699 23.9351C113.75 24.7066 112.475 25.7149 111.84 26.3172C110.493 27.5995 108.957 28.6619 107.338 29.5857C104.002 31.4838 100.364 32.8034 96.7902 34.1906C88.9562 37.229 81.033 40.1829 72.7593 41.8543C71.9072 42.0269 70.0827 42.6901 69.3577 42.0269C68.8561 41.5667 69.0794 40.6295 69.3096 40.1017C70.0758 38.3625 72.3916 37.4828 73.6561 36.1091C74.6422 35.0365 73.0307 33.4395 72.0377 34.5155Z" fill="#C7D4F2"/>
<path d="M85.6439 48.7975C81.1551 51.0915 77.4379 54.8198 75.1864 59.2896C74.9045 59.8501 75.0349 60.5428 75.6057 60.8735C76.1237 61.1729 76.927 61.0197 77.2089 60.4592C79.2983 56.3097 82.6596 52.9261 86.8242 50.7956C88.1631 50.1099 86.9793 48.1117 85.6404 48.794L85.6439 48.7975Z" fill="#C7D4F2"/>
<path d="M55.1991 97.5429C56.0709 104.411 54.4204 111.339 50.4956 117.116C49.6824 118.317 51.6672 119.43 52.4769 118.24C56.5947 112.174 58.4072 104.752 57.4941 97.5429C57.3149 96.1386 55.0199 96.1219 55.2026 97.5429H55.1991Z" fill="#C7D4F2"/>
<path d="M47.4204 125.04L45.5063 127.874C45.1906 128.342 45.3933 129.072 45.9018 129.332C46.4534 129.613 47.0781 129.45 47.4137 128.95L49.3279 126.116C49.6435 125.648 49.4409 124.918 48.9324 124.659C48.3808 124.377 47.756 124.54 47.4204 125.04Z" fill="#C7D4F2"/>
<path d="M6.15647 142.329C5.48381 145.453 4.81117 148.58 4.1417 151.704C3.95679 152.563 5.2033 152.928 5.3882 152.069C6.06086 148.945 6.7335 145.818 7.40298 142.694C7.58788 141.835 6.34137 141.47 6.15647 142.329Z" fill="#C7D4F2"/>
<path d="M9.22419 140.874C8.34961 147.291 7.4787 153.704 6.60412 160.121C6.47918 161.039 7.96745 161.029 8.09239 160.121C8.96697 153.708 9.83788 147.291 10.7125 140.874C10.8374 139.956 9.34913 139.966 9.22419 140.874Z" fill="#C7D4F2"/>
<path d="M14.2736 138.207C12.475 146.531 11.2877 154.969 10.7223 163.451C10.6658 164.324 12.0969 164.32 12.1535 163.451C12.7082 155.087 13.8779 146.776 15.6517 138.566C15.8355 137.713 14.4574 137.347 14.2701 138.203L14.2736 138.207Z" fill="#C7D4F2"/>
<path d="M16.7278 149.765C16.1041 153.154 15.4804 156.539 14.8567 159.928C14.6954 160.809 16.0934 161.186 16.2583 160.301C16.882 156.913 17.5057 153.527 18.1294 150.138C18.2907 149.257 16.8927 148.881 16.7278 149.765Z" fill="#C7D4F2"/>
<path d="M21.4313 151.232C20.7841 152.209 20.4871 153.302 20.6689 154.383C20.6999 154.563 20.7487 154.711 20.9304 154.843C21.0855 154.955 21.3427 155.042 21.5643 155.032C22.0032 155.02 22.5218 154.743 22.4642 154.38C22.4243 154.148 22.4066 153.913 22.411 153.682C22.411 153.566 22.4198 153.447 22.4331 153.331C22.442 153.274 22.4509 153.216 22.4598 153.158C22.4686 153.11 22.4642 153.126 22.4509 153.206C22.4553 153.174 22.4642 153.139 22.473 153.106C22.5262 152.875 22.5971 152.65 22.6947 152.425C22.7434 152.312 22.7967 152.203 22.8543 152.093C22.872 152.058 22.9341 151.913 22.8676 152.065C22.8942 152.003 22.9429 151.942 22.9828 151.881C23.1867 151.576 23.1114 151.164 22.6592 150.991C22.2558 150.836 21.6485 150.897 21.4313 151.225V151.232Z" fill="#C7D4F2"/>
<path d="M25.5645 152.452V153.491C25.5645 153.676 25.6583 153.867 25.8053 153.998C25.9523 154.13 26.185 154.218 26.3891 154.208C26.6014 154.201 26.8259 154.137 26.9729 153.998C27.1199 153.857 27.2137 153.686 27.2137 153.491V152.452C27.2137 152.267 27.1199 152.076 26.9729 151.945C26.83 151.821 26.5932 151.725 26.3891 151.735C26.1768 151.743 25.9523 151.806 25.8053 151.945C25.6583 152.087 25.5645 152.257 25.5645 152.452Z" fill="#C7D4F2"/>
</svg>
