<svg width="138" height="134" viewBox="0 0 138 134" fill="none" xmlns="http://www.w3.org/2000/svg">
<path d="M61.7328 25.8961C42.8039 28.2524 27.0765 42.4512 21.6944 60.6178C16.4099 78.4426 22.4511 99.2748 38.3777 109.652C53.1124 119.252 72.733 117.694 87.7769 109.673C104.733 100.63 118.023 81.7268 114.102 61.8835C110.054 41.4094 89.8272 26.8281 69.629 25.6601C66.9929 25.5095 64.3567 25.595 61.7369 25.9002C60.0242 26.0955 60.0079 28.8059 61.7369 28.6065C81.1336 26.3723 102.072 37.4904 109.505 55.9338C113.264 65.2612 112.836 75.598 108.5 84.6609C104.737 92.5193 98.8055 99.2545 91.6334 104.171C78.3958 113.242 60.2235 116.843 45.1593 110.238C28.9519 103.133 20.3398 84.8278 22.9067 67.6419C25.4941 50.3218 38.2354 34.9103 55.1628 29.9779C57.3148 29.3512 59.5157 28.8873 61.7409 28.6106C63.4455 28.3989 63.4699 25.6886 61.7409 25.9043L61.7328 25.8961Z" fill="#C7D4F2"/>
<path d="M47.6974 32.2975C53.0877 23.0961 55.8866 12.5518 55.7564 1.88546C55.7361 0.111121 53.222 0.184374 53.0511 1.88546C52.4205 8.10379 57.8189 13.2315 63.5346 14.5175C70.7026 16.1331 77.7812 12.21 83.4114 8.19332C82.7483 7.68462 82.0852 7.17185 81.4221 6.66315C79.6037 13.6303 84.3064 20.6218 90.6445 23.3118C98.3047 26.5675 107.1 23.4665 113.491 18.8719L111.64 17.0202C108.414 24.085 107.499 33.2864 112.816 39.6349C117.022 44.6527 125.097 46.8381 130.703 42.8702C130.158 42.1621 129.609 41.454 129.064 40.7419C123.539 45.9713 118.975 53.7686 120.761 61.6351C122.311 68.4801 129.088 74.202 136.268 72.6799C135.923 71.8538 135.573 71.0318 135.227 70.2057C129.454 73.1154 124.219 77.6164 121.562 83.6231C118.954 89.5199 119.048 96.662 122.693 102.111C123.401 101.566 124.109 101.016 124.821 100.471C120.277 96.8452 113.926 97.8422 109.578 101.31C104.452 105.395 102.784 112.314 101.632 118.442C102.458 118.337 103.28 118.227 104.106 118.121C100.917 110.604 92.0806 106.401 84.221 108.407C82.5327 108.838 83.2487 111.451 84.941 111.02C91.7307 109.286 99.0533 113.083 101.767 119.488C102.214 120.546 104.037 120.253 104.24 119.167C105.216 113.974 106.429 108.22 110.273 104.313C113.377 101.159 119.117 99.3683 122.905 102.392C124.003 103.271 125.96 102.14 125.032 100.752C121.753 95.8522 121.717 89.3897 124.288 84.1643C126.859 78.9349 131.468 75.1339 136.594 72.5538C138.026 71.8335 136.988 69.7743 135.552 70.0795C129.519 71.3573 124.011 65.7332 123.214 60.0683C122.274 53.382 126.334 47.0619 130.98 42.6668C132.074 41.6331 130.614 39.6349 129.34 40.5384C124.691 43.8307 118.173 41.9139 114.736 37.7263C110.326 32.3544 111.29 24.2926 113.983 18.3917C114.48 17.3011 113.353 15.661 112.132 16.54C106.612 20.512 99.2893 23.4542 92.4996 21.1427C87.0198 19.2788 82.4961 13.3007 84.042 7.38755C84.3186 6.32946 83.0575 5.14113 82.0526 5.85738C77.236 9.29211 71.2599 12.9425 65.0683 12.0594C60.1255 11.3554 55.2234 7.21255 55.7645 1.88546H53.0592C53.1813 12.092 50.5248 22.1276 45.3705 30.9301C44.4877 32.4358 46.8269 33.8032 47.7097 32.2975H47.6974Z" fill="#C7D4F2"/>
<path d="M68.0342 25.6722C60.7197 28.0285 54.3328 32.6312 49.7358 38.7885C45.1348 44.9498 41.3514 54.2569 44.9436 61.7613C46.3593 64.7198 49.3778 65.9285 52.3557 66.7547C53.987 67.2064 55.6631 67.5767 57.2293 68.2278C57.1357 68.1912 57.9982 68.5615 57.9941 68.5778C57.99 68.59 57.5669 67.9592 57.5832 67.9674C57.4002 67.886 57.7988 67.7313 57.5466 67.9999C57.3391 68.2197 57.1927 68.879 57.0503 69.1516C55.9153 71.3289 54.4467 73.3189 53.3768 75.5368C52.5062 77.3396 51.7414 79.8953 54.1619 80.872C55.419 81.3807 56.8347 81.0552 58.1405 80.9819C59.2878 80.9209 60.3699 80.9982 60.3576 82.4226C60.3495 83.269 59.4382 83.9161 58.8117 84.4614C57.1967 85.8695 55.5735 87.2491 54.0521 88.7589C52.8113 89.9879 54.7274 91.9006 55.9681 90.6757C57.3432 89.3124 58.7874 88.0386 60.26 86.7811C61.0736 86.0852 61.9727 85.373 62.53 84.437C63.5796 82.6708 63.0426 79.8953 61.2404 78.8169C60.138 78.1576 58.7751 78.2146 57.5425 78.3164C56.9282 78.3652 56.2855 78.4791 55.6712 78.4343C55.4596 78.4181 55.2888 78.3896 55.0813 78.3407C55.24 78.3774 55.1749 78.5605 55.1749 78.4262C55.1627 76.8472 57.1398 74.3363 58.0185 72.8834C58.8891 71.4469 60.6465 69.233 60.2234 67.4221C59.9427 66.2134 58.6002 65.8593 57.5791 65.4727C55.9926 64.8745 54.3328 64.5042 52.7056 64.0402C51.2451 63.6251 49.6911 63.149 48.5317 62.1194C47.0997 60.8497 46.5871 58.7335 46.3878 56.9062C45.9199 52.6494 47.2665 48.3479 49.2395 44.6202C53.332 36.8961 60.439 30.9626 68.7502 28.2849C70.4018 27.7517 69.694 25.139 68.0301 25.6722H68.0342Z" fill="#C7D4F2"/>
<path d="M56.3545 90.57C57.4895 89.6462 59.0761 89.0439 60.4755 88.694C60.8986 88.5881 61.8668 88.2788 62.2777 88.5718C62.3753 88.641 62.1068 88.3765 62.2289 88.6451C62.4526 89.1212 62.0905 90.2526 61.9685 90.745C61.4152 92.9833 60.683 95.1117 61.3949 97.4273C62.0621 99.5964 63.7422 101.293 65.6379 102.465C74.7505 108.09 87.5 104.053 96.0959 99.3156C101.258 96.4709 105.88 92.6577 109.5 87.998C110.558 86.6388 108.654 84.7098 107.584 86.0813C101.079 94.4565 91.1287 100.211 80.6818 101.977C75.6577 102.828 68.8192 102.689 65.1213 98.583C63.3354 96.5971 63.7625 94.3669 64.4216 92.0228C64.8772 90.395 65.5119 87.9166 64.088 86.5818C61.6553 84.3028 56.501 86.9766 54.4303 88.6573C53.0797 89.7561 55.0039 91.6647 56.3464 90.5741L56.3545 90.57Z" fill="#C7D4F2"/>
<path d="M70.6501 93.5204C72.0617 91.7379 73.0869 89.7398 73.6036 87.5219C72.7777 87.6277 71.9559 87.7375 71.1301 87.8433C72.2448 89.5322 74.4863 90.277 76.3455 89.345C78.0826 88.4741 78.9613 86.2399 78.2778 84.4168L76.6139 86.0812C79.425 86.6998 82.4273 85.8289 84.38 83.6801C85.5516 82.3942 83.6396 80.4733 82.4639 81.7634C81.1702 83.1837 79.2297 83.8836 77.334 83.4644C76.4146 83.261 75.2837 84.0993 75.6701 85.1289C75.9061 85.7597 75.8206 86.5614 75.1413 86.9195C74.6002 87.2044 73.8191 86.9968 73.4734 86.4678C72.8672 85.5481 71.2766 85.5969 71 86.7893C70.5932 88.5311 69.8568 90.1874 68.7421 91.5955C68.2865 92.1693 68.1848 92.9507 68.7421 93.5123C69.214 93.9844 70.1985 94.0902 70.6582 93.5123L70.6501 93.5204Z" fill="#C7D4F2"/>
<path d="M77.9724 96.0597C78.8755 95.3557 79.7786 94.6557 80.6817 93.9517C80.934 93.7523 81.0764 93.3005 81.0764 92.9953C81.0764 92.6616 80.9299 92.2669 80.6817 92.039C80.4254 91.8029 80.0837 91.628 79.7257 91.6442C79.6078 91.6605 79.4857 91.6768 79.3677 91.6931C79.1399 91.7582 78.9406 91.8721 78.7697 92.043C77.8666 92.7471 76.9635 93.447 76.0604 94.1511C75.8081 94.3505 75.6658 94.8022 75.6658 95.1074C75.6658 95.4411 75.8122 95.8359 76.0604 96.0638C76.3167 96.2998 76.6584 96.4748 77.0164 96.4585C77.1343 96.4423 77.2564 96.426 77.3744 96.4097C77.6022 96.3446 77.8015 96.2307 77.9724 96.0597Z" fill="#C7D4F2"/>
<path d="M66.0408 80.3918C66.6673 81.9545 68.201 82.6585 69.8282 82.1295C71.6629 81.5313 72.2284 79.5331 72.4603 77.8279H69.8485C70.2635 79.3784 71.8175 80.2738 73.3878 79.9848C75.1249 79.6674 76.1419 78.007 76.1582 76.31C76.1785 74.0717 74.6123 72.452 73.3674 70.7672C72.0494 68.9806 70.8778 67.0232 70.1252 64.9314C68.5874 60.6543 69.0837 56.2591 72.4399 53.0157C75.9181 49.6583 80.8284 48.5391 85.3847 47.4607C87.0811 47.0578 86.361 44.4492 84.6646 44.848C77.521 46.5409 68.5386 49.3042 66.8056 57.5817C66.0245 61.3095 67.0171 65.086 68.7135 68.415C69.58 70.112 70.6581 71.6666 71.8216 73.1723C72.4237 73.9537 73.2739 74.8693 73.4244 75.8867C73.4814 76.2652 73.5017 76.9733 73.1071 77.2053C72.8874 77.3355 72.5498 77.4494 72.4562 77.1076C72.1348 75.9152 70.0316 75.7239 69.8444 77.1076C69.7631 77.718 69.7061 78.3895 69.4417 78.9511C69.3197 79.2116 69.2058 79.4272 68.9454 79.5493C68.7379 79.6511 68.563 79.4476 68.6484 79.6674C68.0097 78.068 65.3899 78.768 66.0367 80.3877L66.0408 80.3918Z" fill="#C7D4F2"/>
<path d="M74.8279 65.9693C75.373 62.209 76.6707 58.2575 79.7177 55.775C82.2278 53.728 86.422 52.9995 89.0785 55.1768C89.6439 55.6407 90.4413 55.7302 90.9946 55.1768C91.4706 54.7006 91.5641 53.728 90.9946 53.26C87.4716 50.3747 82.2766 50.6148 78.6397 53.2153C74.7588 55.9866 72.8833 60.6707 72.2202 65.2531C72.1145 65.9775 72.3992 66.71 73.164 66.9176C73.7986 67.0926 74.7221 66.7019 74.8279 65.9734V65.9693Z" fill="#C7D4F2"/>
<path d="M73.9814 66.7384C78.1634 67.5605 82.5855 66.8076 86.2102 64.5408C89.6559 62.388 93.2439 58.2371 91.2465 53.964C90.9373 53.3006 89.9854 53.1338 89.3955 53.4797C88.7161 53.8785 88.5982 54.668 88.9114 55.3314C89.5582 56.711 88.773 58.3429 87.9472 59.462C86.9871 60.7643 85.6203 61.7857 84.2168 62.5712C81.3528 64.1746 77.9234 64.7606 74.6974 64.1257C72.9969 63.792 72.2687 66.4006 73.9773 66.7384H73.9814Z" fill="#C7D4F2"/>
<path d="M34.7691 74.5074C35.9855 75.9765 38.1782 76.298 39.9316 75.7649C41.8477 75.1829 43.2675 73.6975 44.5611 72.2447C45.033 71.7156 45.1225 70.8448 44.5611 70.3279C44.0485 69.8559 43.1494 69.7623 42.645 70.3279C42.1202 70.918 41.5955 71.5081 41.0097 72.0371C40.8632 72.1674 40.7167 72.2976 40.5621 72.4156C40.4523 72.5011 40.6679 72.3464 40.4726 72.4766C40.3994 72.5255 40.3302 72.5743 40.257 72.6231C40.078 72.7412 39.8909 72.8511 39.6997 72.9528C39.6224 72.9935 39.5451 73.0301 39.4678 73.0668C39.6306 72.9894 39.5207 73.0464 39.4149 73.083C39.2604 73.14 39.0976 73.1848 38.939 73.2255C38.8657 73.2418 38.7925 73.254 38.7193 73.2702C38.459 73.3272 38.8576 73.2702 38.6949 73.2743C38.5281 73.2784 38.3654 73.2987 38.1945 73.2946C38.1213 73.2946 38.048 73.2865 37.9748 73.2865C37.7104 73.2783 38.1132 73.3231 37.9545 73.2865C37.7959 73.2499 37.6372 73.2214 37.4826 73.1726C37.4134 73.1522 37.3483 73.1237 37.2792 73.1034C37.5558 73.197 37.3321 73.1196 37.2629 73.083C37.2019 73.0504 37.1409 73.0138 37.0799 72.9772C36.9578 72.8999 36.9212 72.8511 37.0513 72.9732C36.9171 72.8511 36.791 72.729 36.6771 72.5906C36.2215 72.0453 35.2248 72.086 34.761 72.5906C34.2281 73.1725 34.2769 73.9213 34.761 74.5074H34.7691Z" fill="#C7D4F2"/>
<path d="M42.6448 89.1537C42.9336 89.1822 42.6123 89.1375 42.8726 89.1823C43.0191 89.2067 43.1655 89.2352 43.3079 89.2677C43.5967 89.3328 43.8815 89.4102 44.1622 89.4997C44.7033 89.6747 45.0287 89.8253 45.582 90.1427C46.5787 90.7124 47.3394 91.3676 48.1246 92.3037C49.4996 93.9518 50.2278 96.1127 50.0569 98.3144C50 99.0428 50.72 99.6696 51.4116 99.6696C52.1927 99.6696 52.7093 99.0469 52.7662 98.3144C53.2259 92.4338 48.4134 87.0417 42.6489 86.4475C41.9207 86.3702 41.2942 87.123 41.2942 87.8027C41.2942 88.5962 41.9166 89.0805 42.6489 89.1578L42.6448 89.1537Z" fill="#C7D4F2"/>
<path d="M26.7467 26.368C28.081 28.3987 29.4154 30.4295 30.7538 32.4602C31.1443 33.0503 31.9702 33.3555 32.6048 32.9444C33.1947 32.566 33.5079 31.7236 33.0889 31.0928C31.7545 29.0621 30.4202 27.0314 29.0818 25.0006C28.6912 24.4106 27.8654 24.1053 27.2308 24.5163C26.6409 24.8948 26.3277 25.7372 26.7467 26.368Z" fill="#C7D4F2"/>
<path d="M15.7874 33.3353C18.9728 35.3579 22.154 37.3764 25.3394 39.399C25.9577 39.7897 26.8323 39.5292 27.1903 38.9147C27.5727 38.2636 27.3246 37.4537 26.7062 37.063C23.5209 35.0404 20.3396 33.0219 17.1543 30.9994C16.536 30.6087 15.6613 30.8691 15.3033 31.4836C14.9209 32.1348 15.1691 32.9446 15.7874 33.3353Z" fill="#C7D4F2"/>
<path d="M12.2727 47.5543C14.0668 48.0671 15.8649 48.5758 17.6589 49.0886C18.3383 49.2839 19.1641 48.8526 19.3227 48.1445C19.4855 47.4241 19.1071 46.6875 18.379 46.48C16.5849 45.9672 14.7868 45.4585 12.9927 44.9458C12.3134 44.7504 11.4875 45.1818 11.3289 45.8899C11.1662 46.6102 11.5445 47.3468 12.2727 47.5543Z" fill="#C7D4F2"/>
<path d="M2.62722 59.3155C5.83696 59.9015 9.04672 60.4834 12.2565 61.0695C12.9765 61.1997 13.7169 60.8741 13.9203 60.1253C14.0993 59.4701 13.6966 58.5911 12.9765 58.4608C9.76678 57.8748 6.55702 57.2929 3.34728 56.7068C2.62723 56.5766 1.88684 56.9022 1.68344 57.651C1.50444 58.3062 1.90716 59.1852 2.62722 59.3155Z" fill="#C7D4F2"/>
<path d="M3.51375 74.4342H8.87956C9.58741 74.4342 10.2668 73.8116 10.2343 73.079C10.2017 72.3465 9.6403 71.7239 8.87956 71.7239H3.51375C2.8059 71.7239 2.12654 72.3465 2.15908 73.079C2.19163 73.8116 2.75301 74.4342 3.51375 74.4342Z" fill="#C7D4F2"/>
<path d="M2.0248 91.3595C5.04334 90.0735 8.18392 89.0683 11.3733 88.3033C12.0852 88.1323 12.5083 87.3266 12.3171 86.6388C12.1178 85.9144 11.3652 85.5237 10.6533 85.6946C7.2279 86.5167 3.90021 87.6481 0.657922 89.0236C-0.0133162 89.3085 -0.163813 90.3015 0.173841 90.8753C0.580652 91.5712 1.3495 91.6485 2.0248 91.3595Z" fill="#C7D4F2"/>
<path d="M12.2438 96.304C10.8037 97.7243 9.35955 99.1445 7.91944 100.561C7.415 101.057 7.38245 101.985 7.91944 102.478C8.46457 102.978 9.2945 103.011 9.83556 102.478C11.2757 101.057 12.7199 99.637 14.16 98.2207C14.6644 97.7243 14.697 96.7964 14.16 96.304C13.6148 95.8034 12.7849 95.7709 12.2438 96.304Z" fill="#C7D4F2"/>
<path d="M20.2904 105.444C17.9187 108.582 15.5429 111.719 13.1712 114.861C12.7318 115.443 13.0776 116.375 13.6553 116.713C14.3509 117.12 15.0629 116.811 15.5063 116.229C17.878 113.091 20.2538 109.953 22.6255 106.812C23.0689 106.23 22.7191 105.298 22.1414 104.96C21.4457 104.553 20.7338 104.862 20.2904 105.444Z" fill="#C7D4F2"/>
<path d="M29.3383 115.012C27.8657 116.505 26.808 118.426 26.3768 120.481C26.2303 121.173 26.5802 121.979 27.3206 122.146C28 122.301 28.8298 121.942 28.9844 121.202C29.078 120.758 29.2 120.319 29.3546 119.891C29.3913 119.79 29.4278 119.692 29.4685 119.59C29.4888 119.541 29.5092 119.493 29.5295 119.444C29.3953 119.798 29.4685 119.59 29.5052 119.509C29.5987 119.301 29.7004 119.098 29.8062 118.898C30.0137 118.512 30.2496 118.137 30.5059 117.779C30.5466 117.726 30.5873 117.673 30.6239 117.616C30.5954 117.661 30.4449 117.84 30.5588 117.702C30.6279 117.621 30.693 117.535 30.7622 117.454C30.9168 117.271 31.0795 117.096 31.2503 116.925C31.7467 116.42 31.7914 115.508 31.2503 115.008C30.7134 114.515 29.8672 114.467 29.3343 115.008L29.3383 115.012Z" fill="#C7D4F2"/>
<path d="M38.9838 120.921C37.617 124.461 36.486 128.087 35.5911 131.775C35.1802 133.467 37.7919 134.192 38.2028 132.495C39.0937 128.808 40.2287 125.182 41.5956 121.641C41.86 120.958 41.3068 120.156 40.6518 119.977C39.887 119.765 39.2523 120.237 38.9879 120.921H38.9838Z" fill="#C7D4F2"/>
<path d="M52.5793 123.517V129.418C52.5793 130.126 53.2017 130.806 53.934 130.773C54.6663 130.741 55.2887 130.179 55.2887 129.418V123.517C55.2887 122.809 54.6663 122.13 53.934 122.162C53.2017 122.195 52.5793 122.756 52.5793 123.517Z" fill="#C7D4F2"/>
<path d="M63.8114 125.507L65.699 132.947C65.8739 133.634 66.6794 134.115 67.3628 133.891C68.0707 133.663 68.4938 132.963 68.3067 132.226C67.6761 129.748 67.0496 127.265 66.4191 124.787C66.2441 124.099 65.4387 123.619 64.7552 123.843C64.0474 124.071 63.6242 124.771 63.8114 125.507Z" fill="#C7D4F2"/>
<path d="M75.9749 122.5C77.4029 124.828 78.8267 127.156 80.2546 129.483C80.6248 130.086 81.4831 130.371 82.1056 129.968C82.7117 129.577 82.9884 128.763 82.5897 128.116C81.1618 125.788 79.7379 123.46 78.31 121.133C77.9398 120.53 77.0814 120.245 76.459 120.648C75.8529 121.039 75.5763 121.853 75.9749 122.5Z" fill="#C7D4F2"/>
<path d="M75.7026 58.05C75.8572 59.6371 76.6749 60.915 77.9727 61.8266C79.1646 62.6649 80.682 62.9742 82.1099 62.7504C83.4931 62.5347 84.7705 61.6068 85.397 60.3493C86.0275 59.0796 86.1495 57.6023 85.7631 56.239C85.3034 54.6234 84.1887 53.3455 82.6103 52.7554C81.9472 52.5072 81.097 53.0321 80.9464 53.6996C80.7715 54.4687 81.1824 55.0995 81.8903 55.364C82.1425 55.4576 81.6584 55.2379 81.8129 55.3274C81.8658 55.3599 81.9269 55.3803 81.9798 55.4088C82.0774 55.4617 82.1709 55.5227 82.2645 55.5797C82.5208 55.7343 82.0448 55.3803 82.3092 55.6164C82.411 55.7059 82.5086 55.7995 82.5981 55.8971C82.6388 55.9419 82.6794 55.9908 82.7201 56.0355C82.8056 56.1332 82.7364 56.1535 82.6429 55.9378C82.6876 56.0436 82.7893 56.1494 82.8463 56.2471C82.8951 56.3326 82.9439 56.418 82.9886 56.5076C83.0171 56.5646 83.0374 56.6215 83.07 56.6785C83.131 56.7965 82.9561 56.3489 83.0456 56.6338C83.1188 56.8617 83.192 57.0855 83.2368 57.3215C83.2449 57.3703 83.2531 57.4192 83.2653 57.4721C83.3182 57.7407 83.249 57.1913 83.2531 57.3744C83.2531 57.5128 83.2775 57.6511 83.2775 57.7895C83.2775 57.8912 83.2775 57.9889 83.2734 58.0907C83.2734 58.1639 83.2612 58.2412 83.2571 58.3145C83.249 58.4325 83.1839 58.4691 83.2775 58.1761C83.2042 58.4121 83.1798 58.6604 83.0985 58.8964C82.9764 59.2342 83.2246 58.6767 83.0781 58.9453C83.0252 59.0429 82.9764 59.1406 82.9195 59.2342C82.8869 59.2871 82.8503 59.336 82.8178 59.3889C82.7445 59.5069 82.651 59.5069 82.8747 59.3197C82.7812 59.397 82.712 59.511 82.6266 59.5924C82.5818 59.6371 82.533 59.6778 82.4883 59.7185C82.3581 59.8406 82.35 59.7266 82.5534 59.6737C82.4679 59.6981 82.3703 59.7999 82.293 59.8447C82.2361 59.8772 82.1791 59.9057 82.1221 59.9383C82.0123 60.0034 81.8862 59.983 82.1995 59.9138C82.0774 59.9423 81.9594 60.0034 81.8374 60.0359C81.7275 60.0685 81.5648 60.0685 81.4672 60.1173C81.4834 60.1092 81.8251 60.0848 81.6014 60.097C81.5363 60.101 81.4753 60.1091 81.4102 60.1091C81.2963 60.1132 81.1783 60.1173 81.0644 60.1091C81.0115 60.1091 80.9627 60.1051 80.9098 60.1011C80.857 60.1011 80.8081 60.0929 80.7553 60.0848C80.9749 60.1173 81.0278 60.1255 80.9221 60.1051C80.6942 60.0482 80.4664 60.0156 80.2386 59.9423C80.1288 59.9057 80.0189 59.8487 79.9091 59.8202C80.2345 59.9057 80.084 59.9016 79.9823 59.8447C79.9131 59.808 79.844 59.7755 79.7748 59.7389C79.6487 59.6697 79.5267 59.5964 79.4087 59.515C79.3639 59.4865 79.3233 59.454 79.2826 59.4255C79.0629 59.2749 79.4941 59.6127 79.3111 59.4458C79.1971 59.34 79.0792 59.2424 78.9734 59.1284C78.9368 59.0918 78.9043 59.0552 78.8717 59.0145C78.7659 58.8924 78.7822 58.7988 78.8921 59.0511C78.8392 58.929 78.7293 58.815 78.6602 58.7011C78.6276 58.6441 78.5992 58.5912 78.5707 58.5342C78.5056 58.404 78.5381 58.2657 78.5829 58.579C78.5666 58.461 78.4934 58.3348 78.4649 58.2128C78.4486 58.1517 78.4364 58.0866 78.4202 58.0255C78.3388 57.7 78.4446 58.3063 78.4202 58.0377C78.351 57.3337 77.8465 56.65 77.0654 56.6826C76.3901 56.7111 75.6376 57.2808 75.7108 58.0377L75.7026 58.05Z" fill="#C7D4F2"/>
<path d="M95.4817 103.129V111.178C95.4817 112.24 97.1293 112.24 97.1293 111.178V103.129C97.1293 102.066 95.4817 102.066 95.4817 103.129Z" fill="#C7D4F2"/>
<path d="M99.932 98.8312C100.013 104.378 100.095 109.925 100.172 115.468C100.188 116.526 101.836 116.53 101.82 115.468C101.738 109.921 101.657 104.374 101.58 98.8312C101.563 97.7731 99.9157 97.7691 99.932 98.8312Z" fill="#C7D4F2"/>
<path d="M103.797 95.0668C103.984 99.1893 104.167 103.308 104.354 107.43C104.403 108.488 106.051 108.492 106.002 107.43C105.815 103.308 105.632 99.1852 105.445 95.0668C105.396 94.0087 103.748 94.0047 103.797 95.0668Z" fill="#C7D4F2"/>
<path d="M107.267 90.2524C107.735 94.0168 108.206 97.7812 108.674 101.546C108.731 101.989 109.012 102.364 109.5 102.372C109.903 102.376 110.379 101.989 110.326 101.546C109.858 97.7812 109.386 94.0168 108.918 90.2524C108.861 89.8089 108.581 89.4344 108.093 89.4263C107.69 89.4222 107.214 89.8089 107.267 90.2524Z" fill="#C7D4F2"/>
<path d="M55.8748 28.3338C55.5697 30.1081 55.6429 31.9191 56.1433 33.6528C56.2613 34.0679 56.7291 34.3649 57.1563 34.2265C57.5794 34.0882 57.8601 33.6568 57.7299 33.2132C57.5021 32.4237 57.3882 31.7604 57.3475 31.0075C57.3271 30.6128 57.3271 30.218 57.3475 29.8192C57.3556 29.6361 57.3719 29.4529 57.3922 29.2739C57.3922 29.2739 57.4248 29.0012 57.4085 29.1314C57.4248 29.0093 57.4451 28.8913 57.4655 28.7693C57.5387 28.346 57.3515 27.8617 56.8918 27.7559C56.4932 27.6664 55.9562 27.878 55.8789 28.3297L55.8748 28.3338Z" fill="#C7D4F2"/>
<path d="M52.4696 30.1651C52.6364 31.9557 52.8032 33.7464 52.9659 35.5329C53.0066 35.9602 53.3157 36.3794 53.7917 36.359C54.2026 36.3387 54.6582 35.9928 54.6176 35.5329C54.4508 33.7423 54.284 31.9517 54.1213 30.1651C54.0806 29.7378 53.7714 29.3186 53.2954 29.339C52.8845 29.3593 52.4289 29.7052 52.4696 30.1651Z" fill="#C7D4F2"/>
<path d="M48.5111 31.736C48.8528 34.7964 49.1945 37.8608 49.5363 40.9211C49.5851 41.3647 49.878 41.7472 50.3621 41.7472C50.7689 41.7472 51.2367 41.3688 51.1879 40.9211C50.8462 37.8608 50.5045 34.7964 50.1628 31.736C50.114 31.2925 49.821 30.9099 49.3369 30.9099C48.9301 30.9099 48.4623 31.2884 48.5111 31.736Z" fill="#C7D4F2"/>
<path d="M44.5452 33.9091C44.3987 38.1985 45.0659 42.4959 46.5182 46.537C46.8762 47.526 48.4668 47.0987 48.1089 46.0975C46.7013 42.1826 46.0545 38.0682 46.1928 33.9091C46.2294 32.8469 44.5818 32.851 44.5452 33.9091Z" fill="#C7D4F2"/>
<path d="M41.3759 41.2141C41.0342 42.5163 41.2214 43.9285 41.9048 45.0883C42.1245 45.4586 42.6574 45.6255 43.0317 45.3854C43.406 45.1453 43.5605 44.6569 43.3287 44.2581C43.2554 44.1319 43.1903 44.0058 43.1252 43.8756C43.1903 44.0506 43.0398 43.7047 43.1252 43.8756C43.1008 43.8064 43.0723 43.7413 43.052 43.6721C43.0113 43.5541 42.9747 43.432 42.9462 43.3099C42.93 43.2407 42.9137 43.1675 42.9015 43.0983C42.8933 43.0617 42.8852 42.8541 42.8812 42.9925C42.8771 43.1349 42.873 42.9192 42.873 42.8867C42.8649 42.8134 42.8608 42.7442 42.8608 42.671C42.8567 42.5448 42.8608 42.4187 42.8608 42.2925C42.8608 42.2193 42.873 42.1501 42.8771 42.0768C42.8893 41.91 42.8446 42.2599 42.8771 42.0809C42.9015 41.9384 42.93 41.796 42.9666 41.6576C43.0764 41.2425 42.8283 40.742 42.393 40.6443C41.9617 40.5466 41.498 40.7745 41.38 41.2181L41.3759 41.2141Z" fill="#C7D4F2"/>
<path d="M37.796 47.9085L38.3329 48.4457C38.4062 48.5271 38.4957 48.5841 38.5974 48.6166C38.695 48.6695 38.8008 48.6899 38.9147 48.6858C39.0286 48.6899 39.1343 48.6655 39.232 48.6166C39.3337 48.5841 39.4232 48.5271 39.4964 48.4457C39.5412 48.3888 39.5819 48.3358 39.6266 48.2789C39.6998 48.1486 39.7405 48.0103 39.7405 47.8638C39.7323 47.7905 39.7202 47.7172 39.712 47.644C39.6713 47.5056 39.6022 47.3836 39.5005 47.2818L38.9635 46.7446C38.8903 46.6632 38.8008 46.6063 38.6991 46.5737C38.6014 46.5208 38.4957 46.5005 38.3817 46.5045C38.2678 46.5005 38.1621 46.5249 38.0644 46.5737C37.9627 46.6063 37.8733 46.6632 37.8 46.7446C37.7553 46.8016 37.7146 46.8545 37.6698 46.9115C37.5966 47.0417 37.5559 47.1801 37.5559 47.3266C37.564 47.3998 37.5763 47.4731 37.5844 47.5463C37.6251 47.6847 37.6943 47.8068 37.796 47.9085Z" fill="#C7D4F2"/>
<path d="M104.146 61.1793C105.22 62.6077 106.294 64.0402 107.368 65.4686C107.625 65.8105 108.092 66.0261 108.495 65.7657C108.833 65.5459 109.069 65.0047 108.792 64.6384C107.718 63.21 106.644 61.7775 105.57 60.3491C105.314 60.0073 104.846 59.7916 104.443 60.052C104.106 60.2718 103.87 60.813 104.146 61.1793Z" fill="#C7D4F2"/>
<path d="M104.712 68.1303L105.786 69.7418C105.904 69.9209 106.067 70.0633 106.278 70.1203C106.473 70.1732 106.738 70.1488 106.913 70.0389C107.088 69.9249 107.242 69.7581 107.291 69.5465C107.34 69.3389 107.332 69.0947 107.21 68.9116L106.136 67.3001C106.018 67.121 105.855 66.9786 105.643 66.9216C105.448 66.8687 105.184 66.8931 105.009 67.003C104.834 67.1169 104.679 67.2838 104.63 67.4954C104.582 67.7029 104.59 67.9471 104.712 68.1303Z" fill="#C7D4F2"/>
<path d="M104.887 74.9754H105.424C105.538 74.9794 105.644 74.9551 105.742 74.9062C105.844 74.8737 105.933 74.8167 106.006 74.7353C106.088 74.662 106.145 74.5725 106.177 74.4707C106.23 74.3731 106.25 74.2673 106.246 74.1533C106.238 74.0801 106.226 74.0068 106.218 73.9336C106.177 73.7952 106.108 73.6731 106.006 73.5714C105.949 73.5266 105.896 73.4859 105.839 73.4411C105.709 73.3679 105.571 73.3272 105.424 73.3272H104.887C104.774 73.3232 104.668 73.3475 104.57 73.3964C104.468 73.4289 104.379 73.4859 104.306 73.5673C104.224 73.6406 104.167 73.7301 104.135 73.8318C104.082 73.9295 104.058 74.0353 104.066 74.1492C104.074 74.2225 104.086 74.2958 104.094 74.369C104.135 74.5074 104.204 74.6295 104.306 74.7312C104.363 74.776 104.416 74.8166 104.473 74.8614C104.603 74.9347 104.741 74.9754 104.887 74.9754Z" fill="#C7D4F2"/>
</svg>
