<svg width="179" height="210" viewBox="0 0 179 210" fill="none" xmlns="http://www.w3.org/2000/svg">
<path d="M95.7081 85.9673C91.6544 85.9987 87.9353 88.1152 86.6143 92.0797C85.499 95.4235 86.4784 99.4159 89.204 101.703C92.3898 104.381 97.5519 104.688 101.093 102.519C104.258 100.584 105.715 96.8461 105.095 93.2477C104.303 88.6626 100.152 86.0022 95.7081 85.9673C94.2163 85.9569 94.2128 88.2756 95.7081 88.2861C97.3846 88.3 99.0228 88.6801 100.382 89.6738C101.4 90.4165 102.205 91.5845 102.585 92.7561C103.415 95.3119 102.77 98.1606 100.675 99.9738C98.3571 101.986 94.2162 102.143 91.5533 100.549C90.424 99.8726 89.4968 98.7743 89.0263 97.6655C88.8938 97.3552 88.7893 97.0274 88.7056 96.7032C88.622 96.3824 88.5383 95.9256 88.5209 95.7652C88.4512 95.1027 88.4791 94.2868 88.5662 93.8021C88.8555 92.2261 89.5282 90.9535 90.7377 89.9109C92.0483 88.7812 93.9095 88.3 95.7046 88.2861C97.1964 88.2756 97.1999 85.9534 95.7046 85.9673H95.7081Z" fill="#C7D4F2"/>
<path d="M93.8746 102.948C92.8812 106.107 93.5678 109.639 95.6452 112.205C97.6389 114.671 100.922 116.03 104.07 115.765C104.537 115.727 104.948 115.507 105.129 115.051C105.286 114.664 105.255 114.067 104.889 113.785C101.658 111.281 99.8941 107.045 100.654 102.99C100.769 102.376 100.483 101.738 99.8452 101.564C99.2806 101.407 98.5347 101.756 98.4197 102.373C97.517 107.195 99.3398 112.397 103.251 115.427C103.522 114.768 103.798 114.106 104.07 113.447C101.543 113.659 99.0296 112.676 97.3984 110.71C95.7707 108.747 95.3524 105.968 96.1053 103.569C96.5549 102.139 94.3138 101.529 93.8676 102.952L93.8746 102.948Z" fill="#C7D4F2"/>
<path d="M87.9737 99.231C85.6663 104.228 85.8546 110.11 88.5768 114.911C89.0299 115.71 90.1069 115.612 90.5809 114.911C91.7277 113.21 91.8566 111.194 92.3062 109.252C92.6234 107.875 93.2612 106.212 94.7844 105.842C96.2344 105.49 95.6209 103.251 94.1675 103.603C92.1772 104.088 90.9747 105.835 90.3404 107.676C89.6537 109.674 89.7931 111.933 88.5802 113.736H90.5843C88.2978 109.702 88.0329 104.622 89.9813 100.399C90.2428 99.8307 90.1417 99.1508 89.5666 98.8126C89.0647 98.5197 88.2421 98.6557 87.9807 99.2275L87.9737 99.231Z" fill="#C7D4F2"/>
<path d="M85.7745 92.9094C81.0203 95.4931 77.9949 100.856 78.2598 106.264C78.319 107.456 79.762 107.788 80.4208 106.85C82.2123 104.297 84.8404 102.369 87.7961 101.393C89.2077 100.929 88.6013 98.687 87.1792 99.1542C83.6135 100.329 80.5741 102.606 78.4166 105.675C79.1381 105.87 79.8561 106.065 80.5776 106.26C80.351 101.626 82.8641 97.125 86.9421 94.9109C88.2527 94.1995 87.0851 92.1947 85.7711 92.906L85.7745 92.9094Z" fill="#C7D4F2"/>
<path d="M90.6964 86.7448C88.4064 84.7329 85.1893 84.3389 82.3242 85.2071C79.1558 86.166 76.6463 88.4917 74.3946 90.8208C73.6383 91.6019 74.3876 93.1779 75.5239 92.7595C77.3503 92.0865 79.3615 91.2811 81.3482 91.5426C82.7041 91.7204 84.1506 92.505 84.5863 93.8718C85.0394 95.2874 87.2772 94.6842 86.824 93.2546C86.1792 91.2323 84.4016 89.8515 82.366 89.3808C79.8216 88.795 77.2771 89.6458 74.907 90.5175C75.2834 91.1625 75.6598 91.8111 76.0363 92.4561C77.8976 90.5314 79.9471 88.4916 82.5264 87.5746C84.6525 86.8215 87.2806 86.818 89.0582 88.3801C90.1736 89.3634 91.8222 87.728 90.6999 86.7378L90.6964 86.7448Z" fill="#C7D4F2"/>
<path d="M91.9718 87.3445C91.4141 83.9274 89.7515 80.744 87.3186 78.2823C87.1478 78.9274 86.977 79.5759 86.8062 80.221C91.6894 78.8332 97.0884 82.4909 97.8169 87.4595C97.9075 88.0802 98.6918 88.4219 99.2425 88.2685C99.9083 88.0871 100.145 87.463 100.051 86.8424C99.138 80.6289 92.1704 76.2844 86.1858 77.9825C85.3458 78.2196 85.0565 79.297 85.6734 79.9211C87.8484 82.1178 89.2286 84.9107 89.727 87.9581C89.8281 88.5753 90.595 88.9205 91.1526 88.7671C91.8114 88.5858 92.0659 87.9616 91.9613 87.341L91.9718 87.3445Z" fill="#C7D4F2"/>
<path d="M99.5632 88.108C102.644 84.942 103.993 80.5382 103.355 76.1867C102.787 76.6225 102.219 77.0619 101.651 77.4977C103.809 79.1226 105.6 81.382 106.144 84.0738C106.635 86.511 105.788 89.1366 103.819 90.6743C103.321 91.0613 103.418 91.9051 103.819 92.3165C104.3 92.8082 104.969 92.7001 105.461 92.3165C108.043 90.3012 108.96 86.8074 108.423 83.6693C107.841 80.2837 105.492 77.5012 102.826 75.4928C101.909 74.8024 100.996 75.9391 101.121 76.8039C101.634 80.3011 100.375 83.9483 97.925 86.4657C96.8828 87.5362 98.521 89.1784 99.5666 88.108H99.5632Z" fill="#C7D4F2"/>
<path d="M104.432 93.9416C107.604 93.2303 110.529 91.5113 112.693 89.0845C112.087 89.0078 111.48 88.9277 110.87 88.8509C112.114 91.0267 111.978 93.9556 110.4 95.943C108.894 97.8364 106.262 98.7151 103.92 98.1467V100.385C104.087 100.326 104.251 100.267 104.418 100.207C105.007 99.9947 105.405 99.4159 105.227 98.7813C105.07 98.2095 104.394 97.7597 103.801 97.9724C103.634 98.0317 103.47 98.0909 103.303 98.1502C102.289 98.5128 102.118 100.099 103.303 100.389C106.552 101.177 110.152 100.009 112.222 97.3552C114.363 94.6146 114.596 90.692 112.874 87.6864C112.519 87.0657 111.553 86.8914 111.051 87.4527C109.131 89.6076 106.632 91.0825 103.815 91.7136C102.358 92.0413 102.975 94.2799 104.432 93.9521V93.9416Z" fill="#C7D4F2"/>
<path d="M99.3577 103.203C101.425 108.931 108.915 111.71 114.168 108.506C115.053 107.966 114.826 106.703 113.892 106.386C110.511 105.232 108.023 102.219 107.357 98.736C107.238 98.1189 106.499 97.7702 105.931 97.9271C105.286 98.1049 105.004 98.736 105.123 99.3532C105.942 103.645 109.169 107.219 113.279 108.625C113.188 107.917 113.094 107.212 113.003 106.505C109.103 108.883 103.174 106.944 101.602 102.585C101.39 101.996 100.815 101.599 100.177 101.776C99.6086 101.933 99.152 102.61 99.3681 103.203H99.3577Z" fill="#C7D4F2"/>
<path d="M76.5727 100.044C74.2688 101.982 72.5853 104.625 71.7488 107.512C71.578 108.095 71.9544 108.802 72.5574 108.938C73.1778 109.081 73.8018 108.754 73.983 108.129C74.0771 107.805 74.1816 107.484 74.2967 107.167C74.3559 107.01 74.4152 106.853 74.4779 106.696C74.5232 106.581 74.4292 106.797 74.5128 106.613C74.5442 106.543 74.5721 106.477 74.6034 106.407C74.8927 105.779 75.2273 105.169 75.6072 104.59C75.792 104.308 75.9837 104.032 76.1894 103.764C76.3044 103.614 76.0952 103.879 76.2137 103.733C76.273 103.659 76.3322 103.586 76.3915 103.513C76.4995 103.384 76.6076 103.255 76.7192 103.129C77.1793 102.61 77.6777 102.129 78.2075 101.682C78.6745 101.288 78.6432 100.441 78.2075 100.04C77.7125 99.5833 77.0642 99.6216 76.5657 100.04L76.5727 100.044Z" fill="#C7D4F2"/>
<path d="M70.3196 114.716C70.1244 117.01 69.9292 119.304 69.734 121.602C69.6817 122.209 70.3056 122.788 70.8947 122.763C71.5674 122.732 71.9996 122.254 72.0554 121.602C72.2505 119.308 72.4457 117.014 72.6409 114.716C72.6932 114.109 72.0693 113.53 71.4803 113.555C70.8076 113.586 70.3753 114.064 70.3196 114.716Z" fill="#C7D4F2"/>
<path d="M71.6193 126.672C71.947 129.803 73.3307 132.746 75.6242 134.922C76.0773 135.354 76.8127 135.371 77.2659 134.922C77.719 134.472 77.7225 133.712 77.2659 133.279C77.0219 133.046 76.7848 132.805 76.5583 132.554C76.3143 132.279 76.175 132.111 76.0286 131.909C75.6277 131.365 75.2757 130.786 74.9759 130.18C74.7041 129.636 74.5298 129.2 74.3276 128.52C74.23 128.196 74.1498 127.868 74.0801 127.537C74.0453 127.362 74.0139 127.184 73.986 127.01C73.986 126.989 73.9511 126.77 73.9651 126.871C73.979 126.979 73.9442 126.661 73.9442 126.668C73.8814 126.065 73.4562 125.479 72.7835 125.507C72.2084 125.532 71.5566 126.02 71.6228 126.668L71.6193 126.672Z" fill="#C7D4F2"/>
<path d="M81.0793 139.175C82.6897 141.62 85.5303 143.154 88.4721 143.049C89.0786 143.028 89.6606 142.53 89.6327 141.888C89.6048 141.278 89.1239 140.706 88.4721 140.727C88.1828 140.738 87.8935 140.734 87.6042 140.71C87.5241 140.703 87.4438 140.692 87.3637 140.685C87.1859 140.668 87.6426 140.734 87.3393 140.678C87.1964 140.65 87.057 140.626 86.9141 140.595C86.6318 140.528 86.3529 140.448 86.081 140.35C86.0043 140.323 85.9312 140.295 85.8545 140.267C85.7429 140.225 85.7708 140.228 85.865 140.274C85.7186 140.208 85.5722 140.141 85.4293 140.068C85.1713 139.936 84.9238 139.789 84.6833 139.625C84.631 139.59 84.5788 139.552 84.523 139.517C84.523 139.517 84.286 139.343 84.4079 139.437C84.5299 139.531 84.3 139.346 84.3 139.346C84.2512 139.304 84.2023 139.263 84.1535 139.221C83.9235 139.019 83.7074 138.802 83.5052 138.576C83.4634 138.527 83.4216 138.478 83.3797 138.429C83.3135 138.349 83.2542 138.272 83.3518 138.401C83.2542 138.272 83.1637 138.14 83.0765 138.007C82.7419 137.502 82.0343 137.24 81.4906 137.592C80.9852 137.917 80.7168 138.638 81.0759 139.179L81.0793 139.175Z" fill="#C7D4F2"/>
<path d="M95.7076 139.713C93.1945 139.73 90.9254 141.076 90.1098 143.52C89.4301 145.556 90.0366 148.022 91.6957 149.42C93.6546 151.072 96.795 151.299 98.9909 149.957C100.978 148.743 101.86 146.425 101.473 144.176C101.274 143.025 100.643 141.888 99.7507 141.132C98.6109 140.162 97.1959 139.727 95.7076 139.713C94.2158 139.702 94.2123 142.021 95.7076 142.031C95.84 142.031 95.9724 142.035 96.1049 142.042C96.1885 142.045 96.5371 142.087 96.2687 142.049C96.5336 142.087 96.795 142.143 97.0529 142.223C97.161 142.254 97.2656 142.296 97.3736 142.331C97.5688 142.394 97.3562 142.324 97.3248 142.31C97.3736 142.335 97.4224 142.356 97.4712 142.38C97.6803 142.488 97.8756 142.617 98.0742 142.743C98.2346 142.84 97.9104 142.589 98.1369 142.795C98.2101 142.861 98.2833 142.927 98.3565 142.997C98.4262 143.067 98.489 143.14 98.5552 143.213C98.7713 143.45 98.4681 143.06 98.6423 143.325C98.7469 143.485 98.8515 143.646 98.9386 143.82C98.9805 143.904 99.0815 144.183 98.97 143.869C99.0048 143.97 99.0467 144.068 99.0815 144.172C99.1443 144.364 99.1895 144.559 99.2279 144.758C99.2871 145.047 99.2279 144.646 99.2349 144.803C99.2418 144.911 99.2523 145.016 99.2558 145.124C99.2628 145.316 99.2523 145.504 99.2383 145.692C99.2209 145.978 99.2906 145.455 99.2314 145.738C99.207 145.853 99.1861 145.971 99.1582 146.086C99.1094 146.271 99.0397 146.446 98.9804 146.63C98.9351 146.773 99.0885 146.421 99.0118 146.55C98.9874 146.592 98.9699 146.637 98.949 146.679C98.9002 146.777 98.848 146.871 98.7957 146.962C98.7469 147.045 98.6911 147.125 98.6388 147.206C98.4715 147.46 98.7294 147.125 98.6005 147.261C98.4436 147.422 98.3008 147.586 98.1335 147.736C97.9069 147.941 98.2311 147.69 98.0707 147.788C97.9836 147.84 97.9 147.907 97.8128 147.959C97.7222 148.015 97.6316 148.067 97.5375 148.112C97.4887 148.137 97.4398 148.158 97.3945 148.182C97.161 148.311 97.6281 148.109 97.3702 148.192C97.1506 148.266 96.9379 148.339 96.7148 148.391C96.5963 148.419 96.4778 148.44 96.3593 148.461C96.1432 148.499 96.3489 148.461 96.3907 148.457C96.2931 148.464 96.199 148.475 96.1049 148.482C95.84 148.499 95.5716 148.499 95.3067 148.482C95.2265 148.478 94.857 148.433 95.1429 148.475C95.0069 148.454 94.8745 148.43 94.7421 148.402C94.5016 148.349 94.275 148.266 94.0415 148.192C93.9752 148.171 93.8637 148.091 94.0902 148.213C94.0414 148.189 93.9927 148.168 93.9439 148.144C93.8393 148.088 93.7313 148.035 93.6302 147.973C93.5396 147.92 93.4559 147.861 93.3688 147.805C93.1318 147.648 93.5116 147.941 93.3025 147.753C93.1352 147.603 92.9819 147.45 92.832 147.282C92.6438 147.073 92.9435 147.46 92.7901 147.23C92.7379 147.15 92.6821 147.07 92.6333 146.989C92.5845 146.909 92.5357 146.826 92.4939 146.738C92.4347 146.623 92.3475 146.4 92.4451 146.658C92.3788 146.48 92.3126 146.303 92.2638 146.118C92.2359 146.013 92.2116 145.909 92.1941 145.804C92.1837 145.759 92.1802 145.71 92.1697 145.664C92.1348 145.525 92.1871 145.936 92.1802 145.727C92.1732 145.535 92.1523 145.351 92.1592 145.159C92.1592 145.065 92.1697 144.971 92.1732 144.873C92.1941 144.545 92.1209 145.079 92.1871 144.758C92.2325 144.535 92.2847 144.319 92.3579 144.102C92.3998 143.977 92.5078 143.771 92.3858 144.015C92.4381 143.907 92.4869 143.799 92.5462 143.694C92.5984 143.6 92.6542 143.506 92.7135 143.416C92.7832 143.311 92.9435 143.123 92.7657 143.328C92.9295 143.14 93.0934 142.966 93.2782 142.798C93.3165 142.763 93.3548 142.736 93.3931 142.701C93.3025 142.777 93.2328 142.812 93.3722 142.722C93.4698 142.655 93.5639 142.593 93.665 142.533C93.78 142.467 93.902 142.415 94.017 142.349C94.0728 142.317 94.2158 142.279 93.9648 142.366C94.031 142.342 94.0937 142.317 94.1599 142.293C94.4213 142.199 94.6897 142.132 94.9616 142.084C95.0209 142.073 95.0836 142.063 95.1429 142.056C94.8431 142.098 95.1672 142.056 95.2126 142.056C95.3764 142.042 95.5437 142.038 95.7076 142.038C97.1994 142.028 97.2028 139.706 95.7076 139.72V139.713Z" fill="#C7D4F2"/>
<path d="M150.856 128.68C148.342 128.698 146.073 130.044 145.258 132.488C144.578 134.524 145.185 136.989 146.844 138.387C148.803 140.04 151.943 140.267 154.139 138.924C156.126 137.711 157.007 135.392 156.621 133.143C156.422 131.993 155.791 130.856 154.899 130.099C153.759 129.13 152.344 128.694 150.856 128.68C149.364 128.67 149.36 130.988 150.856 130.999C150.988 130.999 151.12 131.002 151.253 131.009C151.336 131.013 151.685 131.055 151.417 131.016C151.682 131.055 151.943 131.11 152.201 131.191C152.309 131.222 152.414 131.264 152.522 131.299C152.717 131.362 152.504 131.292 152.473 131.278C152.522 131.302 152.57 131.323 152.619 131.348C152.828 131.456 153.024 131.585 153.222 131.71C153.383 131.808 153.058 131.557 153.285 131.763C153.358 131.829 153.431 131.895 153.504 131.965C153.574 132.035 153.637 132.108 153.703 132.181C153.919 132.418 153.616 132.028 153.79 132.293C153.895 132.453 153.999 132.613 154.087 132.788C154.128 132.871 154.229 133.15 154.118 132.836C154.153 132.938 154.195 133.035 154.229 133.14C154.292 133.332 154.337 133.527 154.376 133.726C154.435 134.015 154.376 133.614 154.383 133.771C154.39 133.879 154.4 133.984 154.404 134.092C154.411 134.283 154.4 134.472 154.386 134.66C154.369 134.946 154.439 134.423 154.379 134.705C154.355 134.82 154.334 134.939 154.306 135.054C154.257 135.239 154.188 135.413 154.128 135.598C154.083 135.741 154.236 135.389 154.16 135.518C154.135 135.56 154.118 135.605 154.097 135.647C154.048 135.744 153.996 135.839 153.944 135.929C153.895 136.013 153.839 136.093 153.787 136.173C153.619 136.428 153.877 136.093 153.748 136.229C153.592 136.389 153.449 136.553 153.281 136.703C153.055 136.909 153.379 136.658 153.219 136.756C153.132 136.808 153.048 136.874 152.961 136.926C152.87 136.982 152.78 137.035 152.685 137.08C152.637 137.104 152.588 137.125 152.542 137.15C152.309 137.279 152.776 137.076 152.518 137.16C152.299 137.233 152.086 137.307 151.863 137.359C151.744 137.387 151.626 137.408 151.507 137.429C151.291 137.467 151.497 137.429 151.539 137.425C151.441 137.432 151.347 137.442 151.253 137.449C150.988 137.467 150.72 137.467 150.455 137.449C150.374 137.446 150.005 137.401 150.291 137.442C150.155 137.422 150.022 137.397 149.89 137.369C149.65 137.317 149.423 137.233 149.189 137.16C149.123 137.139 149.012 137.059 149.238 137.181C149.189 137.157 149.141 137.136 149.092 137.111C148.987 137.055 148.879 137.003 148.778 136.94C148.688 136.888 148.604 136.829 148.517 136.773C148.28 136.616 148.66 136.909 148.45 136.721C148.283 136.571 148.13 136.417 147.98 136.25C147.792 136.041 148.091 136.428 147.938 136.198C147.886 136.118 147.83 136.037 147.781 135.957C147.732 135.873 147.684 135.793 147.642 135.706C147.583 135.591 147.495 135.368 147.593 135.626C147.527 135.448 147.461 135.27 147.412 135.085C147.384 134.981 147.359 134.876 147.342 134.772C147.332 134.726 147.328 134.677 147.318 134.632C147.283 134.493 147.335 134.904 147.328 134.695C147.321 134.503 147.3 134.318 147.307 134.127C147.307 134.032 147.318 133.938 147.321 133.841C147.342 133.513 147.269 134.046 147.335 133.726C147.38 133.502 147.433 133.286 147.506 133.07C147.548 132.945 147.656 132.739 147.534 132.983C147.586 132.875 147.635 132.767 147.694 132.662C147.746 132.568 147.802 132.474 147.861 132.383C147.931 132.279 148.095 132.09 147.914 132.296C148.078 132.108 148.241 131.933 148.426 131.766C148.464 131.731 148.503 131.703 148.541 131.668C148.45 131.745 148.381 131.78 148.52 131.689C148.618 131.623 148.712 131.56 148.813 131.501C148.928 131.435 149.05 131.382 149.165 131.316C149.221 131.285 149.364 131.246 149.113 131.334C149.179 131.309 149.242 131.285 149.308 131.26C149.569 131.166 149.838 131.1 150.11 131.051C150.169 131.041 150.232 131.03 150.291 131.023C149.991 131.065 150.315 131.023 150.361 131.023C150.524 131.009 150.692 131.006 150.856 131.006C152.347 130.995 152.351 128.673 150.856 128.687V128.68Z" fill="#C7D4F2"/>
<path d="M127.876 58.8018C125.363 58.8192 123.094 60.1651 122.278 62.6094C121.599 64.6457 122.205 67.1108 123.864 68.509C125.823 70.1618 128.963 70.3884 131.159 69.046C133.146 67.8326 134.028 65.5139 133.641 63.2649C133.442 62.1143 132.811 60.9776 131.919 60.2209C130.779 59.2516 129.364 58.8157 127.876 58.8018C126.384 58.7913 126.381 61.1101 127.876 61.1205C128.008 61.1205 128.141 61.124 128.273 61.131C128.357 61.1345 128.706 61.1763 128.437 61.138C128.702 61.1763 128.963 61.2321 129.221 61.3123C129.329 61.3437 129.434 61.3855 129.542 61.4204C129.737 61.4831 129.525 61.4134 129.493 61.3995C129.542 61.4239 129.591 61.4448 129.64 61.4692C129.849 61.5773 130.044 61.7063 130.243 61.8318C130.403 61.9295 130.079 61.6784 130.305 61.8841C130.379 61.9504 130.452 62.0166 130.525 62.0864C130.595 62.1561 130.657 62.2293 130.724 62.3025C130.94 62.5396 130.637 62.1491 130.811 62.4141C130.915 62.5745 131.02 62.7349 131.107 62.9092C131.149 62.9929 131.25 63.2719 131.138 62.9581C131.173 63.0592 131.215 63.1568 131.25 63.2614C131.313 63.4532 131.358 63.6484 131.396 63.8472C131.456 64.1366 131.396 63.7356 131.403 63.8925C131.41 64.0006 131.421 64.1052 131.424 64.2133C131.431 64.4051 131.421 64.5933 131.407 64.7816C131.389 65.0675 131.459 64.5445 131.4 64.827C131.375 64.942 131.355 65.0606 131.327 65.1756C131.278 65.3604 131.208 65.5348 131.149 65.7196C131.104 65.8626 131.257 65.5104 131.18 65.6394C131.156 65.6812 131.138 65.7265 131.117 65.7684C131.069 65.866 131.016 65.9602 130.964 66.0508C130.915 66.1345 130.86 66.2147 130.807 66.2949C130.64 66.5494 130.898 66.2147 130.769 66.3507C130.612 66.5111 130.469 66.6749 130.302 66.8249C130.075 67.0306 130.399 66.7796 130.239 66.8772C130.152 66.9295 130.068 66.9957 129.981 67.048C129.891 67.1038 129.8 67.1561 129.706 67.2015C129.657 67.2259 129.608 67.2468 129.563 67.2712C129.329 67.4002 129.796 67.198 129.539 67.2817C129.319 67.3549 129.106 67.4281 128.883 67.4804C128.765 67.5083 128.646 67.5292 128.528 67.5502C128.312 67.5885 128.517 67.5502 128.559 67.5467C128.462 67.5536 128.367 67.5641 128.273 67.5711C128.008 67.5885 127.74 67.5885 127.475 67.5711C127.395 67.5676 127.026 67.5222 127.311 67.5641C127.175 67.5432 127.043 67.5188 126.911 67.4909C126.67 67.4386 126.443 67.3549 126.21 67.2817C126.144 67.2607 126.032 67.1805 126.259 67.3026C126.21 67.2782 126.161 67.2573 126.112 67.2328C126.008 67.1771 125.9 67.1248 125.799 67.062C125.708 67.0097 125.624 66.9504 125.537 66.8946C125.3 66.7377 125.68 67.0306 125.471 66.8423C125.304 66.6924 125.15 66.539 125 66.3716C124.812 66.1624 125.112 66.5494 124.959 66.3193C124.906 66.2391 124.851 66.1589 124.802 66.0787C124.753 65.995 124.704 65.9148 124.662 65.8277C124.603 65.7126 124.516 65.4895 124.614 65.7475C124.547 65.5696 124.481 65.3918 124.432 65.207C124.404 65.1024 124.38 64.9978 124.363 64.8932C124.352 64.8479 124.349 64.7991 124.338 64.7538C124.303 64.6143 124.356 65.0257 124.349 64.8165C124.342 64.6247 124.321 64.4399 124.328 64.2481C124.328 64.154 124.338 64.0599 124.342 63.9622C124.363 63.6345 124.289 64.168 124.356 63.8472C124.401 63.624 124.453 63.4079 124.526 63.1917C124.568 63.0662 124.676 62.8604 124.554 63.1045C124.607 62.9964 124.655 62.8883 124.715 62.7837C124.767 62.6896 124.823 62.5954 124.882 62.5048C124.952 62.4001 125.115 62.2119 124.934 62.4176C125.098 62.2293 125.262 62.055 125.447 61.8876C125.485 61.8527 125.523 61.8249 125.562 61.79C125.471 61.8667 125.401 61.9015 125.541 61.8109C125.638 61.7446 125.732 61.6819 125.833 61.6226C125.948 61.5564 126.07 61.5041 126.185 61.4378C126.241 61.4064 126.384 61.3681 126.133 61.4552C126.199 61.4308 126.262 61.4064 126.328 61.382C126.59 61.2879 126.858 61.2216 127.13 61.1728C127.189 61.1624 127.252 61.1519 127.311 61.1449C127.012 61.1868 127.336 61.1449 127.381 61.1449C127.545 61.131 127.712 61.1275 127.876 61.1275C129.368 61.117 129.371 58.7948 127.876 58.8088V58.8018Z" fill="#C7D4F2"/>
<path d="M81.9195 43.1704C79.4064 43.1879 77.1373 44.5338 76.3217 46.978C75.642 49.0143 76.2485 51.4794 77.9076 52.8776C79.8665 54.5304 83.0069 54.757 85.2028 53.4146C87.1895 52.2012 88.0714 49.8825 87.6845 47.6335C87.4859 46.4829 86.855 45.3462 85.9627 44.5895C84.8229 43.6202 83.4078 43.1844 81.9195 43.1704C80.4277 43.16 80.4242 45.4787 81.9195 45.4892C82.0519 45.4892 82.1843 45.4926 82.3168 45.4996C82.4004 45.5031 82.749 45.5449 82.4806 45.5066C82.7455 45.5449 83.0069 45.6007 83.2648 45.6809C83.3729 45.7123 83.4775 45.7542 83.5856 45.789C83.7807 45.8518 83.5681 45.782 83.5367 45.7681C83.5855 45.7925 83.6344 45.8134 83.6832 45.8378C83.8923 45.9459 84.0875 46.0749 84.2861 46.2004C84.4465 46.2981 84.1223 46.047 84.3489 46.2527C84.4221 46.319 84.4953 46.3853 84.5685 46.455C84.6382 46.5247 84.7044 46.598 84.7671 46.6712C84.9832 46.9083 84.68 46.5177 84.8542 46.7827C84.9588 46.9431 85.0634 47.1035 85.1505 47.2779C85.1924 47.3616 85.2934 47.6405 85.1819 47.3267C85.2167 47.4278 85.2586 47.5254 85.2934 47.6301C85.3562 47.8218 85.4015 48.0171 85.4399 48.2158C85.4991 48.5052 85.4398 48.1042 85.4468 48.2611C85.4537 48.3692 85.4642 48.4738 85.4677 48.5819C85.4747 48.7737 85.4642 48.962 85.4503 49.1503C85.4328 49.4362 85.5025 48.9132 85.4433 49.1956C85.4189 49.3107 85.398 49.4292 85.3701 49.5443C85.3213 49.7291 85.2516 49.9034 85.1923 50.0882C85.147 50.2312 85.3004 49.879 85.2237 50.008C85.1993 50.0499 85.1819 50.0952 85.161 50.137C85.1122 50.2347 85.0599 50.3288 85.0076 50.4195C84.9588 50.5032 84.903 50.5833 84.8508 50.6635C84.6835 50.9181 84.9414 50.5833 84.8125 50.7193C84.6556 50.8797 84.5127 51.0436 84.3454 51.1935C84.1188 51.3993 84.443 51.1482 84.2827 51.2458C84.1955 51.2981 84.1119 51.3644 84.0247 51.4167C83.9341 51.4725 83.8435 51.5248 83.7494 51.5701C83.7006 51.5945 83.6518 51.6154 83.6065 51.6398C83.373 51.7689 83.84 51.5666 83.5821 51.6503C83.3625 51.7235 83.1498 51.7967 82.9267 51.849C82.8082 51.8769 82.6897 51.8978 82.5712 51.9188C82.3551 51.9571 82.5608 51.9188 82.6026 51.9153C82.505 51.9222 82.4109 51.9327 82.3168 51.9397C82.0519 51.9571 81.7836 51.9571 81.5187 51.9397C81.4385 51.9362 81.069 51.8909 81.3548 51.9327C81.2188 51.9118 81.0864 51.8874 80.954 51.8595C80.7135 51.8072 80.4869 51.7235 80.2534 51.6503C80.1872 51.6294 80.0756 51.5492 80.3021 51.6712C80.2533 51.6468 80.2046 51.6259 80.1558 51.6015C80.0512 51.5457 79.9432 51.4934 79.8421 51.4306C79.7515 51.3783 79.6678 51.319 79.5807 51.2632C79.3437 51.1063 79.7236 51.3992 79.5145 51.2109C79.3472 51.061 79.1938 50.9076 79.0439 50.7402C78.8557 50.531 79.1554 50.918 79.002 50.6879C78.9498 50.6077 78.894 50.5275 78.8452 50.4474C78.7964 50.3672 78.7477 50.2835 78.7058 50.1963C78.6466 50.0813 78.5594 49.8581 78.657 50.1161C78.5908 49.9383 78.5245 49.7605 78.4757 49.5757C78.4478 49.4711 78.4235 49.3664 78.406 49.2618C78.3956 49.2165 78.3922 49.1677 78.3817 49.1224C78.3468 48.9829 78.3991 49.3943 78.3921 49.1851C78.3851 48.9934 78.3643 48.8086 78.3712 48.6168C78.3712 48.5227 78.3816 48.4285 78.3851 48.3309C78.406 48.0031 78.3328 48.5366 78.3991 48.2158C78.4444 47.9927 78.4966 47.7765 78.5698 47.5603C78.6117 47.4348 78.7198 47.229 78.5978 47.4731C78.65 47.365 78.6988 47.257 78.7581 47.1524C78.8104 47.0582 78.8661 46.9641 78.9254 46.8734C78.9951 46.7688 79.159 46.5805 78.9777 46.7862C79.1415 46.5979 79.3053 46.4236 79.4901 46.2562C79.5284 46.2214 79.5667 46.1935 79.605 46.1586C79.5144 46.2353 79.4483 46.2702 79.5842 46.1795C79.6818 46.1133 79.7758 46.0505 79.8769 45.9912C79.9919 45.925 80.1139 45.8727 80.229 45.8064C80.2847 45.775 80.4277 45.7367 80.1767 45.8239C80.2429 45.7995 80.3057 45.7751 80.3719 45.7507C80.6333 45.6565 80.9016 45.5903 81.1735 45.5415C81.2328 45.531 81.2955 45.5205 81.3548 45.5136C81.055 45.5554 81.3792 45.5136 81.4246 45.5136C81.5884 45.4996 81.7556 45.4961 81.9195 45.4961C83.4113 45.4857 83.4148 43.1635 81.9195 43.1774V43.1704Z" fill="#C7D4F2"/>
<path d="M27.6914 82.7071C25.1784 82.7245 22.9093 84.0704 22.0937 86.5146C21.414 88.5509 22.0205 91.0161 23.6796 92.4143C25.6385 94.067 28.779 94.2936 30.9749 92.9512C32.9616 91.7378 33.8434 89.4191 33.4565 87.1701C33.2578 86.0195 32.627 84.8828 31.7347 84.1262C30.5949 83.1568 29.1798 82.721 27.6914 82.7071C26.1996 82.6966 26.1962 85.0153 27.6914 85.0258C27.8239 85.0258 27.9564 85.0292 28.0888 85.0362C28.1725 85.0397 28.521 85.0815 28.2526 85.0432C28.5175 85.0815 28.779 85.1373 29.0369 85.2175C29.1449 85.2489 29.2495 85.2908 29.3575 85.3256C29.5527 85.3884 29.3401 85.3186 29.3088 85.3047C29.3576 85.3291 29.4063 85.3501 29.4551 85.3745C29.6643 85.4826 29.8594 85.6115 30.0581 85.7371C30.2185 85.8347 29.8943 85.5836 30.1208 85.7894C30.194 85.8556 30.2673 85.9219 30.3405 85.9916C30.4102 86.0613 30.4729 86.1345 30.5392 86.2078C30.7553 86.4449 30.452 86.0544 30.6263 86.3194C30.7309 86.4798 30.8354 86.6402 30.9225 86.8145C30.9643 86.8982 31.0655 87.1771 30.9539 86.8633C30.9888 86.9644 31.0306 87.062 31.0655 87.1666C31.1282 87.3584 31.1735 87.5537 31.2118 87.7524C31.2711 88.0418 31.2119 87.6409 31.2188 87.7978C31.2258 87.9058 31.2363 88.0105 31.2398 88.1186C31.2467 88.3103 31.2363 88.4986 31.2223 88.6869C31.2049 88.9728 31.2746 88.4498 31.2153 88.7322C31.1909 88.8473 31.17 88.9658 31.1422 89.0809C31.0934 89.2657 31.0236 89.44 30.9644 89.6248C30.9191 89.7678 31.0724 89.4156 30.9957 89.5446C30.9713 89.5865 30.9539 89.6318 30.933 89.6736C30.8842 89.7713 30.8319 89.8654 30.7796 89.9561C30.7308 90.0397 30.6751 90.12 30.6228 90.2002C30.4555 90.4547 30.7134 90.12 30.5844 90.256C30.4276 90.4163 30.2847 90.5802 30.1173 90.7302C29.8908 90.9359 30.215 90.6848 30.0546 90.7825C29.9675 90.8348 29.8838 90.901 29.7967 90.9533C29.7061 91.0091 29.6154 91.0614 29.5213 91.1067C29.4725 91.1311 29.4238 91.152 29.3785 91.1764C29.1449 91.3054 29.612 91.1032 29.354 91.1869C29.1345 91.2601 28.9219 91.3334 28.6988 91.3857C28.5803 91.4136 28.4618 91.4345 28.3433 91.4554C28.1272 91.4937 28.3328 91.4554 28.3746 91.4519C28.277 91.4589 28.1829 91.4694 28.0888 91.4763C27.8239 91.4938 27.5555 91.4938 27.2906 91.4763C27.2105 91.4728 26.841 91.4275 27.1268 91.4693C26.9909 91.4484 26.8584 91.424 26.7259 91.3961C26.4854 91.3438 26.2589 91.2601 26.0254 91.1869C25.9591 91.166 25.8476 91.0858 26.0742 91.2078C26.0254 91.1834 25.9765 91.1625 25.9277 91.1381C25.8232 91.0823 25.7152 91.03 25.6141 90.9672C25.5235 90.9149 25.4398 90.8557 25.3527 90.7999C25.1157 90.643 25.4956 90.9358 25.2865 90.7476C25.1192 90.5976 24.9658 90.4442 24.8159 90.2769C24.6277 90.0676 24.9275 90.4547 24.7741 90.2245C24.7218 90.1443 24.6661 90.0642 24.6173 89.984C24.5685 89.9003 24.5196 89.8201 24.4778 89.7329C24.4185 89.6179 24.3314 89.3947 24.429 89.6527C24.3628 89.4749 24.2966 89.2971 24.2478 89.1123C24.2199 89.0077 24.1955 88.9031 24.1781 88.7985C24.1676 88.7531 24.1641 88.7043 24.1537 88.659C24.1188 88.5195 24.1711 88.931 24.1641 88.7218C24.1572 88.53 24.1362 88.3452 24.1432 88.1534C24.1432 88.0593 24.1537 87.9651 24.1572 87.8675C24.1781 87.5397 24.1049 88.0732 24.1711 87.7524C24.2164 87.5293 24.2687 87.3131 24.3419 87.0969C24.3837 86.9714 24.4917 86.7657 24.3697 87.0097C24.422 86.9017 24.4709 86.7935 24.5301 86.6889C24.5824 86.5948 24.6382 86.5007 24.6974 86.41C24.7671 86.3054 24.9309 86.1171 24.7497 86.3229C24.9135 86.1346 25.0773 85.9602 25.262 85.7929C25.3004 85.758 25.3388 85.7301 25.3771 85.6952C25.2865 85.7719 25.2167 85.8068 25.3562 85.7162C25.4538 85.6499 25.5479 85.5871 25.649 85.5279C25.764 85.4616 25.886 85.4093 26.001 85.3431C26.0568 85.3117 26.1996 85.2733 25.9487 85.3605C26.0149 85.3361 26.0777 85.3117 26.1439 85.2873C26.4053 85.1931 26.6737 85.1269 26.9456 85.0781C27.0048 85.0676 27.0676 85.0571 27.1268 85.0502C26.8271 85.092 27.1512 85.0502 27.1965 85.0502C27.3603 85.0362 27.5276 85.0327 27.6914 85.0327C29.1832 85.0223 29.1867 82.7001 27.6914 82.714V82.7071Z" fill="#C7D4F2"/>
<path d="M48.8311 158.102C46.318 158.119 44.0489 159.465 43.2333 161.909C42.5536 163.946 43.1601 166.411 44.8193 167.809C46.7781 169.462 49.9185 169.688 52.1144 168.346C54.1012 167.132 54.983 164.814 54.5961 162.565C54.3974 161.414 53.7665 160.277 52.8742 159.521C51.7345 158.551 50.3194 158.116 48.8311 158.102C47.3393 158.091 47.3358 160.41 48.8311 160.42C48.9635 160.42 49.0959 160.424 49.2284 160.431C49.3121 160.434 49.6606 160.476 49.3922 160.438C49.6571 160.476 49.9185 160.532 50.1765 160.612C50.2845 160.644 50.3891 160.685 50.4972 160.72C50.6924 160.783 50.4797 160.713 50.4483 160.699C50.4971 160.724 50.5459 160.745 50.5947 160.769C50.8038 160.877 50.999 161.006 51.1977 161.132C51.358 161.229 51.0339 160.978 51.2605 161.184C51.3337 161.25 51.4068 161.317 51.48 161.386C51.5497 161.456 51.6125 161.529 51.6787 161.602C51.8948 161.84 51.5916 161.449 51.7659 161.714C51.8704 161.874 51.975 162.035 52.0622 162.209C52.104 162.293 52.205 162.572 52.0935 162.258C52.1283 162.359 52.1702 162.457 52.205 162.561C52.2678 162.753 52.3131 162.948 52.3514 163.147C52.4107 163.436 52.3514 163.036 52.3584 163.192C52.3654 163.301 52.3758 163.405 52.3793 163.513C52.3863 163.705 52.3758 163.893 52.3619 164.082C52.3444 164.367 52.4142 163.844 52.3549 164.127C52.3305 164.242 52.3096 164.361 52.2817 164.476C52.2329 164.66 52.1632 164.835 52.104 165.019C52.0586 165.162 52.212 164.81 52.1354 164.939C52.111 164.981 52.0935 165.026 52.0726 165.068C52.0238 165.166 51.9715 165.26 51.9192 165.351C51.8704 165.434 51.8147 165.515 51.7624 165.595C51.5951 165.849 51.853 165.515 51.724 165.651C51.5672 165.811 51.4243 165.975 51.257 166.125C51.0304 166.331 51.3546 166.079 51.1943 166.177C51.1071 166.229 51.0234 166.296 50.9363 166.348C50.8456 166.404 50.7551 166.456 50.661 166.501C50.6122 166.526 50.5633 166.547 50.518 166.571C50.2845 166.7 50.7516 166.498 50.4937 166.582C50.2741 166.655 50.0614 166.728 49.8384 166.78C49.7199 166.808 49.6013 166.829 49.4828 166.85C49.2667 166.888 49.4724 166.85 49.5142 166.847C49.4166 166.854 49.3225 166.864 49.2284 166.871C48.9635 166.888 48.6951 166.888 48.4302 166.871C48.35 166.867 47.9806 166.822 48.2664 166.864C48.1305 166.843 47.998 166.819 47.8656 166.791C47.6251 166.738 47.3985 166.655 47.165 166.582C47.0988 166.561 46.9872 166.48 47.2138 166.602C47.165 166.578 47.1162 166.557 47.0674 166.533C46.9628 166.477 46.8547 166.425 46.7536 166.362C46.663 166.31 46.5794 166.25 46.4922 166.195C46.2552 166.038 46.6352 166.33 46.426 166.142C46.2587 165.992 46.1054 165.839 45.9555 165.672C45.7673 165.462 46.067 165.849 45.9137 165.619C45.8614 165.539 45.8056 165.459 45.7568 165.379C45.708 165.298 45.6593 165.215 45.6174 165.128C45.5582 165.013 45.471 164.789 45.5686 165.047C45.5024 164.87 45.4361 164.692 45.3874 164.507C45.3595 164.402 45.3351 164.298 45.3177 164.193C45.3072 164.148 45.3037 164.099 45.2932 164.054C45.2584 163.914 45.3107 164.326 45.3037 164.116C45.2967 163.925 45.2758 163.74 45.2828 163.548C45.2828 163.454 45.2932 163.36 45.2967 163.262C45.3176 162.934 45.2445 163.468 45.3107 163.147C45.356 162.924 45.4083 162.708 45.4815 162.492C45.5233 162.366 45.6314 162.16 45.5094 162.404C45.5617 162.296 45.6104 162.188 45.6697 162.084C45.722 161.989 45.7777 161.895 45.837 161.805C45.9067 161.7 46.067 161.512 45.8892 161.718C46.0531 161.529 46.217 161.355 46.4017 161.188C46.44 161.153 46.4783 161.125 46.5167 161.09C46.426 161.167 46.3563 161.201 46.4957 161.111C46.5933 161.045 46.6875 160.982 46.7885 160.923C46.9036 160.856 47.0256 160.804 47.1406 160.738C47.1963 160.706 47.3393 160.668 47.0883 160.755C47.1546 160.731 47.2172 160.706 47.2835 160.682C47.5449 160.588 47.8133 160.522 48.0851 160.473C48.1444 160.462 48.2071 160.452 48.2664 160.445C47.9666 160.487 48.2908 160.445 48.3361 160.445C48.4999 160.431 48.6673 160.427 48.8311 160.427C50.3229 160.417 50.3264 158.095 48.8311 158.109V158.102Z" fill="#C7D4F2"/>
<path d="M160.967 47.7661C158.454 47.7836 156.185 49.1295 155.37 51.5737C154.69 53.61 155.296 56.0752 156.955 57.4734C158.914 59.1261 162.055 59.3527 164.251 58.0103C166.237 56.7969 167.119 54.4782 166.732 52.2292C166.534 51.0786 165.903 49.9419 165.01 49.1853C163.871 48.216 162.456 47.7801 160.967 47.7661C159.476 47.7557 159.472 50.0744 160.967 50.0849C161.1 50.0849 161.232 50.0884 161.365 50.0953C161.448 50.0988 161.797 50.1407 161.528 50.1023C161.793 50.1407 162.055 50.1965 162.313 50.2767C162.421 50.308 162.525 50.3499 162.633 50.3847C162.829 50.4475 162.616 50.3778 162.585 50.3638C162.633 50.3882 162.682 50.4091 162.731 50.4335C162.94 50.5416 163.135 50.6707 163.334 50.7962C163.494 50.8938 163.17 50.6428 163.397 50.8485C163.47 50.9147 163.543 50.981 163.616 51.0507C163.686 51.1204 163.752 51.1937 163.818 51.2669C164.035 51.504 163.731 51.1135 163.906 51.3785C164.01 51.5389 164.115 51.6992 164.202 51.8736C164.244 51.9573 164.345 52.2362 164.233 51.9224C164.268 52.0235 164.31 52.1212 164.345 52.2258C164.408 52.4175 164.453 52.6128 164.491 52.8116C164.55 53.101 164.491 52.7 164.498 52.8569C164.505 52.965 164.516 53.0695 164.519 53.1776C164.526 53.3694 164.516 53.5577 164.502 53.746C164.484 54.0319 164.554 53.5089 164.495 53.7913C164.47 53.9064 164.449 54.0249 164.421 54.14C164.373 54.3248 164.303 54.4992 164.244 54.684C164.198 54.8269 164.352 54.4748 164.275 54.6038C164.251 54.6456 164.233 54.6909 164.212 54.7328C164.164 54.8304 164.111 54.9245 164.059 55.0152C164.01 55.0989 163.954 55.1791 163.902 55.2593C163.735 55.5138 163.993 55.1791 163.864 55.315C163.707 55.4754 163.564 55.6393 163.397 55.7892C163.17 55.995 163.494 55.7439 163.334 55.8415C163.247 55.8938 163.163 55.9601 163.076 56.0124C162.985 56.0682 162.895 56.1205 162.801 56.1658C162.752 56.1902 162.703 56.2111 162.658 56.2356C162.424 56.3646 162.891 56.1623 162.633 56.246C162.414 56.3192 162.201 56.3924 161.978 56.4447C161.86 56.4726 161.741 56.4936 161.623 56.5145C161.406 56.5529 161.612 56.5145 161.654 56.511C161.556 56.518 161.462 56.5284 161.368 56.5354C161.103 56.5528 160.835 56.5528 160.57 56.5354C160.49 56.5319 160.12 56.4866 160.406 56.5284C160.27 56.5075 160.138 56.4831 160.005 56.4552C159.765 56.4029 159.538 56.3192 159.305 56.246C159.238 56.2251 159.127 56.1449 159.353 56.2669C159.305 56.2425 159.256 56.2216 159.207 56.1972C159.103 56.1414 158.995 56.0891 158.893 56.0264C158.803 55.9741 158.719 55.9148 158.632 55.859C158.395 55.7021 158.775 55.995 158.566 55.8067C158.398 55.6568 158.245 55.5033 158.095 55.336C157.907 55.1268 158.207 55.5138 158.053 55.2837C158.001 55.2035 157.945 55.1233 157.897 55.0431C157.848 54.9629 157.799 54.8792 157.757 54.792C157.698 54.677 157.611 54.4538 157.708 54.7118C157.642 54.534 157.576 54.3562 157.527 54.1714C157.499 54.0668 157.475 53.9622 157.457 53.8576C157.447 53.8123 157.443 53.7634 157.433 53.7181C157.398 53.5786 157.45 53.9901 157.443 53.7808C157.436 53.5891 157.416 53.4043 157.422 53.2125C157.422 53.1184 157.433 53.0242 157.436 52.9266C157.457 52.5988 157.384 53.1323 157.45 52.8116C157.496 52.5884 157.548 52.3722 157.621 52.156C157.663 52.0305 157.771 51.8248 157.649 52.0689C157.701 51.9608 157.75 51.8527 157.809 51.7481C157.862 51.6539 157.917 51.5598 157.977 51.4691C158.046 51.3645 158.21 51.1763 158.029 51.382C158.193 51.1937 158.357 51.0193 158.541 50.852C158.58 50.8171 158.618 50.7892 158.656 50.7543C158.566 50.8311 158.5 50.8659 158.636 50.7752C158.733 50.709 158.827 50.6463 158.928 50.587C159.043 50.5207 159.165 50.4684 159.28 50.4022C159.336 50.3708 159.479 50.3325 159.228 50.4196C159.294 50.3952 159.357 50.3708 159.423 50.3464C159.685 50.2522 159.953 50.186 160.225 50.1372C160.284 50.1267 160.347 50.1163 160.406 50.1093C160.106 50.1511 160.43 50.1093 160.476 50.1093C160.64 50.0954 160.807 50.0918 160.971 50.0918C162.463 50.0814 162.466 47.7592 160.971 47.7731L160.967 47.7661Z" fill="#C7D4F2"/>
<path d="M114.046 103.833C116.447 105.005 119.306 105.197 121.801 104.178C122.362 103.948 122.819 103.397 122.61 102.752C122.436 102.212 121.784 101.696 121.184 101.943C120.058 102.404 119.222 102.554 118.096 102.526C117.824 102.519 117.556 102.501 117.287 102.466C117.504 102.494 117.064 102.425 117.023 102.418C116.908 102.397 116.796 102.372 116.681 102.344C116.102 102.208 115.597 102.02 115.217 101.835C114.673 101.57 113.938 101.668 113.631 102.25C113.356 102.773 113.464 103.554 114.046 103.837V103.833Z" fill="#C7D4F2"/>
<path d="M126.266 100.974C127.615 100.298 128.762 99.1683 129.48 97.8433C129.626 97.5713 129.679 97.2505 129.599 96.9506C129.525 96.6822 129.316 96.3893 129.065 96.2568C128.797 96.1138 128.469 96.0441 128.173 96.1382C127.891 96.2289 127.626 96.4032 127.479 96.6717C127.308 96.9855 127.117 97.2854 126.897 97.5678C126.956 97.4911 127.019 97.4109 127.078 97.3342C126.74 97.7665 126.35 98.1571 125.914 98.4953C125.991 98.436 126.071 98.3733 126.148 98.314C125.817 98.5685 125.465 98.7882 125.095 98.9765C124.844 99.102 124.635 99.4053 124.562 99.6703C124.485 99.9493 124.52 100.319 124.68 100.563C124.841 100.81 125.078 101.03 125.374 101.096C125.688 101.17 125.977 101.124 126.266 100.978V100.974Z" fill="#C7D4F2"/>
<path d="M130.065 87.9025C130.086 88.0141 130.107 88.1221 130.121 88.2337C130.107 88.1326 130.093 88.028 130.079 87.9269C130.135 88.3732 130.135 88.823 130.079 89.2693C130.093 89.1681 130.107 89.0635 130.121 88.9624C130.058 89.4262 129.936 89.8794 129.751 90.3118C129.79 90.2212 129.828 90.127 129.87 90.0364C129.838 90.1061 129.81 90.1724 129.776 90.2421C129.64 90.528 129.573 90.8209 129.657 91.1347C129.73 91.4032 129.939 91.6961 130.19 91.8286C130.459 91.9715 130.786 92.0413 131.083 91.9471C131.355 91.86 131.647 91.6821 131.776 91.4136C132.107 90.7198 132.303 90.0364 132.397 89.2762C132.477 88.6138 132.428 87.9478 132.299 87.2923C132.243 87.0203 131.999 86.7344 131.766 86.5984C131.518 86.452 131.152 86.3927 130.874 86.4798C130.239 86.6856 129.936 87.2679 130.065 87.906V87.9025Z" fill="#C7D4F2"/>
<path d="M129.609 73.6519C129.891 74.5271 130.118 75.4162 130.281 76.3193C130.32 76.5424 130.355 76.7621 130.39 76.9853C130.442 77.327 130.362 76.7447 130.403 77.0899C130.417 77.2119 130.431 77.3304 130.445 77.4525C130.494 77.9162 130.529 78.3835 130.546 78.8507C130.571 79.4574 131.062 80.0397 131.707 80.0118C132.314 79.9839 132.892 79.5027 132.868 78.8507C132.788 76.8772 132.453 74.9141 131.846 73.0348C131.662 72.4594 131.034 72.0271 130.421 72.2258C129.846 72.4141 129.41 73.0348 129.612 73.6519H129.609Z" fill="#C7D4F2"/>
<path d="M167.904 61.04C168.824 62.4173 169.744 63.798 170.661 65.1753C170.996 65.6809 171.7 65.9459 172.247 65.5903C172.749 65.266 173.024 64.5442 172.662 64.0038C171.741 62.6265 170.821 61.2457 169.905 59.8685C169.57 59.3629 168.866 59.0979 168.319 59.4535C167.817 59.7778 167.541 60.4996 167.904 61.04Z" fill="#C7D4F2"/>
<path d="M173.379 69.9383C173.951 71.6364 174.522 73.3379 175.094 75.036C175.286 75.6113 175.903 76.0471 176.52 75.8449C177.091 75.6601 177.537 75.0325 177.328 74.4188C176.757 72.7207 176.185 71.0192 175.613 69.3211C175.422 68.7458 174.805 68.3099 174.188 68.5122C173.616 68.697 173.17 69.3246 173.379 69.9383Z" fill="#C7D4F2"/>
<path d="M175.969 82.8641C176.074 83.2197 176.168 83.5788 176.245 83.9449C176.287 84.1402 176.321 84.339 176.356 84.5342C176.37 84.6179 176.384 84.7051 176.395 84.7888C176.433 85.0328 176.367 84.5482 176.402 84.862C176.489 85.6151 176.513 86.3717 176.475 87.1284C176.447 87.7351 177.029 88.3174 177.635 88.2895C178.291 88.2616 178.765 87.7804 178.796 87.1284C178.876 85.4861 178.671 83.8194 178.207 82.2469C178.036 81.6646 177.384 81.2427 176.781 81.438C176.192 81.6297 175.788 82.2434 175.973 82.8641H175.969Z" fill="#C7D4F2"/>
<path d="M175.983 94.0287C176.102 95.1027 176.098 96.1801 175.98 97.254C175.938 97.641 176.018 97.0343 175.959 97.4214C175.938 97.5608 175.913 97.6968 175.889 97.8328C175.844 98.0874 175.788 98.3419 175.729 98.5929C175.6 99.1369 175.436 99.6704 175.244 100.197C175.035 100.769 175.478 101.494 176.053 101.623C176.708 101.773 177.255 101.424 177.478 100.814C178.266 98.6627 178.555 96.3091 178.304 94.0287C178.238 93.429 177.82 92.8398 177.144 92.8677C176.572 92.8921 175.913 93.3802 175.983 94.0287Z" fill="#C7D4F2"/>
<path d="M172.815 108.882C172.09 110.891 171.365 112.895 170.64 114.904C170.434 115.476 170.873 116.201 171.448 116.33C172.1 116.48 172.654 116.131 172.874 115.521C173.599 113.513 174.324 111.508 175.049 109.499C175.255 108.927 174.815 108.202 174.24 108.073C173.589 107.923 173.034 108.272 172.815 108.882Z" fill="#C7D4F2"/>
<path d="M167.447 120.574C166.68 121.644 165.914 122.718 165.147 123.788C164.979 124.018 164.959 124.419 165.028 124.681C165.101 124.949 165.311 125.242 165.562 125.375C165.83 125.518 166.158 125.588 166.454 125.493C166.757 125.396 166.963 125.218 167.147 124.96C167.914 123.889 168.681 122.816 169.448 121.745C169.615 121.515 169.636 121.114 169.566 120.853C169.493 120.584 169.284 120.291 169.033 120.159C168.765 120.016 168.437 119.946 168.141 120.04C167.838 120.138 167.632 120.316 167.447 120.574Z" fill="#C7D4F2"/>
<path d="M161.845 127.463C160.782 128.244 159.719 129.022 158.66 129.803C158.409 129.988 158.214 130.183 158.126 130.497C158.05 130.776 158.085 131.145 158.245 131.39C158.405 131.637 158.642 131.857 158.939 131.923C159.224 131.989 159.587 131.986 159.831 131.804C160.894 131.023 161.957 130.246 163.017 129.465C163.268 129.28 163.463 129.085 163.55 128.771C163.627 128.492 163.592 128.122 163.431 127.878C163.271 127.631 163.034 127.411 162.738 127.345C162.452 127.279 162.089 127.282 161.845 127.463Z" fill="#C7D4F2"/>
<path d="M105.475 148.053H110.989C111.595 148.053 112.177 147.519 112.149 146.892C112.122 146.264 111.64 145.731 110.989 145.731H105.475C104.868 145.731 104.286 146.264 104.314 146.892C104.342 147.519 104.823 148.053 105.475 148.053Z" fill="#C7D4F2"/>
<path d="M119.267 147.659C121.87 147.363 124.477 147.063 127.081 146.766C127.705 146.697 128.242 146.285 128.242 145.605C128.242 145.033 127.709 144.374 127.081 144.444C124.477 144.74 121.87 145.04 119.267 145.337C118.643 145.406 118.106 145.818 118.106 146.498C118.106 147.07 118.639 147.729 119.267 147.659Z" fill="#C7D4F2"/>
<path d="M133.509 145.305C135.307 145.347 137.057 144.956 138.699 144.235C138.946 144.127 139.162 143.792 139.232 143.541C139.309 143.262 139.274 142.892 139.114 142.648C138.953 142.401 138.716 142.181 138.42 142.115C138.096 142.042 137.827 142.101 137.528 142.233C137.409 142.286 137.423 142.279 137.573 142.216C137.521 142.237 137.468 142.258 137.416 142.279C137.336 142.31 137.259 142.341 137.179 142.369C136.994 142.439 136.806 142.502 136.618 142.558C136.269 142.666 135.914 142.756 135.551 142.826C135.37 142.861 135.192 142.889 135.011 142.92C134.924 142.934 134.955 142.927 135.109 142.906C135.053 142.913 134.997 142.92 134.941 142.927C134.858 142.938 134.774 142.945 134.69 142.952C134.297 142.986 133.903 142.993 133.509 142.986C132.902 142.972 132.32 143.53 132.348 144.148C132.376 144.789 132.857 145.291 133.509 145.309V145.305Z" fill="#C7D4F2"/>
<path d="M145.102 141.874C145.408 141.721 145.715 141.567 146.018 141.414C146.154 141.341 146.262 141.243 146.342 141.114C146.443 141.002 146.513 140.87 146.551 140.72C146.6 140.567 146.607 140.413 146.572 140.256C146.565 140.103 146.52 139.956 146.437 139.824C146.377 139.747 146.315 139.667 146.255 139.59C146.109 139.447 145.942 139.346 145.743 139.29C145.642 139.277 145.537 139.263 145.436 139.249C145.227 139.249 145.032 139.301 144.851 139.406C144.544 139.559 144.237 139.712 143.934 139.866C143.798 139.939 143.69 140.037 143.61 140.166C143.509 140.277 143.439 140.41 143.401 140.56C143.352 140.713 143.345 140.867 143.38 141.023C143.387 141.177 143.432 141.323 143.516 141.456C143.575 141.532 143.638 141.613 143.697 141.689C143.843 141.832 144.011 141.933 144.209 141.989C144.31 142.003 144.415 142.017 144.516 142.031C144.725 142.031 144.92 141.979 145.102 141.874Z" fill="#C7D4F2"/>
<path d="M89.7163 48.3381C90.2042 48.237 90.6993 48.1498 91.1907 48.0766C91.3057 48.0592 91.4173 48.0417 91.5323 48.0278C91.3057 48.0592 91.6717 48.0104 91.6822 48.0104C91.9296 47.979 92.1771 47.9546 92.428 47.9302C93.404 47.8395 94.3835 47.8011 95.3629 47.8116C95.9694 47.8186 96.5514 47.2747 96.5235 46.6505C96.4956 46.0159 96.0147 45.4964 95.3629 45.4894C93.2611 45.4685 91.1594 45.6812 89.0994 46.0996C88.5034 46.2217 88.106 46.9574 88.2908 47.5257C88.4964 48.1568 89.0784 48.4671 89.7163 48.3346V48.3381Z" fill="#C7D4F2"/>
<path d="M100.407 48.397C102.104 48.6202 103.798 48.8433 105.495 49.0665C105.767 49.1013 106.13 48.9095 106.315 48.7282C106.517 48.526 106.667 48.1982 106.653 47.9088C106.639 47.609 106.541 47.2987 106.315 47.0895C106.071 46.8663 105.82 46.7931 105.495 46.7513C103.798 46.5281 102.104 46.3049 100.407 46.0818C100.135 46.0469 99.7723 46.2387 99.5875 46.42C99.3854 46.6222 99.2355 46.95 99.2494 47.2394C99.2634 47.5393 99.361 47.8496 99.5875 48.0588C99.8315 48.2819 100.082 48.3552 100.407 48.397Z" fill="#C7D4F2"/>
<path d="M110.208 50.1511C111.588 50.4439 112.972 50.7368 114.352 51.0262C114.945 51.1518 115.635 50.8519 115.778 50.2173C115.91 49.635 115.604 48.9237 114.969 48.7912C113.589 48.4983 112.205 48.2054 110.825 47.916C110.232 47.7905 109.542 48.0903 109.399 48.7249C109.267 49.3072 109.574 50.0186 110.208 50.1511Z" fill="#C7D4F2"/>
<path d="M118.677 54.5687C118.935 54.6837 119.179 54.8302 119.406 55.001C119.329 54.9417 119.249 54.879 119.172 54.8197C119.42 55.0115 119.639 55.2312 119.831 55.4752C119.772 55.3985 119.709 55.3183 119.65 55.2416C119.828 55.4752 119.978 55.7263 120.096 55.9948C120.169 56.1308 120.267 56.2388 120.396 56.319C120.507 56.4201 120.64 56.4899 120.79 56.5282C121.069 56.6049 121.438 56.5701 121.682 56.4097C121.929 56.2493 122.149 56.0122 122.215 55.7158C122.229 55.6147 122.243 55.5101 122.257 55.409C122.257 55.1998 122.205 55.0045 122.1 54.8232C122.01 54.6175 121.898 54.4187 121.769 54.2304C121.591 53.9724 121.393 53.7179 121.173 53.4947C120.793 53.1147 120.34 52.7834 119.849 52.5638C119.716 52.4801 119.573 52.4348 119.416 52.4278C119.263 52.3929 119.11 52.3999 118.953 52.4487C118.684 52.5219 118.392 52.7311 118.259 52.9822C118.116 53.2507 118.047 53.5784 118.141 53.8748C118.228 54.1433 118.402 54.4466 118.674 54.5687H118.677Z" fill="#C7D4F2"/>
<path d="M151.574 43.3099C152.641 44.3873 153.711 45.4647 154.778 46.5421C155.206 46.9745 155.994 47.0024 156.419 46.5421C156.845 46.0784 156.876 45.3601 156.419 44.8998C155.353 43.8224 154.283 42.745 153.216 41.6676C152.787 41.2352 152 41.2073 151.574 41.6676C151.149 42.1313 151.118 42.8496 151.574 43.3099Z" fill="#C7D4F2"/>
<path d="M144.543 37.1663C144.599 37.1698 144.655 37.1733 144.71 37.1802C144.906 37.2012 144.717 37.1907 144.637 37.1663C144.742 37.1942 144.86 37.2012 144.968 37.2256C145.188 37.2709 145.404 37.3302 145.617 37.4034C145.711 37.4348 145.805 37.4731 145.899 37.508C146.032 37.5603 145.655 37.3964 145.84 37.4836C145.892 37.508 145.941 37.5289 145.993 37.5568C146.195 37.6545 146.391 37.766 146.579 37.8846C146.662 37.9404 146.746 37.9961 146.83 38.0554C146.851 38.0728 147.032 38.2089 146.875 38.0868C146.722 37.9683 146.882 38.0938 146.917 38.1217C147.091 38.2646 147.255 38.418 147.408 38.5819C147.485 38.6621 147.562 38.7458 147.631 38.833C147.659 38.8678 147.687 38.9027 147.719 38.9376C147.875 39.1259 147.562 38.7144 147.701 38.9167C147.83 39.1015 147.952 39.2897 148.06 39.485C148.353 40.015 149.13 40.2347 149.646 39.8999C150.183 39.5547 150.378 38.8818 150.061 38.3134C148.945 36.2981 146.823 35.015 144.543 34.8476C143.937 34.8023 143.358 35.4124 143.383 36.0087C143.414 36.6747 143.891 37.121 144.543 37.1698V37.1663Z" fill="#C7D4F2"/>
<path d="M135.346 31.7129C135.562 31.706 135.774 31.7129 135.987 31.7408C135.886 31.7269 135.781 31.7129 135.68 31.699C136.025 31.7478 136.36 31.8385 136.681 31.971C136.59 31.9326 136.496 31.8943 136.405 31.8524C136.726 31.9884 137.026 32.1627 137.301 32.3754C137.224 32.3162 137.144 32.2534 137.067 32.1941C137.301 32.3789 137.514 32.5881 137.698 32.8182C137.873 33.0344 138.252 33.1565 138.517 33.1565C138.803 33.1565 139.141 33.0309 139.337 32.8182C139.539 32.5986 139.689 32.3057 139.675 31.9988C139.661 31.8977 139.647 31.7931 139.633 31.692C139.577 31.4967 139.479 31.3259 139.333 31.1795C138.399 30.0114 136.83 29.3349 135.346 29.3942C135.042 29.4047 134.743 29.5163 134.526 29.7324C134.324 29.9347 134.174 30.2624 134.188 30.5518C134.216 31.1585 134.697 31.7373 135.349 31.7129H135.346Z" fill="#C7D4F2"/>
<path d="M123.076 27.6334C124.031 27.8287 124.958 28.1146 125.858 28.4912C125.767 28.4528 125.673 28.4145 125.582 28.3726C125.896 28.5051 126.203 28.6481 126.503 28.8015C127.043 29.0735 127.785 28.9619 128.088 28.3866C128.367 27.8601 128.249 27.093 127.674 26.8001C126.415 26.162 125.077 25.6774 123.693 25.3949C123.387 25.3322 123.076 25.3496 122.801 25.5135C122.56 25.6529 122.33 25.9319 122.268 26.2073C122.135 26.7861 122.442 27.5044 123.076 27.6334Z" fill="#C7D4F2"/>
<path d="M110.296 24.5024L115.28 25.7192C115.869 25.8622 116.566 25.531 116.706 24.9103C116.842 24.3106 116.524 23.6377 115.897 23.4842C114.238 23.0798 112.575 22.6718 110.913 22.2674C110.324 22.1244 109.627 22.4556 109.487 23.0763C109.351 23.676 109.668 24.3489 110.296 24.5024Z" fill="#C7D4F2"/>
<path d="M99.2981 23.2367C99.4794 23.1879 99.6641 23.1461 99.8489 23.1112C99.9011 23.1007 99.9534 23.0938 100.009 23.0833C100.138 23.0624 100.117 23.0659 99.9395 23.0903C100.002 23.0624 100.114 23.0694 100.18 23.0659C100.556 23.031 100.936 23.0275 101.313 23.0519C101.393 23.0589 101.473 23.0624 101.553 23.0728C101.606 23.0798 101.661 23.0833 101.714 23.0903C101.539 23.0659 101.515 23.0624 101.647 23.0833C101.832 23.1147 102.02 23.1495 102.202 23.1914C102.571 23.2786 102.927 23.3971 103.279 23.5401C103.537 23.6447 103.941 23.5575 104.171 23.4215C104.411 23.2821 104.641 23.0031 104.704 22.7277C104.77 22.4313 104.757 22.0965 104.586 21.835C104.411 21.5631 104.188 21.4236 103.892 21.3016C102.254 20.6286 100.382 20.5484 98.6778 20.9982C98.0922 21.1516 97.6774 21.835 97.8691 22.4243C98.0643 23.0275 98.6673 23.4006 99.2947 23.2332L99.2981 23.2367Z" fill="#C7D4F2"/>
<path d="M86.0009 22.9159C86.5446 22.7172 87.1023 22.5777 87.6774 22.4975C87.5764 22.5114 87.4718 22.5254 87.3707 22.5393C88.0957 22.4417 88.8241 22.4417 89.5456 22.5358C89.4446 22.5219 89.34 22.5079 89.239 22.494C89.34 22.5079 89.4377 22.5219 89.5353 22.5393C89.8524 22.5916 90.1417 22.5881 90.4275 22.4208C90.668 22.2813 90.898 22.0024 90.9608 21.7269C91.0897 21.1655 90.79 20.4089 90.1521 20.3008C88.5557 20.0289 86.9141 20.123 85.3874 20.6774C85.0981 20.782 84.8542 20.9389 84.6938 21.2109C84.5474 21.4584 84.4881 21.8245 84.5753 22.1035C84.7565 22.6614 85.3909 23.1356 86.0009 22.9124V22.9159Z" fill="#C7D4F2"/>
<path d="M75.4496 25.2657C76.6765 24.8054 77.8999 24.3452 79.1268 23.8849C79.4161 23.7768 79.6601 23.6269 79.8204 23.3515C79.9668 23.1039 80.0261 22.7378 79.939 22.4588C79.7612 21.9044 79.1198 21.4198 78.5133 21.6499C77.2864 22.1102 76.063 22.5704 74.8361 23.0307C74.5468 23.1388 74.3028 23.2887 74.1425 23.5642C73.9961 23.8117 73.9369 24.1778 74.024 24.4567C74.2018 25.0111 74.8431 25.4958 75.4496 25.2657Z" fill="#C7D4F2"/>
<path d="M33.1536 81.452C34.2376 80.2351 35.318 79.0182 36.402 77.8013C36.8063 77.348 36.883 76.6019 36.402 76.159C35.9628 75.7546 35.1925 75.6744 34.7603 76.159C33.6763 77.3759 32.5958 78.5928 31.5118 79.8097C31.1075 80.263 31.0308 81.0092 31.5118 81.452C31.951 81.8565 32.7214 81.9367 33.1536 81.452Z" fill="#C7D4F2"/>
<path d="M39.6509 73.6905C41.3275 72.1494 43.0005 70.6047 44.677 69.0636C45.1232 68.6521 45.1266 67.8362 44.677 67.4213C44.1995 66.982 43.5129 66.982 43.0353 67.4213C41.3588 68.9625 39.6858 70.5071 38.0093 72.0482C37.5631 72.4597 37.5596 73.2756 38.0093 73.6905C38.4868 74.1299 39.1734 74.1299 39.6509 73.6905Z" fill="#C7D4F2"/>
<path d="M49.027 65.6428C49.0932 65.5487 49.1595 65.4581 49.2257 65.3674C49.2396 65.3465 49.3826 65.1617 49.2606 65.3221C49.1421 65.4755 49.271 65.3116 49.2954 65.2802C49.4383 65.1024 49.5847 64.9316 49.7381 64.7607C50.0413 64.4225 50.3655 64.1017 50.7036 63.8018C50.8744 63.6519 51.0486 63.5055 51.2264 63.366C51.3484 63.2684 51.1915 63.3974 51.1532 63.4218C51.209 63.3834 51.2612 63.3381 51.317 63.2997C51.4007 63.2405 51.4808 63.1812 51.5645 63.1219C51.9444 62.8534 52.3418 62.6128 52.7531 62.3897C53.2864 62.1003 53.5025 61.3157 53.1678 60.8032C52.8193 60.2627 52.1535 60.078 51.5819 60.3883C49.759 61.375 48.2184 62.7907 47.0228 64.4783C46.859 64.7119 46.8347 65.1059 46.9044 65.3709C46.9776 65.6394 47.1867 65.9323 47.4377 66.0648C48.0337 66.3786 48.6471 66.1798 49.0235 65.6498L49.027 65.6428Z" fill="#C7D4F2"/>
<path d="M57.3671 58.753C58.2804 58.2788 59.19 57.8046 60.1032 57.3304C60.6435 57.0515 60.8457 56.253 60.5181 55.7439C60.1625 55.193 59.5073 55.0292 58.9321 55.329C58.0189 55.8032 57.1092 56.2774 56.196 56.7516C55.6557 57.0306 55.4536 57.8291 55.7812 58.3381C56.1367 58.889 56.792 59.0529 57.3671 58.753Z" fill="#C7D4F2"/>
<path d="M66.7987 53.0415C66.8754 52.9753 66.9522 52.9091 67.0323 52.8463C66.9556 52.9056 66.8754 52.9684 66.7987 53.0276C67.0567 52.8324 67.3321 52.6755 67.6249 52.5465C67.5342 52.5848 67.4401 52.6232 67.3495 52.665C67.6771 52.529 68.0187 52.4348 68.3707 52.386C68.2696 52.4 68.1651 52.414 68.064 52.4279C68.3986 52.3861 68.7367 52.3826 69.0713 52.4279C68.9702 52.414 68.8657 52.4 68.7646 52.386C68.7995 52.3895 68.8309 52.3965 68.8657 52.4C69.1829 52.4488 69.4686 52.4523 69.7579 52.2815C69.9984 52.142 70.2285 51.863 70.2912 51.5876C70.3575 51.2912 70.3436 50.9565 70.1728 50.695C70.0194 50.4579 69.772 50.2068 69.4792 50.1615C68.6984 50.0395 67.9281 50.0499 67.1647 50.2731C66.4154 50.4927 65.7461 50.8798 65.1641 51.3993C64.7109 51.8038 64.7214 52.6336 65.1641 53.0415C65.6485 53.4879 66.3212 53.4739 66.8057 53.0415H66.7987Z" fill="#C7D4F2"/>
<path d="M23.5055 95.2316C23.0838 96.0371 22.7632 96.9053 22.6133 97.8049C22.4425 98.8056 22.4425 99.761 22.5784 100.765C22.6133 101.03 22.8921 101.33 23.1117 101.459C23.3592 101.606 23.7252 101.665 24.004 101.578C24.2864 101.487 24.5547 101.313 24.6976 101.044C24.8545 100.748 24.8579 100.479 24.8161 100.152C24.8649 100.504 24.8161 100.127 24.8126 100.057C24.8056 99.9772 24.7986 99.897 24.7952 99.8133C24.7847 99.625 24.7813 99.4332 24.7848 99.2449C24.7883 99.0566 24.7987 98.8649 24.8161 98.6766C24.8196 98.6382 24.8754 98.314 24.8335 98.5092C24.7917 98.7045 24.858 98.3767 24.8649 98.3419C24.9312 97.9688 25.0252 97.6027 25.1472 97.2435C25.1716 97.1668 25.1996 97.0901 25.2274 97.0134C25.2449 96.9611 25.2658 96.9123 25.2867 96.8635C25.3355 96.7449 25.3285 96.7624 25.2623 96.9158C25.2936 96.7449 25.4295 96.5566 25.5097 96.4032C25.792 95.8663 25.6666 95.1166 25.095 94.8167C24.5617 94.5343 23.8088 94.6598 23.509 95.2316H23.5055Z" fill="#C7D4F2"/>
<path d="M21.3272 106.63C20.759 108.823 20.5883 111.121 20.8672 113.37C20.9403 113.97 21.3481 114.559 22.0278 114.531C22.5924 114.507 23.2686 114.015 23.1885 113.37C23.0595 112.317 23.0212 111.253 23.0874 110.197C23.1013 109.953 23.1222 109.709 23.1501 109.465C23.1571 109.385 23.1676 109.301 23.178 109.221C23.1954 109.088 23.1989 109.06 23.1885 109.133C23.178 109.207 23.1815 109.179 23.2024 109.046C23.2129 108.966 23.2268 108.886 23.2407 108.806C23.3279 108.283 23.4395 107.763 23.5719 107.251C23.7218 106.665 23.3802 105.964 22.7633 105.824C22.1568 105.685 21.498 106.006 21.3376 106.633L21.3272 106.63Z" fill="#C7D4F2"/>
<path d="M20.7133 121.916C21.3094 123.761 21.9054 125.605 22.5014 127.45C22.6862 128.025 23.3135 128.457 23.927 128.259C24.5021 128.07 24.9378 127.45 24.7356 126.832C24.1396 124.988 23.5436 123.143 22.9476 121.299C22.7629 120.724 22.1354 120.291 21.522 120.49C20.9469 120.678 20.5112 121.299 20.7133 121.916Z" fill="#C7D4F2"/>
<path d="M23.9236 135.253L26.2416 140.762C26.3636 141.055 26.489 141.288 26.7749 141.456C27.0223 141.602 27.3883 141.662 27.6672 141.574C28.2005 141.4 28.7302 140.745 28.4757 140.148C27.702 138.311 26.9317 136.477 26.1579 134.639C26.0359 134.346 25.9104 134.113 25.6246 133.945C25.3771 133.799 25.0111 133.74 24.7323 133.827C24.199 134.001 23.6692 134.657 23.9236 135.253Z" fill="#C7D4F2"/>
<path d="M31.1666 149.057C32.0798 150.134 32.9966 151.208 33.9098 152.286C34.0945 152.502 34.4569 152.624 34.7288 152.624C35.0007 152.624 35.3528 152.499 35.5479 152.286C35.7501 152.066 35.9 151.773 35.886 151.466C35.8721 151.146 35.7536 150.891 35.5479 150.647C34.6347 149.57 33.7181 148.496 32.8049 147.418C32.6202 147.202 32.2576 147.08 31.9858 147.08C31.7139 147.08 31.3618 147.206 31.1666 147.418C30.9645 147.638 30.8146 147.931 30.8285 148.238C30.8425 148.558 30.961 148.813 31.1666 149.057Z" fill="#C7D4F2"/>
<path d="M37.8456 156.212C38.5357 157.575 39.8323 158.607 41.2892 159.04C41.8713 159.21 42.5789 158.83 42.7148 158.231C42.8578 157.607 42.5266 156.989 41.9062 156.805C41.7458 156.756 41.589 156.7 41.4322 156.637C41.5228 156.676 41.6169 156.714 41.7075 156.756C41.3485 156.602 41.0104 156.404 40.7002 156.163C40.7769 156.222 40.857 156.285 40.9337 156.344C40.6235 156.104 40.3482 155.825 40.1077 155.518C40.1669 155.595 40.2297 155.675 40.2889 155.752C40.1181 155.528 39.9718 155.291 39.8463 155.044C39.7208 154.793 39.4176 154.584 39.1527 154.51C38.8738 154.434 38.5043 154.468 38.2603 154.629C38.0129 154.789 37.7933 155.026 37.727 155.323C37.6539 155.637 37.6957 155.926 37.8456 156.215V156.212Z" fill="#C7D4F2"/>
<path d="M55.2655 172.248C56.6074 173.217 57.9494 174.186 59.2948 175.156C59.5248 175.323 59.9256 175.344 60.187 175.274C60.4554 175.201 60.7482 174.992 60.8806 174.741C61.1978 174.141 60.9922 173.534 60.4658 173.154C59.1239 172.185 57.782 171.215 56.4366 170.246C56.2065 170.079 55.8058 170.058 55.5443 170.128C55.276 170.201 54.9832 170.41 54.8507 170.661C54.5335 171.261 54.7392 171.867 55.2655 172.248Z" fill="#C7D4F2"/>
<path d="M65.3423 178.75C66.7191 179.368 68.0959 179.985 69.4727 180.602C69.7655 180.734 70.0444 180.808 70.365 180.721C70.6334 180.647 70.9262 180.438 71.0586 180.187C71.327 179.681 71.2329 178.866 70.6438 178.601C69.267 177.983 67.8903 177.366 66.5135 176.749C66.2207 176.617 65.9419 176.543 65.6212 176.631C65.3528 176.704 65.06 176.913 64.9276 177.164C64.6592 177.67 64.7533 178.485 65.3423 178.75Z" fill="#C7D4F2"/>
<path d="M77.0955 182.631C79.2565 183.179 81.4176 183.73 83.5786 184.277C84.1642 184.427 84.8648 184.085 85.0042 183.468C85.1402 182.865 84.823 182.199 84.1956 182.042C82.0345 181.495 79.8735 180.944 77.7125 180.396C77.1269 180.246 76.4264 180.588 76.2869 181.205C76.151 181.808 76.4681 182.474 77.0955 182.631Z" fill="#C7D4F2"/>
<path d="M91.6612 185.951C94.1743 185.703 96.7117 185.804 99.169 186.289C99.7825 186.411 100.42 186.115 100.595 185.48C100.751 184.908 100.403 184.176 99.786 184.054C97.1091 183.524 94.3764 183.363 91.6612 183.632C91.0373 183.695 90.5005 184.12 90.5005 184.793C90.5005 185.372 91.0338 186.017 91.6612 185.954V185.951Z" fill="#C7D4F2"/>
<path d="M107.601 186.041C109.444 185.769 111.288 185.494 113.129 185.222C113.732 185.131 114.115 184.34 113.937 183.796C113.725 183.137 113.157 182.889 112.512 182.987C110.668 183.259 108.824 183.534 106.984 183.806C106.381 183.897 105.997 184.688 106.175 185.232C106.388 185.891 106.956 186.139 107.601 186.041Z" fill="#C7D4F2"/>
<path d="M123.858 182.537C125.998 182.488 128.065 181.99 130.009 181.107C130.564 180.856 130.741 180.009 130.424 179.521C130.055 178.949 129.431 178.834 128.838 179.106C128.796 179.123 128.406 179.294 128.643 179.193C128.549 179.232 128.451 179.27 128.357 179.308C128.134 179.395 127.908 179.476 127.681 179.552C127.259 179.692 126.831 179.81 126.395 179.911C126.179 179.96 125.959 180.006 125.74 180.044C125.621 180.065 125.503 180.082 125.384 180.103C125.046 180.159 125.625 180.079 125.287 180.117C124.809 180.173 124.332 180.208 123.854 180.218C123.248 180.232 122.665 180.741 122.693 181.379C122.721 181.997 123.202 182.554 123.854 182.54L123.858 182.537Z" fill="#C7D4F2"/>
<path d="M127.925 159.95C127.392 162.31 127.245 164.748 127.541 167.15C127.615 167.75 128.023 168.339 128.702 168.311C129.267 168.287 129.943 167.795 129.863 167.15C129.723 166.024 129.671 164.887 129.727 163.754C129.783 162.589 129.901 161.718 130.163 160.567C130.295 159.978 129.981 159.284 129.354 159.141C128.765 159.005 128.071 159.319 127.928 159.95H127.925Z" fill="#C7D4F2"/>
<path d="M126.119 164.622C126.698 164.298 127.005 164.165 127.639 163.984C128.294 163.796 128.678 163.736 129.256 163.709C129.542 163.695 129.828 163.695 130.11 163.709C130.274 163.716 130.434 163.733 130.598 163.747C130.741 163.764 130.759 163.764 130.654 163.754C130.734 163.768 130.814 163.778 130.894 163.796C131.497 163.904 132.083 164.085 132.644 164.322C133.205 164.559 133.944 164.068 134.07 163.513C134.223 162.833 133.861 162.338 133.261 162.087C130.602 160.965 127.451 161.216 124.948 162.624C124.401 162.931 124.22 163.677 124.533 164.211C124.854 164.762 125.572 164.936 126.119 164.626V164.622Z" fill="#C7D4F2"/>
<path d="M153.045 1.16185C152.854 3.42128 153.021 5.69814 153.502 7.90876C153.631 8.50151 154.356 8.90598 154.928 8.7177C155.551 8.51546 155.876 7.92619 155.736 7.29159C155.621 6.76509 155.524 6.23161 155.447 5.69813C155.471 5.88293 155.423 5.50637 155.426 5.51334C155.412 5.39131 155.398 5.26578 155.384 5.14026C155.356 4.87177 155.335 4.60329 155.318 4.33481C155.252 3.27832 155.269 2.21834 155.36 1.16185C155.412 0.55515 154.788 -0.0236619 154.199 0.000745516C153.526 0.0321265 153.094 0.509821 153.038 1.16185H153.045Z" fill="#C7D4F2"/>
<path d="M151.891 5.07758H157.865C158.471 5.07758 159.053 4.5441 159.026 3.91647C158.998 3.28885 158.517 2.75537 157.865 2.75537H151.891C151.284 2.75537 150.702 3.28885 150.73 3.91647C150.758 4.5441 151.239 5.07758 151.891 5.07758Z" fill="#C7D4F2"/>
<path d="M2.28955 112.414V122.069C2.28955 123.562 4.60739 123.565 4.60739 122.069V112.414C4.60739 110.922 2.28955 110.918 2.28955 112.414Z" fill="#C7D4F2"/>
<path d="M1.47716 117.735C1.95468 117.613 2.43224 117.512 2.91673 117.429C3.02826 117.408 3.13979 117.39 3.25132 117.373C3.32452 117.362 3.40116 117.352 3.47436 117.341C3.37328 117.355 3.36279 117.355 3.44645 117.345C3.69043 117.317 3.93445 117.289 4.17844 117.268C5.15787 117.184 6.14077 117.184 7.12369 117.258C7.73017 117.303 8.30879 116.693 8.28439 116.097C8.25302 115.431 7.77548 114.984 7.12369 114.936C5.0254 114.782 2.89924 114.981 0.856731 115.497C0.267678 115.647 -0.143637 116.337 0.0480663 116.923C0.243255 117.533 0.842795 117.892 1.47367 117.732L1.47716 117.735Z" fill="#C7D4F2"/>
<path d="M70.7661 200.222V208.036C70.7661 208.664 71.2994 209.197 71.9268 209.197C72.5542 209.197 73.0874 208.667 73.0874 208.036V200.222C73.0874 199.594 72.5542 199.061 71.9268 199.061C71.2994 199.061 70.7661 199.591 70.7661 200.222Z" fill="#C7D4F2"/>
<path d="M75.8335 202.968L68.0197 202.968C67.392 202.968 66.8585 203.502 66.8585 204.129C66.8585 204.756 67.3886 205.29 68.0197 205.29L75.8335 205.29C76.4611 205.29 76.9946 204.756 76.9946 204.129C76.9946 203.502 76.4646 202.968 75.8335 202.968Z" fill="#C7D4F2"/>
</svg>
