<svg width="65" height="64" viewBox="0 0 65 64" fill="none" xmlns="http://www.w3.org/2000/svg">
<circle cx="32.7656" cy="32" r="32" fill="white"/>
<g clip-path="url(#clip0_110_3188)">
<path d="M32.2666 51.0001C32.1115 50.7226 31.9937 50.5543 31.9171 50.3674C30.4928 46.9357 27.7339 45.328 24.1638 45.032C22.2199 44.8711 20.2461 44.9987 18.2891 45.045C15.7806 45.106 13.319 44.9876 10.9844 43.9017C10.1283 43.5039 9.76008 43.0451 9.76569 42.0368C9.81429 33.438 9.79373 24.8392 9.79186 16.2403C9.79186 15.8814 9.79186 15.5225 9.79186 15.0785C10.6461 15.6576 11.3919 16.1626 12.3601 16.8194V12.2776C14.2031 14.1313 16.418 14.7566 18.8554 14.8454C20.2554 14.8954 21.6573 14.9287 23.0554 15.0082C23.7358 15.0471 24.4236 15.1266 25.0891 15.2746C27.4947 15.8056 29.3676 17.0895 30.5208 19.2762C31.1358 20.4454 31.6591 21.6609 32.2666 22.9466C32.3993 22.6987 32.519 22.5063 32.6105 22.301C32.9377 21.5684 33.2461 20.8284 33.5788 20.0995C35.0535 16.8435 37.6741 15.2543 41.1993 15.0249C42.5975 14.9342 43.9993 14.9046 45.3993 14.8584C47.9021 14.777 50.2311 14.2701 52.1003 12.002V16.4864C52.1881 16.5493 52.2778 16.6122 52.3657 16.6733C53.1115 16.1793 53.8573 15.6872 54.7077 15.1248C54.7227 15.406 54.7507 15.6853 54.7507 15.9665C54.7507 24.7818 54.7433 33.5953 54.7676 42.4106C54.7676 43.0692 54.532 43.4059 53.975 43.6908C52.1657 44.6158 50.2423 45.0487 48.2199 45.0468C45.7302 45.0431 43.2348 44.8785 40.7545 45.0098C36.9489 45.2115 34.033 46.8765 32.5489 50.5395C32.4965 50.669 32.4049 50.7837 32.2685 51.0038L32.2666 51.0001ZM32.7825 47.0615C35.3601 43.3541 37.8068 41.9961 42.3414 41.8537C43.8031 41.8074 45.2834 41.8592 46.719 41.6335C47.9526 41.4393 49.147 40.949 50.332 40.518C50.9657 40.2886 51.1862 39.7817 51.1825 39.0583C51.1507 32.3724 51.1638 25.6865 51.1638 19.0006V18.1033C48.304 17.9905 45.5732 17.8961 42.8423 17.7703C38.2909 17.5613 35.2068 19.7202 33.2124 23.6108C32.9563 24.1103 32.8012 24.7171 32.7993 25.2758C32.7713 32.2392 32.7825 39.2008 32.7825 46.1642C32.7825 46.4621 32.7825 46.7599 32.7825 47.0578V47.0615ZM31.6816 47.3519C31.7302 46.9394 31.7582 46.821 31.7582 46.7026C31.7601 39.4616 31.7619 32.2226 31.7545 24.9816C31.7545 24.7115 31.7115 24.4229 31.6162 24.1713C30.1302 20.2956 26.6199 17.7981 22.4292 17.7944C19.4517 17.7944 16.4741 17.9812 13.3788 18.0885C13.3788 18.3919 13.3788 18.7508 13.3788 19.1116C13.3788 25.4589 13.3788 31.8045 13.3788 38.1518C13.3788 40.185 13.5919 40.4884 15.5619 41.1803C15.9414 41.3135 16.3339 41.4559 16.7302 41.4874C18.433 41.628 20.1377 41.7741 21.8442 41.8352C25.9844 41.9795 29.5937 43.0488 31.6797 47.3501L31.6816 47.3519ZM35.3433 45.4242C39.0666 43.9923 40.5545 43.7537 44.3171 43.9572C45.6834 44.0312 47.0685 44.1625 48.4199 44.0238C49.919 43.8702 51.3937 43.4614 52.8685 43.1191C53.5507 42.96 53.7862 42.5216 53.7825 41.7686C53.7451 33.8802 53.7601 25.9917 53.7601 18.1033C53.7601 17.8036 53.7601 17.5021 53.7601 17.1839C52.7034 17.4725 52.175 18.0916 52.175 19.0413C52.175 25.8511 52.1676 32.661 52.19 39.4709C52.1919 40.1239 51.9919 40.5531 51.4666 40.9453C50.1582 41.9184 48.6928 42.4901 47.0834 42.6196C44.975 42.7898 42.8535 42.7972 40.7507 42.9952C38.6947 43.1894 36.8442 43.9553 35.3451 45.4279L35.3433 45.4242ZM10.7825 17.1672C10.7825 17.5206 10.7825 17.848 10.7825 18.1755C10.7825 25.5699 10.7825 32.9644 10.7825 40.3607C10.7825 43.0618 10.8068 43.2764 13.5171 43.676C15.7115 43.9997 17.975 43.9794 20.2049 43.9405C23.0872 43.8906 25.9395 43.8499 28.5862 45.2337C28.7769 45.3336 28.9769 45.4168 29.1732 45.5075C27.7134 43.9535 25.861 43.2024 23.8087 42.9933C22.2031 42.8305 20.5769 42.8527 18.9619 42.7676C16.8853 42.6585 14.8909 42.2866 13.1638 41.0064C12.59 40.5809 12.347 40.1258 12.3489 39.3895C12.3806 32.6425 12.3676 25.8937 12.3676 19.1467C12.3676 18.1489 11.8392 17.4891 10.7825 17.1672ZM29.1003 19.045C28.3451 17.8018 27.2704 16.9378 25.9021 16.5641C24.7451 16.2477 23.5339 16.0609 22.3339 15.9758C19.319 15.7593 16.2162 16.1071 13.4199 14.3385V16.9637C15.0311 16.9637 16.6087 17.0581 18.1713 16.9452C22.0124 16.664 25.8386 16.331 29.1003 19.0468V19.045ZM35.4442 19.0283C37.1563 17.7 39.0816 16.8879 41.2517 16.8342C42.9862 16.7917 44.7264 16.9415 46.4629 16.9711C48.0031 16.997 49.5433 16.9767 51.1208 16.9767V14.4625C50.2274 14.7992 49.3919 15.2746 48.5003 15.4171C46.8199 15.6853 45.1077 15.7575 43.4105 15.9221C42.0218 16.0553 40.6143 16.1053 39.2517 16.3717C37.6274 16.6899 36.3395 17.6131 35.4423 19.0283H35.4442Z" fill="#5D74D4"/>
<g filter="url(#filter0_b_110_3188)">
<path d="M15.2168 37.0909V19.9091C25.1784 18.5345 29.2132 22.9636 29.9854 25.35V43.1045C27.3792 39.9545 22.1667 40.2409 18.6918 39.9545C15.9118 39.7255 15.2168 37.95 15.2168 37.0909Z" fill="#5D74D4"/>
</g>
<g filter="url(#filter1_b_110_3188)">
<path d="M49.6777 36.7773V19.5954C39.7161 18.2209 35.6813 22.65 34.9091 25.0363V42.7909C37.5153 39.6409 42.7278 39.9272 46.2028 39.6409C48.9827 39.4118 49.6777 37.6363 49.6777 36.7773Z" fill="#5D74D4"/>
</g>
</g>
<defs>
<filter id="filter0_b_110_3188" x="7.2168" y="11.65" width="30.7695" height="39.4545" filterUnits="userSpaceOnUse" color-interpolation-filters="sRGB">
<feFlood flood-opacity="0" result="BackgroundImageFix"/>
<feGaussianBlur in="BackgroundImageFix" stdDeviation="4"/>
<feComposite in2="SourceAlpha" operator="in" result="effect1_backgroundBlur_110_3188"/>
<feBlend mode="normal" in="SourceGraphic" in2="effect1_backgroundBlur_110_3188" result="shape"/>
</filter>
<filter id="filter1_b_110_3188" x="26.9082" y="11.3364" width="30.7695" height="39.4545" filterUnits="userSpaceOnUse" color-interpolation-filters="sRGB">
<feFlood flood-opacity="0" result="BackgroundImageFix"/>
<feGaussianBlur in="BackgroundImageFix" stdDeviation="4"/>
<feComposite in2="SourceAlpha" operator="in" result="effect1_backgroundBlur_110_3188"/>
<feBlend mode="normal" in="SourceGraphic" in2="effect1_backgroundBlur_110_3188" result="shape"/>
</filter>
<clipPath id="clip0_110_3188">
<rect width="45" height="39" fill="white" transform="translate(9.76562 12)"/>
</clipPath>
</defs>
</svg>
