<svg xmlns="http://www.w3.org/2000/svg" width="88" height="77" viewBox="0 0 88 77" fill="none">
<g clip-path="url(#clip0_318_894)">
<path d="M43.7704 77C43.4686 76.4521 43.2395 76.1197 43.0904 75.7508C40.3198 68.9753 34.953 65.8012 28.0083 65.2168C24.2268 64.899 20.3872 65.151 16.5803 65.2424C11.7008 65.3629 6.91217 65.1291 2.3708 62.9851C0.705508 62.1998 -0.0107854 61.2939 0.000122622 59.3033C0.0946588 42.3261 0.0546627 25.3489 0.0510267 8.37172C0.0510267 7.66312 0.0510267 6.95452 0.0510267 6.0779C1.71268 7.22116 3.16345 8.21831 5.0469 9.51497V0.547896C8.632 4.20778 12.9407 5.44235 17.682 5.61767C20.4054 5.71629 23.1324 5.78204 25.8521 5.9391C27.1756 6.01581 28.5137 6.17287 29.8081 6.46507C34.4876 7.51336 38.1309 10.0483 40.3743 14.3656C41.5706 16.674 42.5887 19.0738 43.7704 21.6123C44.0285 21.1229 44.2612 20.743 44.4394 20.3376C45.0757 18.8911 45.6756 17.4301 46.3228 15.991C49.1916 9.56246 54.2893 6.42489 61.1468 5.97197C63.8666 5.793 66.5936 5.73456 69.3169 5.64324C74.1855 5.48253 78.716 4.48172 82.352 0.00366211V8.85751C82.5229 8.9817 82.6974 9.10589 82.8683 9.22642C84.3191 8.25118 85.7699 7.2796 87.4242 6.16921C87.4533 6.72441 87.5079 7.27595 87.5079 7.83114C87.5079 25.2357 87.4933 42.6366 87.5406 60.0411C87.5406 61.3414 87.0825 62.0062 85.9989 62.5687C82.4793 64.395 78.7378 65.2497 74.8037 65.246C69.9605 65.2387 65.1064 64.9136 60.2815 65.173C52.8786 65.5711 47.2064 68.8584 44.3194 76.0905C44.2176 76.3462 44.0394 76.5727 43.774 77.0073L43.7704 77ZM44.7739 69.2237C49.7879 61.9039 54.5475 59.2229 63.3684 58.9417C66.2118 58.8503 69.0915 58.9526 71.884 58.507C74.2837 58.1235 76.6071 57.1555 78.9124 56.3045C80.145 55.8516 80.574 54.8508 80.5667 53.4226C80.5049 40.2222 80.5304 27.0218 80.5304 13.8214V12.0499C74.9673 11.8271 69.6551 11.6408 64.3429 11.3924C55.4892 10.9797 49.4898 15.2422 45.6102 22.9236C45.112 23.9098 44.8103 25.1078 44.8066 26.2109C44.7521 39.9592 44.7739 53.7039 44.7739 67.4522C44.7739 68.0402 44.7739 68.6283 44.7739 69.2164V69.2237ZM42.6323 69.7971C42.7268 68.9826 42.7814 68.7488 42.7814 68.5151C42.785 54.2189 42.7886 39.9263 42.7741 25.6301C42.7741 25.0969 42.6905 24.5271 42.505 24.0303C39.6144 16.3782 32.786 11.4472 24.6341 11.4399C18.8419 11.4399 13.0497 11.8088 7.02852 12.0206C7.02852 12.6197 7.02852 13.3283 7.02852 14.0405C7.02852 26.5725 7.02852 39.1009 7.02852 51.6329C7.02852 55.647 7.44303 56.2461 11.2754 57.6121C12.0135 57.8751 12.777 58.1564 13.5479 58.2185C16.8603 58.496 20.1763 58.7846 23.496 58.9051C31.5497 59.19 38.5709 61.3012 42.6287 69.7935L42.6323 69.7971ZM49.7552 65.9911C56.9981 63.164 59.8924 62.6929 67.2117 63.0946C69.8696 63.2407 72.5639 63.5001 75.1927 63.2261C78.1088 62.923 80.9776 62.1158 83.8464 61.44C85.1736 61.1259 85.6317 60.2602 85.6244 58.7736C85.5517 43.1991 85.5808 27.6245 85.5808 12.0499C85.5808 11.4581 85.5808 10.8628 85.5808 10.2345C83.5252 10.8043 82.4975 12.0267 82.4975 13.9017C82.4975 27.3469 82.4829 40.792 82.5265 54.2371C82.5302 55.5265 82.1411 56.3739 81.1194 57.1482C78.5742 59.0695 75.7236 60.1981 72.593 60.4538C68.4916 60.7899 64.3647 60.8045 60.2742 61.1953C56.2746 61.5788 52.6749 63.091 49.7589 65.9984L49.7552 65.9911ZM1.97811 10.2017C1.97811 10.8993 1.97811 11.5458 1.97811 12.1923C1.97811 26.7917 1.97811 41.391 1.97811 55.994C1.97811 61.3268 2.02538 61.7505 7.29759 62.5395C11.5663 63.1787 15.9695 63.1385 20.3072 63.0618C25.9139 62.9631 31.4625 62.8828 36.6111 65.6149C36.9819 65.8122 37.371 65.9765 37.7528 66.1555C34.9131 63.0873 31.3098 61.6044 27.3174 61.1917C24.1941 60.8702 21.0308 60.9141 17.8893 60.746C13.8497 60.5305 9.97005 59.7964 6.61038 57.2688C5.49413 56.4287 5.02145 55.5302 5.02508 54.0764C5.08689 40.7555 5.06144 27.4309 5.06144 14.1099C5.06144 12.14 4.03367 10.8372 1.97811 10.2017ZM37.611 13.909C36.142 11.4545 34.0513 9.74874 31.3898 9.01092C29.1391 8.38633 26.7829 8.01742 24.4486 7.8494C18.5837 7.42205 12.548 8.10873 7.10851 4.61687V9.79988C10.2428 9.79988 13.3115 9.98616 16.3512 9.76335C23.8232 9.20816 31.2661 8.5507 37.611 13.9127V13.909ZM49.9516 13.8762C53.2822 11.2536 57.0272 9.65012 61.2486 9.5442C64.6229 9.46019 68.008 9.75605 71.3858 9.81449C74.3819 9.86562 77.378 9.82544 80.4468 9.82544V4.86159C78.7087 5.52636 77.0834 6.46507 75.3491 6.74632C72.0803 7.27594 68.7497 7.4184 65.4482 7.74348C62.7467 8.00646 60.0088 8.10508 57.3581 8.63105C54.1984 9.25929 51.6932 11.0819 49.9479 13.8762H49.9516Z" fill="#566EB0"/>
<g filter="url(#filter0_b_318_894)">
<path d="M10.6055 49.5386V15.6155C29.9834 12.9016 37.8322 21.6463 39.3344 26.3578V61.4117C34.2646 55.1924 24.1249 55.7578 17.3652 55.1924C11.9574 54.7401 10.6055 51.2347 10.6055 49.5386Z" fill="#566EB0" fill-opacity="0.7"/>
</g>
<g filter="url(#filter1_b_318_894)">
<path d="M77.6387 48.9192V14.9961C58.2607 12.2823 50.4119 21.0269 48.9098 25.7384V60.7923C53.9796 54.573 64.1192 55.1384 70.8789 54.573C76.2867 54.1207 77.6387 50.6153 77.6387 48.9192Z" fill="#566EB0" fill-opacity="0.7"/>
</g>
</g>
<defs>
<filter id="filter0_b_318_894" x="2.60547" y="7.104" width="44.7285" height="62.3076" filterUnits="userSpaceOnUse" color-interpolation-filters="sRGB">
<feFlood flood-opacity="0" result="BackgroundImageFix"/>
<feGaussianBlur in="BackgroundImageFix" stdDeviation="4"/>
<feComposite in2="SourceAlpha" operator="in" result="effect1_backgroundBlur_318_894"/>
<feBlend mode="normal" in="SourceGraphic" in2="effect1_backgroundBlur_318_894" result="shape"/>
</filter>
<filter id="filter1_b_318_894" x="40.9102" y="6.48462" width="44.7285" height="62.3076" filterUnits="userSpaceOnUse" color-interpolation-filters="sRGB">
<feFlood flood-opacity="0" result="BackgroundImageFix"/>
<feGaussianBlur in="BackgroundImageFix" stdDeviation="4"/>
<feComposite in2="SourceAlpha" operator="in" result="effect1_backgroundBlur_318_894"/>
<feBlend mode="normal" in="SourceGraphic" in2="effect1_backgroundBlur_318_894" result="shape"/>
</filter>
<clipPath id="clip0_318_894">
<rect width="87.5368" height="77" fill="white"/>
</clipPath>
</defs>
</svg>