<svg width="40" height="40" viewBox="0 0 40 40" fill="none" xmlns="http://www.w3.org/2000/svg">
<path fill-rule="evenodd" clip-rule="evenodd" d="M22.4958 22.4956C20.4622 24.5939 20.3235 27.2099 20.1387 32.9409C25.4815 32.9409 29.1698 32.9225 31.074 31.0737C32.9227 29.1695 32.9412 25.3057 32.9412 20.1384C27.2101 20.3233 24.5941 20.462 22.4958 22.4956ZM19.8614 32.9409C14.5185 32.9409 10.8303 32.9225 8.92606 31.0737C7.07733 29.1695 7.05884 25.3057 7.05884 20.1384C12.7899 20.3233 15.4059 20.462 17.5042 22.4956C19.5378 24.5939 19.6765 27.2099 19.8614 32.9409ZM17.5042 17.504C15.4059 19.5376 12.7899 19.6762 7.05884 19.8611C7.05884 14.6939 7.07733 10.83 8.92606 8.92582C10.8303 7.07708 14.5277 7.05859 19.8614 7.05859C19.6765 12.7897 19.5378 15.4057 17.5042 17.504ZM20.1387 7.05859C20.3143 12.7897 20.4622 15.4057 22.4958 17.504C24.5941 19.5376 27.2101 19.6762 32.9412 19.8611C32.9412 14.6939 32.9227 10.83 31.074 8.92582C29.1698 7.07708 25.4815 7.05859 20.1387 7.05859Z" fill="white"/>
</svg>
